<?xml version="1.0" encoding="UTF-8" standalone="no"?>
<!DOCTYPE svg PUBLIC "-//W3C//DTD SVG 1.1//EN"
 "http://www.w3.org/Graphics/SVG/1.1/DTD/svg11.dtd">
<!-- Generated by graphviz version 2.49.1 (20211004.0028)
 -->
<!-- Title: snakemake_dag Pages: 1 -->
<svg width="1026pt" height="476pt"
 viewBox="0.00 0.00 1025.50 476.00" xmlns="http://www.w3.org/2000/svg" xmlns:xlink="http://www.w3.org/1999/xlink">
<g id="graph0" class="graph" transform="scale(1 1) rotate(0) translate(4 472)">
<title>snakemake_dag</title>
<polygon fill="white" stroke="transparent" points="-4,4 -4,-472 1021.5,-472 1021.5,4 -4,4"/>
<!-- 0 -->
<g id="node1" class="node">
<title>0</title>
<path fill="none" stroke="#d87556" stroke-width="2" d="M600,-36C600,-36 529,-36 529,-36 523,-36 517,-30 517,-24 517,-24 517,-12 517,-12 517,-6 523,0 529,0 529,0 600,0 600,0 606,0 612,-6 612,-12 612,-12 612,-24 612,-24 612,-30 606,-36 600,-36"/>
<text text-anchor="middle" x="564.5" y="-15.5" font-family="sans" font-size="10.00">make_summary</text>
</g>
<!-- 1 -->
<g id="node2" class="node">
<title>1</title>
<path fill="none" stroke="#d85656" stroke-width="2" d="M83,-108C83,-108 12,-108 12,-108 6,-108 0,-102 0,-96 0,-96 0,-84 0,-84 0,-78 6,-72 12,-72 12,-72 83,-72 83,-72 89,-72 95,-78 95,-84 95,-84 95,-96 95,-96 95,-102 89,-108 83,-108"/>
<text text-anchor="middle" x="47.5" y="-87.5" font-family="sans" font-size="10.00">make_rulegraph</text>
</g>
<!-- 1&#45;&gt;0 -->
<g id="edge1" class="edge">
<title>1&#45;&gt;0</title>
<path fill="none" stroke="grey" stroke-width="2" d="M95.24,-74.1C98.36,-73.33 101.47,-72.62 104.5,-72 247.48,-42.68 419.03,-28.29 506.71,-22.4"/>
<polygon fill="grey" stroke="grey" stroke-width="2" points="506.97,-25.89 516.72,-21.74 506.51,-18.91 506.97,-25.89"/>
</g>
<!-- 2 -->
<g id="node3" class="node">
<title>2</title>
<path fill="none" stroke="#afd856" stroke-width="2" d="M265.5,-108C265.5,-108 125.5,-108 125.5,-108 119.5,-108 113.5,-102 113.5,-96 113.5,-96 113.5,-84 113.5,-84 113.5,-78 119.5,-72 125.5,-72 125.5,-72 265.5,-72 265.5,-72 271.5,-72 277.5,-78 277.5,-84 277.5,-84 277.5,-96 277.5,-96 277.5,-102 271.5,-108 265.5,-108"/>
<text text-anchor="middle" x="195.5" y="-87.5" font-family="sans" font-size="10.00">get_early2020_mut_bind_expr</text>
</g>
<!-- 2&#45;&gt;0 -->
<g id="edge4" class="edge">
<title>2&#45;&gt;0</title>
<path fill="none" stroke="grey" stroke-width="2" d="M277.85,-73.38C347.47,-60.17 445.42,-41.59 506.9,-29.93"/>
<polygon fill="grey" stroke="grey" stroke-width="2" points="507.65,-33.35 516.82,-28.05 506.34,-26.47 507.65,-33.35"/>
</g>
<!-- 3 -->
<g id="node4" class="node">
<title>3</title>
<path fill="none" stroke="#569ad8" stroke-width="2" d="M515,-180C515,-180 384,-180 384,-180 378,-180 372,-174 372,-168 372,-168 372,-156 372,-156 372,-150 378,-144 384,-144 384,-144 515,-144 515,-144 521,-144 527,-150 527,-156 527,-156 527,-168 527,-168 527,-174 521,-180 515,-180"/>
<text text-anchor="middle" x="449.5" y="-159.5" font-family="sans" font-size="10.00">get_early2020_escape_fracs</text>
</g>
<!-- 3&#45;&gt;0 -->
<g id="edge11" class="edge">
<title>3&#45;&gt;0</title>
<path fill="none" stroke="grey" stroke-width="2" d="M449.09,-143.89C449.48,-124.61 452.78,-93.19 468.5,-72 478.46,-58.58 492.87,-48.13 507.52,-40.19"/>
<polygon fill="grey" stroke="grey" stroke-width="2" points="509.3,-43.22 516.63,-35.57 506.13,-36.97 509.3,-43.22"/>
</g>
<!-- 4 -->
<g id="node5" class="node">
<title>4</title>
<path fill="none" stroke="#56d86b" stroke-width="2" d="M563.5,-108C563.5,-108 489.5,-108 489.5,-108 483.5,-108 477.5,-102 477.5,-96 477.5,-96 477.5,-84 477.5,-84 477.5,-78 483.5,-72 489.5,-72 489.5,-72 563.5,-72 563.5,-72 569.5,-72 575.5,-78 575.5,-84 575.5,-84 575.5,-96 575.5,-96 575.5,-102 569.5,-108 563.5,-108"/>
<text text-anchor="middle" x="526.5" y="-87.5" font-family="sans" font-size="10.00">bind_expr_filters</text>
</g>
<!-- 3&#45;&gt;4 -->
<g id="edge14" class="edge">
<title>3&#45;&gt;4</title>
<path fill="none" stroke="grey" stroke-width="2" d="M468.53,-143.7C478.04,-135.05 489.71,-124.45 500.07,-115.03"/>
<polygon fill="grey" stroke="grey" stroke-width="2" points="502.64,-117.42 507.69,-108.1 497.93,-112.24 502.64,-117.42"/>
</g>
<!-- 4&#45;&gt;0 -->
<g id="edge7" class="edge">
<title>4&#45;&gt;0</title>
<path fill="none" stroke="grey" stroke-width="2" d="M535.89,-71.7C540.26,-63.64 545.56,-53.89 550.4,-44.98"/>
<polygon fill="grey" stroke="grey" stroke-width="2" points="553.52,-46.56 555.21,-36.1 547.37,-43.22 553.52,-46.56"/>
</g>
<!-- 5 -->
<g id="node6" class="node">
<title>5</title>
<path fill="none" stroke="#68d856" stroke-width="2" d="M627.5,-180C627.5,-180 557.5,-180 557.5,-180 551.5,-180 545.5,-174 545.5,-168 545.5,-168 545.5,-156 545.5,-156 545.5,-150 551.5,-144 557.5,-144 557.5,-144 627.5,-144 627.5,-144 633.5,-144 639.5,-150 639.5,-156 639.5,-156 639.5,-168 639.5,-168 639.5,-174 633.5,-180 627.5,-180"/>
<text text-anchor="middle" x="592.5" y="-159.5" font-family="sans" font-size="10.00">collapse_scores</text>
</g>
<!-- 5&#45;&gt;0 -->
<g id="edge5" class="edge">
<title>5&#45;&gt;0</title>
<path fill="none" stroke="grey" stroke-width="2" d="M592.33,-143.72C591.83,-125.63 590.11,-96.5 584.5,-72 582.5,-63.28 579.4,-54.06 576.22,-45.8"/>
<polygon fill="grey" stroke="grey" stroke-width="2" points="579.38,-44.26 572.39,-36.3 572.89,-46.88 579.38,-44.26"/>
</g>
<!-- 5&#45;&gt;4 -->
<g id="edge13" class="edge">
<title>5&#45;&gt;4</title>
<path fill="none" stroke="grey" stroke-width="2" d="M576.19,-143.7C568.19,-135.22 558.43,-124.86 549.68,-115.58"/>
<polygon fill="grey" stroke="grey" stroke-width="2" points="552.03,-112.98 542.63,-108.1 546.94,-117.78 552.03,-112.98"/>
</g>
<!-- 6 -->
<g id="node7" class="node">
<title>6</title>
<path fill="none" stroke="#d8bc56" stroke-width="2" d="M529.5,-252C529.5,-252 477.5,-252 477.5,-252 471.5,-252 465.5,-246 465.5,-240 465.5,-240 465.5,-228 465.5,-228 465.5,-222 471.5,-216 477.5,-216 477.5,-216 529.5,-216 529.5,-216 535.5,-216 541.5,-222 541.5,-228 541.5,-228 541.5,-240 541.5,-240 541.5,-246 535.5,-252 529.5,-252"/>
<text text-anchor="middle" x="503.5" y="-231.5" font-family="sans" font-size="10.00">fit_titrations</text>
</g>
<!-- 6&#45;&gt;0 -->
<g id="edge3" class="edge">
<title>6&#45;&gt;0</title>
<path fill="none" stroke="grey" stroke-width="2" d="M465.43,-230.28C432.1,-225.65 385.5,-213.22 362.5,-180 353.39,-166.85 355.69,-158.48 362.5,-144 389.57,-86.45 457.34,-52.87 506.94,-35.27"/>
<polygon fill="grey" stroke="grey" stroke-width="2" points="508.27,-38.52 516.6,-31.96 506,-31.89 508.27,-38.52"/>
</g>
<!-- 6&#45;&gt;5 -->
<g id="edge16" class="edge">
<title>6&#45;&gt;5</title>
<path fill="none" stroke="grey" stroke-width="2" d="M525.5,-215.7C536.71,-206.88 550.5,-196.03 562.65,-186.47"/>
<polygon fill="grey" stroke="grey" stroke-width="2" points="565.06,-189.04 570.75,-180.1 560.73,-183.54 565.06,-189.04"/>
</g>
<!-- 7 -->
<g id="node8" class="node">
<title>7</title>
<path fill="none" stroke="#56d88a" stroke-width="2" d="M694.5,-324C694.5,-324 632.5,-324 632.5,-324 626.5,-324 620.5,-318 620.5,-312 620.5,-312 620.5,-300 620.5,-300 620.5,-294 626.5,-288 632.5,-288 632.5,-288 694.5,-288 694.5,-288 700.5,-288 706.5,-294 706.5,-300 706.5,-300 706.5,-312 706.5,-312 706.5,-318 700.5,-324 694.5,-324"/>
<text text-anchor="middle" x="663.5" y="-303.5" font-family="sans" font-size="10.00">build_variants</text>
</g>
<!-- 7&#45;&gt;0 -->
<g id="edge8" class="edge">
<title>7&#45;&gt;0</title>
<path fill="none" stroke="grey" stroke-width="2" d="M706.57,-303.58C745.71,-299.88 802.12,-288.09 834.5,-252 887.96,-192.4 886.46,-126.16 827.5,-72 798.13,-45.03 690.41,-30.43 622.28,-23.71"/>
<polygon fill="grey" stroke="grey" stroke-width="2" points="622.4,-20.21 612.11,-22.74 621.73,-27.18 622.4,-20.21"/>
</g>
<!-- 7&#45;&gt;6 -->
<g id="edge17" class="edge">
<title>7&#45;&gt;6</title>
<path fill="none" stroke="grey" stroke-width="2" d="M624.36,-287.88C602.24,-278.2 574.43,-266.03 551.06,-255.81"/>
<polygon fill="grey" stroke="grey" stroke-width="2" points="552.25,-252.51 541.68,-251.71 549.44,-258.92 552.25,-252.51"/>
</g>
<!-- 10 -->
<g id="node11" class="node">
<title>10</title>
<path fill="none" stroke="#56d8d0" stroke-width="2" d="M667,-252C667,-252 572,-252 572,-252 566,-252 560,-246 560,-240 560,-240 560,-228 560,-228 560,-222 566,-216 572,-216 572,-216 667,-216 667,-216 673,-216 679,-222 679,-228 679,-228 679,-240 679,-240 679,-246 673,-252 667,-252"/>
<text text-anchor="middle" x="619.5" y="-231.5" font-family="sans" font-size="10.00">calculate_expression</text>
</g>
<!-- 7&#45;&gt;10 -->
<g id="edge20" class="edge">
<title>7&#45;&gt;10</title>
<path fill="none" stroke="grey" stroke-width="2" d="M652.62,-287.7C647.51,-279.56 641.3,-269.69 635.66,-260.7"/>
<polygon fill="grey" stroke="grey" stroke-width="2" points="638.54,-258.71 630.25,-252.1 632.61,-262.43 638.54,-258.71"/>
</g>
<!-- 11 -->
<g id="node12" class="node">
<title>11</title>
<path fill="none" stroke="#567bd8" stroke-width="2" d="M827,-180C827,-180 708,-180 708,-180 702,-180 696,-174 696,-168 696,-168 696,-156 696,-156 696,-150 702,-144 708,-144 708,-144 827,-144 827,-144 833,-144 839,-150 839,-156 839,-156 839,-168 839,-168 839,-174 833,-180 827,-180"/>
<text text-anchor="middle" x="767.5" y="-159.5" font-family="sans" font-size="10.00">aggregate_variant_counts</text>
</g>
<!-- 7&#45;&gt;11 -->
<g id="edge21" class="edge">
<title>7&#45;&gt;11</title>
<path fill="none" stroke="grey" stroke-width="2" d="M675.65,-287.85C688.44,-269.87 709.21,-240.82 727.5,-216 734.24,-206.86 741.71,-196.9 748.36,-188.11"/>
<polygon fill="grey" stroke="grey" stroke-width="2" points="751.18,-190.19 754.43,-180.11 745.6,-185.96 751.18,-190.19"/>
</g>
<!-- 12 -->
<g id="node13" class="node">
<title>12</title>
<path fill="none" stroke="#56d8a9" stroke-width="2" d="M813,-252C813,-252 748,-252 748,-252 742,-252 736,-246 736,-240 736,-240 736,-228 736,-228 736,-222 742,-216 748,-216 748,-216 813,-216 813,-216 819,-216 825,-222 825,-228 825,-228 825,-240 825,-240 825,-246 819,-252 813,-252"/>
<text text-anchor="middle" x="780.5" y="-231.5" font-family="sans" font-size="10.00">count_variants</text>
</g>
<!-- 7&#45;&gt;12 -->
<g id="edge23" class="edge">
<title>7&#45;&gt;12</title>
<path fill="none" stroke="grey" stroke-width="2" d="M692.12,-287.88C707.42,-278.72 726.44,-267.34 742.92,-257.48"/>
<polygon fill="grey" stroke="grey" stroke-width="2" points="744.98,-260.33 751.77,-252.19 741.39,-254.32 744.98,-260.33"/>
</g>
<!-- 8 -->
<g id="node9" class="node">
<title>8</title>
<path fill="none" stroke="#56c1d8" stroke-width="2" d="M481,-396C481,-396 430,-396 430,-396 424,-396 418,-390 418,-384 418,-384 418,-372 418,-372 418,-366 424,-360 430,-360 430,-360 481,-360 481,-360 487,-360 493,-366 493,-372 493,-372 493,-384 493,-384 493,-390 487,-396 481,-396"/>
<text text-anchor="middle" x="455.5" y="-375.5" font-family="sans" font-size="10.00">process_ccs</text>
</g>
<!-- 8&#45;&gt;0 -->
<g id="edge10" class="edge">
<title>8&#45;&gt;0</title>
<path fill="none" stroke="grey" stroke-width="2" d="M417.65,-361.09C373.21,-339.58 305.5,-296.68 305.5,-235 305.5,-235 305.5,-235 305.5,-161 305.5,-69.72 430.73,-36.72 507.03,-25.09"/>
<polygon fill="grey" stroke="grey" stroke-width="2" points="507.6,-28.55 517,-23.65 506.6,-21.62 507.6,-28.55"/>
</g>
<!-- 8&#45;&gt;7 -->
<g id="edge18" class="edge">
<title>8&#45;&gt;7</title>
<path fill="none" stroke="grey" stroke-width="2" d="M493.17,-364.32C526.05,-353.26 574.12,-337.08 610.82,-324.73"/>
<polygon fill="grey" stroke="grey" stroke-width="2" points="612,-328.02 620.36,-321.52 609.77,-321.39 612,-328.02"/>
</g>
<!-- 9 -->
<g id="node10" class="node">
<title>9</title>
<path fill="none" stroke="#ced856" stroke-width="2" d="M470.5,-468C470.5,-468 440.5,-468 440.5,-468 434.5,-468 428.5,-462 428.5,-456 428.5,-456 428.5,-444 428.5,-444 428.5,-438 434.5,-432 440.5,-432 440.5,-432 470.5,-432 470.5,-432 476.5,-432 482.5,-438 482.5,-444 482.5,-444 482.5,-456 482.5,-456 482.5,-462 476.5,-468 470.5,-468"/>
<text text-anchor="middle" x="455.5" y="-447.5" font-family="sans" font-size="10.00">get_ccs</text>
</g>
<!-- 9&#45;&gt;8 -->
<g id="edge19" class="edge">
<title>9&#45;&gt;8</title>
<path fill="none" stroke="grey" stroke-width="2" d="M455.5,-431.7C455.5,-423.98 455.5,-414.71 455.5,-406.11"/>
<polygon fill="grey" stroke="grey" stroke-width="2" points="459,-406.1 455.5,-396.1 452,-406.1 459,-406.1"/>
</g>
<!-- 10&#45;&gt;0 -->
<g id="edge9" class="edge">
<title>10&#45;&gt;0</title>
<path fill="none" stroke="grey" stroke-width="2" d="M631.81,-215.78C638.15,-205.84 645.23,-192.8 648.5,-180 652.46,-164.5 653.06,-159.34 648.5,-144 636.96,-105.22 608.68,-67.65 588.11,-43.99"/>
<polygon fill="grey" stroke="grey" stroke-width="2" points="590.46,-41.37 581.2,-36.23 585.23,-46.02 590.46,-41.37"/>
</g>
<!-- 10&#45;&gt;5 -->
<g id="edge15" class="edge">
<title>10&#45;&gt;5</title>
<path fill="none" stroke="grey" stroke-width="2" d="M612.83,-215.7C609.79,-207.81 606.12,-198.3 602.74,-189.55"/>
<polygon fill="grey" stroke="grey" stroke-width="2" points="605.96,-188.17 599.1,-180.1 599.43,-190.69 605.96,-188.17"/>
</g>
<!-- 11&#45;&gt;0 -->
<g id="edge12" class="edge">
<title>11&#45;&gt;0</title>
<path fill="none" stroke="grey" stroke-width="2" d="M786.34,-143.95C805,-125.01 828.4,-94.16 810.5,-72 787.28,-43.24 687.29,-29.35 622.16,-23.23"/>
<polygon fill="grey" stroke="grey" stroke-width="2" points="622.3,-19.73 612.02,-22.31 621.67,-26.7 622.3,-19.73"/>
</g>
<!-- 13 -->
<g id="node14" class="node">
<title>13</title>
<path fill="none" stroke="#88d856" stroke-width="2" d="M789,-108C789,-108 694,-108 694,-108 688,-108 682,-102 682,-96 682,-96 682,-84 682,-84 682,-78 688,-72 694,-72 694,-72 789,-72 789,-72 795,-72 801,-78 801,-84 801,-84 801,-96 801,-96 801,-102 795,-108 789,-108"/>
<text text-anchor="middle" x="741.5" y="-87.5" font-family="sans" font-size="10.00">counts_to_cells_ratio</text>
</g>
<!-- 11&#45;&gt;13 -->
<g id="edge24" class="edge">
<title>11&#45;&gt;13</title>
<path fill="none" stroke="grey" stroke-width="2" d="M761.07,-143.7C758.14,-135.81 754.61,-126.3 751.36,-117.55"/>
<polygon fill="grey" stroke="grey" stroke-width="2" points="754.62,-116.26 747.85,-108.1 748.05,-118.7 754.62,-116.26"/>
</g>
<!-- 12&#45;&gt;11 -->
<g id="edge22" class="edge">
<title>12&#45;&gt;11</title>
<path fill="none" stroke="grey" stroke-width="2" d="M777.29,-215.7C775.85,-207.98 774.13,-198.71 772.54,-190.11"/>
<polygon fill="grey" stroke="grey" stroke-width="2" points="775.94,-189.3 770.68,-180.1 769.06,-190.58 775.94,-189.3"/>
</g>
<!-- 13&#45;&gt;0 -->
<g id="edge6" class="edge">
<title>13&#45;&gt;0</title>
<path fill="none" stroke="grey" stroke-width="2" d="M698.2,-71.88C673.79,-62.22 643.1,-50.09 617.29,-39.88"/>
<polygon fill="grey" stroke="grey" stroke-width="2" points="618.24,-36.49 607.66,-36.07 615.67,-43 618.24,-36.49"/>
</g>
<!-- 14 -->
<g id="node15" class="node">
<title>14</title>
<path fill="none" stroke="#d89c56" stroke-width="2" d="M1005.5,-108C1005.5,-108 907.5,-108 907.5,-108 901.5,-108 895.5,-102 895.5,-96 895.5,-96 895.5,-84 895.5,-84 895.5,-78 901.5,-72 907.5,-72 907.5,-72 1005.5,-72 1005.5,-72 1011.5,-72 1017.5,-78 1017.5,-84 1017.5,-84 1017.5,-96 1017.5,-96 1017.5,-102 1011.5,-108 1005.5,-108"/>
<text text-anchor="middle" x="956.5" y="-87.5" font-family="sans" font-size="10.00">gisaid_rbd_mutations</text>
</g>
<!-- 14&#45;&gt;0 -->
<g id="edge2" class="edge">
<title>14&#45;&gt;0</title>
<path fill="none" stroke="grey" stroke-width="2" d="M895.17,-74.8C890.55,-73.82 885.95,-72.88 881.5,-72 791.39,-54.27 686.12,-37.43 622.42,-27.67"/>
<polygon fill="grey" stroke="grey" stroke-width="2" points="622.6,-24.15 612.18,-26.1 621.54,-31.07 622.6,-24.15"/>
</g>
</g>
</svg>
