<?xml version="1.0" encoding="UTF-8" standalone="no"?>
<!DOCTYPE svg PUBLIC "-//W3C//DTD SVG 1.1//EN"
 "http://www.w3.org/Graphics/SVG/1.1/DTD/svg11.dtd">
<!-- Generated by graphviz version 2.49.1 (20211004.0028)
 -->
<!-- Title: snakemake_dag Pages: 1 -->
<svg width="1880pt" height="692pt"
 viewBox="0.00 0.00 1879.50 692.00" xmlns="http://www.w3.org/2000/svg" xmlns:xlink="http://www.w3.org/1999/xlink">
<g id="graph0" class="graph" transform="scale(1 1) rotate(0) translate(4 688)">
<title>snakemake_dag</title>
<polygon fill="white" stroke="transparent" points="-4,4 -4,-688 1875.5,-688 1875.5,4 -4,4"/>
<!-- 0 -->
<g id="node1" class="node">
<title>0</title>
<path fill="none" stroke="#78d856" stroke-width="2" d="M1133,-36C1133,-36 1062,-36 1062,-36 1056,-36 1050,-30 1050,-24 1050,-24 1050,-12 1050,-12 1050,-6 1056,0 1062,0 1062,0 1133,0 1133,0 1139,0 1145,-6 1145,-12 1145,-12 1145,-24 1145,-24 1145,-30 1139,-36 1133,-36"/>
<text text-anchor="middle" x="1097.5" y="-15.5" font-family="sans" font-size="10.00">make_summary</text>
</g>
<!-- 1 -->
<g id="node2" class="node">
<title>1</title>
<path fill="none" stroke="#56d87b" stroke-width="2" d="M83,-108C83,-108 12,-108 12,-108 6,-108 0,-102 0,-96 0,-96 0,-84 0,-84 0,-78 6,-72 12,-72 12,-72 83,-72 83,-72 89,-72 95,-78 95,-84 95,-84 95,-96 95,-96 95,-102 89,-108 83,-108"/>
<text text-anchor="middle" x="47.5" y="-87.5" font-family="sans" font-size="10.00">make_rulegraph</text>
</g>
<!-- 1&#45;&gt;0 -->
<g id="edge16" class="edge">
<title>1&#45;&gt;0</title>
<path fill="none" stroke="grey" stroke-width="2" d="M95,-74.87C99.87,-73.76 104.76,-72.77 109.5,-72 290.49,-42.68 856.68,-25.4 1039.77,-20.47"/>
<polygon fill="grey" stroke="grey" stroke-width="2" points="1040.09,-23.97 1049.99,-20.2 1039.9,-16.97 1040.09,-23.97"/>
</g>
<!-- 2 -->
<g id="node3" class="node">
<title>2</title>
<path fill="none" stroke="#d8b456" stroke-width="2" d="M495.5,-180C495.5,-180 355.5,-180 355.5,-180 349.5,-180 343.5,-174 343.5,-168 343.5,-168 343.5,-156 343.5,-156 343.5,-150 349.5,-144 355.5,-144 355.5,-144 495.5,-144 495.5,-144 501.5,-144 507.5,-150 507.5,-156 507.5,-156 507.5,-168 507.5,-168 507.5,-174 501.5,-180 495.5,-180"/>
<text text-anchor="middle" x="425.5" y="-159.5" font-family="sans" font-size="10.00">get_early2020_mut_bind_expr</text>
</g>
<!-- 2&#45;&gt;0 -->
<g id="edge7" class="edge">
<title>2&#45;&gt;0</title>
<path fill="none" stroke="grey" stroke-width="2" d="M437.67,-143.69C453.56,-122.63 483.52,-87.93 518.5,-72 610.31,-30.19 911.72,-21.36 1039.46,-19.5"/>
<polygon fill="grey" stroke="grey" stroke-width="2" points="1039.86,-22.99 1049.82,-19.36 1039.77,-15.99 1039.86,-22.99"/>
</g>
<!-- 20 -->
<g id="node21" class="node">
<title>20</title>
<path fill="none" stroke="#56d8b1" stroke-width="2" d="M661.5,-108C661.5,-108 539.5,-108 539.5,-108 533.5,-108 527.5,-102 527.5,-96 527.5,-96 527.5,-84 527.5,-84 527.5,-78 533.5,-72 539.5,-72 539.5,-72 661.5,-72 661.5,-72 667.5,-72 673.5,-78 673.5,-84 673.5,-84 673.5,-96 673.5,-96 673.5,-102 667.5,-108 661.5,-108"/>
<text text-anchor="middle" x="600.5" y="-87.5" font-family="sans" font-size="10.00">early2020_escape_profiles</text>
</g>
<!-- 2&#45;&gt;20 -->
<g id="edge48" class="edge">
<title>2&#45;&gt;20</title>
<path fill="none" stroke="grey" stroke-width="2" d="M468.31,-143.88C492.45,-134.22 522.78,-122.09 548.31,-111.88"/>
<polygon fill="grey" stroke="grey" stroke-width="2" points="549.84,-115.03 557.83,-108.07 547.24,-108.53 549.84,-115.03"/>
</g>
<!-- 3 -->
<g id="node4" class="node">
<title>3</title>
<path fill="none" stroke="#56c9d8" stroke-width="2" d="M807,-252C807,-252 676,-252 676,-252 670,-252 664,-246 664,-240 664,-240 664,-228 664,-228 664,-222 670,-216 676,-216 676,-216 807,-216 807,-216 813,-216 819,-222 819,-228 819,-228 819,-240 819,-240 819,-246 813,-252 807,-252"/>
<text text-anchor="middle" x="741.5" y="-231.5" font-family="sans" font-size="10.00">get_early2020_escape_fracs</text>
</g>
<!-- 3&#45;&gt;0 -->
<g id="edge21" class="edge">
<title>3&#45;&gt;0</title>
<path fill="none" stroke="grey" stroke-width="2" d="M749.53,-216C766.16,-182.72 807.71,-109 865.5,-72 918.29,-38.2 989.98,-25.85 1039.64,-21.39"/>
<polygon fill="grey" stroke="grey" stroke-width="2" points="1040.21,-24.86 1049.89,-20.56 1039.64,-17.88 1040.21,-24.86"/>
</g>
<!-- 5 -->
<g id="node6" class="node">
<title>5</title>
<path fill="none" stroke="#d8a456" stroke-width="2" d="M275.5,-180C275.5,-180 201.5,-180 201.5,-180 195.5,-180 189.5,-174 189.5,-168 189.5,-168 189.5,-156 189.5,-156 189.5,-150 195.5,-144 201.5,-144 201.5,-144 275.5,-144 275.5,-144 281.5,-144 287.5,-150 287.5,-156 287.5,-156 287.5,-168 287.5,-168 287.5,-174 281.5,-180 275.5,-180"/>
<text text-anchor="middle" x="238.5" y="-159.5" font-family="sans" font-size="10.00">bind_expr_filters</text>
</g>
<!-- 3&#45;&gt;5 -->
<g id="edge26" class="edge">
<title>3&#45;&gt;5</title>
<path fill="none" stroke="grey" stroke-width="2" d="M663.7,-223.94C581.68,-214.14 448.77,-197.55 334.5,-180 322.61,-178.17 309.91,-176.05 297.79,-173.94"/>
<polygon fill="grey" stroke="grey" stroke-width="2" points="298.22,-170.46 287.76,-172.17 297,-177.35 298.22,-170.46"/>
</g>
<!-- 19 -->
<g id="node20" class="node">
<title>19</title>
<path fill="none" stroke="#c6d856" stroke-width="2" d="M743.5,-180C743.5,-180 575.5,-180 575.5,-180 569.5,-180 563.5,-174 563.5,-168 563.5,-168 563.5,-156 563.5,-156 563.5,-150 569.5,-144 575.5,-144 575.5,-144 743.5,-144 743.5,-144 749.5,-144 755.5,-150 755.5,-156 755.5,-156 755.5,-168 755.5,-168 755.5,-174 749.5,-180 743.5,-180"/>
<text text-anchor="middle" x="659.5" y="-159.5" font-family="sans" font-size="10.00">early2020_call_strong_escape_sites</text>
</g>
<!-- 3&#45;&gt;19 -->
<g id="edge46" class="edge">
<title>3&#45;&gt;19</title>
<path fill="none" stroke="grey" stroke-width="2" d="M721.23,-215.7C711,-206.97 698.44,-196.24 687.32,-186.75"/>
<polygon fill="grey" stroke="grey" stroke-width="2" points="689.41,-183.94 679.54,-180.1 684.87,-189.26 689.41,-183.94"/>
</g>
<!-- 3&#45;&gt;20 -->
<g id="edge49" class="edge">
<title>3&#45;&gt;20</title>
<path fill="none" stroke="grey" stroke-width="2" d="M663.86,-220.65C618.73,-211.71 568.13,-198.04 554.5,-180 539.36,-159.97 555.92,-134.22 573.25,-115.58"/>
<polygon fill="grey" stroke="grey" stroke-width="2" points="576.12,-117.65 580.63,-108.06 571.13,-112.75 576.12,-117.65"/>
</g>
<!-- 21 -->
<g id="node22" class="node">
<title>21</title>
<path fill="none" stroke="#d85656" stroke-width="2" d="M957,-180C957,-180 862,-180 862,-180 856,-180 850,-174 850,-168 850,-168 850,-156 850,-156 850,-150 856,-144 862,-144 862,-144 957,-144 957,-144 963,-144 969,-150 969,-156 969,-156 969,-168 969,-168 969,-174 963,-180 957,-180"/>
<text text-anchor="middle" x="909.5" y="-159.5" font-family="sans" font-size="10.00">mds_escape_profiles</text>
</g>
<!-- 3&#45;&gt;21 -->
<g id="edge52" class="edge">
<title>3&#45;&gt;21</title>
<path fill="none" stroke="grey" stroke-width="2" d="M782.6,-215.88C805.67,-206.26 834.64,-194.19 859.07,-184.01"/>
<polygon fill="grey" stroke="grey" stroke-width="2" points="860.65,-187.15 868.54,-180.07 857.96,-180.68 860.65,-187.15"/>
</g>
<!-- 24 -->
<g id="node25" class="node">
<title>24</title>
<path fill="none" stroke="#56d88a" stroke-width="2" d="M1284,-180C1284,-180 1199,-180 1199,-180 1193,-180 1187,-174 1187,-168 1187,-168 1187,-156 1187,-156 1187,-150 1193,-144 1199,-144 1199,-144 1284,-144 1284,-144 1290,-144 1296,-150 1296,-156 1296,-156 1296,-168 1296,-168 1296,-174 1290,-180 1284,-180"/>
<text text-anchor="middle" x="1241.5" y="-159.5" font-family="sans" font-size="10.00">lineplots_by_group</text>
</g>
<!-- 3&#45;&gt;24 -->
<g id="edge58" class="edge">
<title>3&#45;&gt;24</title>
<path fill="none" stroke="grey" stroke-width="2" d="M819.23,-217.45C822.36,-216.94 825.46,-216.45 828.5,-216 979.85,-193.48 1022.9,-207.81 1176.69,-180.17"/>
<polygon fill="grey" stroke="grey" stroke-width="2" points="1177.78,-183.53 1186.99,-178.29 1176.52,-176.64 1177.78,-183.53"/>
</g>
<!-- 27 -->
<g id="node28" class="node">
<title>27</title>
<path fill="none" stroke="#568ad8" stroke-width="2" d="M1157,-180C1157,-180 1038,-180 1038,-180 1032,-180 1026,-174 1026,-168 1026,-168 1026,-156 1026,-156 1026,-150 1032,-144 1038,-144 1038,-144 1157,-144 1157,-144 1163,-144 1169,-150 1169,-156 1169,-156 1169,-168 1169,-168 1169,-174 1163,-180 1157,-180"/>
<text text-anchor="middle" x="1097.5" y="-159.5" font-family="sans" font-size="10.00">aggregate_escape_scores</text>
</g>
<!-- 3&#45;&gt;27 -->
<g id="edge64" class="edge">
<title>3&#45;&gt;27</title>
<path fill="none" stroke="grey" stroke-width="2" d="M819.19,-217.72C877.3,-206.3 956.6,-190.7 1015.69,-179.09"/>
<polygon fill="grey" stroke="grey" stroke-width="2" points="1016.6,-182.48 1025.73,-177.11 1015.25,-175.61 1016.6,-182.48"/>
</g>
<!-- 4 -->
<g id="node5" class="node">
<title>4</title>
<path fill="none" stroke="#68d856" stroke-width="2" d="M1117.5,-252C1117.5,-252 1013.5,-252 1013.5,-252 1007.5,-252 1001.5,-246 1001.5,-240 1001.5,-240 1001.5,-228 1001.5,-228 1001.5,-222 1007.5,-216 1013.5,-216 1013.5,-216 1117.5,-216 1117.5,-216 1123.5,-216 1129.5,-222 1129.5,-228 1129.5,-228 1129.5,-240 1129.5,-240 1129.5,-246 1123.5,-252 1117.5,-252"/>
<text text-anchor="middle" x="1065.5" y="-231.5" font-family="sans" font-size="10.00">get_beta_escape_fracs</text>
</g>
<!-- 4&#45;&gt;0 -->
<g id="edge13" class="edge">
<title>4&#45;&gt;0</title>
<path fill="none" stroke="grey" stroke-width="2" d="M1043.35,-215.87C1033.09,-206.52 1021.98,-194 1016.5,-180 1010.67,-165.1 1011.96,-159.34 1016.5,-144 1027.85,-105.62 1055.07,-67.97 1074.84,-44.18"/>
<polygon fill="grey" stroke="grey" stroke-width="2" points="1077.67,-46.26 1081.48,-36.37 1072.33,-41.72 1077.67,-46.26"/>
</g>
<!-- 4&#45;&gt;21 -->
<g id="edge51" class="edge">
<title>4&#45;&gt;21</title>
<path fill="none" stroke="grey" stroke-width="2" d="M1027.34,-215.88C1006.11,-206.35 979.49,-194.41 956.93,-184.28"/>
<polygon fill="grey" stroke="grey" stroke-width="2" points="958.09,-180.97 947.54,-180.07 955.23,-187.36 958.09,-180.97"/>
</g>
<!-- 4&#45;&gt;24 -->
<g id="edge57" class="edge">
<title>4&#45;&gt;24</title>
<path fill="none" stroke="grey" stroke-width="2" d="M1108.55,-215.88C1132.83,-206.22 1163.34,-194.09 1189.01,-183.88"/>
<polygon fill="grey" stroke="grey" stroke-width="2" points="1190.59,-187.02 1198.59,-180.07 1188,-180.51 1190.59,-187.02"/>
</g>
<!-- 4&#45;&gt;27 -->
<g id="edge63" class="edge">
<title>4&#45;&gt;27</title>
<path fill="none" stroke="grey" stroke-width="2" d="M1073.41,-215.7C1077.05,-207.73 1081.45,-198.1 1085.49,-189.26"/>
<polygon fill="grey" stroke="grey" stroke-width="2" points="1088.71,-190.65 1089.68,-180.1 1082.34,-187.74 1088.71,-190.65"/>
</g>
<!-- 5&#45;&gt;0 -->
<g id="edge6" class="edge">
<title>5&#45;&gt;0</title>
<path fill="none" stroke="grey" stroke-width="2" d="M245.22,-143.68C254.42,-122.62 273.09,-87.91 301.5,-72 365.41,-36.2 867.28,-23.37 1039.63,-20"/>
<polygon fill="grey" stroke="grey" stroke-width="2" points="1039.84,-23.5 1049.77,-19.81 1039.71,-16.5 1039.84,-23.5"/>
</g>
<!-- 6 -->
<g id="node7" class="node">
<title>6</title>
<path fill="none" stroke="#56d8d8" stroke-width="2" d="M1009.5,-396C1009.5,-396 939.5,-396 939.5,-396 933.5,-396 927.5,-390 927.5,-384 927.5,-384 927.5,-372 927.5,-372 927.5,-366 933.5,-360 939.5,-360 939.5,-360 1009.5,-360 1009.5,-360 1015.5,-360 1021.5,-366 1021.5,-372 1021.5,-372 1021.5,-384 1021.5,-384 1021.5,-390 1015.5,-396 1009.5,-396"/>
<text text-anchor="middle" x="974.5" y="-375.5" font-family="sans" font-size="10.00">collapse_scores</text>
</g>
<!-- 6&#45;&gt;0 -->
<g id="edge22" class="edge">
<title>6&#45;&gt;0</title>
<path fill="none" stroke="grey" stroke-width="2" d="M927.37,-376.9C776.54,-375.34 315.5,-360.3 315.5,-235 315.5,-235 315.5,-235 315.5,-161 315.5,-124.06 209.33,-149.18 466.5,-72 572.97,-40.05 905,-25.5 1039.78,-20.8"/>
<polygon fill="grey" stroke="grey" stroke-width="2" points="1040.03,-24.3 1049.9,-20.46 1039.79,-17.3 1040.03,-24.3"/>
</g>
<!-- 6&#45;&gt;5 -->
<g id="edge27" class="edge">
<title>6&#45;&gt;5</title>
<path fill="none" stroke="grey" stroke-width="2" d="M927.4,-376.15C782.72,-373.14 351.54,-361.12 301.5,-324 258.71,-292.26 244.97,-227.15 240.57,-190.19"/>
<polygon fill="grey" stroke="grey" stroke-width="2" points="244.04,-189.71 239.52,-180.13 237.08,-190.44 244.04,-189.71"/>
</g>
<!-- 15 -->
<g id="node16" class="node">
<title>15</title>
<path fill="none" stroke="#59d856" stroke-width="2" d="M1330,-324C1330,-324 1253,-324 1253,-324 1247,-324 1241,-318 1241,-312 1241,-312 1241,-300 1241,-300 1241,-294 1247,-288 1253,-288 1253,-288 1330,-288 1330,-288 1336,-288 1342,-294 1342,-300 1342,-300 1342,-312 1342,-312 1342,-318 1336,-324 1330,-324"/>
<text text-anchor="middle" x="1291.5" y="-303.5" font-family="sans" font-size="10.00">counts_to_scores</text>
</g>
<!-- 6&#45;&gt;15 -->
<g id="edge38" class="edge">
<title>6&#45;&gt;15</title>
<path fill="none" stroke="grey" stroke-width="2" d="M1021.62,-366.6C1077.33,-354.29 1170.16,-333.79 1231.11,-320.34"/>
<polygon fill="grey" stroke="grey" stroke-width="2" points="1231.97,-323.73 1240.98,-318.16 1230.46,-316.9 1231.97,-323.73"/>
</g>
<!-- 16 -->
<g id="node17" class="node">
<title>16</title>
<path fill="none" stroke="#56d8a2" stroke-width="2" d="M933.5,-252C933.5,-252 849.5,-252 849.5,-252 843.5,-252 837.5,-246 837.5,-240 837.5,-240 837.5,-228 837.5,-228 837.5,-222 843.5,-216 849.5,-216 849.5,-216 933.5,-216 933.5,-216 939.5,-216 945.5,-222 945.5,-228 945.5,-228 945.5,-240 945.5,-240 945.5,-246 939.5,-252 933.5,-252"/>
<text text-anchor="middle" x="891.5" y="-231.5" font-family="sans" font-size="10.00">investigate_scores</text>
</g>
<!-- 6&#45;&gt;16 -->
<g id="edge41" class="edge">
<title>6&#45;&gt;16</title>
<path fill="none" stroke="grey" stroke-width="2" d="M964.49,-359.87C950.09,-335.24 923.44,-289.64 906.63,-260.88"/>
<polygon fill="grey" stroke="grey" stroke-width="2" points="909.62,-259.06 901.55,-252.19 903.57,-262.59 909.62,-259.06"/>
</g>
<!-- 18 -->
<g id="node19" class="node">
<title>18</title>
<path fill="none" stroke="#d88d56" stroke-width="2" d="M1432.5,-180C1432.5,-180 1364.5,-180 1364.5,-180 1358.5,-180 1352.5,-174 1352.5,-168 1352.5,-168 1352.5,-156 1352.5,-156 1352.5,-150 1358.5,-144 1364.5,-144 1364.5,-144 1432.5,-144 1432.5,-144 1438.5,-144 1444.5,-150 1444.5,-156 1444.5,-156 1444.5,-168 1444.5,-168 1444.5,-174 1438.5,-180 1432.5,-180"/>
<text text-anchor="middle" x="1398.5" y="-159.5" font-family="sans" font-size="10.00">escape_profiles</text>
</g>
<!-- 6&#45;&gt;18 -->
<g id="edge45" class="edge">
<title>6&#45;&gt;18</title>
<path fill="none" stroke="grey" stroke-width="2" d="M1008.48,-359.85C1085.1,-321.18 1271.19,-227.26 1355.6,-184.65"/>
<polygon fill="grey" stroke="grey" stroke-width="2" points="1357.3,-187.71 1364.65,-180.08 1354.15,-181.46 1357.3,-187.71"/>
</g>
<!-- 7 -->
<g id="node8" class="node">
<title>7</title>
<path fill="none" stroke="#d6d856" stroke-width="2" d="M1434.5,-468C1434.5,-468 1382.5,-468 1382.5,-468 1376.5,-468 1370.5,-462 1370.5,-456 1370.5,-456 1370.5,-444 1370.5,-444 1370.5,-438 1376.5,-432 1382.5,-432 1382.5,-432 1434.5,-432 1434.5,-432 1440.5,-432 1446.5,-438 1446.5,-444 1446.5,-444 1446.5,-456 1446.5,-456 1446.5,-462 1440.5,-468 1434.5,-468"/>
<text text-anchor="middle" x="1408.5" y="-447.5" font-family="sans" font-size="10.00">fit_titrations</text>
</g>
<!-- 7&#45;&gt;0 -->
<g id="edge25" class="edge">
<title>7&#45;&gt;0</title>
<path fill="none" stroke="grey" stroke-width="2" d="M1446.59,-444.57C1550.91,-431.39 1833.5,-388.2 1833.5,-307 1833.5,-307 1833.5,-307 1833.5,-161 1833.5,-117.81 1829.73,-96.98 1794.5,-72 1742.94,-35.44 1313.68,-23.28 1155.62,-20.03"/>
<polygon fill="grey" stroke="grey" stroke-width="2" points="1155.23,-16.52 1145.16,-19.81 1155.09,-23.52 1155.23,-16.52"/>
</g>
<!-- 7&#45;&gt;6 -->
<g id="edge29" class="edge">
<title>7&#45;&gt;6</title>
<path fill="none" stroke="grey" stroke-width="2" d="M1370.49,-434.49C1367.47,-433.57 1364.45,-432.73 1361.5,-432 1246.42,-403.64 1108.09,-389.3 1031.89,-383.06"/>
<polygon fill="grey" stroke="grey" stroke-width="2" points="1031.81,-379.54 1021.56,-382.23 1031.25,-386.52 1031.81,-379.54"/>
</g>
<!-- 8 -->
<g id="node9" class="node">
<title>8</title>
<path fill="none" stroke="#56b1d8" stroke-width="2" d="M1388.5,-540C1388.5,-540 1326.5,-540 1326.5,-540 1320.5,-540 1314.5,-534 1314.5,-528 1314.5,-528 1314.5,-516 1314.5,-516 1314.5,-510 1320.5,-504 1326.5,-504 1326.5,-504 1388.5,-504 1388.5,-504 1394.5,-504 1400.5,-510 1400.5,-516 1400.5,-516 1400.5,-528 1400.5,-528 1400.5,-534 1394.5,-540 1388.5,-540"/>
<text text-anchor="middle" x="1357.5" y="-519.5" font-family="sans" font-size="10.00">build_variants</text>
</g>
<!-- 8&#45;&gt;0 -->
<g id="edge23" class="edge">
<title>8&#45;&gt;0</title>
<path fill="none" stroke="grey" stroke-width="2" d="M1400.88,-518.34C1524.8,-509.57 1871.5,-476.32 1871.5,-379 1871.5,-379 1871.5,-379 1871.5,-161 1871.5,-116.06 1861.23,-96.42 1823.5,-72 1767.96,-36.05 1317.52,-23.45 1155.38,-20.06"/>
<polygon fill="grey" stroke="grey" stroke-width="2" points="1155.2,-16.55 1145.13,-19.84 1155.06,-23.55 1155.2,-16.55"/>
</g>
<!-- 8&#45;&gt;7 -->
<g id="edge30" class="edge">
<title>8&#45;&gt;7</title>
<path fill="none" stroke="grey" stroke-width="2" d="M1370.11,-503.7C1376.1,-495.47 1383.38,-485.48 1389.98,-476.42"/>
<polygon fill="grey" stroke="grey" stroke-width="2" points="1392.98,-478.25 1396.04,-468.1 1387.32,-474.13 1392.98,-478.25"/>
</g>
<!-- 11 -->
<g id="node12" class="node">
<title>11</title>
<path fill="none" stroke="#56d86b" stroke-width="2" d="M1022,-468C1022,-468 927,-468 927,-468 921,-468 915,-462 915,-456 915,-456 915,-444 915,-444 915,-438 921,-432 927,-432 927,-432 1022,-432 1022,-432 1028,-432 1034,-438 1034,-444 1034,-444 1034,-456 1034,-456 1034,-462 1028,-468 1022,-468"/>
<text text-anchor="middle" x="974.5" y="-447.5" font-family="sans" font-size="10.00">calculate_expression</text>
</g>
<!-- 8&#45;&gt;11 -->
<g id="edge33" class="edge">
<title>8&#45;&gt;11</title>
<path fill="none" stroke="grey" stroke-width="2" d="M1314.31,-513.11C1248.69,-501.11 1123.19,-478.18 1044.45,-463.78"/>
<polygon fill="grey" stroke="grey" stroke-width="2" points="1044.6,-460.25 1034.13,-461.9 1043.34,-467.14 1044.6,-460.25"/>
</g>
<!-- 12 -->
<g id="node13" class="node">
<title>12</title>
<path fill="none" stroke="#566bd8" stroke-width="2" d="M1534,-396C1534,-396 1415,-396 1415,-396 1409,-396 1403,-390 1403,-384 1403,-384 1403,-372 1403,-372 1403,-366 1409,-360 1415,-360 1415,-360 1534,-360 1534,-360 1540,-360 1546,-366 1546,-372 1546,-372 1546,-384 1546,-384 1546,-390 1540,-396 1534,-396"/>
<text text-anchor="middle" x="1474.5" y="-375.5" font-family="sans" font-size="10.00">aggregate_variant_counts</text>
</g>
<!-- 8&#45;&gt;12 -->
<g id="edge35" class="edge">
<title>8&#45;&gt;12</title>
<path fill="none" stroke="grey" stroke-width="2" d="M1400.8,-507.11C1420.3,-498.74 1441.94,-486.12 1455.5,-468 1468.78,-450.26 1473.21,-425.25 1474.5,-406.25"/>
<polygon fill="grey" stroke="grey" stroke-width="2" points="1478.01,-406.27 1474.94,-396.13 1471.01,-405.97 1478.01,-406.27"/>
</g>
<!-- 13 -->
<g id="node14" class="node">
<title>13</title>
<path fill="none" stroke="#567bd8" stroke-width="2" d="M1340,-468C1340,-468 1275,-468 1275,-468 1269,-468 1263,-462 1263,-456 1263,-456 1263,-444 1263,-444 1263,-438 1269,-432 1275,-432 1275,-432 1340,-432 1340,-432 1346,-432 1352,-438 1352,-444 1352,-444 1352,-456 1352,-456 1352,-462 1346,-468 1340,-468"/>
<text text-anchor="middle" x="1307.5" y="-447.5" font-family="sans" font-size="10.00">count_variants</text>
</g>
<!-- 8&#45;&gt;13 -->
<g id="edge36" class="edge">
<title>8&#45;&gt;13</title>
<path fill="none" stroke="grey" stroke-width="2" d="M1345.14,-503.7C1339.27,-495.47 1332.13,-485.48 1325.66,-476.42"/>
<polygon fill="grey" stroke="grey" stroke-width="2" points="1328.38,-474.21 1319.72,-468.1 1322.68,-478.28 1328.38,-474.21"/>
</g>
<!-- 9 -->
<g id="node10" class="node">
<title>9</title>
<path fill="none" stroke="#d87d56" stroke-width="2" d="M637,-612C637,-612 586,-612 586,-612 580,-612 574,-606 574,-600 574,-600 574,-588 574,-588 574,-582 580,-576 586,-576 586,-576 637,-576 637,-576 643,-576 649,-582 649,-588 649,-588 649,-600 649,-600 649,-606 643,-612 637,-612"/>
<text text-anchor="middle" x="611.5" y="-591.5" font-family="sans" font-size="10.00">process_ccs</text>
</g>
<!-- 9&#45;&gt;0 -->
<g id="edge4" class="edge">
<title>9&#45;&gt;0</title>
<path fill="none" stroke="grey" stroke-width="2" d="M573.61,-590.18C458.96,-580.62 123.5,-544.64 123.5,-451 123.5,-451 123.5,-451 123.5,-161 123.5,-113.3 142.05,-95.61 183.5,-72 257.67,-29.75 850.84,-21.09 1039.86,-19.39"/>
<polygon fill="grey" stroke="grey" stroke-width="2" points="1039.9,-22.89 1049.87,-19.31 1039.84,-15.89 1039.9,-22.89"/>
</g>
<!-- 9&#45;&gt;8 -->
<g id="edge31" class="edge">
<title>9&#45;&gt;8</title>
<path fill="none" stroke="grey" stroke-width="2" d="M649.01,-589.48C771.65,-577.97 1161.15,-541.42 1304.17,-528"/>
<polygon fill="grey" stroke="grey" stroke-width="2" points="1304.8,-531.46 1314.43,-527.04 1304.15,-524.49 1304.8,-531.46"/>
</g>
<!-- 10 -->
<g id="node11" class="node">
<title>10</title>
<path fill="none" stroke="#56a2d8" stroke-width="2" d="M626.5,-684C626.5,-684 596.5,-684 596.5,-684 590.5,-684 584.5,-678 584.5,-672 584.5,-672 584.5,-660 584.5,-660 584.5,-654 590.5,-648 596.5,-648 596.5,-648 626.5,-648 626.5,-648 632.5,-648 638.5,-654 638.5,-660 638.5,-660 638.5,-672 638.5,-672 638.5,-678 632.5,-684 626.5,-684"/>
<text text-anchor="middle" x="611.5" y="-663.5" font-family="sans" font-size="10.00">get_ccs</text>
</g>
<!-- 10&#45;&gt;9 -->
<g id="edge32" class="edge">
<title>10&#45;&gt;9</title>
<path fill="none" stroke="grey" stroke-width="2" d="M611.5,-647.7C611.5,-639.98 611.5,-630.71 611.5,-622.11"/>
<polygon fill="grey" stroke="grey" stroke-width="2" points="615,-622.1 611.5,-612.1 608,-622.1 615,-622.1"/>
</g>
<!-- 11&#45;&gt;0 -->
<g id="edge15" class="edge">
<title>11&#45;&gt;0</title>
<path fill="none" stroke="grey" stroke-width="2" d="M914.72,-444.88C726.97,-431.16 161.5,-383.48 161.5,-307 161.5,-307 161.5,-307 161.5,-161 161.5,-144.2 117.21,-132.06 262.5,-72 333.82,-42.52 862.16,-25.46 1039.58,-20.52"/>
<polygon fill="grey" stroke="grey" stroke-width="2" points="1039.86,-24.01 1049.76,-20.24 1039.67,-17.01 1039.86,-24.01"/>
</g>
<!-- 11&#45;&gt;6 -->
<g id="edge28" class="edge">
<title>11&#45;&gt;6</title>
<path fill="none" stroke="grey" stroke-width="2" d="M974.5,-431.7C974.5,-423.98 974.5,-414.71 974.5,-406.11"/>
<polygon fill="grey" stroke="grey" stroke-width="2" points="978,-406.1 974.5,-396.1 971,-406.1 978,-406.1"/>
</g>
<!-- 12&#45;&gt;0 -->
<g id="edge3" class="edge">
<title>12&#45;&gt;0</title>
<path fill="none" stroke="grey" stroke-width="2" d="M1530.15,-359.95C1583.24,-341.16 1662.32,-306.2 1712.5,-252 1767.01,-193.12 1787.27,-124.4 1726.5,-72 1683.79,-35.18 1303.21,-23.31 1155.63,-20.07"/>
<polygon fill="grey" stroke="grey" stroke-width="2" points="1155.48,-16.56 1145.41,-19.85 1155.33,-23.56 1155.48,-16.56"/>
</g>
<!-- 14 -->
<g id="node15" class="node">
<title>14</title>
<path fill="none" stroke="#56d8c9" stroke-width="2" d="M1793,-324C1793,-324 1698,-324 1698,-324 1692,-324 1686,-318 1686,-312 1686,-312 1686,-300 1686,-300 1686,-294 1692,-288 1698,-288 1698,-288 1793,-288 1793,-288 1799,-288 1805,-294 1805,-300 1805,-300 1805,-312 1805,-312 1805,-318 1799,-324 1793,-324"/>
<text text-anchor="middle" x="1745.5" y="-303.5" font-family="sans" font-size="10.00">counts_to_cells_ratio</text>
</g>
<!-- 12&#45;&gt;14 -->
<g id="edge37" class="edge">
<title>12&#45;&gt;14</title>
<path fill="none" stroke="grey" stroke-width="2" d="M1540.45,-359.97C1581.5,-349.36 1634.23,-335.74 1675.94,-324.97"/>
<polygon fill="grey" stroke="grey" stroke-width="2" points="1676.94,-328.33 1685.74,-322.44 1675.19,-321.55 1676.94,-328.33"/>
</g>
<!-- 12&#45;&gt;15 -->
<g id="edge39" class="edge">
<title>12&#45;&gt;15</title>
<path fill="none" stroke="grey" stroke-width="2" d="M1429.73,-359.88C1404.38,-350.18 1372.49,-337.98 1345.73,-327.74"/>
<polygon fill="grey" stroke="grey" stroke-width="2" points="1346.71,-324.37 1336.12,-324.07 1344.21,-330.91 1346.71,-324.37"/>
</g>
<!-- 13&#45;&gt;12 -->
<g id="edge34" class="edge">
<title>13&#45;&gt;12</title>
<path fill="none" stroke="grey" stroke-width="2" d="M1348.35,-431.88C1371.28,-422.26 1400.08,-410.19 1424.37,-400.01"/>
<polygon fill="grey" stroke="grey" stroke-width="2" points="1425.91,-403.16 1433.78,-396.07 1423.2,-396.71 1425.91,-403.16"/>
</g>
<!-- 14&#45;&gt;0 -->
<g id="edge20" class="edge">
<title>14&#45;&gt;0</title>
<path fill="none" stroke="grey" stroke-width="2" d="M1755.09,-287.93C1777.64,-245.27 1828,-133.12 1771.5,-72 1730.07,-27.19 1311.13,-20.21 1155.39,-19.16"/>
<polygon fill="grey" stroke="grey" stroke-width="2" points="1155.11,-15.66 1145.08,-19.1 1155.06,-22.66 1155.11,-15.66"/>
</g>
<!-- 15&#45;&gt;0 -->
<g id="edge14" class="edge">
<title>15&#45;&gt;0</title>
<path fill="none" stroke="grey" stroke-width="2" d="M1342.01,-305.59C1437.24,-305.55 1637.95,-299.65 1684.5,-252 1740.62,-194.55 1754.75,-131.23 1700.5,-72 1664.14,-32.31 1299.78,-22.2 1155.7,-19.75"/>
<polygon fill="grey" stroke="grey" stroke-width="2" points="1155.36,-16.24 1145.3,-19.58 1155.24,-23.24 1155.36,-16.24"/>
</g>
<!-- 15&#45;&gt;16 -->
<g id="edge40" class="edge">
<title>15&#45;&gt;16</title>
<path fill="none" stroke="grey" stroke-width="2" d="M1240.91,-298.32C1175.61,-289.37 1058.57,-272.25 959.5,-252 958.23,-251.74 956.94,-251.47 955.64,-251.2"/>
<polygon fill="grey" stroke="grey" stroke-width="2" points="956.11,-247.72 945.59,-248.97 954.6,-254.55 956.11,-247.72"/>
</g>
<!-- 17 -->
<g id="node18" class="node">
<title>17</title>
<path fill="none" stroke="#9fd856" stroke-width="2" d="M1463.5,-252C1463.5,-252 1349.5,-252 1349.5,-252 1343.5,-252 1337.5,-246 1337.5,-240 1337.5,-240 1337.5,-228 1337.5,-228 1337.5,-222 1343.5,-216 1349.5,-216 1349.5,-216 1463.5,-216 1463.5,-216 1469.5,-216 1475.5,-222 1475.5,-228 1475.5,-228 1475.5,-240 1475.5,-240 1475.5,-246 1469.5,-252 1463.5,-252"/>
<text text-anchor="middle" x="1406.5" y="-231.5" font-family="sans" font-size="10.00">call_strong_escape_sites</text>
</g>
<!-- 15&#45;&gt;17 -->
<g id="edge42" class="edge">
<title>15&#45;&gt;17</title>
<path fill="none" stroke="grey" stroke-width="2" d="M1319.63,-287.88C1334.67,-278.72 1353.37,-267.34 1369.56,-257.48"/>
<polygon fill="grey" stroke="grey" stroke-width="2" points="1371.54,-260.38 1378.26,-252.19 1367.9,-254.4 1371.54,-260.38"/>
</g>
<!-- 15&#45;&gt;18 -->
<g id="edge43" class="edge">
<title>15&#45;&gt;18</title>
<path fill="none" stroke="grey" stroke-width="2" d="M1295.7,-287.88C1300.99,-268.87 1311.51,-237.97 1328.5,-216 1337.36,-204.55 1349.27,-194.3 1360.76,-185.94"/>
<polygon fill="grey" stroke="grey" stroke-width="2" points="1362.8,-188.79 1369,-180.2 1358.8,-183.05 1362.8,-188.79"/>
</g>
<!-- 15&#45;&gt;21 -->
<g id="edge50" class="edge">
<title>15&#45;&gt;21</title>
<path fill="none" stroke="grey" stroke-width="2" d="M1240.97,-305.6C1178.82,-304.26 1071.82,-295.11 992.5,-252 984.92,-247.88 953.23,-212.79 931.28,-187.93"/>
<polygon fill="grey" stroke="grey" stroke-width="2" points="933.77,-185.46 924.53,-180.27 928.51,-190.08 933.77,-185.46"/>
</g>
<!-- 22 -->
<g id="node23" class="node">
<title>22</title>
<path fill="none" stroke="#8fd856" stroke-width="2" d="M1679,-108C1679,-108 1626,-108 1626,-108 1620,-108 1614,-102 1614,-96 1614,-96 1614,-84 1614,-84 1614,-78 1620,-72 1626,-72 1626,-72 1679,-72 1679,-72 1685,-72 1691,-78 1691,-84 1691,-84 1691,-96 1691,-96 1691,-102 1685,-108 1679,-108"/>
<text text-anchor="middle" x="1652.5" y="-87.5" font-family="sans" font-size="10.00">output_pdbs</text>
</g>
<!-- 15&#45;&gt;22 -->
<g id="edge53" class="edge">
<title>15&#45;&gt;22</title>
<path fill="none" stroke="grey" stroke-width="2" d="M1342.15,-305.57C1433.84,-305.39 1621.63,-299.13 1662.5,-252 1694.73,-214.84 1678.02,-152.87 1664.36,-117.64"/>
<polygon fill="grey" stroke="grey" stroke-width="2" points="1667.46,-115.98 1660.45,-108.03 1660.98,-118.62 1667.46,-115.98"/>
</g>
<!-- 23 -->
<g id="node24" class="node">
<title>23</title>
<path fill="none" stroke="#d8c356" stroke-width="2" d="M1358,-108C1358,-108 1283,-108 1283,-108 1277,-108 1271,-102 1271,-96 1271,-96 1271,-84 1271,-84 1271,-78 1277,-72 1283,-72 1283,-72 1358,-72 1358,-72 1364,-72 1370,-78 1370,-84 1370,-84 1370,-96 1370,-96 1370,-102 1364,-108 1358,-108"/>
<text text-anchor="middle" x="1320.5" y="-87.5" font-family="sans" font-size="10.00">make_supp_data</text>
</g>
<!-- 15&#45;&gt;23 -->
<g id="edge54" class="edge">
<title>15&#45;&gt;23</title>
<path fill="none" stroke="grey" stroke-width="2" d="M1293.82,-287.85C1298.84,-250.83 1310.72,-163.18 1316.79,-118.39"/>
<polygon fill="grey" stroke="grey" stroke-width="2" points="1320.29,-118.61 1318.16,-108.23 1313.35,-117.67 1320.29,-118.61"/>
</g>
<!-- 15&#45;&gt;24 -->
<g id="edge56" class="edge">
<title>15&#45;&gt;24</title>
<path fill="none" stroke="grey" stroke-width="2" d="M1278,-287.8C1270.85,-277.86 1262.53,-264.82 1257.5,-252 1249.72,-232.18 1245.69,-208.38 1243.62,-190.38"/>
<polygon fill="grey" stroke="grey" stroke-width="2" points="1247.09,-189.87 1242.6,-180.27 1240.13,-190.57 1247.09,-189.87"/>
</g>
<!-- 26 -->
<g id="node27" class="node">
<title>26</title>
<path fill="none" stroke="#b6d856" stroke-width="2" d="M1594.5,-180C1594.5,-180 1512.5,-180 1512.5,-180 1506.5,-180 1500.5,-174 1500.5,-168 1500.5,-168 1500.5,-156 1500.5,-156 1500.5,-150 1506.5,-144 1512.5,-144 1512.5,-144 1594.5,-144 1594.5,-144 1600.5,-144 1606.5,-150 1606.5,-156 1606.5,-156 1606.5,-168 1606.5,-168 1606.5,-174 1600.5,-180 1594.5,-180"/>
<text text-anchor="middle" x="1553.5" y="-159.5" font-family="sans" font-size="10.00">natural_mutations</text>
</g>
<!-- 15&#45;&gt;26 -->
<g id="edge59" class="edge">
<title>15&#45;&gt;26</title>
<path fill="none" stroke="grey" stroke-width="2" d="M1342.33,-299.99C1383.54,-293.93 1441.61,-280.69 1484.5,-252 1508.46,-235.97 1527.7,-208.89 1539.72,-188.8"/>
<polygon fill="grey" stroke="grey" stroke-width="2" points="1542.76,-190.54 1544.72,-180.13 1536.69,-187.04 1542.76,-190.54"/>
</g>
<!-- 15&#45;&gt;27 -->
<g id="edge62" class="edge">
<title>15&#45;&gt;27</title>
<path fill="none" stroke="grey" stroke-width="2" d="M1268.1,-287.87C1233.43,-262.5 1168.34,-214.85 1129.36,-186.32"/>
<polygon fill="grey" stroke="grey" stroke-width="2" points="1131.12,-183.27 1120.98,-180.19 1126.99,-188.92 1131.12,-183.27"/>
</g>
<!-- 16&#45;&gt;0 -->
<g id="edge18" class="edge">
<title>16&#45;&gt;0</title>
<path fill="none" stroke="grey" stroke-width="2" d="M868.2,-215.82C857.6,-206.54 846.18,-194.09 840.5,-180 834.52,-165.16 833.07,-158.17 840.5,-144 878.97,-70.58 976.68,-39.75 1039.93,-27.19"/>
<polygon fill="grey" stroke="grey" stroke-width="2" points="1040.59,-30.63 1049.77,-25.33 1039.29,-23.75 1040.59,-30.63"/>
</g>
<!-- 17&#45;&gt;0 -->
<g id="edge11" class="edge">
<title>17&#45;&gt;0</title>
<path fill="none" stroke="grey" stroke-width="2" d="M1427.77,-215.7C1437.61,-206.31 1448.26,-193.8 1453.5,-180 1472.4,-130.19 1446.67,-100.25 1401.5,-72 1361.43,-46.93 1232.17,-31.24 1155.71,-23.91"/>
<polygon fill="grey" stroke="grey" stroke-width="2" points="1155.57,-20.38 1145.29,-22.93 1154.92,-27.35 1155.57,-20.38"/>
</g>
<!-- 17&#45;&gt;18 -->
<g id="edge44" class="edge">
<title>17&#45;&gt;18</title>
<path fill="none" stroke="grey" stroke-width="2" d="M1404.52,-215.7C1403.64,-207.98 1402.58,-198.71 1401.6,-190.11"/>
<polygon fill="grey" stroke="grey" stroke-width="2" points="1405.07,-189.64 1400.45,-180.1 1398.11,-190.44 1405.07,-189.64"/>
</g>
<!-- 17&#45;&gt;26 -->
<g id="edge60" class="edge">
<title>17&#45;&gt;26</title>
<path fill="none" stroke="grey" stroke-width="2" d="M1442.46,-215.88C1462.38,-206.39 1487.32,-194.51 1508.52,-184.42"/>
<polygon fill="grey" stroke="grey" stroke-width="2" points="1510.13,-187.53 1517.66,-180.07 1507.12,-181.21 1510.13,-187.53"/>
</g>
<!-- 18&#45;&gt;0 -->
<g id="edge5" class="edge">
<title>18&#45;&gt;0</title>
<path fill="none" stroke="grey" stroke-width="2" d="M1400.02,-143.97C1400.79,-123.85 1398.72,-90.76 1379.5,-72 1348.34,-41.6 1228.28,-28 1155.24,-22.44"/>
<polygon fill="grey" stroke="grey" stroke-width="2" points="1155.49,-18.95 1145.26,-21.71 1154.97,-25.93 1155.49,-18.95"/>
</g>
<!-- 18&#45;&gt;23 -->
<g id="edge55" class="edge">
<title>18&#45;&gt;23</title>
<path fill="none" stroke="grey" stroke-width="2" d="M1379.22,-143.7C1369.58,-135.05 1357.77,-124.45 1347.27,-115.03"/>
<polygon fill="grey" stroke="grey" stroke-width="2" points="1349.34,-112.18 1339.56,-108.1 1344.66,-117.39 1349.34,-112.18"/>
</g>
<!-- 19&#45;&gt;0 -->
<g id="edge9" class="edge">
<title>19&#45;&gt;0</title>
<path fill="none" stroke="grey" stroke-width="2" d="M675.14,-143.75C694.95,-123.09 731.15,-89.14 769.5,-72 858.29,-32.32 972.39,-21.92 1039.95,-19.44"/>
<polygon fill="grey" stroke="grey" stroke-width="2" points="1040.1,-22.94 1049.98,-19.12 1039.87,-15.94 1040.1,-22.94"/>
</g>
<!-- 19&#45;&gt;20 -->
<g id="edge47" class="edge">
<title>19&#45;&gt;20</title>
<path fill="none" stroke="grey" stroke-width="2" d="M644.92,-143.7C637.84,-135.3 629.22,-125.07 621.45,-115.86"/>
<polygon fill="grey" stroke="grey" stroke-width="2" points="624.04,-113.49 614.92,-108.1 618.69,-118.01 624.04,-113.49"/>
</g>
<!-- 20&#45;&gt;0 -->
<g id="edge19" class="edge">
<title>20&#45;&gt;0</title>
<path fill="none" stroke="grey" stroke-width="2" d="M673.72,-76.51C683.39,-74.94 693.18,-73.4 702.5,-72 822.17,-54 962.69,-35.86 1039.72,-26.17"/>
<polygon fill="grey" stroke="grey" stroke-width="2" points="1040.21,-29.63 1049.7,-24.92 1039.34,-22.69 1040.21,-29.63"/>
</g>
<!-- 21&#45;&gt;0 -->
<g id="edge1" class="edge">
<title>21&#45;&gt;0</title>
<path fill="none" stroke="grey" stroke-width="2" d="M920.24,-143.98C933.24,-124.49 956.75,-92.6 983.5,-72 1000.59,-58.84 1021.48,-47.94 1040.68,-39.52"/>
<polygon fill="grey" stroke="grey" stroke-width="2" points="1042.11,-42.72 1049.95,-35.59 1039.37,-36.27 1042.11,-42.72"/>
</g>
<!-- 22&#45;&gt;0 -->
<g id="edge12" class="edge">
<title>22&#45;&gt;0</title>
<path fill="none" stroke="grey" stroke-width="2" d="M1613.96,-75.63C1609.13,-74.25 1604.23,-73 1599.5,-72 1440.81,-38.54 1249.21,-25.76 1155.22,-21.25"/>
<polygon fill="grey" stroke="grey" stroke-width="2" points="1155.22,-17.74 1145.07,-20.77 1154.89,-24.73 1155.22,-17.74"/>
</g>
<!-- 23&#45;&gt;0 -->
<g id="edge8" class="edge">
<title>23&#45;&gt;0</title>
<path fill="none" stroke="grey" stroke-width="2" d="M1270.73,-73.38C1236.47,-62.62 1190.85,-48.3 1155.03,-37.06"/>
<polygon fill="grey" stroke="grey" stroke-width="2" points="1155.79,-33.63 1145.2,-33.97 1153.7,-40.31 1155.79,-33.63"/>
</g>
<!-- 24&#45;&gt;0 -->
<g id="edge17" class="edge">
<title>24&#45;&gt;0</title>
<path fill="none" stroke="grey" stroke-width="2" d="M1224.13,-143.87C1198.72,-118.82 1151.3,-72.05 1122.25,-43.41"/>
<polygon fill="grey" stroke="grey" stroke-width="2" points="1124.51,-40.72 1114.93,-36.19 1119.59,-45.7 1124.51,-40.72"/>
</g>
<!-- 25 -->
<g id="node26" class="node">
<title>25</title>
<path fill="none" stroke="#d86656" stroke-width="2" d="M1641.5,-252C1641.5,-252 1543.5,-252 1543.5,-252 1537.5,-252 1531.5,-246 1531.5,-240 1531.5,-240 1531.5,-228 1531.5,-228 1531.5,-222 1537.5,-216 1543.5,-216 1543.5,-216 1641.5,-216 1641.5,-216 1647.5,-216 1653.5,-222 1653.5,-228 1653.5,-228 1653.5,-240 1653.5,-240 1653.5,-246 1647.5,-252 1641.5,-252"/>
<text text-anchor="middle" x="1592.5" y="-231.5" font-family="sans" font-size="10.00">gisaid_rbd_mutations</text>
</g>
<!-- 25&#45;&gt;0 -->
<g id="edge2" class="edge">
<title>25&#45;&gt;0</title>
<path fill="none" stroke="grey" stroke-width="2" d="M1603.83,-215.84C1614.52,-197.33 1627.26,-167.38 1615.5,-144 1591.37,-96.04 1568.32,-92.01 1518.5,-72 1453.88,-46.05 1255.09,-29.52 1155.55,-22.65"/>
<polygon fill="grey" stroke="grey" stroke-width="2" points="1155.58,-19.15 1145.36,-21.96 1155.1,-26.13 1155.58,-19.15"/>
</g>
<!-- 25&#45;&gt;26 -->
<g id="edge61" class="edge">
<title>25&#45;&gt;26</title>
<path fill="none" stroke="grey" stroke-width="2" d="M1582.86,-215.7C1578.37,-207.64 1572.94,-197.89 1567.98,-188.98"/>
<polygon fill="grey" stroke="grey" stroke-width="2" points="1570.95,-187.14 1563.03,-180.1 1564.84,-190.54 1570.95,-187.14"/>
</g>
<!-- 26&#45;&gt;0 -->
<g id="edge10" class="edge">
<title>26&#45;&gt;0</title>
<path fill="none" stroke="grey" stroke-width="2" d="M1545.86,-143.98C1535.58,-123.22 1515.19,-88.83 1486.5,-72 1431.6,-39.8 1249.79,-26.38 1155.44,-21.47"/>
<polygon fill="grey" stroke="grey" stroke-width="2" points="1155.38,-17.96 1145.21,-20.95 1155.02,-24.95 1155.38,-17.96"/>
</g>
<!-- 27&#45;&gt;0 -->
<g id="edge24" class="edge">
<title>27&#45;&gt;0</title>
<path fill="none" stroke="grey" stroke-width="2" d="M1097.5,-143.87C1097.5,-119.67 1097.5,-75.21 1097.5,-46.39"/>
<polygon fill="grey" stroke="grey" stroke-width="2" points="1101,-46.19 1097.5,-36.19 1094,-46.19 1101,-46.19"/>
</g>
</g>
</svg>
