<?xml version="1.0" encoding="UTF-8" standalone="no"?>
<!DOCTYPE svg PUBLIC "-//W3C//DTD SVG 1.1//EN"
 "http://www.w3.org/Graphics/SVG/1.1/DTD/svg11.dtd">
<!-- Generated by graphviz version 2.49.1 (20211004.0028)
 -->
<!-- Title: snakemake_dag Pages: 1 -->
<svg width="1377pt" height="692pt"
 viewBox="0.00 0.00 1376.50 692.00" xmlns="http://www.w3.org/2000/svg" xmlns:xlink="http://www.w3.org/1999/xlink">
<g id="graph0" class="graph" transform="scale(1 1) rotate(0) translate(4 688)">
<title>snakemake_dag</title>
<polygon fill="white" stroke="transparent" points="-4,4 -4,-688 1372.5,-688 1372.5,4 -4,4"/>
<!-- 0 -->
<g id="node1" class="node">
<title>0</title>
<path fill="none" stroke="#56b1d8" stroke-width="2" d="M866,-36C866,-36 795,-36 795,-36 789,-36 783,-30 783,-24 783,-24 783,-12 783,-12 783,-6 789,0 795,0 795,0 866,0 866,0 872,0 878,-6 878,-12 878,-12 878,-24 878,-24 878,-30 872,-36 866,-36"/>
<text text-anchor="middle" x="830.5" y="-15.5" font-family="sans" font-size="10.00">make_summary</text>
</g>
<!-- 1 -->
<g id="node2" class="node">
<title>1</title>
<path fill="none" stroke="#d89c56" stroke-width="2" d="M83,-108C83,-108 12,-108 12,-108 6,-108 0,-102 0,-96 0,-96 0,-84 0,-84 0,-78 6,-72 12,-72 12,-72 83,-72 83,-72 89,-72 95,-78 95,-84 95,-84 95,-96 95,-96 95,-102 89,-108 83,-108"/>
<text text-anchor="middle" x="47.5" y="-87.5" font-family="sans" font-size="10.00">make_rulegraph</text>
</g>
<!-- 1&#45;&gt;0 -->
<g id="edge3" class="edge">
<title>1&#45;&gt;0</title>
<path fill="none" stroke="grey" stroke-width="2" d="M95.21,-73.95C98.34,-73.22 101.45,-72.56 104.5,-72 349.99,-26.98 648.79,-19.88 772.54,-18.99"/>
<polygon fill="grey" stroke="grey" stroke-width="2" points="772.93,-22.48 782.91,-18.92 772.89,-15.48 772.93,-22.48"/>
</g>
<!-- 2 -->
<g id="node3" class="node">
<title>2</title>
<path fill="none" stroke="#566bd8" stroke-width="2" d="M265.5,-108C265.5,-108 125.5,-108 125.5,-108 119.5,-108 113.5,-102 113.5,-96 113.5,-96 113.5,-84 113.5,-84 113.5,-78 119.5,-72 125.5,-72 125.5,-72 265.5,-72 265.5,-72 271.5,-72 277.5,-78 277.5,-84 277.5,-84 277.5,-96 277.5,-96 277.5,-102 271.5,-108 265.5,-108"/>
<text text-anchor="middle" x="195.5" y="-87.5" font-family="sans" font-size="10.00">get_early2020_mut_bind_expr</text>
</g>
<!-- 2&#45;&gt;0 -->
<g id="edge20" class="edge">
<title>2&#45;&gt;0</title>
<path fill="none" stroke="grey" stroke-width="2" d="M277.65,-74.02C282.33,-73.3 286.97,-72.62 291.5,-72 466.04,-48 673.82,-30.74 772.69,-23.21"/>
<polygon fill="grey" stroke="grey" stroke-width="2" points="773.06,-26.69 782.77,-22.45 772.53,-19.71 773.06,-26.69"/>
</g>
<!-- 3 -->
<g id="node4" class="node">
<title>3</title>
<path fill="none" stroke="#a7d856" stroke-width="2" d="M591,-180C591,-180 460,-180 460,-180 454,-180 448,-174 448,-168 448,-168 448,-156 448,-156 448,-150 454,-144 460,-144 460,-144 591,-144 591,-144 597,-144 603,-150 603,-156 603,-156 603,-168 603,-168 603,-174 597,-180 591,-180"/>
<text text-anchor="middle" x="525.5" y="-159.5" font-family="sans" font-size="10.00">get_early2020_escape_fracs</text>
</g>
<!-- 3&#45;&gt;0 -->
<g id="edge8" class="edge">
<title>3&#45;&gt;0</title>
<path fill="none" stroke="grey" stroke-width="2" d="M529.8,-143.65C535.81,-123.23 548.74,-89.83 572.5,-72 603.48,-48.75 706.47,-33.06 772.58,-25.11"/>
<polygon fill="grey" stroke="grey" stroke-width="2" points="773.33,-28.54 782.86,-23.9 772.52,-21.59 773.33,-28.54"/>
</g>
<!-- 4 -->
<g id="node5" class="node">
<title>4</title>
<path fill="none" stroke="#56d892" stroke-width="2" d="M508.5,-108C508.5,-108 434.5,-108 434.5,-108 428.5,-108 422.5,-102 422.5,-96 422.5,-96 422.5,-84 422.5,-84 422.5,-78 428.5,-72 434.5,-72 434.5,-72 508.5,-72 508.5,-72 514.5,-72 520.5,-78 520.5,-84 520.5,-84 520.5,-96 520.5,-96 520.5,-102 514.5,-108 508.5,-108"/>
<text text-anchor="middle" x="471.5" y="-87.5" font-family="sans" font-size="10.00">bind_expr_filters</text>
</g>
<!-- 3&#45;&gt;4 -->
<g id="edge22" class="edge">
<title>3&#45;&gt;4</title>
<path fill="none" stroke="grey" stroke-width="2" d="M512.15,-143.7C505.74,-135.39 497.94,-125.28 490.89,-116.14"/>
<polygon fill="grey" stroke="grey" stroke-width="2" points="493.57,-113.88 484.69,-108.1 488.03,-118.16 493.57,-113.88"/>
</g>
<!-- 20 -->
<g id="node21" class="node">
<title>20</title>
<path fill="none" stroke="#56d8a2" stroke-width="2" d="M712,-108C712,-108 627,-108 627,-108 621,-108 615,-102 615,-96 615,-96 615,-84 615,-84 615,-78 621,-72 627,-72 627,-72 712,-72 712,-72 718,-72 724,-78 724,-84 724,-84 724,-96 724,-96 724,-102 718,-108 712,-108"/>
<text text-anchor="middle" x="669.5" y="-87.5" font-family="sans" font-size="10.00">lineplots_by_group</text>
</g>
<!-- 3&#45;&gt;20 -->
<g id="edge45" class="edge">
<title>3&#45;&gt;20</title>
<path fill="none" stroke="grey" stroke-width="2" d="M560.73,-143.88C580.08,-134.47 604.27,-122.71 624.93,-112.67"/>
<polygon fill="grey" stroke="grey" stroke-width="2" points="626.67,-115.71 634.14,-108.19 623.61,-109.41 626.67,-115.71"/>
</g>
<!-- 4&#45;&gt;0 -->
<g id="edge14" class="edge">
<title>4&#45;&gt;0</title>
<path fill="none" stroke="grey" stroke-width="2" d="M520.58,-75.32C525.27,-74.14 529.97,-73.02 534.5,-72 616.73,-53.58 712.94,-37.32 772.81,-27.82"/>
<polygon fill="grey" stroke="grey" stroke-width="2" points="773.49,-31.25 782.83,-26.24 772.4,-24.34 773.49,-31.25"/>
</g>
<!-- 5 -->
<g id="node6" class="node">
<title>5</title>
<path fill="none" stroke="#56d863" stroke-width="2" d="M546.5,-396C546.5,-396 476.5,-396 476.5,-396 470.5,-396 464.5,-390 464.5,-384 464.5,-384 464.5,-372 464.5,-372 464.5,-366 470.5,-360 476.5,-360 476.5,-360 546.5,-360 546.5,-360 552.5,-360 558.5,-366 558.5,-372 558.5,-372 558.5,-384 558.5,-384 558.5,-390 552.5,-396 546.5,-396"/>
<text text-anchor="middle" x="511.5" y="-375.5" font-family="sans" font-size="10.00">collapse_scores</text>
</g>
<!-- 5&#45;&gt;0 -->
<g id="edge12" class="edge">
<title>5&#45;&gt;0</title>
<path fill="none" stroke="grey" stroke-width="2" d="M464.26,-360.38C414.57,-339.53 343.5,-298.59 343.5,-235 343.5,-235 343.5,-235 343.5,-161 343.5,-115.85 355.08,-97.27 392.5,-72 453.32,-30.93 668.49,-21.65 772.87,-19.58"/>
<polygon fill="grey" stroke="grey" stroke-width="2" points="772.98,-23.08 782.92,-19.39 772.85,-16.08 772.98,-23.08"/>
</g>
<!-- 5&#45;&gt;4 -->
<g id="edge21" class="edge">
<title>5&#45;&gt;4</title>
<path fill="none" stroke="grey" stroke-width="2" d="M513.24,-359.57C515.49,-328.35 516.28,-261.89 488.5,-216 474.32,-192.57 450.98,-204.37 438.5,-180 427.98,-159.45 438.85,-134.75 450.85,-116.58"/>
<polygon fill="grey" stroke="grey" stroke-width="2" points="453.84,-118.42 456.75,-108.24 448.12,-114.39 453.84,-118.42"/>
</g>
<!-- 14 -->
<g id="node15" class="node">
<title>14</title>
<path fill="none" stroke="#d8c356" stroke-width="2" d="M869,-324C869,-324 792,-324 792,-324 786,-324 780,-318 780,-312 780,-312 780,-300 780,-300 780,-294 786,-288 792,-288 792,-288 869,-288 869,-288 875,-288 881,-294 881,-300 881,-300 881,-312 881,-312 881,-318 875,-324 869,-324"/>
<text text-anchor="middle" x="830.5" y="-303.5" font-family="sans" font-size="10.00">counts_to_scores</text>
</g>
<!-- 5&#45;&gt;14 -->
<g id="edge33" class="edge">
<title>5&#45;&gt;14</title>
<path fill="none" stroke="grey" stroke-width="2" d="M558.57,-366.67C614.63,-354.37 708.41,-333.79 769.86,-320.31"/>
<polygon fill="grey" stroke="grey" stroke-width="2" points="770.79,-323.69 779.81,-318.12 769.29,-316.85 770.79,-323.69"/>
</g>
<!-- 15 -->
<g id="node16" class="node">
<title>15</title>
<path fill="none" stroke="#8fd856" stroke-width="2" d="M467.5,-252C467.5,-252 383.5,-252 383.5,-252 377.5,-252 371.5,-246 371.5,-240 371.5,-240 371.5,-228 371.5,-228 371.5,-222 377.5,-216 383.5,-216 383.5,-216 467.5,-216 467.5,-216 473.5,-216 479.5,-222 479.5,-228 479.5,-228 479.5,-240 479.5,-240 479.5,-246 473.5,-252 467.5,-252"/>
<text text-anchor="middle" x="425.5" y="-231.5" font-family="sans" font-size="10.00">investigate_scores</text>
</g>
<!-- 5&#45;&gt;15 -->
<g id="edge35" class="edge">
<title>5&#45;&gt;15</title>
<path fill="none" stroke="grey" stroke-width="2" d="M501.13,-359.87C486.21,-335.24 458.59,-289.64 441.18,-260.88"/>
<polygon fill="grey" stroke="grey" stroke-width="2" points="444.08,-258.93 435.91,-252.19 438.1,-262.56 444.08,-258.93"/>
</g>
<!-- 17 -->
<g id="node18" class="node">
<title>17</title>
<path fill="none" stroke="#56d8b9" stroke-width="2" d="M851.5,-180C851.5,-180 783.5,-180 783.5,-180 777.5,-180 771.5,-174 771.5,-168 771.5,-168 771.5,-156 771.5,-156 771.5,-150 777.5,-144 783.5,-144 783.5,-144 851.5,-144 851.5,-144 857.5,-144 863.5,-150 863.5,-156 863.5,-156 863.5,-168 863.5,-168 863.5,-174 857.5,-180 851.5,-180"/>
<text text-anchor="middle" x="817.5" y="-159.5" font-family="sans" font-size="10.00">escape_profiles</text>
</g>
<!-- 5&#45;&gt;17 -->
<g id="edge40" class="edge">
<title>5&#45;&gt;17</title>
<path fill="none" stroke="grey" stroke-width="2" d="M536.02,-359.85C590.75,-321.58 722.85,-229.19 784.62,-185.99"/>
<polygon fill="grey" stroke="grey" stroke-width="2" points="786.67,-188.83 792.86,-180.23 782.66,-183.1 786.67,-188.83"/>
</g>
<!-- 6 -->
<g id="node7" class="node">
<title>6</title>
<path fill="none" stroke="#56c9d8" stroke-width="2" d="M537.5,-468C537.5,-468 485.5,-468 485.5,-468 479.5,-468 473.5,-462 473.5,-456 473.5,-456 473.5,-444 473.5,-444 473.5,-438 479.5,-432 485.5,-432 485.5,-432 537.5,-432 537.5,-432 543.5,-432 549.5,-438 549.5,-444 549.5,-444 549.5,-456 549.5,-456 549.5,-462 543.5,-468 537.5,-468"/>
<text text-anchor="middle" x="511.5" y="-447.5" font-family="sans" font-size="10.00">fit_titrations</text>
</g>
<!-- 6&#45;&gt;0 -->
<g id="edge17" class="edge">
<title>6&#45;&gt;0</title>
<path fill="none" stroke="grey" stroke-width="2" d="M473.24,-440.96C413.66,-425.94 305.5,-387.58 305.5,-307 305.5,-307 305.5,-307 305.5,-161 305.5,-116.47 314.8,-97.21 351.5,-72 418.62,-25.88 660.65,-19.26 772.76,-18.73"/>
<polygon fill="grey" stroke="grey" stroke-width="2" points="772.88,-22.23 782.87,-18.7 772.86,-15.23 772.88,-22.23"/>
</g>
<!-- 6&#45;&gt;5 -->
<g id="edge23" class="edge">
<title>6&#45;&gt;5</title>
<path fill="none" stroke="grey" stroke-width="2" d="M511.5,-431.7C511.5,-423.98 511.5,-414.71 511.5,-406.11"/>
<polygon fill="grey" stroke="grey" stroke-width="2" points="515,-406.1 511.5,-396.1 508,-406.1 515,-406.1"/>
</g>
<!-- 7 -->
<g id="node8" class="node">
<title>7</title>
<path fill="none" stroke="#61d856" stroke-width="2" d="M1185.5,-540C1185.5,-540 1123.5,-540 1123.5,-540 1117.5,-540 1111.5,-534 1111.5,-528 1111.5,-528 1111.5,-516 1111.5,-516 1111.5,-510 1117.5,-504 1123.5,-504 1123.5,-504 1185.5,-504 1185.5,-504 1191.5,-504 1197.5,-510 1197.5,-516 1197.5,-516 1197.5,-528 1197.5,-528 1197.5,-534 1191.5,-540 1185.5,-540"/>
<text text-anchor="middle" x="1154.5" y="-519.5" font-family="sans" font-size="10.00">build_variants</text>
</g>
<!-- 7&#45;&gt;0 -->
<g id="edge11" class="edge">
<title>7&#45;&gt;0</title>
<path fill="none" stroke="grey" stroke-width="2" d="M1197.55,-507.49C1249.66,-488.13 1330.5,-447.12 1330.5,-379 1330.5,-379 1330.5,-379 1330.5,-161 1330.5,-112.54 1309.12,-96.82 1267.5,-72 1204.83,-34.63 992.54,-23.52 888.68,-20.29"/>
<polygon fill="grey" stroke="grey" stroke-width="2" points="888.48,-16.78 878.38,-19.98 888.27,-23.78 888.48,-16.78"/>
</g>
<!-- 7&#45;&gt;6 -->
<g id="edge25" class="edge">
<title>7&#45;&gt;6</title>
<path fill="none" stroke="grey" stroke-width="2" d="M1111.47,-520.75C1012.87,-519.4 763.46,-511.57 560.5,-468 560.17,-467.93 559.84,-467.86 559.51,-467.78"/>
<polygon fill="grey" stroke="grey" stroke-width="2" points="560.32,-464.38 549.76,-465.27 558.57,-471.16 560.32,-464.38"/>
</g>
<!-- 10 -->
<g id="node11" class="node">
<title>10</title>
<path fill="none" stroke="#bed856" stroke-width="2" d="M677,-468C677,-468 582,-468 582,-468 576,-468 570,-462 570,-456 570,-456 570,-444 570,-444 570,-438 576,-432 582,-432 582,-432 677,-432 677,-432 683,-432 689,-438 689,-444 689,-444 689,-456 689,-456 689,-462 683,-468 677,-468"/>
<text text-anchor="middle" x="629.5" y="-447.5" font-family="sans" font-size="10.00">calculate_expression</text>
</g>
<!-- 7&#45;&gt;10 -->
<g id="edge28" class="edge">
<title>7&#45;&gt;10</title>
<path fill="none" stroke="grey" stroke-width="2" d="M1111.09,-515.21C1020.2,-503.09 809.22,-474.96 699.15,-460.29"/>
<polygon fill="grey" stroke="grey" stroke-width="2" points="699.52,-456.81 689.14,-458.95 698.59,-463.74 699.52,-456.81"/>
</g>
<!-- 11 -->
<g id="node12" class="node">
<title>11</title>
<path fill="none" stroke="#d6d856" stroke-width="2" d="M1214,-396C1214,-396 1095,-396 1095,-396 1089,-396 1083,-390 1083,-384 1083,-384 1083,-372 1083,-372 1083,-366 1089,-360 1095,-360 1095,-360 1214,-360 1214,-360 1220,-360 1226,-366 1226,-372 1226,-372 1226,-384 1226,-384 1226,-390 1220,-396 1214,-396"/>
<text text-anchor="middle" x="1154.5" y="-375.5" font-family="sans" font-size="10.00">aggregate_variant_counts</text>
</g>
<!-- 7&#45;&gt;11 -->
<g id="edge29" class="edge">
<title>7&#45;&gt;11</title>
<path fill="none" stroke="grey" stroke-width="2" d="M1161.15,-503.63C1164.7,-493.42 1168.7,-480.17 1170.5,-468 1172.84,-452.17 1172.84,-447.83 1170.5,-432 1169.22,-423.35 1166.83,-414.15 1164.28,-405.89"/>
<polygon fill="grey" stroke="grey" stroke-width="2" points="1167.6,-404.78 1161.15,-396.37 1160.95,-406.96 1167.6,-404.78"/>
</g>
<!-- 12 -->
<g id="node13" class="node">
<title>12</title>
<path fill="none" stroke="#d88556" stroke-width="2" d="M1150,-468C1150,-468 1085,-468 1085,-468 1079,-468 1073,-462 1073,-456 1073,-456 1073,-444 1073,-444 1073,-438 1079,-432 1085,-432 1085,-432 1150,-432 1150,-432 1156,-432 1162,-438 1162,-444 1162,-444 1162,-456 1162,-456 1162,-462 1156,-468 1150,-468"/>
<text text-anchor="middle" x="1117.5" y="-447.5" font-family="sans" font-size="10.00">count_variants</text>
</g>
<!-- 7&#45;&gt;12 -->
<g id="edge31" class="edge">
<title>7&#45;&gt;12</title>
<path fill="none" stroke="grey" stroke-width="2" d="M1145.35,-503.7C1141.1,-495.64 1135.94,-485.89 1131.23,-476.98"/>
<polygon fill="grey" stroke="grey" stroke-width="2" points="1134.31,-475.31 1126.54,-468.1 1128.12,-478.58 1134.31,-475.31"/>
</g>
<!-- 8 -->
<g id="node9" class="node">
<title>8</title>
<path fill="none" stroke="#5682d8" stroke-width="2" d="M1287,-612C1287,-612 1236,-612 1236,-612 1230,-612 1224,-606 1224,-600 1224,-600 1224,-588 1224,-588 1224,-582 1230,-576 1236,-576 1236,-576 1287,-576 1287,-576 1293,-576 1299,-582 1299,-588 1299,-588 1299,-600 1299,-600 1299,-606 1293,-612 1287,-612"/>
<text text-anchor="middle" x="1261.5" y="-591.5" font-family="sans" font-size="10.00">process_ccs</text>
</g>
<!-- 8&#45;&gt;0 -->
<g id="edge18" class="edge">
<title>8&#45;&gt;0</title>
<path fill="none" stroke="grey" stroke-width="2" d="M1286.32,-575.98C1317.93,-552.07 1368.5,-505.33 1368.5,-451 1368.5,-451 1368.5,-451 1368.5,-161 1368.5,-112.28 1346.55,-96.6 1304.5,-72 1235.26,-31.49 999.32,-21.94 888.67,-19.69"/>
<polygon fill="grey" stroke="grey" stroke-width="2" points="888.43,-16.19 878.36,-19.5 888.29,-23.19 888.43,-16.19"/>
</g>
<!-- 8&#45;&gt;7 -->
<g id="edge26" class="edge">
<title>8&#45;&gt;7</title>
<path fill="none" stroke="grey" stroke-width="2" d="M1235.32,-575.88C1221.46,-566.81 1204.26,-555.55 1189.29,-545.76"/>
<polygon fill="grey" stroke="grey" stroke-width="2" points="1191.06,-542.74 1180.78,-540.19 1187.23,-548.59 1191.06,-542.74"/>
</g>
<!-- 9 -->
<g id="node10" class="node">
<title>9</title>
<path fill="none" stroke="#56d8d0" stroke-width="2" d="M1276.5,-684C1276.5,-684 1246.5,-684 1246.5,-684 1240.5,-684 1234.5,-678 1234.5,-672 1234.5,-672 1234.5,-660 1234.5,-660 1234.5,-654 1240.5,-648 1246.5,-648 1246.5,-648 1276.5,-648 1276.5,-648 1282.5,-648 1288.5,-654 1288.5,-660 1288.5,-660 1288.5,-672 1288.5,-672 1288.5,-678 1282.5,-684 1276.5,-684"/>
<text text-anchor="middle" x="1261.5" y="-663.5" font-family="sans" font-size="10.00">get_ccs</text>
</g>
<!-- 9&#45;&gt;8 -->
<g id="edge27" class="edge">
<title>9&#45;&gt;8</title>
<path fill="none" stroke="grey" stroke-width="2" d="M1261.5,-647.7C1261.5,-639.98 1261.5,-630.71 1261.5,-622.11"/>
<polygon fill="grey" stroke="grey" stroke-width="2" points="1265,-622.1 1261.5,-612.1 1258,-622.1 1265,-622.1"/>
</g>
<!-- 10&#45;&gt;0 -->
<g id="edge6" class="edge">
<title>10&#45;&gt;0</title>
<path fill="none" stroke="grey" stroke-width="2" d="M629.12,-431.75C627.97,-385.19 623.78,-253.11 611.5,-144 607.91,-112.09 585.57,-97.17 605.5,-72 626.02,-46.09 713.29,-31.58 772.91,-24.53"/>
<polygon fill="grey" stroke="grey" stroke-width="2" points="773.42,-27.99 782.96,-23.38 772.63,-21.04 773.42,-27.99"/>
</g>
<!-- 10&#45;&gt;5 -->
<g id="edge24" class="edge">
<title>10&#45;&gt;5</title>
<path fill="none" stroke="grey" stroke-width="2" d="M600.63,-431.88C585.21,-422.72 566.02,-411.34 549.4,-401.48"/>
<polygon fill="grey" stroke="grey" stroke-width="2" points="550.86,-398.28 540.48,-396.19 547.29,-404.3 550.86,-398.28"/>
</g>
<!-- 11&#45;&gt;0 -->
<g id="edge7" class="edge">
<title>11&#45;&gt;0</title>
<path fill="none" stroke="grey" stroke-width="2" d="M1156.76,-359.81C1159.53,-341.54 1165.06,-312.02 1174.5,-288 1181.28,-270.76 1190.54,-269.85 1195.5,-252 1208.35,-205.75 1214.07,-188.67 1196.5,-144 1180.5,-103.32 1167.89,-92.89 1129.5,-72 1053.18,-30.46 951.19,-20.44 888.22,-18.57"/>
<polygon fill="grey" stroke="grey" stroke-width="2" points="888.16,-15.07 878.08,-18.33 887.99,-22.07 888.16,-15.07"/>
</g>
<!-- 13 -->
<g id="node14" class="node">
<title>13</title>
<path fill="none" stroke="#569ad8" stroke-width="2" d="M1290,-324C1290,-324 1195,-324 1195,-324 1189,-324 1183,-318 1183,-312 1183,-312 1183,-300 1183,-300 1183,-294 1189,-288 1195,-288 1195,-288 1290,-288 1290,-288 1296,-288 1302,-294 1302,-300 1302,-300 1302,-312 1302,-312 1302,-318 1296,-324 1290,-324"/>
<text text-anchor="middle" x="1242.5" y="-303.5" font-family="sans" font-size="10.00">counts_to_cells_ratio</text>
</g>
<!-- 11&#45;&gt;13 -->
<g id="edge32" class="edge">
<title>11&#45;&gt;13</title>
<path fill="none" stroke="grey" stroke-width="2" d="M1176.25,-359.7C1187.34,-350.88 1200.97,-340.03 1212.99,-330.47"/>
<polygon fill="grey" stroke="grey" stroke-width="2" points="1215.35,-333.07 1221,-324.1 1210.99,-327.59 1215.35,-333.07"/>
</g>
<!-- 11&#45;&gt;14 -->
<g id="edge34" class="edge">
<title>11&#45;&gt;14</title>
<path fill="none" stroke="grey" stroke-width="2" d="M1083,-361.55C1025.45,-349.12 945.48,-331.84 891.06,-320.08"/>
<polygon fill="grey" stroke="grey" stroke-width="2" points="891.72,-316.65 881.21,-317.96 890.24,-323.49 891.72,-316.65"/>
</g>
<!-- 12&#45;&gt;11 -->
<g id="edge30" class="edge">
<title>12&#45;&gt;11</title>
<path fill="none" stroke="grey" stroke-width="2" d="M1126.65,-431.7C1130.9,-423.64 1136.06,-413.89 1140.77,-404.98"/>
<polygon fill="grey" stroke="grey" stroke-width="2" points="1143.88,-406.58 1145.46,-396.1 1137.69,-403.31 1143.88,-406.58"/>
</g>
<!-- 13&#45;&gt;0 -->
<g id="edge19" class="edge">
<title>13&#45;&gt;0</title>
<path fill="none" stroke="grey" stroke-width="2" d="M1249.35,-287.73C1265.01,-245.13 1298.01,-133.95 1243.5,-72 1220.4,-45.74 996.25,-28.9 888.19,-22.24"/>
<polygon fill="grey" stroke="grey" stroke-width="2" points="888.3,-18.74 878.1,-21.63 887.87,-25.73 888.3,-18.74"/>
</g>
<!-- 14&#45;&gt;0 -->
<g id="edge5" class="edge">
<title>14&#45;&gt;0</title>
<path fill="none" stroke="grey" stroke-width="2" d="M881.26,-304.86C967.2,-303.43 1135.6,-295.06 1172.5,-252 1229.59,-185.39 1165.85,-118.55 1091.5,-72 1029.52,-33.19 944.5,-22.11 888.57,-19.3"/>
<polygon fill="grey" stroke="grey" stroke-width="2" points="888.62,-15.8 878.48,-18.87 888.32,-22.79 888.62,-15.8"/>
</g>
<!-- 14&#45;&gt;15 -->
<g id="edge36" class="edge">
<title>14&#45;&gt;15</title>
<path fill="none" stroke="grey" stroke-width="2" d="M779.62,-296.21C706.07,-283.49 570.08,-259.99 489.72,-246.1"/>
<polygon fill="grey" stroke="grey" stroke-width="2" points="490.17,-242.63 479.72,-244.37 488.98,-249.52 490.17,-242.63"/>
</g>
<!-- 16 -->
<g id="node17" class="node">
<title>16</title>
<path fill="none" stroke="#78d856" stroke-width="2" d="M935.5,-252C935.5,-252 821.5,-252 821.5,-252 815.5,-252 809.5,-246 809.5,-240 809.5,-240 809.5,-228 809.5,-228 809.5,-222 815.5,-216 821.5,-216 821.5,-216 935.5,-216 935.5,-216 941.5,-216 947.5,-222 947.5,-228 947.5,-228 947.5,-240 947.5,-240 947.5,-246 941.5,-252 935.5,-252"/>
<text text-anchor="middle" x="878.5" y="-231.5" font-family="sans" font-size="10.00">call_strong_escape_sites</text>
</g>
<!-- 14&#45;&gt;16 -->
<g id="edge37" class="edge">
<title>14&#45;&gt;16</title>
<path fill="none" stroke="grey" stroke-width="2" d="M842.37,-287.7C848,-279.47 854.85,-269.48 861.07,-260.42"/>
<polygon fill="grey" stroke="grey" stroke-width="2" points="864,-262.33 866.77,-252.1 858.23,-258.37 864,-262.33"/>
</g>
<!-- 14&#45;&gt;17 -->
<g id="edge39" class="edge">
<title>14&#45;&gt;17</title>
<path fill="none" stroke="grey" stroke-width="2" d="M817.77,-287.85C811.21,-277.92 803.89,-264.88 800.5,-252 795.07,-231.4 800.15,-207.69 806.13,-189.92"/>
<polygon fill="grey" stroke="grey" stroke-width="2" points="809.53,-190.81 809.68,-180.22 802.96,-188.41 809.53,-190.81"/>
</g>
<!-- 18 -->
<g id="node19" class="node">
<title>18</title>
<path fill="none" stroke="#d8b456" stroke-width="2" d="M985,-180C985,-180 932,-180 932,-180 926,-180 920,-174 920,-168 920,-168 920,-156 920,-156 920,-150 926,-144 932,-144 932,-144 985,-144 985,-144 991,-144 997,-150 997,-156 997,-156 997,-168 997,-168 997,-174 991,-180 985,-180"/>
<text text-anchor="middle" x="958.5" y="-159.5" font-family="sans" font-size="10.00">output_pdbs</text>
</g>
<!-- 14&#45;&gt;18 -->
<g id="edge41" class="edge">
<title>14&#45;&gt;18</title>
<path fill="none" stroke="grey" stroke-width="2" d="M881,-297.25C908.16,-290.26 939.48,-277.01 956.5,-252 968.7,-234.08 968.13,-209.08 965.12,-190.14"/>
<polygon fill="grey" stroke="grey" stroke-width="2" points="968.51,-189.23 963.21,-180.05 961.63,-190.53 968.51,-189.23"/>
</g>
<!-- 19 -->
<g id="node20" class="node">
<title>19</title>
<path fill="none" stroke="#d85656" stroke-width="2" d="M829,-108C829,-108 754,-108 754,-108 748,-108 742,-102 742,-96 742,-96 742,-84 742,-84 742,-78 748,-72 754,-72 754,-72 829,-72 829,-72 835,-72 841,-78 841,-84 841,-84 841,-96 841,-96 841,-102 835,-108 829,-108"/>
<text text-anchor="middle" x="791.5" y="-87.5" font-family="sans" font-size="10.00">make_supp_data</text>
</g>
<!-- 14&#45;&gt;19 -->
<g id="edge42" class="edge">
<title>14&#45;&gt;19</title>
<path fill="none" stroke="grey" stroke-width="2" d="M816.79,-287.68C799.63,-264.68 771.42,-222.05 762.5,-180 759.18,-164.35 758.54,-159.5 762.5,-144 764.88,-134.7 769.26,-125.27 773.92,-117"/>
<polygon fill="grey" stroke="grey" stroke-width="2" points="777.04,-118.59 779.19,-108.22 771.04,-114.99 777.04,-118.59"/>
</g>
<!-- 14&#45;&gt;20 -->
<g id="edge44" class="edge">
<title>14&#45;&gt;20</title>
<path fill="none" stroke="grey" stroke-width="2" d="M808.69,-287.89C796.94,-278.09 782.61,-265.14 771.5,-252 734.56,-208.3 700.98,-150.18 683.08,-117.05"/>
<polygon fill="grey" stroke="grey" stroke-width="2" points="686.05,-115.18 678.25,-108.01 679.88,-118.48 686.05,-115.18"/>
</g>
<!-- 22 -->
<g id="node23" class="node">
<title>22</title>
<path fill="none" stroke="#d86e56" stroke-width="2" d="M1109.5,-180C1109.5,-180 1027.5,-180 1027.5,-180 1021.5,-180 1015.5,-174 1015.5,-168 1015.5,-168 1015.5,-156 1015.5,-156 1015.5,-150 1021.5,-144 1027.5,-144 1027.5,-144 1109.5,-144 1109.5,-144 1115.5,-144 1121.5,-150 1121.5,-156 1121.5,-156 1121.5,-168 1121.5,-168 1121.5,-174 1115.5,-180 1109.5,-180"/>
<text text-anchor="middle" x="1068.5" y="-159.5" font-family="sans" font-size="10.00">natural_mutations</text>
</g>
<!-- 14&#45;&gt;22 -->
<g id="edge47" class="edge">
<title>14&#45;&gt;22</title>
<path fill="none" stroke="grey" stroke-width="2" d="M881.21,-292.32C910.44,-283.64 947.11,-270.36 976.5,-252 1004.33,-234.61 1030.66,-207.67 1047.97,-187.99"/>
<polygon fill="grey" stroke="grey" stroke-width="2" points="1050.71,-190.17 1054.58,-180.31 1045.4,-185.6 1050.71,-190.17"/>
</g>
<!-- 15&#45;&gt;0 -->
<g id="edge9" class="edge">
<title>15&#45;&gt;0</title>
<path fill="none" stroke="grey" stroke-width="2" d="M416.9,-215.81C401.78,-182.86 375.45,-110.65 413.5,-72 438.27,-46.84 663.85,-29.43 772.51,-22.43"/>
<polygon fill="grey" stroke="grey" stroke-width="2" points="772.89,-25.92 782.65,-21.79 772.45,-18.93 772.89,-25.92"/>
</g>
<!-- 16&#45;&gt;0 -->
<g id="edge10" class="edge">
<title>16&#45;&gt;0</title>
<path fill="none" stroke="grey" stroke-width="2" d="M879.93,-215.96C881.84,-185.91 883.19,-121.96 865.5,-72 862.11,-62.43 856.64,-52.9 851.01,-44.6"/>
<polygon fill="grey" stroke="grey" stroke-width="2" points="853.85,-42.55 845.18,-36.46 848.16,-46.63 853.85,-42.55"/>
</g>
<!-- 16&#45;&gt;17 -->
<g id="edge38" class="edge">
<title>16&#45;&gt;17</title>
<path fill="none" stroke="grey" stroke-width="2" d="M863.42,-215.7C856.11,-207.3 847.19,-197.07 839.16,-187.86"/>
<polygon fill="grey" stroke="grey" stroke-width="2" points="841.61,-185.34 832.41,-180.1 836.34,-189.94 841.61,-185.34"/>
</g>
<!-- 16&#45;&gt;22 -->
<g id="edge48" class="edge">
<title>16&#45;&gt;22</title>
<path fill="none" stroke="grey" stroke-width="2" d="M924.98,-215.88C951.42,-206.14 984.7,-193.87 1012.56,-183.61"/>
<polygon fill="grey" stroke="grey" stroke-width="2" points="1014,-186.81 1022.17,-180.07 1011.58,-180.24 1014,-186.81"/>
</g>
<!-- 17&#45;&gt;0 -->
<g id="edge16" class="edge">
<title>17&#45;&gt;0</title>
<path fill="none" stroke="grey" stroke-width="2" d="M831.06,-143.97C838.06,-134.09 845.87,-121.05 849.5,-108 855.24,-87.39 849.59,-63.68 842.99,-45.92"/>
<polygon fill="grey" stroke="grey" stroke-width="2" points="846.07,-44.18 839.08,-36.21 839.58,-46.8 846.07,-44.18"/>
</g>
<!-- 17&#45;&gt;19 -->
<g id="edge43" class="edge">
<title>17&#45;&gt;19</title>
<path fill="none" stroke="grey" stroke-width="2" d="M811.07,-143.7C808.14,-135.81 804.61,-126.3 801.36,-117.55"/>
<polygon fill="grey" stroke="grey" stroke-width="2" points="804.62,-116.26 797.85,-108.1 798.05,-118.7 804.62,-116.26"/>
</g>
<!-- 18&#45;&gt;0 -->
<g id="edge4" class="edge">
<title>18&#45;&gt;0</title>
<path fill="none" stroke="grey" stroke-width="2" d="M954.86,-143.84C950.04,-124.5 939.9,-93.03 921.5,-72 910.43,-59.35 895.58,-48.95 881.09,-40.82"/>
<polygon fill="grey" stroke="grey" stroke-width="2" points="882.62,-37.67 872.15,-36.05 879.33,-43.84 882.62,-37.67"/>
</g>
<!-- 19&#45;&gt;0 -->
<g id="edge1" class="edge">
<title>19&#45;&gt;0</title>
<path fill="none" stroke="grey" stroke-width="2" d="M801.14,-71.7C805.63,-63.64 811.06,-53.89 816.02,-44.98"/>
<polygon fill="grey" stroke="grey" stroke-width="2" points="819.16,-46.54 820.97,-36.1 813.05,-43.14 819.16,-46.54"/>
</g>
<!-- 20&#45;&gt;0 -->
<g id="edge15" class="edge">
<title>20&#45;&gt;0</title>
<path fill="none" stroke="grey" stroke-width="2" d="M708.89,-71.88C730.89,-62.31 758.51,-50.3 781.86,-40.15"/>
<polygon fill="grey" stroke="grey" stroke-width="2" points="783.47,-43.27 791.24,-36.07 780.68,-36.85 783.47,-43.27"/>
</g>
<!-- 21 -->
<g id="node22" class="node">
<title>21</title>
<path fill="none" stroke="#56d87b" stroke-width="2" d="M1151.5,-252C1151.5,-252 1053.5,-252 1053.5,-252 1047.5,-252 1041.5,-246 1041.5,-240 1041.5,-240 1041.5,-228 1041.5,-228 1041.5,-222 1047.5,-216 1053.5,-216 1053.5,-216 1151.5,-216 1151.5,-216 1157.5,-216 1163.5,-222 1163.5,-228 1163.5,-228 1163.5,-240 1163.5,-240 1163.5,-246 1157.5,-252 1151.5,-252"/>
<text text-anchor="middle" x="1102.5" y="-231.5" font-family="sans" font-size="10.00">gisaid_rbd_mutations</text>
</g>
<!-- 21&#45;&gt;0 -->
<g id="edge13" class="edge">
<title>21&#45;&gt;0</title>
<path fill="none" stroke="grey" stroke-width="2" d="M1115.93,-215.88C1128.86,-197.14 1144.55,-166.74 1130.5,-144 1079.18,-60.97 960.23,-33.07 888.48,-23.71"/>
<polygon fill="grey" stroke="grey" stroke-width="2" points="888.61,-20.2 878.25,-22.46 887.76,-27.15 888.61,-20.2"/>
</g>
<!-- 21&#45;&gt;22 -->
<g id="edge46" class="edge">
<title>21&#45;&gt;22</title>
<path fill="none" stroke="grey" stroke-width="2" d="M1094.1,-215.7C1090.23,-207.73 1085.55,-198.1 1081.26,-189.26"/>
<polygon fill="grey" stroke="grey" stroke-width="2" points="1084.33,-187.57 1076.81,-180.1 1078.03,-190.63 1084.33,-187.57"/>
</g>
<!-- 22&#45;&gt;0 -->
<g id="edge2" class="edge">
<title>22&#45;&gt;0</title>
<path fill="none" stroke="grey" stroke-width="2" d="M1047.79,-143.88C1024.21,-124.88 984.06,-93.98 946.5,-72 926.29,-60.17 902.98,-49.08 882.59,-40.12"/>
<polygon fill="grey" stroke="grey" stroke-width="2" points="883.7,-36.79 873.14,-36.03 880.93,-43.21 883.7,-36.79"/>
</g>
</g>
</svg>
