<?xml version="1.0" encoding="UTF-8" standalone="no"?>
<!DOCTYPE svg PUBLIC "-//W3C//DTD SVG 1.1//EN"
 "http://www.w3.org/Graphics/SVG/1.1/DTD/svg11.dtd">
<!-- Generated by graphviz version 2.49.1 (20211004.0028)
 -->
<!-- Title: snakemake_dag Pages: 1 -->
<svg width="880pt" height="404pt"
 viewBox="0.00 0.00 880.00 404.00" xmlns="http://www.w3.org/2000/svg" xmlns:xlink="http://www.w3.org/1999/xlink">
<g id="graph0" class="graph" transform="scale(1 1) rotate(0) translate(4 400)">
<title>snakemake_dag</title>
<polygon fill="white" stroke="transparent" points="-4,4 -4,-400 876,-400 876,4 -4,4"/>
<!-- 0 -->
<g id="node1" class="node">
<title>0</title>
<path fill="none" stroke="#d8c356" stroke-width="2" d="M578,-36C578,-36 507,-36 507,-36 501,-36 495,-30 495,-24 495,-24 495,-12 495,-12 495,-6 501,0 507,0 507,0 578,0 578,0 584,0 590,-6 590,-12 590,-12 590,-24 590,-24 590,-30 584,-36 578,-36"/>
<text text-anchor="middle" x="542.5" y="-15.5" font-family="sans" font-size="10.00">make_summary</text>
</g>
<!-- 1 -->
<g id="node2" class="node">
<title>1</title>
<path fill="none" stroke="#567bd8" stroke-width="2" d="M83,-108C83,-108 12,-108 12,-108 6,-108 0,-102 0,-96 0,-96 0,-84 0,-84 0,-78 6,-72 12,-72 12,-72 83,-72 83,-72 89,-72 95,-78 95,-84 95,-84 95,-96 95,-96 95,-102 89,-108 83,-108"/>
<text text-anchor="middle" x="47.5" y="-87.5" font-family="sans" font-size="10.00">make_rulegraph</text>
</g>
<!-- 1&#45;&gt;0 -->
<g id="edge9" class="edge">
<title>1&#45;&gt;0</title>
<path fill="none" stroke="grey" stroke-width="2" d="M95.24,-74.12C98.36,-73.35 101.47,-72.63 104.5,-72 239.12,-43.99 400.31,-29.2 484.62,-22.87"/>
<polygon fill="grey" stroke="grey" stroke-width="2" points="485.04,-26.34 494.76,-22.12 484.53,-19.36 485.04,-26.34"/>
</g>
<!-- 2 -->
<g id="node3" class="node">
<title>2</title>
<path fill="none" stroke="#d8a456" stroke-width="2" d="M265.5,-108C265.5,-108 125.5,-108 125.5,-108 119.5,-108 113.5,-102 113.5,-96 113.5,-96 113.5,-84 113.5,-84 113.5,-78 119.5,-72 125.5,-72 125.5,-72 265.5,-72 265.5,-72 271.5,-72 277.5,-78 277.5,-84 277.5,-84 277.5,-96 277.5,-96 277.5,-102 271.5,-108 265.5,-108"/>
<text text-anchor="middle" x="195.5" y="-87.5" font-family="sans" font-size="10.00">get_early2020_mut_bind_expr</text>
</g>
<!-- 2&#45;&gt;0 -->
<g id="edge2" class="edge">
<title>2&#45;&gt;0</title>
<path fill="none" stroke="grey" stroke-width="2" d="M277.73,-72.41C341.45,-59.56 428.12,-42.07 484.67,-30.67"/>
<polygon fill="grey" stroke="grey" stroke-width="2" points="485.41,-34.09 494.52,-28.68 484.03,-27.23 485.41,-34.09"/>
</g>
<!-- 3 -->
<g id="node4" class="node">
<title>3</title>
<path fill="none" stroke="#56d8c9" stroke-width="2" d="M439,-108C439,-108 308,-108 308,-108 302,-108 296,-102 296,-96 296,-96 296,-84 296,-84 296,-78 302,-72 308,-72 308,-72 439,-72 439,-72 445,-72 451,-78 451,-84 451,-84 451,-96 451,-96 451,-102 445,-108 439,-108"/>
<text text-anchor="middle" x="373.5" y="-87.5" font-family="sans" font-size="10.00">get_early2020_escape_fracs</text>
</g>
<!-- 3&#45;&gt;0 -->
<g id="edge7" class="edge">
<title>3&#45;&gt;0</title>
<path fill="none" stroke="grey" stroke-width="2" d="M414.84,-71.88C438.05,-62.26 467.19,-50.19 491.77,-40.01"/>
<polygon fill="grey" stroke="grey" stroke-width="2" points="493.39,-43.13 501.29,-36.07 490.71,-36.66 493.39,-43.13"/>
</g>
<!-- 4 -->
<g id="node5" class="node">
<title>4</title>
<path fill="none" stroke="#56d87b" stroke-width="2" d="M723.5,-396C723.5,-396 661.5,-396 661.5,-396 655.5,-396 649.5,-390 649.5,-384 649.5,-384 649.5,-372 649.5,-372 649.5,-366 655.5,-360 661.5,-360 661.5,-360 723.5,-360 723.5,-360 729.5,-360 735.5,-366 735.5,-372 735.5,-372 735.5,-384 735.5,-384 735.5,-390 729.5,-396 723.5,-396"/>
<text text-anchor="middle" x="692.5" y="-375.5" font-family="sans" font-size="10.00">build_variants</text>
</g>
<!-- 4&#45;&gt;0 -->
<g id="edge5" class="edge">
<title>4&#45;&gt;0</title>
<path fill="none" stroke="grey" stroke-width="2" d="M649.31,-365.95C623.21,-357.65 590.45,-344.19 566.5,-324 508.42,-275.06 495.8,-252.9 474.5,-180 459.97,-130.27 495.07,-75.26 520.06,-44.13"/>
<polygon fill="grey" stroke="grey" stroke-width="2" points="522.8,-46.31 526.48,-36.38 517.41,-41.85 522.8,-46.31"/>
</g>
<!-- 5 -->
<g id="node6" class="node">
<title>5</title>
<path fill="none" stroke="#d87d56" stroke-width="2" d="M690,-252C690,-252 571,-252 571,-252 565,-252 559,-246 559,-240 559,-240 559,-228 559,-228 559,-222 565,-216 571,-216 571,-216 690,-216 690,-216 696,-216 702,-222 702,-228 702,-228 702,-240 702,-240 702,-246 696,-252 690,-252"/>
<text text-anchor="middle" x="630.5" y="-231.5" font-family="sans" font-size="10.00">aggregate_variant_counts</text>
</g>
<!-- 4&#45;&gt;5 -->
<g id="edge10" class="edge">
<title>4&#45;&gt;5</title>
<path fill="none" stroke="grey" stroke-width="2" d="M691.23,-359.84C689.33,-341.33 684.68,-311.38 673.5,-288 668.7,-277.95 661.63,-268.14 654.6,-259.75"/>
<polygon fill="grey" stroke="grey" stroke-width="2" points="657.18,-257.38 647.95,-252.17 651.92,-261.99 657.18,-257.38"/>
</g>
<!-- 6 -->
<g id="node7" class="node">
<title>6</title>
<path fill="none" stroke="#d85656" stroke-width="2" d="M652,-324C652,-324 587,-324 587,-324 581,-324 575,-318 575,-312 575,-312 575,-300 575,-300 575,-294 581,-288 587,-288 587,-288 652,-288 652,-288 658,-288 664,-294 664,-300 664,-300 664,-312 664,-312 664,-318 658,-324 652,-324"/>
<text text-anchor="middle" x="619.5" y="-303.5" font-family="sans" font-size="10.00">count_variants</text>
</g>
<!-- 4&#45;&gt;6 -->
<g id="edge12" class="edge">
<title>4&#45;&gt;6</title>
<path fill="none" stroke="grey" stroke-width="2" d="M674.46,-359.7C665.44,-351.05 654.38,-340.45 644.56,-331.03"/>
<polygon fill="grey" stroke="grey" stroke-width="2" points="646.98,-328.5 637.34,-324.1 642.13,-333.55 646.98,-328.5"/>
</g>
<!-- 7 -->
<g id="node8" class="node">
<title>7</title>
<path fill="none" stroke="#78d856" stroke-width="2" d="M722.5,-180C722.5,-180 670.5,-180 670.5,-180 664.5,-180 658.5,-174 658.5,-168 658.5,-168 658.5,-156 658.5,-156 658.5,-150 664.5,-144 670.5,-144 670.5,-144 722.5,-144 722.5,-144 728.5,-144 734.5,-150 734.5,-156 734.5,-156 734.5,-168 734.5,-168 734.5,-174 728.5,-180 722.5,-180"/>
<text text-anchor="middle" x="696.5" y="-159.5" font-family="sans" font-size="10.00">fit_titrations</text>
</g>
<!-- 4&#45;&gt;7 -->
<g id="edge13" class="edge">
<title>4&#45;&gt;7</title>
<path fill="none" stroke="grey" stroke-width="2" d="M697.47,-359.58C705.26,-330.01 718.74,-268.13 711.5,-216 710.32,-207.48 708.11,-198.39 705.75,-190.2"/>
<polygon fill="grey" stroke="grey" stroke-width="2" points="709.02,-188.94 702.74,-180.41 702.33,-190.99 709.02,-188.94"/>
</g>
<!-- 8 -->
<g id="node9" class="node">
<title>8</title>
<path fill="none" stroke="#9fd856" stroke-width="2" d="M860,-180C860,-180 765,-180 765,-180 759,-180 753,-174 753,-168 753,-168 753,-156 753,-156 753,-150 759,-144 765,-144 765,-144 860,-144 860,-144 866,-144 872,-150 872,-156 872,-156 872,-168 872,-168 872,-174 866,-180 860,-180"/>
<text text-anchor="middle" x="812.5" y="-159.5" font-family="sans" font-size="10.00">calculate_expression</text>
</g>
<!-- 4&#45;&gt;8 -->
<g id="edge15" class="edge">
<title>4&#45;&gt;8</title>
<path fill="none" stroke="grey" stroke-width="2" d="M702.12,-359.85C723.09,-322.44 773.07,-233.32 797.93,-188.98"/>
<polygon fill="grey" stroke="grey" stroke-width="2" points="801,-190.67 802.84,-180.23 794.89,-187.24 801,-190.67"/>
</g>
<!-- 5&#45;&gt;0 -->
<g id="edge1" class="edge">
<title>5&#45;&gt;0</title>
<path fill="none" stroke="grey" stroke-width="2" d="M628.37,-215.85C625.75,-197.61 620.51,-168.13 611.5,-144 597.97,-107.76 575.29,-69.25 559.65,-44.71"/>
<polygon fill="grey" stroke="grey" stroke-width="2" points="562.4,-42.52 554.03,-36.02 556.52,-46.32 562.4,-42.52"/>
</g>
<!-- 5&#45;&gt;7 -->
<g id="edge14" class="edge">
<title>5&#45;&gt;7</title>
<path fill="none" stroke="grey" stroke-width="2" d="M646.81,-215.7C654.81,-207.22 664.57,-196.86 673.32,-187.58"/>
<polygon fill="grey" stroke="grey" stroke-width="2" points="676.06,-189.78 680.37,-180.1 670.97,-184.98 676.06,-189.78"/>
</g>
<!-- 5&#45;&gt;8 -->
<g id="edge16" class="edge">
<title>5&#45;&gt;8</title>
<path fill="none" stroke="grey" stroke-width="2" d="M675.02,-215.88C700.23,-206.18 731.95,-193.98 758.57,-183.74"/>
<polygon fill="grey" stroke="grey" stroke-width="2" points="760.05,-186.92 768.12,-180.07 757.53,-180.39 760.05,-186.92"/>
</g>
<!-- 10 -->
<g id="node11" class="node">
<title>10</title>
<path fill="none" stroke="#56c9d8" stroke-width="2" d="M590,-180C590,-180 495,-180 495,-180 489,-180 483,-174 483,-168 483,-168 483,-156 483,-156 483,-150 489,-144 495,-144 495,-144 590,-144 590,-144 596,-144 602,-150 602,-156 602,-156 602,-168 602,-168 602,-174 596,-180 590,-180"/>
<text text-anchor="middle" x="542.5" y="-159.5" font-family="sans" font-size="10.00">counts_to_cells_ratio</text>
</g>
<!-- 5&#45;&gt;10 -->
<g id="edge19" class="edge">
<title>5&#45;&gt;10</title>
<path fill="none" stroke="grey" stroke-width="2" d="M608.75,-215.7C597.66,-206.88 584.03,-196.03 572.01,-186.47"/>
<polygon fill="grey" stroke="grey" stroke-width="2" points="574.01,-183.59 564,-180.1 569.65,-189.07 574.01,-183.59"/>
</g>
<!-- 6&#45;&gt;5 -->
<g id="edge11" class="edge">
<title>6&#45;&gt;5</title>
<path fill="none" stroke="grey" stroke-width="2" d="M622.22,-287.7C623.43,-279.98 624.89,-270.71 626.24,-262.11"/>
<polygon fill="grey" stroke="grey" stroke-width="2" points="629.72,-262.53 627.81,-252.1 622.8,-261.44 629.72,-262.53"/>
</g>
<!-- 7&#45;&gt;0 -->
<g id="edge4" class="edge">
<title>7&#45;&gt;0</title>
<path fill="none" stroke="grey" stroke-width="2" d="M689.19,-143.74C680.27,-124.32 663.6,-92.77 641.5,-72 628.08,-59.39 611.09,-48.87 594.98,-40.61"/>
<polygon fill="grey" stroke="grey" stroke-width="2" points="596.15,-37.29 585.63,-36.01 593.06,-43.57 596.15,-37.29"/>
</g>
<!-- 9 -->
<g id="node10" class="node">
<title>9</title>
<path fill="none" stroke="#56d8a2" stroke-width="2" d="M775.5,-108C775.5,-108 705.5,-108 705.5,-108 699.5,-108 693.5,-102 693.5,-96 693.5,-96 693.5,-84 693.5,-84 693.5,-78 699.5,-72 705.5,-72 705.5,-72 775.5,-72 775.5,-72 781.5,-72 787.5,-78 787.5,-84 787.5,-84 787.5,-96 787.5,-96 787.5,-102 781.5,-108 775.5,-108"/>
<text text-anchor="middle" x="740.5" y="-87.5" font-family="sans" font-size="10.00">collapse_scores</text>
</g>
<!-- 7&#45;&gt;9 -->
<g id="edge18" class="edge">
<title>7&#45;&gt;9</title>
<path fill="none" stroke="grey" stroke-width="2" d="M707.38,-143.7C712.49,-135.56 718.7,-125.69 724.34,-116.7"/>
<polygon fill="grey" stroke="grey" stroke-width="2" points="727.39,-118.43 729.75,-108.1 721.46,-114.71 727.39,-118.43"/>
</g>
<!-- 8&#45;&gt;0 -->
<g id="edge3" class="edge">
<title>8&#45;&gt;0</title>
<path fill="none" stroke="grey" stroke-width="2" d="M814.62,-143.74C816.05,-123.71 815,-91.02 796.5,-72 769.86,-44.6 666.95,-30.24 600.58,-23.67"/>
<polygon fill="grey" stroke="grey" stroke-width="2" points="600.55,-20.15 590.26,-22.68 599.88,-27.12 600.55,-20.15"/>
</g>
<!-- 8&#45;&gt;9 -->
<g id="edge17" class="edge">
<title>8&#45;&gt;9</title>
<path fill="none" stroke="grey" stroke-width="2" d="M794.7,-143.7C785.9,-135.14 775.12,-124.66 765.5,-115.3"/>
<polygon fill="grey" stroke="grey" stroke-width="2" points="767.7,-112.57 758.09,-108.1 762.82,-117.58 767.7,-112.57"/>
</g>
<!-- 9&#45;&gt;0 -->
<g id="edge6" class="edge">
<title>9&#45;&gt;0</title>
<path fill="none" stroke="grey" stroke-width="2" d="M693.33,-72.32C665.37,-62.44 629.74,-49.84 600.13,-39.38"/>
<polygon fill="grey" stroke="grey" stroke-width="2" points="600.94,-35.95 590.34,-35.91 598.6,-42.55 600.94,-35.95"/>
</g>
<!-- 10&#45;&gt;0 -->
<g id="edge8" class="edge">
<title>10&#45;&gt;0</title>
<path fill="none" stroke="grey" stroke-width="2" d="M542.5,-143.87C542.5,-119.67 542.5,-75.21 542.5,-46.39"/>
<polygon fill="grey" stroke="grey" stroke-width="2" points="546,-46.19 542.5,-36.19 539,-46.19 546,-46.19"/>
</g>
</g>
</svg>
