<?xml version="1.0" encoding="UTF-8" standalone="no"?>
<!DOCTYPE svg PUBLIC "-//W3C//DTD SVG 1.1//EN"
 "http://www.w3.org/Graphics/SVG/1.1/DTD/svg11.dtd">
<!-- Generated by graphviz version 2.49.1 (20211004.0028)
 -->
<!-- Title: snakemake_dag Pages: 1 -->
<svg width="1793pt" height="692pt"
 viewBox="0.00 0.00 1792.50 692.00" xmlns="http://www.w3.org/2000/svg" xmlns:xlink="http://www.w3.org/1999/xlink">
<g id="graph0" class="graph" transform="scale(1 1) rotate(0) translate(4 688)">
<title>snakemake_dag</title>
<polygon fill="white" stroke="transparent" points="-4,4 -4,-688 1788.5,-688 1788.5,4 -4,4"/>
<!-- 0 -->
<g id="node1" class="node">
<title>0</title>
<path fill="none" stroke="#d6d856" stroke-width="2" d="M1142,-36C1142,-36 1071,-36 1071,-36 1065,-36 1059,-30 1059,-24 1059,-24 1059,-12 1059,-12 1059,-6 1065,0 1071,0 1071,0 1142,0 1142,0 1148,0 1154,-6 1154,-12 1154,-12 1154,-24 1154,-24 1154,-30 1148,-36 1142,-36"/>
<text text-anchor="middle" x="1106.5" y="-15.5" font-family="sans" font-size="10.00">make_summary</text>
</g>
<!-- 1 -->
<g id="node2" class="node">
<title>1</title>
<path fill="none" stroke="#56d89a" stroke-width="2" d="M83,-108C83,-108 12,-108 12,-108 6,-108 0,-102 0,-96 0,-96 0,-84 0,-84 0,-78 6,-72 12,-72 12,-72 83,-72 83,-72 89,-72 95,-78 95,-84 95,-84 95,-96 95,-96 95,-102 89,-108 83,-108"/>
<text text-anchor="middle" x="47.5" y="-87.5" font-family="sans" font-size="10.00">make_rulegraph</text>
</g>
<!-- 1&#45;&gt;0 -->
<g id="edge15" class="edge">
<title>1&#45;&gt;0</title>
<path fill="none" stroke="grey" stroke-width="2" d="M95,-74.87C99.87,-73.75 104.76,-72.77 109.5,-72 292.34,-42.43 864.72,-25.29 1048.83,-20.44"/>
<polygon fill="grey" stroke="grey" stroke-width="2" points="1048.95,-23.94 1058.86,-20.18 1048.77,-16.94 1048.95,-23.94"/>
</g>
<!-- 2 -->
<g id="node3" class="node">
<title>2</title>
<path fill="none" stroke="#d8cb56" stroke-width="2" d="M457.5,-180C457.5,-180 317.5,-180 317.5,-180 311.5,-180 305.5,-174 305.5,-168 305.5,-168 305.5,-156 305.5,-156 305.5,-150 311.5,-144 317.5,-144 317.5,-144 457.5,-144 457.5,-144 463.5,-144 469.5,-150 469.5,-156 469.5,-156 469.5,-168 469.5,-168 469.5,-174 463.5,-180 457.5,-180"/>
<text text-anchor="middle" x="387.5" y="-159.5" font-family="sans" font-size="10.00">get_early2020_mut_bind_expr</text>
</g>
<!-- 2&#45;&gt;0 -->
<g id="edge5" class="edge">
<title>2&#45;&gt;0</title>
<path fill="none" stroke="grey" stroke-width="2" d="M399.65,-143.65C415.53,-122.55 445.46,-87.81 480.5,-72 581.02,-26.63 913.38,-19.87 1048.56,-19.03"/>
<polygon fill="grey" stroke="grey" stroke-width="2" points="1048.73,-22.53 1058.71,-18.97 1048.69,-15.53 1048.73,-22.53"/>
</g>
<!-- 20 -->
<g id="node21" class="node">
<title>20</title>
<path fill="none" stroke="#56b9d8" stroke-width="2" d="M625,-108C625,-108 502,-108 502,-108 496,-108 490,-102 490,-96 490,-96 490,-84 490,-84 490,-78 496,-72 502,-72 502,-72 625,-72 625,-72 631,-72 637,-78 637,-84 637,-84 637,-96 637,-96 637,-102 631,-108 625,-108"/>
<text text-anchor="middle" x="563.5" y="-87.5" font-family="sans" font-size="10.00">early2020_escape_profiles</text>
</g>
<!-- 2&#45;&gt;20 -->
<g id="edge48" class="edge">
<title>2&#45;&gt;20</title>
<path fill="none" stroke="grey" stroke-width="2" d="M430.55,-143.88C454.83,-134.22 485.34,-122.09 511.01,-111.88"/>
<polygon fill="grey" stroke="grey" stroke-width="2" points="512.59,-115.02 520.59,-108.07 510,-108.51 512.59,-115.02"/>
</g>
<!-- 3 -->
<g id="node4" class="node">
<title>3</title>
<path fill="none" stroke="#97d856" stroke-width="2" d="M704,-252C704,-252 573,-252 573,-252 567,-252 561,-246 561,-240 561,-240 561,-228 561,-228 561,-222 567,-216 573,-216 573,-216 704,-216 704,-216 710,-216 716,-222 716,-228 716,-228 716,-240 716,-240 716,-246 710,-252 704,-252"/>
<text text-anchor="middle" x="638.5" y="-231.5" font-family="sans" font-size="10.00">get_early2020_escape_fracs</text>
</g>
<!-- 3&#45;&gt;0 -->
<g id="edge7" class="edge">
<title>3&#45;&gt;0</title>
<path fill="none" stroke="grey" stroke-width="2" d="M670.52,-215.94C687.7,-206.24 708.9,-193.39 726.5,-180 745.02,-165.92 746.51,-158.75 764.5,-144 807.42,-108.83 815.74,-94.42 866.5,-72 925.66,-45.87 998.89,-32.1 1048.79,-25.22"/>
<polygon fill="grey" stroke="grey" stroke-width="2" points="1049.31,-28.68 1058.76,-23.89 1048.39,-21.74 1049.31,-28.68"/>
</g>
<!-- 5 -->
<g id="node6" class="node">
<title>5</title>
<path fill="none" stroke="#61d856" stroke-width="2" d="M275.5,-180C275.5,-180 201.5,-180 201.5,-180 195.5,-180 189.5,-174 189.5,-168 189.5,-168 189.5,-156 189.5,-156 189.5,-150 195.5,-144 201.5,-144 201.5,-144 275.5,-144 275.5,-144 281.5,-144 287.5,-150 287.5,-156 287.5,-156 287.5,-168 287.5,-168 287.5,-174 281.5,-180 275.5,-180"/>
<text text-anchor="middle" x="238.5" y="-159.5" font-family="sans" font-size="10.00">bind_expr_filters</text>
</g>
<!-- 3&#45;&gt;5 -->
<g id="edge25" class="edge">
<title>3&#45;&gt;5</title>
<path fill="none" stroke="grey" stroke-width="2" d="M560.88,-223.93C493.51,-215.38 393.29,-201.04 297.59,-180.09"/>
<polygon fill="grey" stroke="grey" stroke-width="2" points="298.27,-176.66 287.75,-177.91 296.75,-183.49 298.27,-176.66"/>
</g>
<!-- 19 -->
<g id="node20" class="node">
<title>19</title>
<path fill="none" stroke="#5692d8" stroke-width="2" d="M705.5,-180C705.5,-180 537.5,-180 537.5,-180 531.5,-180 525.5,-174 525.5,-168 525.5,-168 525.5,-156 525.5,-156 525.5,-150 531.5,-144 537.5,-144 537.5,-144 705.5,-144 705.5,-144 711.5,-144 717.5,-150 717.5,-156 717.5,-156 717.5,-168 717.5,-168 717.5,-174 711.5,-180 705.5,-180"/>
<text text-anchor="middle" x="621.5" y="-159.5" font-family="sans" font-size="10.00">early2020_call_strong_escape_sites</text>
</g>
<!-- 3&#45;&gt;19 -->
<g id="edge45" class="edge">
<title>3&#45;&gt;19</title>
<path fill="none" stroke="grey" stroke-width="2" d="M634.3,-215.7C632.4,-207.9 630.12,-198.51 628.02,-189.83"/>
<polygon fill="grey" stroke="grey" stroke-width="2" points="631.42,-189 625.65,-180.1 624.61,-190.65 631.42,-189"/>
</g>
<!-- 3&#45;&gt;20 -->
<g id="edge47" class="edge">
<title>3&#45;&gt;20</title>
<path fill="none" stroke="grey" stroke-width="2" d="M562.96,-215.89C544.73,-208.04 527.39,-196.61 516.5,-180 502.83,-159.16 518.98,-133.92 535.97,-115.64"/>
<polygon fill="grey" stroke="grey" stroke-width="2" points="538.7,-117.86 543.21,-108.27 533.71,-112.95 538.7,-117.86"/>
</g>
<!-- 21 -->
<g id="node22" class="node">
<title>21</title>
<path fill="none" stroke="#70d856" stroke-width="2" d="M881,-180C881,-180 786,-180 786,-180 780,-180 774,-174 774,-168 774,-168 774,-156 774,-156 774,-150 780,-144 786,-144 786,-144 881,-144 881,-144 887,-144 893,-150 893,-156 893,-156 893,-168 893,-168 893,-174 887,-180 881,-180"/>
<text text-anchor="middle" x="833.5" y="-159.5" font-family="sans" font-size="10.00">mds_escape_profiles</text>
</g>
<!-- 3&#45;&gt;21 -->
<g id="edge49" class="edge">
<title>3&#45;&gt;21</title>
<path fill="none" stroke="grey" stroke-width="2" d="M686.2,-215.88C713.45,-206.09 747.8,-193.77 776.47,-183.47"/>
<polygon fill="grey" stroke="grey" stroke-width="2" points="777.72,-186.74 785.95,-180.07 775.36,-180.15 777.72,-186.74"/>
</g>
<!-- 24 -->
<g id="node25" class="node">
<title>24</title>
<path fill="none" stroke="#d85656" stroke-width="2" d="M1047,-180C1047,-180 962,-180 962,-180 956,-180 950,-174 950,-168 950,-168 950,-156 950,-156 950,-150 956,-144 962,-144 962,-144 1047,-144 1047,-144 1053,-144 1059,-150 1059,-156 1059,-156 1059,-168 1059,-168 1059,-174 1053,-180 1047,-180"/>
<text text-anchor="middle" x="1004.5" y="-159.5" font-family="sans" font-size="10.00">lineplots_by_group</text>
</g>
<!-- 3&#45;&gt;24 -->
<g id="edge55" class="edge">
<title>3&#45;&gt;24</title>
<path fill="none" stroke="grey" stroke-width="2" d="M716.12,-218.15C782.61,-205.44 877.25,-187.34 939.73,-175.39"/>
<polygon fill="grey" stroke="grey" stroke-width="2" points="940.7,-178.77 949.86,-173.45 939.38,-171.89 940.7,-178.77"/>
</g>
<!-- 4 -->
<g id="node5" class="node">
<title>4</title>
<path fill="none" stroke="#566bd8" stroke-width="2" d="M904.5,-252C904.5,-252 800.5,-252 800.5,-252 794.5,-252 788.5,-246 788.5,-240 788.5,-240 788.5,-228 788.5,-228 788.5,-222 794.5,-216 800.5,-216 800.5,-216 904.5,-216 904.5,-216 910.5,-216 916.5,-222 916.5,-228 916.5,-228 916.5,-240 916.5,-240 916.5,-246 910.5,-252 904.5,-252"/>
<text text-anchor="middle" x="852.5" y="-231.5" font-family="sans" font-size="10.00">get_beta_escape_fracs</text>
</g>
<!-- 4&#45;&gt;0 -->
<g id="edge24" class="edge">
<title>4&#45;&gt;0</title>
<path fill="none" stroke="grey" stroke-width="2" d="M868.03,-215.86C885.1,-197.38 913.67,-167.45 940.5,-144 984.32,-105.7 1038.84,-66.03 1073.16,-41.93"/>
<polygon fill="grey" stroke="grey" stroke-width="2" points="1075.25,-44.74 1081.44,-36.15 1071.24,-39.01 1075.25,-44.74"/>
</g>
<!-- 4&#45;&gt;21 -->
<g id="edge51" class="edge">
<title>4&#45;&gt;21</title>
<path fill="none" stroke="grey" stroke-width="2" d="M847.8,-215.7C845.69,-207.9 843.14,-198.51 840.78,-189.83"/>
<polygon fill="grey" stroke="grey" stroke-width="2" points="844.14,-188.84 838.14,-180.1 837.38,-190.67 844.14,-188.84"/>
</g>
<!-- 4&#45;&gt;24 -->
<g id="edge57" class="edge">
<title>4&#45;&gt;24</title>
<path fill="none" stroke="grey" stroke-width="2" d="M889.68,-215.88C910.37,-206.35 936.3,-194.41 958.28,-184.28"/>
<polygon fill="grey" stroke="grey" stroke-width="2" points="959.82,-187.43 967.44,-180.07 956.89,-181.07 959.82,-187.43"/>
</g>
<!-- 5&#45;&gt;0 -->
<g id="edge11" class="edge">
<title>5&#45;&gt;0</title>
<path fill="none" stroke="grey" stroke-width="2" d="M266.56,-143.89C302.6,-122.87 367.75,-88.03 428.5,-72 545.02,-41.25 906.84,-25.84 1048.65,-20.86"/>
<polygon fill="grey" stroke="grey" stroke-width="2" points="1049,-24.35 1058.88,-20.5 1048.76,-17.35 1049,-24.35"/>
</g>
<!-- 6 -->
<g id="node7" class="node">
<title>6</title>
<path fill="none" stroke="#56d8a9" stroke-width="2" d="M1151.5,-396C1151.5,-396 1081.5,-396 1081.5,-396 1075.5,-396 1069.5,-390 1069.5,-384 1069.5,-384 1069.5,-372 1069.5,-372 1069.5,-366 1075.5,-360 1081.5,-360 1081.5,-360 1151.5,-360 1151.5,-360 1157.5,-360 1163.5,-366 1163.5,-372 1163.5,-372 1163.5,-384 1163.5,-384 1163.5,-390 1157.5,-396 1151.5,-396"/>
<text text-anchor="middle" x="1116.5" y="-375.5" font-family="sans" font-size="10.00">collapse_scores</text>
</g>
<!-- 6&#45;&gt;0 -->
<g id="edge16" class="edge">
<title>6&#45;&gt;0</title>
<path fill="none" stroke="grey" stroke-width="2" d="M1080.76,-359.86C1043.62,-339.83 987.61,-302.83 963.5,-252 956.64,-237.54 954.2,-229.02 963.5,-216 992.17,-175.86 1035.38,-216.56 1068.5,-180 1102.05,-142.97 1107.55,-81.9 1107.63,-46.58"/>
<polygon fill="grey" stroke="grey" stroke-width="2" points="1111.13,-46.45 1107.5,-36.49 1104.13,-46.54 1111.13,-46.45"/>
</g>
<!-- 6&#45;&gt;5 -->
<g id="edge26" class="edge">
<title>6&#45;&gt;5</title>
<path fill="none" stroke="grey" stroke-width="2" d="M1069.41,-367.54C972.2,-347.79 742.46,-300.04 551.5,-252 462.31,-229.56 359.98,-199.67 297.29,-180.88"/>
<polygon fill="grey" stroke="grey" stroke-width="2" points="298.17,-177.49 287.58,-177.96 296.15,-184.19 298.17,-177.49"/>
</g>
<!-- 15 -->
<g id="node16" class="node">
<title>15</title>
<path fill="none" stroke="#56d873" stroke-width="2" d="M1264,-324C1264,-324 1187,-324 1187,-324 1181,-324 1175,-318 1175,-312 1175,-312 1175,-300 1175,-300 1175,-294 1181,-288 1187,-288 1187,-288 1264,-288 1264,-288 1270,-288 1276,-294 1276,-300 1276,-300 1276,-312 1276,-312 1276,-318 1270,-324 1264,-324"/>
<text text-anchor="middle" x="1225.5" y="-303.5" font-family="sans" font-size="10.00">counts_to_scores</text>
</g>
<!-- 6&#45;&gt;15 -->
<g id="edge38" class="edge">
<title>6&#45;&gt;15</title>
<path fill="none" stroke="grey" stroke-width="2" d="M1143.16,-359.88C1157.28,-350.81 1174.81,-339.55 1190.06,-329.76"/>
<polygon fill="grey" stroke="grey" stroke-width="2" points="1192.21,-332.54 1198.73,-324.19 1188.43,-326.65 1192.21,-332.54"/>
</g>
<!-- 16 -->
<g id="node17" class="node">
<title>16</title>
<path fill="none" stroke="#afd856" stroke-width="2" d="M1068.5,-252C1068.5,-252 984.5,-252 984.5,-252 978.5,-252 972.5,-246 972.5,-240 972.5,-240 972.5,-228 972.5,-228 972.5,-222 978.5,-216 984.5,-216 984.5,-216 1068.5,-216 1068.5,-216 1074.5,-216 1080.5,-222 1080.5,-228 1080.5,-228 1080.5,-240 1080.5,-240 1080.5,-246 1074.5,-252 1068.5,-252"/>
<text text-anchor="middle" x="1026.5" y="-231.5" font-family="sans" font-size="10.00">investigate_scores</text>
</g>
<!-- 6&#45;&gt;16 -->
<g id="edge40" class="edge">
<title>6&#45;&gt;16</title>
<path fill="none" stroke="grey" stroke-width="2" d="M1105.64,-359.87C1090.03,-335.24 1061.13,-289.64 1042.91,-260.88"/>
<polygon fill="grey" stroke="grey" stroke-width="2" points="1045.7,-258.76 1037.39,-252.19 1039.79,-262.51 1045.7,-258.76"/>
</g>
<!-- 18 -->
<g id="node19" class="node">
<title>18</title>
<path fill="none" stroke="#56d8d0" stroke-width="2" d="M1235,-180C1235,-180 1166,-180 1166,-180 1160,-180 1154,-174 1154,-168 1154,-168 1154,-156 1154,-156 1154,-150 1160,-144 1166,-144 1166,-144 1235,-144 1235,-144 1241,-144 1247,-150 1247,-156 1247,-156 1247,-168 1247,-168 1247,-174 1241,-180 1235,-180"/>
<text text-anchor="middle" x="1200.5" y="-159.5" font-family="sans" font-size="10.00">escape_profiles</text>
</g>
<!-- 6&#45;&gt;18 -->
<g id="edge43" class="edge">
<title>6&#45;&gt;18</title>
<path fill="none" stroke="grey" stroke-width="2" d="M1123.23,-359.85C1137.82,-322.68 1172.46,-234.44 1189.97,-189.82"/>
<polygon fill="grey" stroke="grey" stroke-width="2" points="1193.34,-190.82 1193.74,-180.23 1186.82,-188.26 1193.34,-190.82"/>
</g>
<!-- 7 -->
<g id="node8" class="node">
<title>7</title>
<path fill="none" stroke="#d8b456" stroke-width="2" d="M1493,-468C1493,-468 1440,-468 1440,-468 1434,-468 1428,-462 1428,-456 1428,-456 1428,-444 1428,-444 1428,-438 1434,-432 1440,-432 1440,-432 1493,-432 1493,-432 1499,-432 1505,-438 1505,-444 1505,-444 1505,-456 1505,-456 1505,-462 1499,-468 1493,-468"/>
<text text-anchor="middle" x="1466.5" y="-447.5" font-family="sans" font-size="10.00">fit_titrations</text>
</g>
<!-- 7&#45;&gt;0 -->
<g id="edge4" class="edge">
<title>7&#45;&gt;0</title>
<path fill="none" stroke="grey" stroke-width="2" d="M1505.14,-446.89C1581.95,-440.38 1746.5,-413.97 1746.5,-307 1746.5,-307 1746.5,-307 1746.5,-161 1746.5,-117.81 1742.58,-97.19 1707.5,-72 1664.03,-40.78 1306.89,-25.63 1164.64,-20.79"/>
<polygon fill="grey" stroke="grey" stroke-width="2" points="1164.48,-17.28 1154.37,-20.44 1164.25,-24.28 1164.48,-17.28"/>
</g>
<!-- 7&#45;&gt;6 -->
<g id="edge28" class="edge">
<title>7&#45;&gt;6</title>
<path fill="none" stroke="grey" stroke-width="2" d="M1427.94,-434.45C1425.1,-433.57 1422.27,-432.74 1419.5,-432 1335.23,-409.57 1235.17,-394.19 1173.76,-385.99"/>
<polygon fill="grey" stroke="grey" stroke-width="2" points="1173.88,-382.48 1163.5,-384.64 1172.96,-389.42 1173.88,-382.48"/>
</g>
<!-- 8 -->
<g id="node9" class="node">
<title>8</title>
<path fill="none" stroke="#56c9d8" stroke-width="2" d="M1446.5,-540C1446.5,-540 1384.5,-540 1384.5,-540 1378.5,-540 1372.5,-534 1372.5,-528 1372.5,-528 1372.5,-516 1372.5,-516 1372.5,-510 1378.5,-504 1384.5,-504 1384.5,-504 1446.5,-504 1446.5,-504 1452.5,-504 1458.5,-510 1458.5,-516 1458.5,-516 1458.5,-528 1458.5,-528 1458.5,-534 1452.5,-540 1446.5,-540"/>
<text text-anchor="middle" x="1415.5" y="-519.5" font-family="sans" font-size="10.00">build_variants</text>
</g>
<!-- 8&#45;&gt;0 -->
<g id="edge20" class="edge">
<title>8&#45;&gt;0</title>
<path fill="none" stroke="grey" stroke-width="2" d="M1458.55,-513.84C1555.89,-496.42 1784.5,-448.16 1784.5,-379 1784.5,-379 1784.5,-379 1784.5,-161 1784.5,-116.06 1774.09,-96.63 1736.5,-72 1689.26,-41.05 1310.79,-25.61 1164.2,-20.74"/>
<polygon fill="grey" stroke="grey" stroke-width="2" points="1164.17,-17.24 1154.06,-20.41 1163.94,-24.24 1164.17,-17.24"/>
</g>
<!-- 8&#45;&gt;7 -->
<g id="edge29" class="edge">
<title>8&#45;&gt;7</title>
<path fill="none" stroke="grey" stroke-width="2" d="M1428.11,-503.7C1434.1,-495.47 1441.38,-485.48 1447.98,-476.42"/>
<polygon fill="grey" stroke="grey" stroke-width="2" points="1450.98,-478.25 1454.04,-468.1 1445.32,-474.13 1450.98,-478.25"/>
</g>
<!-- 11 -->
<g id="node12" class="node">
<title>11</title>
<path fill="none" stroke="#567bd8" stroke-width="2" d="M1164,-468C1164,-468 1069,-468 1069,-468 1063,-468 1057,-462 1057,-456 1057,-456 1057,-444 1057,-444 1057,-438 1063,-432 1069,-432 1069,-432 1164,-432 1164,-432 1170,-432 1176,-438 1176,-444 1176,-444 1176,-456 1176,-456 1176,-462 1170,-468 1164,-468"/>
<text text-anchor="middle" x="1116.5" y="-447.5" font-family="sans" font-size="10.00">calculate_expression</text>
</g>
<!-- 8&#45;&gt;11 -->
<g id="edge32" class="edge">
<title>8&#45;&gt;11</title>
<path fill="none" stroke="grey" stroke-width="2" d="M1372.34,-510.9C1323.57,-499.48 1243.5,-480.73 1185.92,-467.25"/>
<polygon fill="grey" stroke="grey" stroke-width="2" points="1186.7,-463.84 1176.16,-464.97 1185.1,-470.66 1186.7,-463.84"/>
</g>
<!-- 12 -->
<g id="node13" class="node">
<title>12</title>
<path fill="none" stroke="#d87d56" stroke-width="2" d="M1593,-396C1593,-396 1474,-396 1474,-396 1468,-396 1462,-390 1462,-384 1462,-384 1462,-372 1462,-372 1462,-366 1468,-360 1474,-360 1474,-360 1593,-360 1593,-360 1599,-360 1605,-366 1605,-372 1605,-372 1605,-384 1605,-384 1605,-390 1599,-396 1593,-396"/>
<text text-anchor="middle" x="1533.5" y="-375.5" font-family="sans" font-size="10.00">aggregate_variant_counts</text>
</g>
<!-- 8&#45;&gt;12 -->
<g id="edge33" class="edge">
<title>8&#45;&gt;12</title>
<path fill="none" stroke="grey" stroke-width="2" d="M1458.74,-507.43C1478.56,-499.08 1500.67,-486.39 1514.5,-468 1527.82,-450.29 1532.25,-425.27 1533.53,-406.27"/>
<polygon fill="grey" stroke="grey" stroke-width="2" points="1537.03,-406.28 1533.96,-396.15 1530.04,-405.99 1537.03,-406.28"/>
</g>
<!-- 13 -->
<g id="node14" class="node">
<title>13</title>
<path fill="none" stroke="#d8a456" stroke-width="2" d="M1398,-468C1398,-468 1333,-468 1333,-468 1327,-468 1321,-462 1321,-456 1321,-456 1321,-444 1321,-444 1321,-438 1327,-432 1333,-432 1333,-432 1398,-432 1398,-432 1404,-432 1410,-438 1410,-444 1410,-444 1410,-456 1410,-456 1410,-462 1404,-468 1398,-468"/>
<text text-anchor="middle" x="1365.5" y="-447.5" font-family="sans" font-size="10.00">count_variants</text>
</g>
<!-- 8&#45;&gt;13 -->
<g id="edge35" class="edge">
<title>8&#45;&gt;13</title>
<path fill="none" stroke="grey" stroke-width="2" d="M1403.14,-503.7C1397.27,-495.47 1390.13,-485.48 1383.66,-476.42"/>
<polygon fill="grey" stroke="grey" stroke-width="2" points="1386.38,-474.21 1377.72,-468.1 1380.68,-478.28 1386.38,-474.21"/>
</g>
<!-- 9 -->
<g id="node10" class="node">
<title>9</title>
<path fill="none" stroke="#bed856" stroke-width="2" d="M661,-612C661,-612 610,-612 610,-612 604,-612 598,-606 598,-600 598,-600 598,-588 598,-588 598,-582 604,-576 610,-576 610,-576 661,-576 661,-576 667,-576 673,-582 673,-588 673,-588 673,-600 673,-600 673,-606 667,-612 661,-612"/>
<text text-anchor="middle" x="635.5" y="-591.5" font-family="sans" font-size="10.00">process_ccs</text>
</g>
<!-- 9&#45;&gt;0 -->
<g id="edge6" class="edge">
<title>9&#45;&gt;0</title>
<path fill="none" stroke="grey" stroke-width="2" d="M597.85,-590.7C479.61,-582.46 123.5,-549.47 123.5,-451 123.5,-451 123.5,-451 123.5,-161 123.5,-109.56 151.58,-95.19 197.5,-72 273.19,-33.77 860.58,-22.39 1048.73,-19.71"/>
<polygon fill="grey" stroke="grey" stroke-width="2" points="1049.01,-23.21 1058.96,-19.57 1048.92,-16.21 1049.01,-23.21"/>
</g>
<!-- 9&#45;&gt;8 -->
<g id="edge30" class="edge">
<title>9&#45;&gt;8</title>
<path fill="none" stroke="grey" stroke-width="2" d="M673.12,-589.62C800.17,-578.22 1213.61,-541.12 1361.93,-527.81"/>
<polygon fill="grey" stroke="grey" stroke-width="2" points="1362.5,-531.27 1372.14,-526.89 1361.87,-524.3 1362.5,-531.27"/>
</g>
<!-- 10 -->
<g id="node11" class="node">
<title>10</title>
<path fill="none" stroke="#d86656" stroke-width="2" d="M650.5,-684C650.5,-684 620.5,-684 620.5,-684 614.5,-684 608.5,-678 608.5,-672 608.5,-672 608.5,-660 608.5,-660 608.5,-654 614.5,-648 620.5,-648 620.5,-648 650.5,-648 650.5,-648 656.5,-648 662.5,-654 662.5,-660 662.5,-660 662.5,-672 662.5,-672 662.5,-678 656.5,-684 650.5,-684"/>
<text text-anchor="middle" x="635.5" y="-663.5" font-family="sans" font-size="10.00">get_ccs</text>
</g>
<!-- 10&#45;&gt;9 -->
<g id="edge31" class="edge">
<title>10&#45;&gt;9</title>
<path fill="none" stroke="grey" stroke-width="2" d="M635.5,-647.7C635.5,-639.98 635.5,-630.71 635.5,-622.11"/>
<polygon fill="grey" stroke="grey" stroke-width="2" points="639,-622.1 635.5,-612.1 632,-622.1 639,-622.1"/>
</g>
<!-- 11&#45;&gt;0 -->
<g id="edge23" class="edge">
<title>11&#45;&gt;0</title>
<path fill="none" stroke="grey" stroke-width="2" d="M1056.76,-446.45C847.69,-436.74 161.5,-397.93 161.5,-307 161.5,-307 161.5,-307 161.5,-161 161.5,-116.16 8.27,-156.48 333.5,-72 468.65,-36.89 892.96,-23.87 1048.56,-20.2"/>
<polygon fill="grey" stroke="grey" stroke-width="2" points="1048.94,-23.69 1058.85,-19.96 1048.77,-16.7 1048.94,-23.69"/>
</g>
<!-- 11&#45;&gt;6 -->
<g id="edge27" class="edge">
<title>11&#45;&gt;6</title>
<path fill="none" stroke="grey" stroke-width="2" d="M1116.5,-431.7C1116.5,-423.98 1116.5,-414.71 1116.5,-406.11"/>
<polygon fill="grey" stroke="grey" stroke-width="2" points="1120,-406.1 1116.5,-396.1 1113,-406.1 1120,-406.1"/>
</g>
<!-- 12&#45;&gt;0 -->
<g id="edge2" class="edge">
<title>12&#45;&gt;0</title>
<path fill="none" stroke="grey" stroke-width="2" d="M1545.8,-359.94C1568.52,-327.1 1616,-251.98 1629.5,-180 1638.57,-131.67 1643.81,-102.82 1605.5,-72 1571.7,-44.81 1288.5,-27.85 1164.39,-21.66"/>
<polygon fill="grey" stroke="grey" stroke-width="2" points="1164.47,-18.16 1154.31,-21.16 1164.13,-25.15 1164.47,-18.16"/>
</g>
<!-- 14 -->
<g id="node15" class="node">
<title>14</title>
<path fill="none" stroke="#d88d56" stroke-width="2" d="M1706,-324C1706,-324 1611,-324 1611,-324 1605,-324 1599,-318 1599,-312 1599,-312 1599,-300 1599,-300 1599,-294 1605,-288 1611,-288 1611,-288 1706,-288 1706,-288 1712,-288 1718,-294 1718,-300 1718,-300 1718,-312 1718,-312 1718,-318 1712,-324 1706,-324"/>
<text text-anchor="middle" x="1658.5" y="-303.5" font-family="sans" font-size="10.00">counts_to_cells_ratio</text>
</g>
<!-- 12&#45;&gt;14 -->
<g id="edge36" class="edge">
<title>12&#45;&gt;14</title>
<path fill="none" stroke="grey" stroke-width="2" d="M1564.08,-359.88C1580.57,-350.64 1601.12,-339.13 1618.84,-329.21"/>
<polygon fill="grey" stroke="grey" stroke-width="2" points="1620.79,-332.13 1627.8,-324.19 1617.37,-326.02 1620.79,-332.13"/>
</g>
<!-- 12&#45;&gt;15 -->
<g id="edge37" class="edge">
<title>12&#45;&gt;15</title>
<path fill="none" stroke="grey" stroke-width="2" d="M1461.68,-360.68C1408.35,-348.56 1336.43,-332.21 1286.01,-320.75"/>
<polygon fill="grey" stroke="grey" stroke-width="2" points="1286.76,-317.33 1276.23,-318.53 1285.21,-324.16 1286.76,-317.33"/>
</g>
<!-- 13&#45;&gt;12 -->
<g id="edge34" class="edge">
<title>13&#45;&gt;12</title>
<path fill="none" stroke="grey" stroke-width="2" d="M1406.6,-431.88C1429.67,-422.26 1458.64,-410.19 1483.07,-400.01"/>
<polygon fill="grey" stroke="grey" stroke-width="2" points="1484.65,-403.15 1492.54,-396.07 1481.96,-396.68 1484.65,-403.15"/>
</g>
<!-- 14&#45;&gt;0 -->
<g id="edge3" class="edge">
<title>14&#45;&gt;0</title>
<path fill="none" stroke="grey" stroke-width="2" d="M1668.05,-287.97C1690.48,-245.42 1740.61,-133.49 1684.5,-72 1649.88,-34.06 1303.74,-22.93 1164.28,-19.98"/>
<polygon fill="grey" stroke="grey" stroke-width="2" points="1164.27,-16.48 1154.2,-19.77 1164.13,-23.48 1164.27,-16.48"/>
</g>
<!-- 15&#45;&gt;0 -->
<g id="edge13" class="edge">
<title>15&#45;&gt;0</title>
<path fill="none" stroke="grey" stroke-width="2" d="M1276.27,-304.96C1363.68,-303.7 1536.92,-295.62 1575.5,-252 1628.51,-192.06 1632.84,-131.65 1579.5,-72 1552.24,-41.51 1284.25,-26.48 1164.17,-21.24"/>
<polygon fill="grey" stroke="grey" stroke-width="2" points="1164.2,-17.73 1154.06,-20.8 1163.9,-24.73 1164.2,-17.73"/>
</g>
<!-- 15&#45;&gt;16 -->
<g id="edge39" class="edge">
<title>15&#45;&gt;16</title>
<path fill="none" stroke="grey" stroke-width="2" d="M1177.07,-287.97C1149.27,-278.19 1114.16,-265.84 1084.85,-255.52"/>
<polygon fill="grey" stroke="grey" stroke-width="2" points="1085.74,-252.13 1075.14,-252.11 1083.42,-258.73 1085.74,-252.13"/>
</g>
<!-- 17 -->
<g id="node18" class="node">
<title>17</title>
<path fill="none" stroke="#56d88a" stroke-width="2" d="M1376.5,-252C1376.5,-252 1262.5,-252 1262.5,-252 1256.5,-252 1250.5,-246 1250.5,-240 1250.5,-240 1250.5,-228 1250.5,-228 1250.5,-222 1256.5,-216 1262.5,-216 1262.5,-216 1376.5,-216 1376.5,-216 1382.5,-216 1388.5,-222 1388.5,-228 1388.5,-228 1388.5,-240 1388.5,-240 1388.5,-246 1382.5,-252 1376.5,-252"/>
<text text-anchor="middle" x="1319.5" y="-231.5" font-family="sans" font-size="10.00">call_strong_escape_sites</text>
</g>
<!-- 15&#45;&gt;17 -->
<g id="edge41" class="edge">
<title>15&#45;&gt;17</title>
<path fill="none" stroke="grey" stroke-width="2" d="M1248.74,-287.7C1260.69,-278.8 1275.42,-267.82 1288.35,-258.2"/>
<polygon fill="grey" stroke="grey" stroke-width="2" points="1290.6,-260.88 1296.53,-252.1 1286.42,-255.27 1290.6,-260.88"/>
</g>
<!-- 15&#45;&gt;18 -->
<g id="edge42" class="edge">
<title>15&#45;&gt;18</title>
<path fill="none" stroke="grey" stroke-width="2" d="M1218.84,-287.59C1215.21,-277.37 1210.96,-264.12 1208.5,-252 1204.36,-231.6 1202.37,-208.14 1201.4,-190.43"/>
<polygon fill="grey" stroke="grey" stroke-width="2" points="1204.89,-190.05 1200.92,-180.22 1197.9,-190.38 1204.89,-190.05"/>
</g>
<!-- 15&#45;&gt;21 -->
<g id="edge50" class="edge">
<title>15&#45;&gt;21</title>
<path fill="none" stroke="grey" stroke-width="2" d="M1174.95,-302.71C1063.69,-297.14 805.42,-281.19 779.5,-252 761.94,-232.23 782.09,-205.99 802.58,-187.13"/>
<polygon fill="grey" stroke="grey" stroke-width="2" points="805.17,-189.52 810.37,-180.29 800.55,-184.26 805.17,-189.52"/>
</g>
<!-- 22 -->
<g id="node23" class="node">
<title>22</title>
<path fill="none" stroke="#88d856" stroke-width="2" d="M1558,-108C1558,-108 1505,-108 1505,-108 1499,-108 1493,-102 1493,-96 1493,-96 1493,-84 1493,-84 1493,-78 1499,-72 1505,-72 1505,-72 1558,-72 1558,-72 1564,-72 1570,-78 1570,-84 1570,-84 1570,-96 1570,-96 1570,-102 1564,-108 1558,-108"/>
<text text-anchor="middle" x="1531.5" y="-87.5" font-family="sans" font-size="10.00">output_pdbs</text>
</g>
<!-- 15&#45;&gt;22 -->
<g id="edge52" class="edge">
<title>15&#45;&gt;22</title>
<path fill="none" stroke="grey" stroke-width="2" d="M1276.01,-304.52C1359.19,-302.53 1519.33,-293.29 1554.5,-252 1586.63,-214.28 1563.9,-152.61 1546.42,-117.56"/>
<polygon fill="grey" stroke="grey" stroke-width="2" points="1549.4,-115.68 1541.68,-108.42 1543.18,-118.91 1549.4,-115.68"/>
</g>
<!-- 23 -->
<g id="node24" class="node">
<title>23</title>
<path fill="none" stroke="#56d8c1" stroke-width="2" d="M1279,-108C1279,-108 1204,-108 1204,-108 1198,-108 1192,-102 1192,-96 1192,-96 1192,-84 1192,-84 1192,-78 1198,-72 1204,-72 1204,-72 1279,-72 1279,-72 1285,-72 1291,-78 1291,-84 1291,-84 1291,-96 1291,-96 1291,-102 1285,-108 1279,-108"/>
<text text-anchor="middle" x="1241.5" y="-87.5" font-family="sans" font-size="10.00">make_supp_data</text>
</g>
<!-- 15&#45;&gt;23 -->
<g id="edge54" class="edge">
<title>15&#45;&gt;23</title>
<path fill="none" stroke="grey" stroke-width="2" d="M1227.48,-287.68C1229.82,-269.56 1234.32,-240.4 1241.5,-216 1246.4,-199.37 1253.1,-197 1256.5,-180 1259.64,-164.31 1258.7,-159.85 1256.5,-144 1255.32,-135.48 1253.11,-126.39 1250.75,-118.2"/>
<polygon fill="grey" stroke="grey" stroke-width="2" points="1254.02,-116.94 1247.74,-108.41 1247.33,-118.99 1254.02,-116.94"/>
</g>
<!-- 15&#45;&gt;24 -->
<g id="edge56" class="edge">
<title>15&#45;&gt;24</title>
<path fill="none" stroke="grey" stroke-width="2" d="M1199.79,-287.93C1172.52,-269.89 1128.14,-240.69 1089.5,-216 1073.57,-205.83 1055.85,-194.74 1040.73,-185.35"/>
<polygon fill="grey" stroke="grey" stroke-width="2" points="1042.5,-182.33 1032.16,-180.03 1038.81,-188.28 1042.5,-182.33"/>
</g>
<!-- 26 -->
<g id="node27" class="node">
<title>26</title>
<path fill="none" stroke="#56a2d8" stroke-width="2" d="M1500.5,-180C1500.5,-180 1418.5,-180 1418.5,-180 1412.5,-180 1406.5,-174 1406.5,-168 1406.5,-168 1406.5,-156 1406.5,-156 1406.5,-150 1412.5,-144 1418.5,-144 1418.5,-144 1500.5,-144 1500.5,-144 1506.5,-144 1512.5,-150 1512.5,-156 1512.5,-156 1512.5,-168 1512.5,-168 1512.5,-174 1506.5,-180 1500.5,-180"/>
<text text-anchor="middle" x="1459.5" y="-159.5" font-family="sans" font-size="10.00">natural_mutations</text>
</g>
<!-- 15&#45;&gt;26 -->
<g id="edge58" class="edge">
<title>15&#45;&gt;26</title>
<path fill="none" stroke="grey" stroke-width="2" d="M1276.3,-304C1355.97,-301.24 1504.67,-290.88 1537.5,-252 1547.82,-239.78 1544.99,-230.14 1537.5,-216 1530.9,-203.54 1519.92,-193.47 1508.25,-185.59"/>
<polygon fill="grey" stroke="grey" stroke-width="2" points="1510.02,-182.56 1499.68,-180.23 1506.3,-188.5 1510.02,-182.56"/>
</g>
<!-- 16&#45;&gt;0 -->
<g id="edge8" class="edge">
<title>16&#45;&gt;0</title>
<path fill="none" stroke="grey" stroke-width="2" d="M1064.15,-215.78C1078.45,-207.19 1093.27,-195.31 1101.5,-180 1124.2,-137.77 1118.74,-79.9 1112.65,-46.27"/>
<polygon fill="grey" stroke="grey" stroke-width="2" points="1116.05,-45.39 1110.69,-36.25 1109.18,-46.74 1116.05,-45.39"/>
</g>
<!-- 17&#45;&gt;0 -->
<g id="edge14" class="edge">
<title>17&#45;&gt;0</title>
<path fill="none" stroke="grey" stroke-width="2" d="M1323.14,-215.52C1328.82,-183.04 1335.76,-112.95 1300.5,-72 1282.76,-51.39 1214.78,-36.24 1164.27,-27.53"/>
<polygon fill="grey" stroke="grey" stroke-width="2" points="1164.54,-24.03 1154.1,-25.83 1163.38,-30.93 1164.54,-24.03"/>
</g>
<!-- 17&#45;&gt;18 -->
<g id="edge44" class="edge">
<title>17&#45;&gt;18</title>
<path fill="none" stroke="grey" stroke-width="2" d="M1290.39,-215.88C1274.83,-206.72 1255.48,-195.34 1238.72,-185.48"/>
<polygon fill="grey" stroke="grey" stroke-width="2" points="1240.12,-182.24 1229.72,-180.19 1236.57,-188.28 1240.12,-182.24"/>
</g>
<!-- 17&#45;&gt;26 -->
<g id="edge59" class="edge">
<title>17&#45;&gt;26</title>
<path fill="none" stroke="grey" stroke-width="2" d="M1353.75,-215.88C1372.56,-206.47 1396.08,-194.71 1416.17,-184.67"/>
<polygon fill="grey" stroke="grey" stroke-width="2" points="1417.74,-187.79 1425.12,-180.19 1414.61,-181.53 1417.74,-187.79"/>
</g>
<!-- 18&#45;&gt;0 -->
<g id="edge18" class="edge">
<title>18&#45;&gt;0</title>
<path fill="none" stroke="grey" stroke-width="2" d="M1189.16,-143.87C1172.86,-119.24 1142.67,-73.64 1123.63,-44.88"/>
<polygon fill="grey" stroke="grey" stroke-width="2" points="1126.32,-42.6 1117.88,-36.19 1120.48,-46.46 1126.32,-42.6"/>
</g>
<!-- 18&#45;&gt;23 -->
<g id="edge53" class="edge">
<title>18&#45;&gt;23</title>
<path fill="none" stroke="grey" stroke-width="2" d="M1210.63,-143.7C1215.35,-135.64 1221.06,-125.89 1226.28,-116.98"/>
<polygon fill="grey" stroke="grey" stroke-width="2" points="1229.45,-118.5 1231.48,-108.1 1223.41,-114.96 1229.45,-118.5"/>
</g>
<!-- 19&#45;&gt;0 -->
<g id="edge21" class="edge">
<title>19&#45;&gt;0</title>
<path fill="none" stroke="grey" stroke-width="2" d="M636.74,-143.99C656.42,-123.24 692.76,-88.85 731.5,-72 787.23,-47.75 958.04,-30.89 1048.65,-23.39"/>
<polygon fill="grey" stroke="grey" stroke-width="2" points="1049.08,-26.86 1058.76,-22.56 1048.51,-19.89 1049.08,-26.86"/>
</g>
<!-- 19&#45;&gt;20 -->
<g id="edge46" class="edge">
<title>19&#45;&gt;20</title>
<path fill="none" stroke="grey" stroke-width="2" d="M607.16,-143.7C600.21,-135.3 591.73,-125.07 584.1,-115.86"/>
<polygon fill="grey" stroke="grey" stroke-width="2" points="586.75,-113.57 577.67,-108.1 581.36,-118.04 586.75,-113.57"/>
</g>
<!-- 20&#45;&gt;0 -->
<g id="edge19" class="edge">
<title>20&#45;&gt;0</title>
<path fill="none" stroke="grey" stroke-width="2" d="M637.1,-77.96C651.17,-75.93 665.78,-73.86 679.5,-72 811.36,-54.16 966.46,-35.48 1048.61,-25.78"/>
<polygon fill="grey" stroke="grey" stroke-width="2" points="1049.23,-29.23 1058.75,-24.58 1048.41,-22.28 1049.23,-29.23"/>
</g>
<!-- 21&#45;&gt;0 -->
<g id="edge10" class="edge">
<title>21&#45;&gt;0</title>
<path fill="none" stroke="grey" stroke-width="2" d="M843.2,-143.85C855.53,-123.61 878.72,-90.4 907.5,-72 950.36,-44.61 1007.04,-31.29 1048.95,-24.87"/>
<polygon fill="grey" stroke="grey" stroke-width="2" points="1049.6,-28.31 1058.99,-23.41 1048.6,-21.38 1049.6,-28.31"/>
</g>
<!-- 22&#45;&gt;0 -->
<g id="edge9" class="edge">
<title>22&#45;&gt;0</title>
<path fill="none" stroke="grey" stroke-width="2" d="M1492.58,-81.07C1477.58,-78.1 1460.26,-74.77 1444.5,-72 1346.29,-54.71 1231.53,-37.31 1164.16,-27.37"/>
<polygon fill="grey" stroke="grey" stroke-width="2" points="1164.58,-23.89 1154.17,-25.9 1163.56,-30.82 1164.58,-23.89"/>
</g>
<!-- 23&#45;&gt;0 -->
<g id="edge17" class="edge">
<title>23&#45;&gt;0</title>
<path fill="none" stroke="grey" stroke-width="2" d="M1208.48,-71.88C1190.42,-62.51 1167.85,-50.81 1148.55,-40.8"/>
<polygon fill="grey" stroke="grey" stroke-width="2" points="1150.14,-37.69 1139.65,-36.19 1146.92,-43.9 1150.14,-37.69"/>
</g>
<!-- 24&#45;&gt;0 -->
<g id="edge1" class="edge">
<title>24&#45;&gt;0</title>
<path fill="none" stroke="grey" stroke-width="2" d="M1016.8,-143.87C1034.57,-119.14 1067.54,-73.24 1088.17,-44.51"/>
<polygon fill="grey" stroke="grey" stroke-width="2" points="1091.16,-46.35 1094.15,-36.19 1085.48,-42.27 1091.16,-46.35"/>
</g>
<!-- 25 -->
<g id="node26" class="node">
<title>25</title>
<path fill="none" stroke="#56d863" stroke-width="2" d="M1516.5,-252C1516.5,-252 1418.5,-252 1418.5,-252 1412.5,-252 1406.5,-246 1406.5,-240 1406.5,-240 1406.5,-228 1406.5,-228 1406.5,-222 1412.5,-216 1418.5,-216 1418.5,-216 1516.5,-216 1516.5,-216 1522.5,-216 1528.5,-222 1528.5,-228 1528.5,-228 1528.5,-240 1528.5,-240 1528.5,-246 1522.5,-252 1516.5,-252"/>
<text text-anchor="middle" x="1467.5" y="-231.5" font-family="sans" font-size="10.00">gisaid_rbd_mutations</text>
</g>
<!-- 25&#45;&gt;0 -->
<g id="edge12" class="edge">
<title>25&#45;&gt;0</title>
<path fill="none" stroke="grey" stroke-width="2" d="M1440.93,-215.93C1427.11,-206.33 1410.44,-193.57 1397.5,-180 1357.34,-137.89 1371.36,-105.09 1323.5,-72 1276.19,-39.3 1210.88,-26.7 1164.3,-21.89"/>
<polygon fill="grey" stroke="grey" stroke-width="2" points="1164.35,-18.38 1154.07,-20.92 1163.69,-25.34 1164.35,-18.38"/>
</g>
<!-- 25&#45;&gt;26 -->
<g id="edge60" class="edge">
<title>25&#45;&gt;26</title>
<path fill="none" stroke="grey" stroke-width="2" d="M1465.52,-215.7C1464.64,-207.98 1463.58,-198.71 1462.6,-190.11"/>
<polygon fill="grey" stroke="grey" stroke-width="2" points="1466.07,-189.64 1461.45,-180.1 1459.11,-190.44 1466.07,-189.64"/>
</g>
<!-- 26&#45;&gt;0 -->
<g id="edge22" class="edge">
<title>26&#45;&gt;0</title>
<path fill="none" stroke="grey" stroke-width="2" d="M1450.23,-143.85C1438.18,-123.29 1415.11,-89.44 1385.5,-72 1316.88,-31.57 1223.76,-21.06 1164.39,-18.81"/>
<polygon fill="grey" stroke="grey" stroke-width="2" points="1164.17,-15.3 1154.07,-18.49 1163.96,-22.3 1164.17,-15.3"/>
</g>
</g>
</svg>
