<?xml version="1.0" encoding="UTF-8" standalone="no"?>
<!DOCTYPE svg PUBLIC "-//W3C//DTD SVG 1.1//EN"
 "http://www.w3.org/Graphics/SVG/1.1/DTD/svg11.dtd">
<!-- Generated by graphviz version 2.49.1 (20211004.0028)
 -->
<!-- Title: snakemake_dag Pages: 1 -->
<svg width="782pt" height="548pt"
 viewBox="0.00 0.00 781.50 548.00" xmlns="http://www.w3.org/2000/svg" xmlns:xlink="http://www.w3.org/1999/xlink">
<g id="graph0" class="graph" transform="scale(1 1) rotate(0) translate(4 544)">
<title>snakemake_dag</title>
<polygon fill="white" stroke="transparent" points="-4,4 -4,-544 777.5,-544 777.5,4 -4,4"/>
<!-- 0 -->
<g id="node1" class="node">
<title>0</title>
<path fill="none" stroke="#68d856" stroke-width="2" d="M567,-36C567,-36 496,-36 496,-36 490,-36 484,-30 484,-24 484,-24 484,-12 484,-12 484,-6 490,0 496,0 496,0 567,0 567,0 573,0 579,-6 579,-12 579,-12 579,-24 579,-24 579,-30 573,-36 567,-36"/>
<text text-anchor="middle" x="531.5" y="-15.5" font-family="sans" font-size="10.00">make_summary</text>
</g>
<!-- 1 -->
<g id="node2" class="node">
<title>1</title>
<path fill="none" stroke="#56d8b9" stroke-width="2" d="M83,-108C83,-108 12,-108 12,-108 6,-108 0,-102 0,-96 0,-96 0,-84 0,-84 0,-78 6,-72 12,-72 12,-72 83,-72 83,-72 89,-72 95,-78 95,-84 95,-84 95,-96 95,-96 95,-102 89,-108 83,-108"/>
<text text-anchor="middle" x="47.5" y="-87.5" font-family="sans" font-size="10.00">make_rulegraph</text>
</g>
<!-- 1&#45;&gt;0 -->
<g id="edge6" class="edge">
<title>1&#45;&gt;0</title>
<path fill="none" stroke="grey" stroke-width="2" d="M95.25,-74.13C98.36,-73.36 101.47,-72.64 104.5,-72 234.91,-44.66 390.89,-29.69 473.5,-23.12"/>
<polygon fill="grey" stroke="grey" stroke-width="2" points="473.99,-26.59 483.68,-22.33 473.44,-19.62 473.99,-26.59"/>
</g>
<!-- 2 -->
<g id="node3" class="node">
<title>2</title>
<path fill="none" stroke="#d8a456" stroke-width="2" d="M265.5,-108C265.5,-108 125.5,-108 125.5,-108 119.5,-108 113.5,-102 113.5,-96 113.5,-96 113.5,-84 113.5,-84 113.5,-78 119.5,-72 125.5,-72 125.5,-72 265.5,-72 265.5,-72 271.5,-72 277.5,-78 277.5,-84 277.5,-84 277.5,-96 277.5,-96 277.5,-102 271.5,-108 265.5,-108"/>
<text text-anchor="middle" x="195.5" y="-87.5" font-family="sans" font-size="10.00">get_early2020_mut_bind_expr</text>
</g>
<!-- 2&#45;&gt;0 -->
<g id="edge9" class="edge">
<title>2&#45;&gt;0</title>
<path fill="none" stroke="grey" stroke-width="2" d="M277.27,-71.97C338.03,-59.31 419.46,-42.34 473.61,-31.06"/>
<polygon fill="grey" stroke="grey" stroke-width="2" points="474.65,-34.42 483.72,-28.95 473.22,-27.57 474.65,-34.42"/>
</g>
<!-- 3 -->
<g id="node4" class="node">
<title>3</title>
<path fill="none" stroke="#56a9d8" stroke-width="2" d="M439,-108C439,-108 308,-108 308,-108 302,-108 296,-102 296,-96 296,-96 296,-84 296,-84 296,-78 302,-72 308,-72 308,-72 439,-72 439,-72 445,-72 451,-78 451,-84 451,-84 451,-96 451,-96 451,-102 445,-108 439,-108"/>
<text text-anchor="middle" x="373.5" y="-87.5" font-family="sans" font-size="10.00">get_early2020_escape_fracs</text>
</g>
<!-- 3&#45;&gt;0 -->
<g id="edge8" class="edge">
<title>3&#45;&gt;0</title>
<path fill="none" stroke="grey" stroke-width="2" d="M412.15,-71.88C433.75,-62.31 460.85,-50.3 483.77,-40.15"/>
<polygon fill="grey" stroke="grey" stroke-width="2" points="485.25,-43.32 492.97,-36.07 482.41,-36.92 485.25,-43.32"/>
</g>
<!-- 4 -->
<g id="node5" class="node">
<title>4</title>
<path fill="none" stroke="#d87d56" stroke-width="2" d="M529,-468C529,-468 478,-468 478,-468 472,-468 466,-462 466,-456 466,-456 466,-444 466,-444 466,-438 472,-432 478,-432 478,-432 529,-432 529,-432 535,-432 541,-438 541,-444 541,-444 541,-456 541,-456 541,-462 535,-468 529,-468"/>
<text text-anchor="middle" x="503.5" y="-447.5" font-family="sans" font-size="10.00">process_ccs</text>
</g>
<!-- 4&#45;&gt;0 -->
<g id="edge1" class="edge">
<title>4&#45;&gt;0</title>
<path fill="none" stroke="grey" stroke-width="2" d="M495.81,-431.91C484.71,-405.62 465.5,-353.45 465.5,-307 465.5,-307 465.5,-307 465.5,-233 465.5,-162.75 498.38,-85.06 517.72,-45.43"/>
<polygon fill="grey" stroke="grey" stroke-width="2" points="521,-46.71 522.32,-36.2 514.73,-43.59 521,-46.71"/>
</g>
<!-- 6 -->
<g id="node7" class="node">
<title>6</title>
<path fill="none" stroke="#56d0d8" stroke-width="2" d="M616.5,-396C616.5,-396 554.5,-396 554.5,-396 548.5,-396 542.5,-390 542.5,-384 542.5,-384 542.5,-372 542.5,-372 542.5,-366 548.5,-360 554.5,-360 554.5,-360 616.5,-360 616.5,-360 622.5,-360 628.5,-366 628.5,-372 628.5,-372 628.5,-384 628.5,-384 628.5,-390 622.5,-396 616.5,-396"/>
<text text-anchor="middle" x="585.5" y="-375.5" font-family="sans" font-size="10.00">build_variants</text>
</g>
<!-- 4&#45;&gt;6 -->
<g id="edge11" class="edge">
<title>4&#45;&gt;6</title>
<path fill="none" stroke="grey" stroke-width="2" d="M523.77,-431.7C534,-422.97 546.56,-412.24 557.68,-402.75"/>
<polygon fill="grey" stroke="grey" stroke-width="2" points="560.13,-405.26 565.46,-396.1 555.59,-399.94 560.13,-405.26"/>
</g>
<!-- 5 -->
<g id="node6" class="node">
<title>5</title>
<path fill="none" stroke="#d8cb56" stroke-width="2" d="M518.5,-540C518.5,-540 488.5,-540 488.5,-540 482.5,-540 476.5,-534 476.5,-528 476.5,-528 476.5,-516 476.5,-516 476.5,-510 482.5,-504 488.5,-504 488.5,-504 518.5,-504 518.5,-504 524.5,-504 530.5,-510 530.5,-516 530.5,-516 530.5,-528 530.5,-528 530.5,-534 524.5,-540 518.5,-540"/>
<text text-anchor="middle" x="503.5" y="-519.5" font-family="sans" font-size="10.00">get_ccs</text>
</g>
<!-- 5&#45;&gt;4 -->
<g id="edge10" class="edge">
<title>5&#45;&gt;4</title>
<path fill="none" stroke="grey" stroke-width="2" d="M503.5,-503.7C503.5,-495.98 503.5,-486.71 503.5,-478.11"/>
<polygon fill="grey" stroke="grey" stroke-width="2" points="507,-478.1 503.5,-468.1 500,-478.1 507,-478.1"/>
</g>
<!-- 6&#45;&gt;0 -->
<g id="edge7" class="edge">
<title>6&#45;&gt;0</title>
<path fill="none" stroke="grey" stroke-width="2" d="M628.63,-365.31C684.14,-347.34 773.5,-307.19 773.5,-235 773.5,-235 773.5,-235 773.5,-161 773.5,-116.06 760.69,-99.96 725.5,-72 686.61,-41.1 631.03,-28.17 589.32,-22.79"/>
<polygon fill="grey" stroke="grey" stroke-width="2" points="589.64,-19.3 579.3,-21.61 588.82,-26.26 589.64,-19.3"/>
</g>
<!-- 7 -->
<g id="node8" class="node">
<title>7</title>
<path fill="none" stroke="#56d892" stroke-width="2" d="M663,-252C663,-252 544,-252 544,-252 538,-252 532,-246 532,-240 532,-240 532,-228 532,-228 532,-222 538,-216 544,-216 544,-216 663,-216 663,-216 669,-216 675,-222 675,-228 675,-228 675,-240 675,-240 675,-246 669,-252 663,-252"/>
<text text-anchor="middle" x="603.5" y="-231.5" font-family="sans" font-size="10.00">aggregate_variant_counts</text>
</g>
<!-- 6&#45;&gt;7 -->
<g id="edge13" class="edge">
<title>6&#45;&gt;7</title>
<path fill="none" stroke="grey" stroke-width="2" d="M577.34,-359.69C569.92,-341.56 561.17,-312.41 568.5,-288 571.42,-278.28 576.76,-268.7 582.41,-260.41"/>
<polygon fill="grey" stroke="grey" stroke-width="2" points="585.26,-262.44 588.32,-252.3 579.6,-258.32 585.26,-262.44"/>
</g>
<!-- 8 -->
<g id="node9" class="node">
<title>8</title>
<path fill="none" stroke="#b6d856" stroke-width="2" d="M655,-324C655,-324 590,-324 590,-324 584,-324 578,-318 578,-312 578,-312 578,-300 578,-300 578,-294 584,-288 590,-288 590,-288 655,-288 655,-288 661,-288 667,-294 667,-300 667,-300 667,-312 667,-312 667,-318 661,-324 655,-324"/>
<text text-anchor="middle" x="622.5" y="-303.5" font-family="sans" font-size="10.00">count_variants</text>
</g>
<!-- 6&#45;&gt;8 -->
<g id="edge14" class="edge">
<title>6&#45;&gt;8</title>
<path fill="none" stroke="grey" stroke-width="2" d="M594.65,-359.7C598.9,-351.64 604.06,-341.89 608.77,-332.98"/>
<polygon fill="grey" stroke="grey" stroke-width="2" points="611.88,-334.58 613.46,-324.1 605.69,-331.31 611.88,-334.58"/>
</g>
<!-- 9 -->
<g id="node10" class="node">
<title>9</title>
<path fill="none" stroke="#8fd856" stroke-width="2" d="M557.5,-180C557.5,-180 505.5,-180 505.5,-180 499.5,-180 493.5,-174 493.5,-168 493.5,-168 493.5,-156 493.5,-156 493.5,-150 499.5,-144 505.5,-144 505.5,-144 557.5,-144 557.5,-144 563.5,-144 569.5,-150 569.5,-156 569.5,-156 569.5,-168 569.5,-168 569.5,-174 563.5,-180 557.5,-180"/>
<text text-anchor="middle" x="531.5" y="-159.5" font-family="sans" font-size="10.00">fit_titrations</text>
</g>
<!-- 6&#45;&gt;9 -->
<g id="edge16" class="edge">
<title>6&#45;&gt;9</title>
<path fill="none" stroke="grey" stroke-width="2" d="M573.52,-359.8C558.16,-336.6 532.34,-293.37 522.5,-252 517.66,-231.63 520.41,-208.04 524.1,-190.27"/>
<polygon fill="grey" stroke="grey" stroke-width="2" points="527.57,-190.82 526.4,-180.29 520.74,-189.25 527.57,-190.82"/>
</g>
<!-- 10 -->
<g id="node11" class="node">
<title>10</title>
<path fill="none" stroke="#d85656" stroke-width="2" d="M733,-180C733,-180 638,-180 638,-180 632,-180 626,-174 626,-168 626,-168 626,-156 626,-156 626,-150 632,-144 638,-144 638,-144 733,-144 733,-144 739,-144 745,-150 745,-156 745,-156 745,-168 745,-168 745,-174 739,-180 733,-180"/>
<text text-anchor="middle" x="685.5" y="-159.5" font-family="sans" font-size="10.00">calculate_expression</text>
</g>
<!-- 6&#45;&gt;10 -->
<g id="edge18" class="edge">
<title>6&#45;&gt;10</title>
<path fill="none" stroke="grey" stroke-width="2" d="M628.77,-361.44C646.06,-353.02 664.44,-340.82 675.5,-324 702.01,-283.67 697.36,-224.67 691.49,-190.42"/>
<polygon fill="grey" stroke="grey" stroke-width="2" points="694.86,-189.41 689.58,-180.22 687.98,-190.7 694.86,-189.41"/>
</g>
<!-- 7&#45;&gt;0 -->
<g id="edge5" class="edge">
<title>7&#45;&gt;0</title>
<path fill="none" stroke="grey" stroke-width="2" d="M599.14,-215.81C594.46,-197.78 586.6,-168.71 578.5,-144 567.27,-109.73 552.33,-70.95 542.34,-45.8"/>
<polygon fill="grey" stroke="grey" stroke-width="2" points="545.47,-44.21 538.51,-36.22 538.97,-46.81 545.47,-44.21"/>
</g>
<!-- 7&#45;&gt;9 -->
<g id="edge15" class="edge">
<title>7&#45;&gt;9</title>
<path fill="none" stroke="grey" stroke-width="2" d="M585.7,-215.7C576.9,-207.14 566.12,-196.66 556.5,-187.3"/>
<polygon fill="grey" stroke="grey" stroke-width="2" points="558.7,-184.57 549.09,-180.1 553.82,-189.58 558.7,-184.57"/>
</g>
<!-- 7&#45;&gt;10 -->
<g id="edge17" class="edge">
<title>7&#45;&gt;10</title>
<path fill="none" stroke="grey" stroke-width="2" d="M623.77,-215.7C634,-206.97 646.56,-196.24 657.68,-186.75"/>
<polygon fill="grey" stroke="grey" stroke-width="2" points="660.13,-189.26 665.46,-180.1 655.59,-183.94 660.13,-189.26"/>
</g>
<!-- 8&#45;&gt;7 -->
<g id="edge12" class="edge">
<title>8&#45;&gt;7</title>
<path fill="none" stroke="grey" stroke-width="2" d="M617.8,-287.7C615.69,-279.9 613.14,-270.51 610.78,-261.83"/>
<polygon fill="grey" stroke="grey" stroke-width="2" points="614.14,-260.84 608.14,-252.1 607.38,-262.67 614.14,-260.84"/>
</g>
<!-- 9&#45;&gt;0 -->
<g id="edge3" class="edge">
<title>9&#45;&gt;0</title>
<path fill="none" stroke="grey" stroke-width="2" d="M531.5,-143.87C531.5,-119.67 531.5,-75.21 531.5,-46.39"/>
<polygon fill="grey" stroke="grey" stroke-width="2" points="535,-46.19 531.5,-36.19 528,-46.19 535,-46.19"/>
</g>
<!-- 11 -->
<g id="node12" class="node">
<title>11</title>
<path fill="none" stroke="#56d86b" stroke-width="2" d="M687.5,-108C687.5,-108 617.5,-108 617.5,-108 611.5,-108 605.5,-102 605.5,-96 605.5,-96 605.5,-84 605.5,-84 605.5,-78 611.5,-72 617.5,-72 617.5,-72 687.5,-72 687.5,-72 693.5,-72 699.5,-78 699.5,-84 699.5,-84 699.5,-96 699.5,-96 699.5,-102 693.5,-108 687.5,-108"/>
<text text-anchor="middle" x="652.5" y="-87.5" font-family="sans" font-size="10.00">collapse_scores</text>
</g>
<!-- 9&#45;&gt;11 -->
<g id="edge19" class="edge">
<title>9&#45;&gt;11</title>
<path fill="none" stroke="grey" stroke-width="2" d="M561.1,-143.88C577.07,-134.64 596.96,-123.13 614.11,-113.21"/>
<polygon fill="grey" stroke="grey" stroke-width="2" points="615.88,-116.23 622.79,-108.19 612.38,-110.17 615.88,-116.23"/>
</g>
<!-- 10&#45;&gt;0 -->
<g id="edge2" class="edge">
<title>10&#45;&gt;0</title>
<path fill="none" stroke="grey" stroke-width="2" d="M697.68,-143.96C709.78,-124.74 724.41,-93.38 708.5,-72 694.05,-52.58 635.11,-37.64 589.17,-28.64"/>
<polygon fill="grey" stroke="grey" stroke-width="2" points="589.77,-25.19 579.29,-26.76 588.46,-32.07 589.77,-25.19"/>
</g>
<!-- 10&#45;&gt;11 -->
<g id="edge20" class="edge">
<title>10&#45;&gt;11</title>
<path fill="none" stroke="grey" stroke-width="2" d="M677.34,-143.7C673.59,-135.73 669.05,-126.1 664.88,-117.26"/>
<polygon fill="grey" stroke="grey" stroke-width="2" points="667.99,-115.66 660.56,-108.1 661.66,-118.64 667.99,-115.66"/>
</g>
<!-- 11&#45;&gt;0 -->
<g id="edge4" class="edge">
<title>11&#45;&gt;0</title>
<path fill="none" stroke="grey" stroke-width="2" d="M622.9,-71.88C606.93,-62.64 587.04,-51.13 569.89,-41.21"/>
<polygon fill="grey" stroke="grey" stroke-width="2" points="571.62,-38.17 561.21,-36.19 568.12,-44.23 571.62,-38.17"/>
</g>
</g>
</svg>
