<?xml version="1.0" encoding="UTF-8" standalone="no"?>
<!DOCTYPE svg PUBLIC "-//W3C//DTD SVG 1.1//EN"
 "http://www.w3.org/Graphics/SVG/1.1/DTD/svg11.dtd">
<!-- Generated by graphviz version 2.49.1 (20211004.0028)
 -->
<!-- Title: snakemake_dag Pages: 1 -->
<svg width="1288pt" height="692pt"
 viewBox="0.00 0.00 1287.50 692.00" xmlns="http://www.w3.org/2000/svg" xmlns:xlink="http://www.w3.org/1999/xlink">
<g id="graph0" class="graph" transform="scale(1 1) rotate(0) translate(4 688)">
<title>snakemake_dag</title>
<polygon fill="white" stroke="transparent" points="-4,4 -4,-688 1283.5,-688 1283.5,4 -4,4"/>
<!-- 0 -->
<g id="node1" class="node">
<title>0</title>
<path fill="none" stroke="#56d8a9" stroke-width="2" d="M791,-36C791,-36 720,-36 720,-36 714,-36 708,-30 708,-24 708,-24 708,-12 708,-12 708,-6 714,0 720,0 720,0 791,0 791,0 797,0 803,-6 803,-12 803,-12 803,-24 803,-24 803,-30 797,-36 791,-36"/>
<text text-anchor="middle" x="755.5" y="-15.5" font-family="sans" font-size="10.00">make_summary</text>
</g>
<!-- 1 -->
<g id="node2" class="node">
<title>1</title>
<path fill="none" stroke="#56d87b" stroke-width="2" d="M83,-108C83,-108 12,-108 12,-108 6,-108 0,-102 0,-96 0,-96 0,-84 0,-84 0,-78 6,-72 12,-72 12,-72 83,-72 83,-72 89,-72 95,-78 95,-84 95,-84 95,-96 95,-96 95,-102 89,-108 83,-108"/>
<text text-anchor="middle" x="47.5" y="-87.5" font-family="sans" font-size="10.00">make_rulegraph</text>
</g>
<!-- 1&#45;&gt;0 -->
<g id="edge5" class="edge">
<title>1&#45;&gt;0</title>
<path fill="none" stroke="grey" stroke-width="2" d="M95.22,-73.98C98.34,-73.24 101.46,-72.57 104.5,-72 320.65,-31.43 582.94,-21.91 697.39,-19.68"/>
<polygon fill="grey" stroke="grey" stroke-width="2" points="697.74,-23.18 707.67,-19.49 697.61,-16.18 697.74,-23.18"/>
</g>
<!-- 2 -->
<g id="node3" class="node">
<title>2</title>
<path fill="none" stroke="#56d863" stroke-width="2" d="M265.5,-108C265.5,-108 125.5,-108 125.5,-108 119.5,-108 113.5,-102 113.5,-96 113.5,-96 113.5,-84 113.5,-84 113.5,-78 119.5,-72 125.5,-72 125.5,-72 265.5,-72 265.5,-72 271.5,-72 277.5,-78 277.5,-84 277.5,-84 277.5,-96 277.5,-96 277.5,-102 271.5,-108 265.5,-108"/>
<text text-anchor="middle" x="195.5" y="-87.5" font-family="sans" font-size="10.00">get_early2020_mut_bind_expr</text>
</g>
<!-- 2&#45;&gt;0 -->
<g id="edge4" class="edge">
<title>2&#45;&gt;0</title>
<path fill="none" stroke="grey" stroke-width="2" d="M277.67,-74.11C282.34,-73.37 286.98,-72.66 291.5,-72 437.37,-50.77 610.07,-32.97 697.92,-24.43"/>
<polygon fill="grey" stroke="grey" stroke-width="2" points="698.33,-27.9 707.95,-23.46 697.66,-20.94 698.33,-27.9"/>
</g>
<!-- 3 -->
<g id="node4" class="node">
<title>3</title>
<path fill="none" stroke="#56b9d8" stroke-width="2" d="M1125,-180C1125,-180 994,-180 994,-180 988,-180 982,-174 982,-168 982,-168 982,-156 982,-156 982,-150 988,-144 994,-144 994,-144 1125,-144 1125,-144 1131,-144 1137,-150 1137,-156 1137,-156 1137,-168 1137,-168 1137,-174 1131,-180 1125,-180"/>
<text text-anchor="middle" x="1059.5" y="-159.5" font-family="sans" font-size="10.00">get_early2020_escape_fracs</text>
</g>
<!-- 3&#45;&gt;0 -->
<g id="edge13" class="edge">
<title>3&#45;&gt;0</title>
<path fill="none" stroke="grey" stroke-width="2" d="M1063.27,-143.82C1066.54,-123.88 1068.33,-91.26 1050.5,-72 1019.16,-38.15 889.74,-25.77 813.13,-21.35"/>
<polygon fill="grey" stroke="grey" stroke-width="2" points="813.32,-17.86 803.14,-20.8 812.93,-24.85 813.32,-17.86"/>
</g>
<!-- 4 -->
<g id="node5" class="node">
<title>4</title>
<path fill="none" stroke="#61d856" stroke-width="2" d="M1029.5,-108C1029.5,-108 955.5,-108 955.5,-108 949.5,-108 943.5,-102 943.5,-96 943.5,-96 943.5,-84 943.5,-84 943.5,-78 949.5,-72 955.5,-72 955.5,-72 1029.5,-72 1029.5,-72 1035.5,-72 1041.5,-78 1041.5,-84 1041.5,-84 1041.5,-96 1041.5,-96 1041.5,-102 1035.5,-108 1029.5,-108"/>
<text text-anchor="middle" x="992.5" y="-87.5" font-family="sans" font-size="10.00">bind_expr_filters</text>
</g>
<!-- 3&#45;&gt;4 -->
<g id="edge20" class="edge">
<title>3&#45;&gt;4</title>
<path fill="none" stroke="grey" stroke-width="2" d="M1042.94,-143.7C1034.82,-135.22 1024.91,-124.86 1016.03,-115.58"/>
<polygon fill="grey" stroke="grey" stroke-width="2" points="1018.31,-112.91 1008.87,-108.1 1013.26,-117.75 1018.31,-112.91"/>
</g>
<!-- 4&#45;&gt;0 -->
<g id="edge3" class="edge">
<title>4&#45;&gt;0</title>
<path fill="none" stroke="grey" stroke-width="2" d="M943.39,-74.5C905.44,-63.29 852.83,-47.75 812.92,-35.96"/>
<polygon fill="grey" stroke="grey" stroke-width="2" points="813.91,-32.6 803.33,-33.13 811.93,-39.32 813.91,-32.6"/>
</g>
<!-- 5 -->
<g id="node6" class="node">
<title>5</title>
<path fill="none" stroke="#97d856" stroke-width="2" d="M1073.5,-396C1073.5,-396 1003.5,-396 1003.5,-396 997.5,-396 991.5,-390 991.5,-384 991.5,-384 991.5,-372 991.5,-372 991.5,-366 997.5,-360 1003.5,-360 1003.5,-360 1073.5,-360 1073.5,-360 1079.5,-360 1085.5,-366 1085.5,-372 1085.5,-372 1085.5,-384 1085.5,-384 1085.5,-390 1079.5,-396 1073.5,-396"/>
<text text-anchor="middle" x="1038.5" y="-375.5" font-family="sans" font-size="10.00">collapse_scores</text>
</g>
<!-- 5&#45;&gt;0 -->
<g id="edge1" class="edge">
<title>5&#45;&gt;0</title>
<path fill="none" stroke="grey" stroke-width="2" d="M1069.89,-359.94C1107.5,-336.95 1165.5,-292.22 1165.5,-235 1165.5,-235 1165.5,-235 1165.5,-161 1165.5,-103.47 1123,-97.65 1071.5,-72 988.32,-30.57 879.13,-20.64 813.3,-18.74"/>
<polygon fill="grey" stroke="grey" stroke-width="2" points="813.2,-15.24 803.12,-18.5 813.03,-22.24 813.2,-15.24"/>
</g>
<!-- 5&#45;&gt;4 -->
<g id="edge19" class="edge">
<title>5&#45;&gt;4</title>
<path fill="none" stroke="grey" stroke-width="2" d="M1030.63,-359.82C1015.69,-326.19 983.73,-248.89 972.5,-180 969.93,-164.21 969.63,-159.74 972.5,-144 974.11,-135.2 977.1,-125.95 980.29,-117.7"/>
<polygon fill="grey" stroke="grey" stroke-width="2" points="983.62,-118.79 984.19,-108.21 977.15,-116.12 983.62,-118.79"/>
</g>
<!-- 14 -->
<g id="node15" class="node">
<title>14</title>
<path fill="none" stroke="#5673d8" stroke-width="2" d="M719,-324C719,-324 642,-324 642,-324 636,-324 630,-318 630,-312 630,-312 630,-300 630,-300 630,-294 636,-288 642,-288 642,-288 719,-288 719,-288 725,-288 731,-294 731,-300 731,-300 731,-312 731,-312 731,-318 725,-324 719,-324"/>
<text text-anchor="middle" x="680.5" y="-303.5" font-family="sans" font-size="10.00">counts_to_scores</text>
</g>
<!-- 5&#45;&gt;14 -->
<g id="edge31" class="edge">
<title>5&#45;&gt;14</title>
<path fill="none" stroke="grey" stroke-width="2" d="M991.33,-367.78C927.09,-355.22 812,-332.71 741.34,-318.9"/>
<polygon fill="grey" stroke="grey" stroke-width="2" points="741.73,-315.41 731.24,-316.92 740.39,-322.28 741.73,-315.41"/>
</g>
<!-- 16 -->
<g id="node17" class="node">
<title>16</title>
<path fill="none" stroke="#56d0d8" stroke-width="2" d="M451.5,-180C451.5,-180 383.5,-180 383.5,-180 377.5,-180 371.5,-174 371.5,-168 371.5,-168 371.5,-156 371.5,-156 371.5,-150 377.5,-144 383.5,-144 383.5,-144 451.5,-144 451.5,-144 457.5,-144 463.5,-150 463.5,-156 463.5,-156 463.5,-168 463.5,-168 463.5,-174 457.5,-180 451.5,-180"/>
<text text-anchor="middle" x="417.5" y="-159.5" font-family="sans" font-size="10.00">escape_profiles</text>
</g>
<!-- 5&#45;&gt;16 -->
<g id="edge34" class="edge">
<title>5&#45;&gt;16</title>
<path fill="none" stroke="grey" stroke-width="2" d="M991.19,-374.39C913.08,-369.33 752.62,-355.75 620.5,-324 574.57,-312.96 448.31,-290.18 420.5,-252 407.68,-234.39 408.06,-209.2 411,-190.11"/>
<polygon fill="grey" stroke="grey" stroke-width="2" points="414.45,-190.69 412.82,-180.22 407.57,-189.42 414.45,-190.69"/>
</g>
<!-- 6 -->
<g id="node7" class="node">
<title>6</title>
<path fill="none" stroke="#d8bc56" stroke-width="2" d="M1041.5,-468C1041.5,-468 989.5,-468 989.5,-468 983.5,-468 977.5,-462 977.5,-456 977.5,-456 977.5,-444 977.5,-444 977.5,-438 983.5,-432 989.5,-432 989.5,-432 1041.5,-432 1041.5,-432 1047.5,-432 1053.5,-438 1053.5,-444 1053.5,-444 1053.5,-456 1053.5,-456 1053.5,-462 1047.5,-468 1041.5,-468"/>
<text text-anchor="middle" x="1015.5" y="-447.5" font-family="sans" font-size="10.00">fit_titrations</text>
</g>
<!-- 6&#45;&gt;0 -->
<g id="edge11" class="edge">
<title>6&#45;&gt;0</title>
<path fill="none" stroke="grey" stroke-width="2" d="M1002.56,-431.68C995.67,-421.71 987.6,-408.67 982.5,-396 951.98,-320.14 977.94,-290.61 944.5,-216 912,-143.48 896.52,-126.3 838.5,-72 826.21,-60.5 811.1,-50.01 797.16,-41.45"/>
<polygon fill="grey" stroke="grey" stroke-width="2" points="798.58,-38.23 788.2,-36.11 795,-44.24 798.58,-38.23"/>
</g>
<!-- 6&#45;&gt;5 -->
<g id="edge21" class="edge">
<title>6&#45;&gt;5</title>
<path fill="none" stroke="grey" stroke-width="2" d="M1021.19,-431.7C1023.75,-423.9 1026.83,-414.51 1029.68,-405.83"/>
<polygon fill="grey" stroke="grey" stroke-width="2" points="1033.08,-406.7 1032.88,-396.1 1026.43,-404.51 1033.08,-406.7"/>
</g>
<!-- 7 -->
<g id="node8" class="node">
<title>7</title>
<path fill="none" stroke="#d88556" stroke-width="2" d="M1104.5,-540C1104.5,-540 1042.5,-540 1042.5,-540 1036.5,-540 1030.5,-534 1030.5,-528 1030.5,-528 1030.5,-516 1030.5,-516 1030.5,-510 1036.5,-504 1042.5,-504 1042.5,-504 1104.5,-504 1104.5,-504 1110.5,-504 1116.5,-510 1116.5,-516 1116.5,-516 1116.5,-528 1116.5,-528 1116.5,-534 1110.5,-540 1104.5,-540"/>
<text text-anchor="middle" x="1073.5" y="-519.5" font-family="sans" font-size="10.00">build_variants</text>
</g>
<!-- 7&#45;&gt;0 -->
<g id="edge9" class="edge">
<title>7&#45;&gt;0</title>
<path fill="none" stroke="grey" stroke-width="2" d="M1116.54,-511.59C1143.49,-503.8 1177.37,-490.31 1200.5,-468 1231.85,-437.77 1241.5,-422.55 1241.5,-379 1241.5,-379 1241.5,-379 1241.5,-161 1241.5,-108.7 1210.57,-96.76 1164.5,-72 1105.04,-40.04 911.25,-26.4 813.29,-21.44"/>
<polygon fill="grey" stroke="grey" stroke-width="2" points="813.42,-17.94 803.26,-20.95 813.08,-24.93 813.42,-17.94"/>
</g>
<!-- 7&#45;&gt;6 -->
<g id="edge23" class="edge">
<title>7&#45;&gt;6</title>
<path fill="none" stroke="grey" stroke-width="2" d="M1059.16,-503.7C1052.21,-495.3 1043.73,-485.07 1036.1,-475.86"/>
<polygon fill="grey" stroke="grey" stroke-width="2" points="1038.75,-473.57 1029.67,-468.1 1033.36,-478.04 1038.75,-473.57"/>
</g>
<!-- 10 -->
<g id="node11" class="node">
<title>10</title>
<path fill="none" stroke="#78d856" stroke-width="2" d="M1179,-468C1179,-468 1084,-468 1084,-468 1078,-468 1072,-462 1072,-456 1072,-456 1072,-444 1072,-444 1072,-438 1078,-432 1084,-432 1084,-432 1179,-432 1179,-432 1185,-432 1191,-438 1191,-444 1191,-444 1191,-456 1191,-456 1191,-462 1185,-468 1179,-468"/>
<text text-anchor="middle" x="1131.5" y="-447.5" font-family="sans" font-size="10.00">calculate_expression</text>
</g>
<!-- 7&#45;&gt;10 -->
<g id="edge26" class="edge">
<title>7&#45;&gt;10</title>
<path fill="none" stroke="grey" stroke-width="2" d="M1087.84,-503.7C1094.79,-495.3 1103.27,-485.07 1110.9,-475.86"/>
<polygon fill="grey" stroke="grey" stroke-width="2" points="1113.64,-478.04 1117.33,-468.1 1108.25,-473.57 1113.64,-478.04"/>
</g>
<!-- 11 -->
<g id="node12" class="node">
<title>11</title>
<path fill="none" stroke="#d85656" stroke-width="2" d="M740,-396C740,-396 621,-396 621,-396 615,-396 609,-390 609,-384 609,-384 609,-372 609,-372 609,-366 615,-360 621,-360 621,-360 740,-360 740,-360 746,-360 752,-366 752,-372 752,-372 752,-384 752,-384 752,-390 746,-396 740,-396"/>
<text text-anchor="middle" x="680.5" y="-375.5" font-family="sans" font-size="10.00">aggregate_variant_counts</text>
</g>
<!-- 7&#45;&gt;11 -->
<g id="edge28" class="edge">
<title>7&#45;&gt;11</title>
<path fill="none" stroke="grey" stroke-width="2" d="M1030.49,-517.2C978.06,-511.44 887.53,-497.84 815.5,-468 775.72,-451.52 735.14,-422.83 709,-402.49"/>
<polygon fill="grey" stroke="grey" stroke-width="2" points="711.06,-399.65 701.04,-396.2 706.72,-405.15 711.06,-399.65"/>
</g>
<!-- 12 -->
<g id="node13" class="node">
<title>12</title>
<path fill="none" stroke="#56d8c9" stroke-width="2" d="M902,-468C902,-468 837,-468 837,-468 831,-468 825,-462 825,-456 825,-456 825,-444 825,-444 825,-438 831,-432 837,-432 837,-432 902,-432 902,-432 908,-432 914,-438 914,-444 914,-444 914,-456 914,-456 914,-462 908,-468 902,-468"/>
<text text-anchor="middle" x="869.5" y="-447.5" font-family="sans" font-size="10.00">count_variants</text>
</g>
<!-- 7&#45;&gt;12 -->
<g id="edge29" class="edge">
<title>7&#45;&gt;12</title>
<path fill="none" stroke="grey" stroke-width="2" d="M1030.24,-506.15C999.15,-495.49 957.03,-481.04 923.7,-469.6"/>
<polygon fill="grey" stroke="grey" stroke-width="2" points="924.71,-466.24 914.11,-466.31 922.43,-472.86 924.71,-466.24"/>
</g>
<!-- 8 -->
<g id="node9" class="node">
<title>8</title>
<path fill="none" stroke="#d86e56" stroke-width="2" d="M1162,-612C1162,-612 1111,-612 1111,-612 1105,-612 1099,-606 1099,-600 1099,-600 1099,-588 1099,-588 1099,-582 1105,-576 1111,-576 1111,-576 1162,-576 1162,-576 1168,-576 1174,-582 1174,-588 1174,-588 1174,-600 1174,-600 1174,-606 1168,-612 1162,-612"/>
<text text-anchor="middle" x="1136.5" y="-591.5" font-family="sans" font-size="10.00">process_ccs</text>
</g>
<!-- 8&#45;&gt;0 -->
<g id="edge8" class="edge">
<title>8&#45;&gt;0</title>
<path fill="none" stroke="grey" stroke-width="2" d="M1174.07,-575.83C1216.44,-553.58 1279.5,-510.48 1279.5,-451 1279.5,-451 1279.5,-451 1279.5,-161 1279.5,-109.84 1251.39,-96.55 1206.5,-72 1140.06,-35.67 919.37,-24.02 813.35,-20.47"/>
<polygon fill="grey" stroke="grey" stroke-width="2" points="813.25,-16.96 803.15,-20.14 813.03,-23.96 813.25,-16.96"/>
</g>
<!-- 8&#45;&gt;7 -->
<g id="edge24" class="edge">
<title>8&#45;&gt;7</title>
<path fill="none" stroke="grey" stroke-width="2" d="M1120.93,-575.7C1113.3,-567.22 1103.98,-556.86 1095.62,-547.58"/>
<polygon fill="grey" stroke="grey" stroke-width="2" points="1098.19,-545.2 1088.89,-540.1 1092.98,-549.88 1098.19,-545.2"/>
</g>
<!-- 9 -->
<g id="node10" class="node">
<title>9</title>
<path fill="none" stroke="#56a2d8" stroke-width="2" d="M1151.5,-684C1151.5,-684 1121.5,-684 1121.5,-684 1115.5,-684 1109.5,-678 1109.5,-672 1109.5,-672 1109.5,-660 1109.5,-660 1109.5,-654 1115.5,-648 1121.5,-648 1121.5,-648 1151.5,-648 1151.5,-648 1157.5,-648 1163.5,-654 1163.5,-660 1163.5,-660 1163.5,-672 1163.5,-672 1163.5,-678 1157.5,-684 1151.5,-684"/>
<text text-anchor="middle" x="1136.5" y="-663.5" font-family="sans" font-size="10.00">get_ccs</text>
</g>
<!-- 9&#45;&gt;8 -->
<g id="edge25" class="edge">
<title>9&#45;&gt;8</title>
<path fill="none" stroke="grey" stroke-width="2" d="M1136.5,-647.7C1136.5,-639.98 1136.5,-630.71 1136.5,-622.11"/>
<polygon fill="grey" stroke="grey" stroke-width="2" points="1140,-622.1 1136.5,-612.1 1133,-622.1 1140,-622.1"/>
</g>
<!-- 10&#45;&gt;0 -->
<g id="edge2" class="edge">
<title>10&#45;&gt;0</title>
<path fill="none" stroke="grey" stroke-width="2" d="M1147.12,-431.62C1168.3,-406.19 1203.5,-356.48 1203.5,-307 1203.5,-307 1203.5,-307 1203.5,-161 1203.5,-106.91 1168.42,-97.08 1120.5,-72 1068.32,-44.69 902.64,-29.26 813.54,-22.74"/>
<polygon fill="grey" stroke="grey" stroke-width="2" points="813.55,-19.23 803.33,-22.01 813.05,-26.21 813.55,-19.23"/>
</g>
<!-- 10&#45;&gt;5 -->
<g id="edge22" class="edge">
<title>10&#45;&gt;5</title>
<path fill="none" stroke="grey" stroke-width="2" d="M1108.51,-431.7C1096.69,-422.8 1082.11,-411.82 1069.32,-402.2"/>
<polygon fill="grey" stroke="grey" stroke-width="2" points="1071.32,-399.32 1061.22,-396.1 1067.11,-404.91 1071.32,-399.32"/>
</g>
<!-- 11&#45;&gt;0 -->
<g id="edge6" class="edge">
<title>11&#45;&gt;0</title>
<path fill="none" stroke="grey" stroke-width="2" d="M608.89,-375.71C516.95,-372.52 364.47,-361.54 324.5,-324 295.02,-296.31 305.5,-275.45 305.5,-235 305.5,-235 305.5,-235 305.5,-161 305.5,-111.22 330.5,-97.08 373.5,-72 427.36,-40.58 605.08,-26.82 697.9,-21.66"/>
<polygon fill="grey" stroke="grey" stroke-width="2" points="698.17,-25.15 707.97,-21.12 697.8,-18.16 698.17,-25.15"/>
</g>
<!-- 13 -->
<g id="node14" class="node">
<title>13</title>
<path fill="none" stroke="#c6d856" stroke-width="2" d="M441,-324C441,-324 346,-324 346,-324 340,-324 334,-318 334,-312 334,-312 334,-300 334,-300 334,-294 340,-288 346,-288 346,-288 441,-288 441,-288 447,-288 453,-294 453,-300 453,-300 453,-312 453,-312 453,-318 447,-324 441,-324"/>
<text text-anchor="middle" x="393.5" y="-303.5" font-family="sans" font-size="10.00">counts_to_cells_ratio</text>
</g>
<!-- 11&#45;&gt;13 -->
<g id="edge30" class="edge">
<title>11&#45;&gt;13</title>
<path fill="none" stroke="grey" stroke-width="2" d="M610.66,-359.97C565.92,-349.05 508.09,-334.95 463.35,-324.04"/>
<polygon fill="grey" stroke="grey" stroke-width="2" points="463.98,-320.59 453.44,-321.62 462.32,-327.39 463.98,-320.59"/>
</g>
<!-- 11&#45;&gt;14 -->
<g id="edge32" class="edge">
<title>11&#45;&gt;14</title>
<path fill="none" stroke="grey" stroke-width="2" d="M680.5,-359.7C680.5,-351.98 680.5,-342.71 680.5,-334.11"/>
<polygon fill="grey" stroke="grey" stroke-width="2" points="684,-334.1 680.5,-324.1 677,-334.1 684,-334.1"/>
</g>
<!-- 12&#45;&gt;11 -->
<g id="edge27" class="edge">
<title>12&#45;&gt;11</title>
<path fill="none" stroke="grey" stroke-width="2" d="M824.71,-432.41C798.25,-422.61 764.51,-410.12 736.33,-399.68"/>
<polygon fill="grey" stroke="grey" stroke-width="2" points="737.2,-396.27 726.61,-396.08 734.77,-402.83 737.2,-396.27"/>
</g>
<!-- 13&#45;&gt;0 -->
<g id="edge17" class="edge">
<title>13&#45;&gt;0</title>
<path fill="none" stroke="grey" stroke-width="2" d="M384.57,-287.72C370.35,-257.84 345.8,-194.84 362.5,-144 374.9,-106.25 381.53,-92.61 415.5,-72 461.83,-43.88 613.27,-29 697.56,-22.71"/>
<polygon fill="grey" stroke="grey" stroke-width="2" points="698.02,-26.19 707.74,-21.97 697.51,-19.21 698.02,-26.19"/>
</g>
<!-- 14&#45;&gt;0 -->
<g id="edge15" class="edge">
<title>14&#45;&gt;0</title>
<path fill="none" stroke="grey" stroke-width="2" d="M701.39,-287.55C711.14,-278.12 721.82,-265.62 727.5,-252 746.01,-207.61 728.95,-191.78 734.5,-144 738.43,-110.15 745.29,-71.5 750.1,-46.26"/>
<polygon fill="grey" stroke="grey" stroke-width="2" points="753.56,-46.79 752.02,-36.31 746.69,-45.47 753.56,-46.79"/>
</g>
<!-- 15 -->
<g id="node16" class="node">
<title>15</title>
<path fill="none" stroke="#afd856" stroke-width="2" d="M611.5,-252C611.5,-252 497.5,-252 497.5,-252 491.5,-252 485.5,-246 485.5,-240 485.5,-240 485.5,-228 485.5,-228 485.5,-222 491.5,-216 497.5,-216 497.5,-216 611.5,-216 611.5,-216 617.5,-216 623.5,-222 623.5,-228 623.5,-228 623.5,-240 623.5,-240 623.5,-246 617.5,-252 611.5,-252"/>
<text text-anchor="middle" x="554.5" y="-231.5" font-family="sans" font-size="10.00">call_strong_escape_sites</text>
</g>
<!-- 14&#45;&gt;15 -->
<g id="edge33" class="edge">
<title>14&#45;&gt;15</title>
<path fill="none" stroke="grey" stroke-width="2" d="M649.68,-287.88C633.05,-278.64 612.34,-267.13 594.48,-257.21"/>
<polygon fill="grey" stroke="grey" stroke-width="2" points="595.88,-253.99 585.44,-252.19 592.48,-260.11 595.88,-253.99"/>
</g>
<!-- 14&#45;&gt;16 -->
<g id="edge35" class="edge">
<title>14&#45;&gt;16</title>
<path fill="none" stroke="grey" stroke-width="2" d="M629.77,-299.7C568.41,-292.29 470.03,-276.88 443.5,-252 426.58,-236.13 420.47,-209.93 418.36,-190.05"/>
<polygon fill="grey" stroke="grey" stroke-width="2" points="421.85,-189.74 417.57,-180.05 414.87,-190.29 421.85,-189.74"/>
</g>
<!-- 17 -->
<g id="node18" class="node">
<title>17</title>
<path fill="none" stroke="#56d892" stroke-width="2" d="M707,-252C707,-252 654,-252 654,-252 648,-252 642,-246 642,-240 642,-240 642,-228 642,-228 642,-222 648,-216 654,-216 654,-216 707,-216 707,-216 713,-216 719,-222 719,-228 719,-228 719,-240 719,-240 719,-246 713,-252 707,-252"/>
<text text-anchor="middle" x="680.5" y="-231.5" font-family="sans" font-size="10.00">output_pdbs</text>
</g>
<!-- 14&#45;&gt;17 -->
<g id="edge37" class="edge">
<title>14&#45;&gt;17</title>
<path fill="none" stroke="grey" stroke-width="2" d="M680.5,-287.7C680.5,-279.98 680.5,-270.71 680.5,-262.11"/>
<polygon fill="grey" stroke="grey" stroke-width="2" points="684,-262.1 680.5,-252.1 677,-262.1 684,-262.1"/>
</g>
<!-- 18 -->
<g id="node19" class="node">
<title>18</title>
<path fill="none" stroke="#568ad8" stroke-width="2" d="M533,-108C533,-108 458,-108 458,-108 452,-108 446,-102 446,-96 446,-96 446,-84 446,-84 446,-78 452,-72 458,-72 458,-72 533,-72 533,-72 539,-72 545,-78 545,-84 545,-84 545,-96 545,-96 545,-102 539,-108 533,-108"/>
<text text-anchor="middle" x="495.5" y="-87.5" font-family="sans" font-size="10.00">make_supp_data</text>
</g>
<!-- 14&#45;&gt;18 -->
<g id="edge38" class="edge">
<title>14&#45;&gt;18</title>
<path fill="none" stroke="grey" stroke-width="2" d="M629.97,-298.93C575.82,-291.27 495.14,-276.1 476.5,-252 460.74,-231.62 477.24,-158.06 487.91,-117.8"/>
<polygon fill="grey" stroke="grey" stroke-width="2" points="491.31,-118.66 490.55,-108.1 484.55,-116.83 491.31,-118.66"/>
</g>
<!-- 20 -->
<g id="node21" class="node">
<title>20</title>
<path fill="none" stroke="#d8a456" stroke-width="2" d="M837.5,-180C837.5,-180 755.5,-180 755.5,-180 749.5,-180 743.5,-174 743.5,-168 743.5,-168 743.5,-156 743.5,-156 743.5,-150 749.5,-144 755.5,-144 755.5,-144 837.5,-144 837.5,-144 843.5,-144 849.5,-150 849.5,-156 849.5,-156 849.5,-168 849.5,-168 849.5,-174 843.5,-180 837.5,-180"/>
<text text-anchor="middle" x="796.5" y="-159.5" font-family="sans" font-size="10.00">natural_mutations</text>
</g>
<!-- 14&#45;&gt;20 -->
<g id="edge40" class="edge">
<title>14&#45;&gt;20</title>
<path fill="none" stroke="grey" stroke-width="2" d="M716.46,-287.89C732.02,-279 749.41,-266.86 761.5,-252 776.18,-233.96 785.27,-209.02 790.5,-190.13"/>
<polygon fill="grey" stroke="grey" stroke-width="2" points="793.91,-190.9 793.01,-180.34 787.13,-189.15 793.91,-190.9"/>
</g>
<!-- 15&#45;&gt;0 -->
<g id="edge18" class="edge">
<title>15&#45;&gt;0</title>
<path fill="none" stroke="grey" stroke-width="2" d="M566.16,-215.85C587.53,-185.1 635.32,-119.34 684.5,-72 695.56,-61.36 708.78,-50.96 720.8,-42.23"/>
<polygon fill="grey" stroke="grey" stroke-width="2" points="723.17,-44.84 729.3,-36.19 719.12,-39.13 723.17,-44.84"/>
</g>
<!-- 15&#45;&gt;16 -->
<g id="edge36" class="edge">
<title>15&#45;&gt;16</title>
<path fill="none" stroke="grey" stroke-width="2" d="M520.99,-215.88C502.66,-206.51 479.76,-194.81 460.17,-184.8"/>
<polygon fill="grey" stroke="grey" stroke-width="2" points="461.64,-181.62 451.14,-180.19 458.46,-187.86 461.64,-181.62"/>
</g>
<!-- 15&#45;&gt;20 -->
<g id="edge42" class="edge">
<title>15&#45;&gt;20</title>
<path fill="none" stroke="grey" stroke-width="2" d="M613.39,-215.97C649.74,-205.45 696.34,-191.97 733.43,-181.24"/>
<polygon fill="grey" stroke="grey" stroke-width="2" points="734.5,-184.58 743.14,-178.44 732.56,-177.85 734.5,-184.58"/>
</g>
<!-- 16&#45;&gt;0 -->
<g id="edge12" class="edge">
<title>16&#45;&gt;0</title>
<path fill="none" stroke="grey" stroke-width="2" d="M415.92,-143.9C415.07,-123.71 417.08,-90.55 436.5,-72 473.04,-37.09 615.98,-25.07 697.58,-21.01"/>
<polygon fill="grey" stroke="grey" stroke-width="2" points="697.87,-24.5 707.7,-20.53 697.54,-17.51 697.87,-24.5"/>
</g>
<!-- 16&#45;&gt;18 -->
<g id="edge39" class="edge">
<title>16&#45;&gt;18</title>
<path fill="none" stroke="grey" stroke-width="2" d="M436.78,-143.7C446.42,-135.05 458.23,-124.45 468.73,-115.03"/>
<polygon fill="grey" stroke="grey" stroke-width="2" points="471.34,-117.39 476.44,-108.1 466.66,-112.18 471.34,-117.39"/>
</g>
<!-- 17&#45;&gt;0 -->
<g id="edge7" class="edge">
<title>17&#45;&gt;0</title>
<path fill="none" stroke="grey" stroke-width="2" d="M679.21,-215.97C677.62,-185.4 677.62,-119.94 701.5,-72 706.94,-61.09 715.53,-51.12 724.27,-42.85"/>
<polygon fill="grey" stroke="grey" stroke-width="2" points="726.78,-45.3 731.92,-36.04 722.13,-40.07 726.78,-45.3"/>
</g>
<!-- 18&#45;&gt;0 -->
<g id="edge14" class="edge">
<title>18&#45;&gt;0</title>
<path fill="none" stroke="grey" stroke-width="2" d="M545.02,-75.67C588.67,-63.92 652.28,-46.79 698.13,-34.45"/>
<polygon fill="grey" stroke="grey" stroke-width="2" points="699.18,-37.79 707.92,-31.81 697.36,-31.03 699.18,-37.79"/>
</g>
<!-- 19 -->
<g id="node20" class="node">
<title>19</title>
<path fill="none" stroke="#d8d356" stroke-width="2" d="M923.5,-252C923.5,-252 825.5,-252 825.5,-252 819.5,-252 813.5,-246 813.5,-240 813.5,-240 813.5,-228 813.5,-228 813.5,-222 819.5,-216 825.5,-216 825.5,-216 923.5,-216 923.5,-216 929.5,-216 935.5,-222 935.5,-228 935.5,-228 935.5,-240 935.5,-240 935.5,-246 929.5,-252 923.5,-252"/>
<text text-anchor="middle" x="874.5" y="-231.5" font-family="sans" font-size="10.00">gisaid_rbd_mutations</text>
</g>
<!-- 19&#45;&gt;0 -->
<g id="edge16" class="edge">
<title>19&#45;&gt;0</title>
<path fill="none" stroke="grey" stroke-width="2" d="M873.98,-215.83C872.84,-197.32 869.32,-167.36 858.5,-144 840.17,-104.4 806.2,-66.87 782.3,-43.46"/>
<polygon fill="grey" stroke="grey" stroke-width="2" points="784.56,-40.77 774.93,-36.37 779.71,-45.82 784.56,-40.77"/>
</g>
<!-- 19&#45;&gt;20 -->
<g id="edge41" class="edge">
<title>19&#45;&gt;20</title>
<path fill="none" stroke="grey" stroke-width="2" d="M855.22,-215.7C845.58,-207.05 833.77,-196.45 823.27,-187.03"/>
<polygon fill="grey" stroke="grey" stroke-width="2" points="825.34,-184.18 815.56,-180.1 820.66,-189.39 825.34,-184.18"/>
</g>
<!-- 20&#45;&gt;0 -->
<g id="edge10" class="edge">
<title>20&#45;&gt;0</title>
<path fill="none" stroke="grey" stroke-width="2" d="M791.55,-143.87C784.54,-119.56 771.62,-74.82 763.3,-46.01"/>
<polygon fill="grey" stroke="grey" stroke-width="2" points="766.6,-44.83 760.46,-36.19 759.87,-46.77 766.6,-44.83"/>
</g>
</g>
</svg>
