<?xml version="1.0" encoding="UTF-8" standalone="no"?>
<!DOCTYPE svg PUBLIC "-//W3C//DTD SVG 1.1//EN"
 "http://www.w3.org/Graphics/SVG/1.1/DTD/svg11.dtd">
<!-- Generated by graphviz version 2.49.1 (20211004.0028)
 -->
<!-- Title: snakemake_dag Pages: 1 -->
<svg width="602pt" height="260pt"
 viewBox="0.00 0.00 601.50 260.00" xmlns="http://www.w3.org/2000/svg" xmlns:xlink="http://www.w3.org/1999/xlink">
<g id="graph0" class="graph" transform="scale(1 1) rotate(0) translate(4 256)">
<title>snakemake_dag</title>
<polygon fill="white" stroke="transparent" points="-4,4 -4,-256 597.5,-256 597.5,4 -4,4"/>
<!-- 0 -->
<g id="node1" class="node">
<title>0</title>
<path fill="none" stroke="#8fd856" stroke-width="2" d="M409,-36C409,-36 338,-36 338,-36 332,-36 326,-30 326,-24 326,-24 326,-12 326,-12 326,-6 332,0 338,0 338,0 409,0 409,0 415,0 421,-6 421,-12 421,-12 421,-24 421,-24 421,-30 415,-36 409,-36"/>
<text text-anchor="middle" x="373.5" y="-15.5" font-family="sans" font-size="10.00">make_summary</text>
</g>
<!-- 1 -->
<g id="node2" class="node">
<title>1</title>
<path fill="none" stroke="#d8cb56" stroke-width="2" d="M83,-108C83,-108 12,-108 12,-108 6,-108 0,-102 0,-96 0,-96 0,-84 0,-84 0,-78 6,-72 12,-72 12,-72 83,-72 83,-72 89,-72 95,-78 95,-84 95,-84 95,-96 95,-96 95,-102 89,-108 83,-108"/>
<text text-anchor="middle" x="47.5" y="-87.5" font-family="sans" font-size="10.00">make_rulegraph</text>
</g>
<!-- 1&#45;&gt;0 -->
<g id="edge1" class="edge">
<title>1&#45;&gt;0</title>
<path fill="none" stroke="grey" stroke-width="2" d="M95.3,-74.38C98.41,-73.55 101.49,-72.74 104.5,-72 176.71,-54.16 261,-38.35 315.72,-28.74"/>
<polygon fill="grey" stroke="grey" stroke-width="2" points="316.33,-32.19 325.58,-27.02 315.12,-25.29 316.33,-32.19"/>
</g>
<!-- 2 -->
<g id="node3" class="node">
<title>2</title>
<path fill="none" stroke="#567bd8" stroke-width="2" d="M265.5,-108C265.5,-108 125.5,-108 125.5,-108 119.5,-108 113.5,-102 113.5,-96 113.5,-96 113.5,-84 113.5,-84 113.5,-78 119.5,-72 125.5,-72 125.5,-72 265.5,-72 265.5,-72 271.5,-72 277.5,-78 277.5,-84 277.5,-84 277.5,-96 277.5,-96 277.5,-102 271.5,-108 265.5,-108"/>
<text text-anchor="middle" x="195.5" y="-87.5" font-family="sans" font-size="10.00">get_early2020_mut_bind_expr</text>
</g>
<!-- 2&#45;&gt;0 -->
<g id="edge5" class="edge">
<title>2&#45;&gt;0</title>
<path fill="none" stroke="grey" stroke-width="2" d="M239.04,-71.88C263.7,-62.18 294.72,-49.98 320.75,-39.74"/>
<polygon fill="grey" stroke="grey" stroke-width="2" points="322.07,-42.99 330.1,-36.07 319.51,-36.47 322.07,-42.99"/>
</g>
<!-- 3 -->
<g id="node4" class="node">
<title>3</title>
<path fill="none" stroke="#56a9d8" stroke-width="2" d="M439,-108C439,-108 308,-108 308,-108 302,-108 296,-102 296,-96 296,-96 296,-84 296,-84 296,-78 302,-72 308,-72 308,-72 439,-72 439,-72 445,-72 451,-78 451,-84 451,-84 451,-96 451,-96 451,-102 445,-108 439,-108"/>
<text text-anchor="middle" x="373.5" y="-87.5" font-family="sans" font-size="10.00">get_early2020_escape_fracs</text>
</g>
<!-- 3&#45;&gt;0 -->
<g id="edge4" class="edge">
<title>3&#45;&gt;0</title>
<path fill="none" stroke="grey" stroke-width="2" d="M373.5,-71.7C373.5,-63.98 373.5,-54.71 373.5,-46.11"/>
<polygon fill="grey" stroke="grey" stroke-width="2" points="377,-46.1 373.5,-36.1 370,-46.1 377,-46.1"/>
</g>
<!-- 4 -->
<g id="node5" class="node">
<title>4</title>
<path fill="none" stroke="#56d892" stroke-width="2" d="M540,-180C540,-180 489,-180 489,-180 483,-180 477,-174 477,-168 477,-168 477,-156 477,-156 477,-150 483,-144 489,-144 489,-144 540,-144 540,-144 546,-144 552,-150 552,-156 552,-156 552,-168 552,-168 552,-174 546,-180 540,-180"/>
<text text-anchor="middle" x="514.5" y="-159.5" font-family="sans" font-size="10.00">process_ccs</text>
</g>
<!-- 4&#45;&gt;0 -->
<g id="edge2" class="edge">
<title>4&#45;&gt;0</title>
<path fill="none" stroke="grey" stroke-width="2" d="M507.19,-143.95C498.31,-124.73 481.82,-93.36 460.5,-72 448.5,-59.98 433.25,-49.51 418.89,-41.13"/>
<polygon fill="grey" stroke="grey" stroke-width="2" points="420.53,-38.04 410.1,-36.19 417.1,-44.14 420.53,-38.04"/>
</g>
<!-- 6 -->
<g id="node7" class="node">
<title>6</title>
<path fill="none" stroke="#56d8b9" stroke-width="2" d="M581.5,-108C581.5,-108 519.5,-108 519.5,-108 513.5,-108 507.5,-102 507.5,-96 507.5,-96 507.5,-84 507.5,-84 507.5,-78 513.5,-72 519.5,-72 519.5,-72 581.5,-72 581.5,-72 587.5,-72 593.5,-78 593.5,-84 593.5,-84 593.5,-96 593.5,-96 593.5,-102 587.5,-108 581.5,-108"/>
<text text-anchor="middle" x="550.5" y="-87.5" font-family="sans" font-size="10.00">build_variants</text>
</g>
<!-- 4&#45;&gt;6 -->
<g id="edge7" class="edge">
<title>4&#45;&gt;6</title>
<path fill="none" stroke="grey" stroke-width="2" d="M523.4,-143.7C527.5,-135.73 532.45,-126.1 536.99,-117.26"/>
<polygon fill="grey" stroke="grey" stroke-width="2" points="540.24,-118.6 541.7,-108.1 534.02,-115.4 540.24,-118.6"/>
</g>
<!-- 5 -->
<g id="node6" class="node">
<title>5</title>
<path fill="none" stroke="#56d86b" stroke-width="2" d="M529.5,-252C529.5,-252 499.5,-252 499.5,-252 493.5,-252 487.5,-246 487.5,-240 487.5,-240 487.5,-228 487.5,-228 487.5,-222 493.5,-216 499.5,-216 499.5,-216 529.5,-216 529.5,-216 535.5,-216 541.5,-222 541.5,-228 541.5,-228 541.5,-240 541.5,-240 541.5,-246 535.5,-252 529.5,-252"/>
<text text-anchor="middle" x="514.5" y="-231.5" font-family="sans" font-size="10.00">get_ccs</text>
</g>
<!-- 5&#45;&gt;4 -->
<g id="edge6" class="edge">
<title>5&#45;&gt;4</title>
<path fill="none" stroke="grey" stroke-width="2" d="M514.5,-215.7C514.5,-207.98 514.5,-198.71 514.5,-190.11"/>
<polygon fill="grey" stroke="grey" stroke-width="2" points="518,-190.1 514.5,-180.1 511,-190.1 518,-190.1"/>
</g>
<!-- 6&#45;&gt;0 -->
<g id="edge3" class="edge">
<title>6&#45;&gt;0</title>
<path fill="none" stroke="grey" stroke-width="2" d="M507.2,-71.88C482.79,-62.22 452.1,-50.09 426.29,-39.88"/>
<polygon fill="grey" stroke="grey" stroke-width="2" points="427.24,-36.49 416.66,-36.07 424.67,-43 427.24,-36.49"/>
</g>
</g>
</svg>
