<?xml version="1.0" encoding="UTF-8" standalone="no"?>
<!DOCTYPE svg PUBLIC "-//W3C//DTD SVG 1.1//EN"
 "http://www.w3.org/Graphics/SVG/1.1/DTD/svg11.dtd">
<!-- Generated by graphviz version 2.49.1 (20211004.0028)
 -->
<!-- Title: snakemake_dag Pages: 1 -->
<svg width="1348pt" height="836pt"
 viewBox="0.00 0.00 1347.50 836.00" xmlns="http://www.w3.org/2000/svg" xmlns:xlink="http://www.w3.org/1999/xlink">
<g id="graph0" class="graph" transform="scale(1 1) rotate(0) translate(4 832)">
<title>snakemake_dag</title>
<polygon fill="white" stroke="transparent" points="-4,4 -4,-832 1343.5,-832 1343.5,4 -4,4"/>
<!-- 0 -->
<g id="node1" class="node">
<title>0</title>
<path fill="none" stroke="#d88556" stroke-width="2" d="M794,-36C794,-36 723,-36 723,-36 717,-36 711,-30 711,-24 711,-24 711,-12 711,-12 711,-6 717,0 723,0 723,0 794,0 794,0 800,0 806,-6 806,-12 806,-12 806,-24 806,-24 806,-30 800,-36 794,-36"/>
<text text-anchor="middle" x="758.5" y="-15.5" font-family="sans" font-size="10.00">make_summary</text>
</g>
<!-- 1 -->
<g id="node2" class="node">
<title>1</title>
<path fill="none" stroke="#bed856" stroke-width="2" d="M83,-108C83,-108 12,-108 12,-108 6,-108 0,-102 0,-96 0,-96 0,-84 0,-84 0,-78 6,-72 12,-72 12,-72 83,-72 83,-72 89,-72 95,-78 95,-84 95,-84 95,-96 95,-96 95,-102 89,-108 83,-108"/>
<text text-anchor="middle" x="47.5" y="-87.5" font-family="sans" font-size="10.00">make_rulegraph</text>
</g>
<!-- 1&#45;&gt;0 -->
<g id="edge6" class="edge">
<title>1&#45;&gt;0</title>
<path fill="none" stroke="grey" stroke-width="2" d="M95.22,-73.98C98.34,-73.24 101.46,-72.57 104.5,-72 321.92,-31.23 585.8,-21.82 700.55,-19.65"/>
<polygon fill="grey" stroke="grey" stroke-width="2" points="700.92,-23.14 710.86,-19.46 700.8,-16.14 700.92,-23.14"/>
</g>
<!-- 2 -->
<g id="node3" class="node">
<title>2</title>
<path fill="none" stroke="#d85656" stroke-width="2" d="M265.5,-108C265.5,-108 125.5,-108 125.5,-108 119.5,-108 113.5,-102 113.5,-96 113.5,-96 113.5,-84 113.5,-84 113.5,-78 119.5,-72 125.5,-72 125.5,-72 265.5,-72 265.5,-72 271.5,-72 277.5,-78 277.5,-84 277.5,-84 277.5,-96 277.5,-96 277.5,-102 271.5,-108 265.5,-108"/>
<text text-anchor="middle" x="195.5" y="-87.5" font-family="sans" font-size="10.00">get_early2020_mut_bind_expr</text>
</g>
<!-- 2&#45;&gt;0 -->
<g id="edge1" class="edge">
<title>2&#45;&gt;0</title>
<path fill="none" stroke="grey" stroke-width="2" d="M277.66,-74.1C282.34,-73.36 286.98,-72.66 291.5,-72 438.5,-50.66 612.58,-32.87 700.9,-24.37"/>
<polygon fill="grey" stroke="grey" stroke-width="2" points="701.36,-27.84 710.98,-23.41 700.69,-20.88 701.36,-27.84"/>
</g>
<!-- 3 -->
<g id="node4" class="node">
<title>3</title>
<path fill="none" stroke="#56d8a2" stroke-width="2" d="M591,-180C591,-180 460,-180 460,-180 454,-180 448,-174 448,-168 448,-168 448,-156 448,-156 448,-150 454,-144 460,-144 460,-144 591,-144 591,-144 597,-144 603,-150 603,-156 603,-156 603,-168 603,-168 603,-174 597,-180 591,-180"/>
<text text-anchor="middle" x="525.5" y="-159.5" font-family="sans" font-size="10.00">get_early2020_escape_fracs</text>
</g>
<!-- 3&#45;&gt;0 -->
<g id="edge13" class="edge">
<title>3&#45;&gt;0</title>
<path fill="none" stroke="grey" stroke-width="2" d="M527.36,-143.99C530.47,-123.89 538.6,-90.82 559.5,-72 598.12,-37.23 657.03,-24.85 700.75,-20.66"/>
<polygon fill="grey" stroke="grey" stroke-width="2" points="701.28,-24.12 710.95,-19.8 700.69,-17.15 701.28,-24.12"/>
</g>
<!-- 4 -->
<g id="node5" class="node">
<title>4</title>
<path fill="none" stroke="#56d892" stroke-width="2" d="M495.5,-108C495.5,-108 421.5,-108 421.5,-108 415.5,-108 409.5,-102 409.5,-96 409.5,-96 409.5,-84 409.5,-84 409.5,-78 415.5,-72 421.5,-72 421.5,-72 495.5,-72 495.5,-72 501.5,-72 507.5,-78 507.5,-84 507.5,-84 507.5,-96 507.5,-96 507.5,-102 501.5,-108 495.5,-108"/>
<text text-anchor="middle" x="458.5" y="-87.5" font-family="sans" font-size="10.00">bind_expr_filters</text>
</g>
<!-- 3&#45;&gt;4 -->
<g id="edge22" class="edge">
<title>3&#45;&gt;4</title>
<path fill="none" stroke="grey" stroke-width="2" d="M508.94,-143.7C500.82,-135.22 490.91,-124.86 482.03,-115.58"/>
<polygon fill="grey" stroke="grey" stroke-width="2" points="484.31,-112.91 474.87,-108.1 479.26,-117.75 484.31,-112.91"/>
</g>
<!-- 20 -->
<g id="node21" class="node">
<title>20</title>
<path fill="none" stroke="#56d87b" stroke-width="2" d="M699,-108C699,-108 614,-108 614,-108 608,-108 602,-102 602,-96 602,-96 602,-84 602,-84 602,-78 608,-72 614,-72 614,-72 699,-72 699,-72 705,-72 711,-78 711,-84 711,-84 711,-96 711,-96 711,-102 705,-108 699,-108"/>
<text text-anchor="middle" x="656.5" y="-87.5" font-family="sans" font-size="10.00">lineplots_by_group</text>
</g>
<!-- 3&#45;&gt;20 -->
<g id="edge47" class="edge">
<title>3&#45;&gt;20</title>
<path fill="none" stroke="grey" stroke-width="2" d="M557.55,-143.88C574.99,-134.55 596.77,-122.92 615.44,-112.94"/>
<polygon fill="grey" stroke="grey" stroke-width="2" points="617.16,-115.99 624.33,-108.19 613.86,-109.82 617.16,-115.99"/>
</g>
<!-- 4&#45;&gt;0 -->
<g id="edge12" class="edge">
<title>4&#45;&gt;0</title>
<path fill="none" stroke="grey" stroke-width="2" d="M507.63,-75.52C512.31,-74.3 516.99,-73.11 521.5,-72 582.46,-56.97 652.69,-41.49 700.78,-31.17"/>
<polygon fill="grey" stroke="grey" stroke-width="2" points="701.65,-34.57 710.69,-29.05 700.18,-27.72 701.65,-34.57"/>
</g>
<!-- 5 -->
<g id="node6" class="node">
<title>5</title>
<path fill="none" stroke="#56d8b9" stroke-width="2" d="M640.5,-396C640.5,-396 570.5,-396 570.5,-396 564.5,-396 558.5,-390 558.5,-384 558.5,-384 558.5,-372 558.5,-372 558.5,-366 564.5,-360 570.5,-360 570.5,-360 640.5,-360 640.5,-360 646.5,-360 652.5,-366 652.5,-372 652.5,-372 652.5,-384 652.5,-384 652.5,-390 646.5,-396 640.5,-396"/>
<text text-anchor="middle" x="605.5" y="-375.5" font-family="sans" font-size="10.00">collapse_scores</text>
</g>
<!-- 5&#45;&gt;0 -->
<g id="edge14" class="edge">
<title>5&#45;&gt;0</title>
<path fill="none" stroke="grey" stroke-width="2" d="M596.37,-359.82C584.42,-336.28 564.12,-292.31 556.5,-252 553.53,-236.28 548.89,-230.07 556.5,-216 570.39,-190.3 597.61,-205.7 611.5,-180 634.68,-137.13 563.75,-111.36 592.5,-72 617.05,-38.39 663.15,-25.6 700.55,-20.96"/>
<polygon fill="grey" stroke="grey" stroke-width="2" points="701.27,-24.4 710.84,-19.85 700.53,-17.44 701.27,-24.4"/>
</g>
<!-- 5&#45;&gt;4 -->
<g id="edge21" class="edge">
<title>5&#45;&gt;4</title>
<path fill="none" stroke="grey" stroke-width="2" d="M571.78,-359.98C555.86,-350.82 537.35,-338.43 523.5,-324 472.03,-270.39 458.08,-251.69 438.5,-180 432.85,-159.31 438.77,-135.61 445.61,-117.86"/>
<polygon fill="grey" stroke="grey" stroke-width="2" points="449.03,-118.75 449.66,-108.18 442.57,-116.05 449.03,-118.75"/>
</g>
<!-- 14 -->
<g id="node15" class="node">
<title>14</title>
<path fill="none" stroke="#d6d856" stroke-width="2" d="M857,-324C857,-324 780,-324 780,-324 774,-324 768,-318 768,-312 768,-312 768,-300 768,-300 768,-294 774,-288 780,-288 780,-288 857,-288 857,-288 863,-288 869,-294 869,-300 869,-300 869,-312 869,-312 869,-318 863,-324 857,-324"/>
<text text-anchor="middle" x="818.5" y="-303.5" font-family="sans" font-size="10.00">counts_to_scores</text>
</g>
<!-- 5&#45;&gt;14 -->
<g id="edge35" class="edge">
<title>5&#45;&gt;14</title>
<path fill="none" stroke="grey" stroke-width="2" d="M652.51,-361.55C683.62,-351.33 724.7,-337.83 758.21,-326.81"/>
<polygon fill="grey" stroke="grey" stroke-width="2" points="759.49,-330.08 767.89,-323.63 757.3,-323.43 759.49,-330.08"/>
</g>
<!-- 15 -->
<g id="node16" class="node">
<title>15</title>
<path fill="none" stroke="#d86e56" stroke-width="2" d="M661.5,-252C661.5,-252 577.5,-252 577.5,-252 571.5,-252 565.5,-246 565.5,-240 565.5,-240 565.5,-228 565.5,-228 565.5,-222 571.5,-216 577.5,-216 577.5,-216 661.5,-216 661.5,-216 667.5,-216 673.5,-222 673.5,-228 673.5,-228 673.5,-240 673.5,-240 673.5,-246 667.5,-252 661.5,-252"/>
<text text-anchor="middle" x="619.5" y="-231.5" font-family="sans" font-size="10.00">investigate_scores</text>
</g>
<!-- 5&#45;&gt;15 -->
<g id="edge37" class="edge">
<title>5&#45;&gt;15</title>
<path fill="none" stroke="grey" stroke-width="2" d="M607.19,-359.87C609.57,-335.67 613.96,-291.21 616.8,-262.39"/>
<polygon fill="grey" stroke="grey" stroke-width="2" points="620.31,-262.48 617.81,-252.19 613.34,-261.8 620.31,-262.48"/>
</g>
<!-- 17 -->
<g id="node18" class="node">
<title>17</title>
<path fill="none" stroke="#56d8d0" stroke-width="2" d="M923.5,-180C923.5,-180 855.5,-180 855.5,-180 849.5,-180 843.5,-174 843.5,-168 843.5,-168 843.5,-156 843.5,-156 843.5,-150 849.5,-144 855.5,-144 855.5,-144 923.5,-144 923.5,-144 929.5,-144 935.5,-150 935.5,-156 935.5,-156 935.5,-168 935.5,-168 935.5,-174 929.5,-180 923.5,-180"/>
<text text-anchor="middle" x="889.5" y="-159.5" font-family="sans" font-size="10.00">escape_profiles</text>
</g>
<!-- 5&#45;&gt;17 -->
<g id="edge41" class="edge">
<title>5&#45;&gt;17</title>
<path fill="none" stroke="grey" stroke-width="2" d="M628.26,-359.85C678.94,-321.66 801.15,-229.57 858.64,-186.26"/>
<polygon fill="grey" stroke="grey" stroke-width="2" points="860.75,-189.05 866.63,-180.23 856.54,-183.46 860.75,-189.05"/>
</g>
<!-- 6 -->
<g id="node7" class="node">
<title>6</title>
<path fill="none" stroke="#8fd856" stroke-width="2" d="M772.5,-468C772.5,-468 720.5,-468 720.5,-468 714.5,-468 708.5,-462 708.5,-456 708.5,-456 708.5,-444 708.5,-444 708.5,-438 714.5,-432 720.5,-432 720.5,-432 772.5,-432 772.5,-432 778.5,-432 784.5,-438 784.5,-444 784.5,-444 784.5,-456 784.5,-456 784.5,-462 778.5,-468 772.5,-468"/>
<text text-anchor="middle" x="746.5" y="-447.5" font-family="sans" font-size="10.00">fit_titrations</text>
</g>
<!-- 6&#45;&gt;0 -->
<g id="edge8" class="edge">
<title>6&#45;&gt;0</title>
<path fill="none" stroke="grey" stroke-width="2" d="M784.52,-446.77C903.91,-438.76 1263.5,-406.36 1263.5,-307 1263.5,-307 1263.5,-307 1263.5,-161 1263.5,-104.43 1223.42,-96.65 1172.5,-72 1110.92,-42.19 914.96,-27.52 816.35,-21.88"/>
<polygon fill="grey" stroke="grey" stroke-width="2" points="816.44,-18.38 806.26,-21.31 816.04,-25.36 816.44,-18.38"/>
</g>
<!-- 6&#45;&gt;5 -->
<g id="edge23" class="edge">
<title>6&#45;&gt;5</title>
<path fill="none" stroke="grey" stroke-width="2" d="M712.01,-431.88C693.06,-422.47 669.37,-410.71 649.14,-400.67"/>
<polygon fill="grey" stroke="grey" stroke-width="2" points="650.64,-397.5 640.13,-396.19 647.53,-403.77 650.64,-397.5"/>
</g>
<!-- 7 -->
<g id="node8" class="node">
<title>7</title>
<path fill="none" stroke="#d8c356" stroke-width="2" d="M740.5,-684C740.5,-684 678.5,-684 678.5,-684 672.5,-684 666.5,-678 666.5,-672 666.5,-672 666.5,-660 666.5,-660 666.5,-654 672.5,-648 678.5,-648 678.5,-648 740.5,-648 740.5,-648 746.5,-648 752.5,-654 752.5,-660 752.5,-660 752.5,-672 752.5,-672 752.5,-678 746.5,-684 740.5,-684"/>
<text text-anchor="middle" x="709.5" y="-663.5" font-family="sans" font-size="10.00">build_variants</text>
</g>
<!-- 7&#45;&gt;0 -->
<g id="edge4" class="edge">
<title>7&#45;&gt;0</title>
<path fill="none" stroke="grey" stroke-width="2" d="M752.55,-663.9C888.78,-659.28 1301.5,-635.96 1301.5,-523 1301.5,-523 1301.5,-523 1301.5,-161 1301.5,-107.52 1268.1,-96.38 1220.5,-72 1151.24,-36.53 924.3,-24.42 816.44,-20.61"/>
<polygon fill="grey" stroke="grey" stroke-width="2" points="816.49,-17.11 806.38,-20.27 816.25,-24.11 816.49,-17.11"/>
</g>
<!-- 7&#45;&gt;6 -->
<g id="edge26" class="edge">
<title>7&#45;&gt;6</title>
<path fill="none" stroke="grey" stroke-width="2" d="M716,-647.56C719.59,-637.33 723.84,-624.08 726.5,-612 736.74,-565.54 742.18,-510.3 744.69,-478.09"/>
<polygon fill="grey" stroke="grey" stroke-width="2" points="748.18,-478.33 745.43,-468.1 741.2,-477.81 748.18,-478.33"/>
</g>
<!-- 10 -->
<g id="node11" class="node">
<title>10</title>
<path fill="none" stroke="#569ad8" stroke-width="2" d="M660,-540C660,-540 541,-540 541,-540 535,-540 529,-534 529,-528 529,-528 529,-516 529,-516 529,-510 535,-504 541,-504 541,-504 660,-504 660,-504 666,-504 672,-510 672,-516 672,-516 672,-528 672,-528 672,-534 666,-540 660,-540"/>
<text text-anchor="middle" x="600.5" y="-519.5" font-family="sans" font-size="10.00">aggregate_variant_counts</text>
</g>
<!-- 7&#45;&gt;10 -->
<g id="edge29" class="edge">
<title>7&#45;&gt;10</title>
<path fill="none" stroke="grey" stroke-width="2" d="M666.45,-648.74C649.42,-640.24 631.16,-628.18 619.5,-612 606.54,-594.02 602.08,-569.03 600.69,-550.1"/>
<polygon fill="grey" stroke="grey" stroke-width="2" points="604.19,-549.85 600.2,-540.03 597.19,-550.19 604.19,-549.85"/>
</g>
<!-- 11 -->
<g id="node12" class="node">
<title>11</title>
<path fill="none" stroke="#5682d8" stroke-width="2" d="M706,-612C706,-612 641,-612 641,-612 635,-612 629,-606 629,-600 629,-600 629,-588 629,-588 629,-582 635,-576 641,-576 641,-576 706,-576 706,-576 712,-576 718,-582 718,-588 718,-588 718,-600 718,-600 718,-606 712,-612 706,-612"/>
<text text-anchor="middle" x="673.5" y="-591.5" font-family="sans" font-size="10.00">count_variants</text>
</g>
<!-- 7&#45;&gt;11 -->
<g id="edge31" class="edge">
<title>7&#45;&gt;11</title>
<path fill="none" stroke="grey" stroke-width="2" d="M700.6,-647.7C696.5,-639.73 691.55,-630.1 687.01,-621.26"/>
<polygon fill="grey" stroke="grey" stroke-width="2" points="689.98,-619.4 682.3,-612.1 683.76,-622.6 689.98,-619.4"/>
</g>
<!-- 12 -->
<g id="node13" class="node">
<title>12</title>
<path fill="none" stroke="#56d863" stroke-width="2" d="M353,-468C353,-468 258,-468 258,-468 252,-468 246,-462 246,-456 246,-456 246,-444 246,-444 246,-438 252,-432 258,-432 258,-432 353,-432 353,-432 359,-432 365,-438 365,-444 365,-444 365,-456 365,-456 365,-462 359,-468 353,-468"/>
<text text-anchor="middle" x="305.5" y="-447.5" font-family="sans" font-size="10.00">calculate_expression</text>
</g>
<!-- 7&#45;&gt;12 -->
<g id="edge33" class="edge">
<title>7&#45;&gt;12</title>
<path fill="none" stroke="grey" stroke-width="2" d="M673.8,-647.95C652.67,-637.74 625.43,-624.37 601.5,-612 508.71,-564.03 401.36,-504.65 344.9,-473.11"/>
<polygon fill="grey" stroke="grey" stroke-width="2" points="346.39,-469.94 335.95,-468.11 342.98,-476.05 346.39,-469.94"/>
</g>
<!-- 8 -->
<g id="node9" class="node">
<title>8</title>
<path fill="none" stroke="#a7d856" stroke-width="2" d="M1061,-756C1061,-756 1010,-756 1010,-756 1004,-756 998,-750 998,-744 998,-744 998,-732 998,-732 998,-726 1004,-720 1010,-720 1010,-720 1061,-720 1061,-720 1067,-720 1073,-726 1073,-732 1073,-732 1073,-744 1073,-744 1073,-750 1067,-756 1061,-756"/>
<text text-anchor="middle" x="1035.5" y="-735.5" font-family="sans" font-size="10.00">process_ccs</text>
</g>
<!-- 8&#45;&gt;0 -->
<g id="edge7" class="edge">
<title>8&#45;&gt;0</title>
<path fill="none" stroke="grey" stroke-width="2" d="M1073.08,-736.3C1154.42,-732.59 1339.5,-711.36 1339.5,-595 1339.5,-595 1339.5,-595 1339.5,-161 1339.5,-109.27 1310.2,-96.23 1264.5,-72 1187.99,-31.44 931.83,-21.92 816.11,-19.69"/>
<polygon fill="grey" stroke="grey" stroke-width="2" points="816.09,-16.18 806.02,-19.5 815.96,-23.18 816.09,-16.18"/>
</g>
<!-- 8&#45;&gt;7 -->
<g id="edge27" class="edge">
<title>8&#45;&gt;7</title>
<path fill="none" stroke="grey" stroke-width="2" d="M997.79,-728.9C939.76,-716.44 828.38,-692.53 762.34,-678.35"/>
<polygon fill="grey" stroke="grey" stroke-width="2" points="763.06,-674.92 752.55,-676.24 761.59,-681.76 763.06,-674.92"/>
</g>
<!-- 9 -->
<g id="node10" class="node">
<title>9</title>
<path fill="none" stroke="#d8b456" stroke-width="2" d="M1050.5,-828C1050.5,-828 1020.5,-828 1020.5,-828 1014.5,-828 1008.5,-822 1008.5,-816 1008.5,-816 1008.5,-804 1008.5,-804 1008.5,-798 1014.5,-792 1020.5,-792 1020.5,-792 1050.5,-792 1050.5,-792 1056.5,-792 1062.5,-798 1062.5,-804 1062.5,-804 1062.5,-816 1062.5,-816 1062.5,-822 1056.5,-828 1050.5,-828"/>
<text text-anchor="middle" x="1035.5" y="-807.5" font-family="sans" font-size="10.00">get_ccs</text>
</g>
<!-- 9&#45;&gt;8 -->
<g id="edge28" class="edge">
<title>9&#45;&gt;8</title>
<path fill="none" stroke="grey" stroke-width="2" d="M1035.5,-791.7C1035.5,-783.98 1035.5,-774.71 1035.5,-766.11"/>
<polygon fill="grey" stroke="grey" stroke-width="2" points="1039,-766.1 1035.5,-756.1 1032,-766.1 1039,-766.1"/>
</g>
<!-- 10&#45;&gt;0 -->
<g id="edge18" class="edge">
<title>10&#45;&gt;0</title>
<path fill="none" stroke="grey" stroke-width="2" d="M552.11,-503.93C504.71,-484.79 433.79,-449.29 392.5,-396 346.69,-336.87 343.5,-309.8 343.5,-235 343.5,-235 343.5,-235 343.5,-161 343.5,-118.81 343.61,-98.42 376.5,-72 425.24,-32.84 606.15,-22.61 700.46,-19.94"/>
<polygon fill="grey" stroke="grey" stroke-width="2" points="700.79,-23.43 710.69,-19.67 700.6,-16.44 700.79,-23.43"/>
</g>
<!-- 10&#45;&gt;6 -->
<g id="edge25" class="edge">
<title>10&#45;&gt;6</title>
<path fill="none" stroke="grey" stroke-width="2" d="M636.22,-503.88C656,-494.39 680.77,-482.51 701.83,-472.42"/>
<polygon fill="grey" stroke="grey" stroke-width="2" points="703.4,-475.55 710.9,-468.07 700.37,-469.24 703.4,-475.55"/>
</g>
<!-- 10&#45;&gt;12 -->
<g id="edge32" class="edge">
<title>10&#45;&gt;12</title>
<path fill="none" stroke="grey" stroke-width="2" d="M528.71,-503.97C482,-492.88 421.38,-478.5 375.11,-467.52"/>
<polygon fill="grey" stroke="grey" stroke-width="2" points="375.71,-464.06 365.17,-465.16 374.09,-470.87 375.71,-464.06"/>
</g>
<!-- 13 -->
<g id="node14" class="node">
<title>13</title>
<path fill="none" stroke="#56b1d8" stroke-width="2" d="M509,-396C509,-396 414,-396 414,-396 408,-396 402,-390 402,-384 402,-384 402,-372 402,-372 402,-366 408,-360 414,-360 414,-360 509,-360 509,-360 515,-360 521,-366 521,-372 521,-372 521,-384 521,-384 521,-390 515,-396 509,-396"/>
<text text-anchor="middle" x="461.5" y="-375.5" font-family="sans" font-size="10.00">counts_to_cells_ratio</text>
</g>
<!-- 10&#45;&gt;13 -->
<g id="edge34" class="edge">
<title>10&#45;&gt;13</title>
<path fill="none" stroke="grey" stroke-width="2" d="M583.73,-503.87C559.21,-478.82 513.43,-432.05 485.39,-403.41"/>
<polygon fill="grey" stroke="grey" stroke-width="2" points="487.82,-400.89 478.33,-396.19 482.82,-405.78 487.82,-400.89"/>
</g>
<!-- 10&#45;&gt;14 -->
<g id="edge36" class="edge">
<title>10&#45;&gt;14</title>
<path fill="none" stroke="grey" stroke-width="2" d="M617.97,-503.85C656.56,-465.97 749.15,-375.08 793.71,-331.33"/>
<polygon fill="grey" stroke="grey" stroke-width="2" points="796.26,-333.74 800.95,-324.23 791.36,-328.74 796.26,-333.74"/>
</g>
<!-- 11&#45;&gt;10 -->
<g id="edge30" class="edge">
<title>11&#45;&gt;10</title>
<path fill="none" stroke="grey" stroke-width="2" d="M655.46,-575.7C646.44,-567.05 635.38,-556.45 625.56,-547.03"/>
<polygon fill="grey" stroke="grey" stroke-width="2" points="627.98,-544.5 618.34,-540.1 623.13,-549.55 627.98,-544.5"/>
</g>
<!-- 12&#45;&gt;0 -->
<g id="edge11" class="edge">
<title>12&#45;&gt;0</title>
<path fill="none" stroke="grey" stroke-width="2" d="M305.5,-431.95C305.5,-405.29 305.5,-352.11 305.5,-307 305.5,-307 305.5,-307 305.5,-161 305.5,-120.03 298.57,-98.86 329.5,-72 383.72,-24.91 596.62,-18.61 700.66,-18.43"/>
<polygon fill="grey" stroke="grey" stroke-width="2" points="700.68,-21.92 710.68,-18.43 700.68,-14.92 700.68,-21.92"/>
</g>
<!-- 12&#45;&gt;5 -->
<g id="edge24" class="edge">
<title>12&#45;&gt;5</title>
<path fill="none" stroke="grey" stroke-width="2" d="M365.13,-435.09C418.43,-422.65 495.99,-404.55 548.48,-392.31"/>
<polygon fill="grey" stroke="grey" stroke-width="2" points="549.35,-395.69 558.3,-390.01 547.76,-388.88 549.35,-395.69"/>
</g>
<!-- 13&#45;&gt;0 -->
<g id="edge17" class="edge">
<title>13&#45;&gt;0</title>
<path fill="none" stroke="grey" stroke-width="2" d="M444.14,-359.93C420.61,-334.89 381.5,-285.65 381.5,-235 381.5,-235 381.5,-235 381.5,-161 381.5,-120.55 371.01,-99.68 400.5,-72 442.85,-32.25 610.74,-22.27 700.76,-19.8"/>
<polygon fill="grey" stroke="grey" stroke-width="2" points="700.9,-23.29 710.81,-19.54 700.72,-16.3 700.9,-23.29"/>
</g>
<!-- 14&#45;&gt;0 -->
<g id="edge5" class="edge">
<title>14&#45;&gt;0</title>
<path fill="none" stroke="grey" stroke-width="2" d="M814.93,-287.97C804.9,-240.19 776.46,-104.62 764.22,-46.27"/>
<polygon fill="grey" stroke="grey" stroke-width="2" points="767.61,-45.37 762.13,-36.31 760.76,-46.81 767.61,-45.37"/>
</g>
<!-- 14&#45;&gt;15 -->
<g id="edge38" class="edge">
<title>14&#45;&gt;15</title>
<path fill="none" stroke="grey" stroke-width="2" d="M770.07,-287.97C742.27,-278.19 707.16,-265.84 677.85,-255.52"/>
<polygon fill="grey" stroke="grey" stroke-width="2" points="678.74,-252.13 668.14,-252.11 676.42,-258.73 678.74,-252.13"/>
</g>
<!-- 16 -->
<g id="node17" class="node">
<title>16</title>
<path fill="none" stroke="#d89c56" stroke-width="2" d="M1007.5,-252C1007.5,-252 893.5,-252 893.5,-252 887.5,-252 881.5,-246 881.5,-240 881.5,-240 881.5,-228 881.5,-228 881.5,-222 887.5,-216 893.5,-216 893.5,-216 1007.5,-216 1007.5,-216 1013.5,-216 1019.5,-222 1019.5,-228 1019.5,-228 1019.5,-240 1019.5,-240 1019.5,-246 1013.5,-252 1007.5,-252"/>
<text text-anchor="middle" x="950.5" y="-231.5" font-family="sans" font-size="10.00">call_strong_escape_sites</text>
</g>
<!-- 14&#45;&gt;16 -->
<g id="edge39" class="edge">
<title>14&#45;&gt;16</title>
<path fill="none" stroke="grey" stroke-width="2" d="M850.79,-287.88C868.37,-278.55 890.31,-266.92 909.13,-256.94"/>
<polygon fill="grey" stroke="grey" stroke-width="2" points="910.89,-259.97 918.09,-252.19 907.61,-253.78 910.89,-259.97"/>
</g>
<!-- 14&#45;&gt;17 -->
<g id="edge40" class="edge">
<title>14&#45;&gt;17</title>
<path fill="none" stroke="grey" stroke-width="2" d="M827.06,-287.87C839.32,-263.35 861.98,-218.03 876.37,-189.26"/>
<polygon fill="grey" stroke="grey" stroke-width="2" points="879.56,-190.7 880.91,-180.19 873.3,-187.57 879.56,-190.7"/>
</g>
<!-- 18 -->
<g id="node19" class="node">
<title>18</title>
<path fill="none" stroke="#56c9d8" stroke-width="2" d="M1223,-180C1223,-180 1170,-180 1170,-180 1164,-180 1158,-174 1158,-168 1158,-168 1158,-156 1158,-156 1158,-150 1164,-144 1170,-144 1170,-144 1223,-144 1223,-144 1229,-144 1235,-150 1235,-156 1235,-156 1235,-168 1235,-168 1235,-174 1229,-180 1223,-180"/>
<text text-anchor="middle" x="1196.5" y="-159.5" font-family="sans" font-size="10.00">output_pdbs</text>
</g>
<!-- 14&#45;&gt;18 -->
<g id="edge43" class="edge">
<title>14&#45;&gt;18</title>
<path fill="none" stroke="grey" stroke-width="2" d="M869.22,-305.93C964.22,-306.47 1163.31,-301.5 1206.5,-252 1221.19,-235.16 1216.24,-209.18 1209.06,-189.63"/>
<polygon fill="grey" stroke="grey" stroke-width="2" points="1212.31,-188.31 1205.32,-180.34 1205.81,-190.93 1212.31,-188.31"/>
</g>
<!-- 19 -->
<g id="node20" class="node">
<title>19</title>
<path fill="none" stroke="#566bd8" stroke-width="2" d="M893,-108C893,-108 818,-108 818,-108 812,-108 806,-102 806,-96 806,-96 806,-84 806,-84 806,-78 812,-72 818,-72 818,-72 893,-72 893,-72 899,-72 905,-78 905,-84 905,-84 905,-96 905,-96 905,-102 899,-108 893,-108"/>
<text text-anchor="middle" x="855.5" y="-87.5" font-family="sans" font-size="10.00">make_supp_data</text>
</g>
<!-- 14&#45;&gt;19 -->
<g id="edge44" class="edge">
<title>14&#45;&gt;19</title>
<path fill="none" stroke="grey" stroke-width="2" d="M818.65,-287.82C819.25,-258.09 822.04,-195.32 834.5,-144 836.65,-135.15 839.96,-125.82 843.33,-117.49"/>
<polygon fill="grey" stroke="grey" stroke-width="2" points="846.56,-118.84 847.24,-108.27 840.12,-116.11 846.56,-118.84"/>
</g>
<!-- 14&#45;&gt;20 -->
<g id="edge46" class="edge">
<title>14&#45;&gt;20</title>
<path fill="none" stroke="grey" stroke-width="2" d="M798.64,-287.8C787.69,-277.87 774.2,-264.83 763.5,-252 726.52,-207.67 690.92,-150.22 671.55,-117.3"/>
<polygon fill="grey" stroke="grey" stroke-width="2" points="674.36,-115.18 666.3,-108.3 668.32,-118.7 674.36,-115.18"/>
</g>
<!-- 22 -->
<g id="node23" class="node">
<title>22</title>
<path fill="none" stroke="#78d856" stroke-width="2" d="M1089.5,-180C1089.5,-180 1007.5,-180 1007.5,-180 1001.5,-180 995.5,-174 995.5,-168 995.5,-168 995.5,-156 995.5,-156 995.5,-150 1001.5,-144 1007.5,-144 1007.5,-144 1089.5,-144 1089.5,-144 1095.5,-144 1101.5,-150 1101.5,-156 1101.5,-156 1101.5,-168 1101.5,-168 1101.5,-174 1095.5,-180 1089.5,-180"/>
<text text-anchor="middle" x="1048.5" y="-159.5" font-family="sans" font-size="10.00">natural_mutations</text>
</g>
<!-- 14&#45;&gt;22 -->
<g id="edge49" class="edge">
<title>14&#45;&gt;22</title>
<path fill="none" stroke="grey" stroke-width="2" d="M869.05,-298.39C923.9,-290.19 1006.59,-274.49 1028.5,-252 1044.26,-235.82 1048.67,-210.06 1049.48,-190.4"/>
<polygon fill="grey" stroke="grey" stroke-width="2" points="1052.98,-190.25 1049.61,-180.21 1045.98,-190.16 1052.98,-190.25"/>
</g>
<!-- 15&#45;&gt;0 -->
<g id="edge2" class="edge">
<title>15&#45;&gt;0</title>
<path fill="none" stroke="grey" stroke-width="2" d="M635.88,-215.94C657.38,-192.89 695.33,-149.84 720.5,-108 732.48,-88.08 742.62,-63.69 749.39,-45.48"/>
<polygon fill="grey" stroke="grey" stroke-width="2" points="752.69,-46.67 752.81,-36.07 746.11,-44.28 752.69,-46.67"/>
</g>
<!-- 16&#45;&gt;0 -->
<g id="edge3" class="edge">
<title>16&#45;&gt;0</title>
<path fill="none" stroke="grey" stroke-width="2" d="M954.17,-215.93C960.05,-183.5 967.57,-112.62 931.5,-72 902.59,-39.44 854.27,-26.6 816.03,-21.67"/>
<polygon fill="grey" stroke="grey" stroke-width="2" points="816.38,-18.19 806.04,-20.53 815.58,-25.14 816.38,-18.19"/>
</g>
<!-- 16&#45;&gt;17 -->
<g id="edge42" class="edge">
<title>16&#45;&gt;17</title>
<path fill="none" stroke="grey" stroke-width="2" d="M935.42,-215.7C928.11,-207.3 919.19,-197.07 911.16,-187.86"/>
<polygon fill="grey" stroke="grey" stroke-width="2" points="913.61,-185.34 904.41,-180.1 908.34,-189.94 913.61,-185.34"/>
</g>
<!-- 16&#45;&gt;22 -->
<g id="edge48" class="edge">
<title>16&#45;&gt;22</title>
<path fill="none" stroke="grey" stroke-width="2" d="M974.47,-215.88C987.05,-206.89 1002.63,-195.76 1016.25,-186.03"/>
<polygon fill="grey" stroke="grey" stroke-width="2" points="1018.33,-188.85 1024.43,-180.19 1014.26,-183.15 1018.33,-188.85"/>
</g>
<!-- 17&#45;&gt;0 -->
<g id="edge15" class="edge">
<title>17&#45;&gt;0</title>
<path fill="none" stroke="grey" stroke-width="2" d="M902.35,-143.76C914.9,-124.65 930.02,-93.66 914.5,-72 892.29,-41 850.89,-27.91 816.33,-22.49"/>
<polygon fill="grey" stroke="grey" stroke-width="2" points="816.7,-19.01 806.31,-21.1 815.74,-25.94 816.7,-19.01"/>
</g>
<!-- 17&#45;&gt;19 -->
<g id="edge45" class="edge">
<title>17&#45;&gt;19</title>
<path fill="none" stroke="grey" stroke-width="2" d="M881.1,-143.7C877.23,-135.73 872.55,-126.1 868.26,-117.26"/>
<polygon fill="grey" stroke="grey" stroke-width="2" points="871.33,-115.57 863.81,-108.1 865.03,-118.63 871.33,-115.57"/>
</g>
<!-- 18&#45;&gt;0 -->
<g id="edge16" class="edge">
<title>18&#45;&gt;0</title>
<path fill="none" stroke="grey" stroke-width="2" d="M1191.33,-143.7C1184.17,-122.99 1169.13,-88.99 1143.5,-72 1090.98,-37.2 910.21,-24.97 816.25,-20.9"/>
<polygon fill="grey" stroke="grey" stroke-width="2" points="816.19,-17.39 806.06,-20.47 815.9,-24.39 816.19,-17.39"/>
</g>
<!-- 19&#45;&gt;0 -->
<g id="edge20" class="edge">
<title>19&#45;&gt;0</title>
<path fill="none" stroke="grey" stroke-width="2" d="M831.52,-71.7C819.19,-62.8 803.98,-51.82 790.65,-42.2"/>
<polygon fill="grey" stroke="grey" stroke-width="2" points="792.36,-39.12 782.2,-36.1 788.26,-44.79 792.36,-39.12"/>
</g>
<!-- 20&#45;&gt;0 -->
<g id="edge19" class="edge">
<title>20&#45;&gt;0</title>
<path fill="none" stroke="grey" stroke-width="2" d="M681.45,-71.88C694.54,-62.89 710.76,-51.76 724.94,-42.03"/>
<polygon fill="grey" stroke="grey" stroke-width="2" points="727.19,-44.73 733.45,-36.19 723.23,-38.96 727.19,-44.73"/>
</g>
<!-- 21 -->
<g id="node22" class="node">
<title>21</title>
<path fill="none" stroke="#61d856" stroke-width="2" d="M1185.5,-252C1185.5,-252 1087.5,-252 1087.5,-252 1081.5,-252 1075.5,-246 1075.5,-240 1075.5,-240 1075.5,-228 1075.5,-228 1075.5,-222 1081.5,-216 1087.5,-216 1087.5,-216 1185.5,-216 1185.5,-216 1191.5,-216 1197.5,-222 1197.5,-228 1197.5,-228 1197.5,-240 1197.5,-240 1197.5,-246 1191.5,-252 1185.5,-252"/>
<text text-anchor="middle" x="1136.5" y="-231.5" font-family="sans" font-size="10.00">gisaid_rbd_mutations</text>
</g>
<!-- 21&#45;&gt;0 -->
<g id="edge10" class="edge">
<title>21&#45;&gt;0</title>
<path fill="none" stroke="grey" stroke-width="2" d="M1134.72,-215.91C1132.05,-196.92 1125.6,-166.04 1110.5,-144 1080.76,-100.59 1064.38,-93.85 1016.5,-72 951.63,-42.39 870.05,-29.19 816.19,-23.39"/>
<polygon fill="grey" stroke="grey" stroke-width="2" points="816.44,-19.9 806.14,-22.36 815.73,-26.86 816.44,-19.9"/>
</g>
<!-- 21&#45;&gt;22 -->
<g id="edge50" class="edge">
<title>21&#45;&gt;22</title>
<path fill="none" stroke="grey" stroke-width="2" d="M1114.75,-215.7C1103.66,-206.88 1090.03,-196.03 1078.01,-186.47"/>
<polygon fill="grey" stroke="grey" stroke-width="2" points="1080.01,-183.59 1070,-180.1 1075.65,-189.07 1080.01,-183.59"/>
</g>
<!-- 22&#45;&gt;0 -->
<g id="edge9" class="edge">
<title>22&#45;&gt;0</title>
<path fill="none" stroke="grey" stroke-width="2" d="M1040.99,-143.7C1031.22,-123.31 1012.2,-89.96 985.5,-72 934.87,-37.95 865.14,-25.62 816.36,-21.24"/>
<polygon fill="grey" stroke="grey" stroke-width="2" points="816.54,-17.74 806.29,-20.42 815.97,-24.72 816.54,-17.74"/>
</g>
</g>
</svg>
