<?xml version="1.0" encoding="UTF-8" standalone="no"?>
<!DOCTYPE svg PUBLIC "-//W3C//DTD SVG 1.1//EN"
 "http://www.w3.org/Graphics/SVG/1.1/DTD/svg11.dtd">
<!-- Generated by graphviz version 2.49.1 (20211004.0028)
 -->
<!-- Title: snakemake_dag Pages: 1 -->
<svg width="1296pt" height="692pt"
 viewBox="0.00 0.00 1295.50 692.00" xmlns="http://www.w3.org/2000/svg" xmlns:xlink="http://www.w3.org/1999/xlink">
<g id="graph0" class="graph" transform="scale(1 1) rotate(0) translate(4 688)">
<title>snakemake_dag</title>
<polygon fill="white" stroke="transparent" points="-4,4 -4,-688 1291.5,-688 1291.5,4 -4,4"/>
<!-- 0 -->
<g id="node1" class="node">
<title>0</title>
<path fill="none" stroke="#56c9d8" stroke-width="2" d="M788,-36C788,-36 717,-36 717,-36 711,-36 705,-30 705,-24 705,-24 705,-12 705,-12 705,-6 711,0 717,0 717,0 788,0 788,0 794,0 800,-6 800,-12 800,-12 800,-24 800,-24 800,-30 794,-36 788,-36"/>
<text text-anchor="middle" x="752.5" y="-15.5" font-family="sans" font-size="10.00">make_summary</text>
</g>
<!-- 1 -->
<g id="node2" class="node">
<title>1</title>
<path fill="none" stroke="#88d856" stroke-width="2" d="M83,-108C83,-108 12,-108 12,-108 6,-108 0,-102 0,-96 0,-96 0,-84 0,-84 0,-78 6,-72 12,-72 12,-72 83,-72 83,-72 89,-72 95,-78 95,-84 95,-84 95,-96 95,-96 95,-102 89,-108 83,-108"/>
<text text-anchor="middle" x="47.5" y="-87.5" font-family="sans" font-size="10.00">make_rulegraph</text>
</g>
<!-- 1&#45;&gt;0 -->
<g id="edge9" class="edge">
<title>1&#45;&gt;0</title>
<path fill="none" stroke="grey" stroke-width="2" d="M95.22,-73.98C98.34,-73.24 101.46,-72.57 104.5,-72 319.65,-31.57 580.73,-21.98 694.66,-19.71"/>
<polygon fill="grey" stroke="grey" stroke-width="2" points="694.96,-23.2 704.89,-19.51 694.83,-16.2 694.96,-23.2"/>
</g>
<!-- 2 -->
<g id="node3" class="node">
<title>2</title>
<path fill="none" stroke="#56d8c9" stroke-width="2" d="M265.5,-108C265.5,-108 125.5,-108 125.5,-108 119.5,-108 113.5,-102 113.5,-96 113.5,-96 113.5,-84 113.5,-84 113.5,-78 119.5,-72 125.5,-72 125.5,-72 265.5,-72 265.5,-72 271.5,-72 277.5,-78 277.5,-84 277.5,-84 277.5,-96 277.5,-96 277.5,-102 271.5,-108 265.5,-108"/>
<text text-anchor="middle" x="195.5" y="-87.5" font-family="sans" font-size="10.00">get_early2020_mut_bind_expr</text>
</g>
<!-- 2&#45;&gt;0 -->
<g id="edge16" class="edge">
<title>2&#45;&gt;0</title>
<path fill="none" stroke="grey" stroke-width="2" d="M277.67,-74.11C282.34,-73.37 286.98,-72.66 291.5,-72 436.24,-50.88 607.55,-33.06 694.95,-24.48"/>
<polygon fill="grey" stroke="grey" stroke-width="2" points="695.31,-27.96 704.93,-23.51 694.63,-21 695.31,-27.96"/>
</g>
<!-- 3 -->
<g id="node4" class="node">
<title>3</title>
<path fill="none" stroke="#d86e56" stroke-width="2" d="M629,-180C629,-180 498,-180 498,-180 492,-180 486,-174 486,-168 486,-168 486,-156 486,-156 486,-150 492,-144 498,-144 498,-144 629,-144 629,-144 635,-144 641,-150 641,-156 641,-156 641,-168 641,-168 641,-174 635,-180 629,-180"/>
<text text-anchor="middle" x="563.5" y="-159.5" font-family="sans" font-size="10.00">get_early2020_escape_fracs</text>
</g>
<!-- 3&#45;&gt;0 -->
<g id="edge1" class="edge">
<title>3&#45;&gt;0</title>
<path fill="none" stroke="grey" stroke-width="2" d="M567.57,-143.88C573.13,-124 584.98,-91.44 606.5,-72 631.13,-49.76 665.83,-36.65 695.22,-29.04"/>
<polygon fill="grey" stroke="grey" stroke-width="2" points="696.07,-32.43 704.96,-26.66 694.42,-25.63 696.07,-32.43"/>
</g>
<!-- 4 -->
<g id="node5" class="node">
<title>4</title>
<path fill="none" stroke="#9fd856" stroke-width="2" d="M546.5,-108C546.5,-108 472.5,-108 472.5,-108 466.5,-108 460.5,-102 460.5,-96 460.5,-96 460.5,-84 460.5,-84 460.5,-78 466.5,-72 472.5,-72 472.5,-72 546.5,-72 546.5,-72 552.5,-72 558.5,-78 558.5,-84 558.5,-84 558.5,-96 558.5,-96 558.5,-102 552.5,-108 546.5,-108"/>
<text text-anchor="middle" x="509.5" y="-87.5" font-family="sans" font-size="10.00">bind_expr_filters</text>
</g>
<!-- 3&#45;&gt;4 -->
<g id="edge21" class="edge">
<title>3&#45;&gt;4</title>
<path fill="none" stroke="grey" stroke-width="2" d="M550.15,-143.7C543.74,-135.39 535.94,-125.28 528.89,-116.14"/>
<polygon fill="grey" stroke="grey" stroke-width="2" points="531.57,-113.88 522.69,-108.1 526.03,-118.16 531.57,-113.88"/>
</g>
<!-- 19 -->
<g id="node20" class="node">
<title>19</title>
<path fill="none" stroke="#d8b456" stroke-width="2" d="M712,-108C712,-108 627,-108 627,-108 621,-108 615,-102 615,-96 615,-96 615,-84 615,-84 615,-78 621,-72 627,-72 627,-72 712,-72 712,-72 718,-72 724,-78 724,-84 724,-84 724,-96 724,-96 724,-102 718,-108 712,-108"/>
<text text-anchor="middle" x="669.5" y="-87.5" font-family="sans" font-size="10.00">lineplots_by_group</text>
</g>
<!-- 3&#45;&gt;19 -->
<g id="edge42" class="edge">
<title>3&#45;&gt;19</title>
<path fill="none" stroke="grey" stroke-width="2" d="M589.43,-143.88C603.16,-134.81 620.21,-123.55 635.04,-113.76"/>
<polygon fill="grey" stroke="grey" stroke-width="2" points="637.05,-116.62 643.47,-108.19 633.2,-110.78 637.05,-116.62"/>
</g>
<!-- 4&#45;&gt;0 -->
<g id="edge8" class="edge">
<title>4&#45;&gt;0</title>
<path fill="none" stroke="grey" stroke-width="2" d="M558.67,-74.83C598.09,-63.48 653.47,-47.53 694.95,-35.58"/>
<polygon fill="grey" stroke="grey" stroke-width="2" points="696,-38.92 704.64,-32.79 694.06,-32.19 696,-38.92"/>
</g>
<!-- 5 -->
<g id="node6" class="node">
<title>5</title>
<path fill="none" stroke="#569ad8" stroke-width="2" d="M864.5,-396C864.5,-396 794.5,-396 794.5,-396 788.5,-396 782.5,-390 782.5,-384 782.5,-384 782.5,-372 782.5,-372 782.5,-366 788.5,-360 794.5,-360 794.5,-360 864.5,-360 864.5,-360 870.5,-360 876.5,-366 876.5,-372 876.5,-372 876.5,-384 876.5,-384 876.5,-390 870.5,-396 864.5,-396"/>
<text text-anchor="middle" x="829.5" y="-375.5" font-family="sans" font-size="10.00">collapse_scores</text>
</g>
<!-- 5&#45;&gt;0 -->
<g id="edge18" class="edge">
<title>5&#45;&gt;0</title>
<path fill="none" stroke="grey" stroke-width="2" d="M782.4,-372.2C667.38,-359.18 381.5,-318.43 381.5,-235 381.5,-235 381.5,-235 381.5,-161 381.5,-116.47 391.46,-98.15 427.5,-72 469.16,-41.77 612.98,-27.85 694.65,-22.25"/>
<polygon fill="grey" stroke="grey" stroke-width="2" points="695.03,-25.73 704.78,-21.57 694.57,-18.74 695.03,-25.73"/>
</g>
<!-- 5&#45;&gt;4 -->
<g id="edge20" class="edge">
<title>5&#45;&gt;4</title>
<path fill="none" stroke="grey" stroke-width="2" d="M798.69,-359.89C713.1,-312.34 478.66,-181.98 477.5,-180 465.74,-159.95 476.78,-134.85 488.99,-116.43"/>
<polygon fill="grey" stroke="grey" stroke-width="2" points="491.88,-118.41 494.8,-108.22 486.16,-114.36 491.88,-118.41"/>
</g>
<!-- 14 -->
<g id="node15" class="node">
<title>14</title>
<path fill="none" stroke="#56d89a" stroke-width="2" d="M1012,-324C1012,-324 935,-324 935,-324 929,-324 923,-318 923,-312 923,-312 923,-300 923,-300 923,-294 929,-288 935,-288 935,-288 1012,-288 1012,-288 1018,-288 1024,-294 1024,-300 1024,-300 1024,-312 1024,-312 1024,-318 1018,-324 1012,-324"/>
<text text-anchor="middle" x="973.5" y="-303.5" font-family="sans" font-size="10.00">counts_to_scores</text>
</g>
<!-- 5&#45;&gt;14 -->
<g id="edge32" class="edge">
<title>5&#45;&gt;14</title>
<path fill="none" stroke="grey" stroke-width="2" d="M864.73,-359.88C884.08,-350.47 908.27,-338.71 928.93,-328.67"/>
<polygon fill="grey" stroke="grey" stroke-width="2" points="930.67,-331.71 938.14,-324.19 927.61,-325.41 930.67,-331.71"/>
</g>
<!-- 16 -->
<g id="node17" class="node">
<title>16</title>
<path fill="none" stroke="#b6d856" stroke-width="2" d="M939.5,-180C939.5,-180 871.5,-180 871.5,-180 865.5,-180 859.5,-174 859.5,-168 859.5,-168 859.5,-156 859.5,-156 859.5,-150 865.5,-144 871.5,-144 871.5,-144 939.5,-144 939.5,-144 945.5,-144 951.5,-150 951.5,-156 951.5,-156 951.5,-168 951.5,-168 951.5,-174 945.5,-180 939.5,-180"/>
<text text-anchor="middle" x="905.5" y="-159.5" font-family="sans" font-size="10.00">escape_profiles</text>
</g>
<!-- 5&#45;&gt;16 -->
<g id="edge36" class="edge">
<title>5&#45;&gt;16</title>
<path fill="none" stroke="grey" stroke-width="2" d="M836.52,-359.73C846.19,-335.73 863.94,-290.85 877.5,-252 884.73,-231.29 892.14,-207.58 897.53,-189.85"/>
<polygon fill="grey" stroke="grey" stroke-width="2" points="900.91,-190.75 900.44,-180.17 894.21,-188.73 900.91,-190.75"/>
</g>
<!-- 6 -->
<g id="node7" class="node">
<title>6</title>
<path fill="none" stroke="#56d86b" stroke-width="2" d="M1055.5,-468C1055.5,-468 1003.5,-468 1003.5,-468 997.5,-468 991.5,-462 991.5,-456 991.5,-456 991.5,-444 991.5,-444 991.5,-438 997.5,-432 1003.5,-432 1003.5,-432 1055.5,-432 1055.5,-432 1061.5,-432 1067.5,-438 1067.5,-444 1067.5,-444 1067.5,-456 1067.5,-456 1067.5,-462 1061.5,-468 1055.5,-468"/>
<text text-anchor="middle" x="1029.5" y="-447.5" font-family="sans" font-size="10.00">fit_titrations</text>
</g>
<!-- 6&#45;&gt;0 -->
<g id="edge12" class="edge">
<title>6&#45;&gt;0</title>
<path fill="none" stroke="grey" stroke-width="2" d="M1067.82,-442.36C1130.85,-428.98 1249.5,-392.46 1249.5,-307 1249.5,-307 1249.5,-307 1249.5,-161 1249.5,-111.49 1225.37,-96.78 1182.5,-72 1120.48,-36.16 912.74,-24.31 810.43,-20.59"/>
<polygon fill="grey" stroke="grey" stroke-width="2" points="810.39,-17.09 800.27,-20.24 810.14,-24.09 810.39,-17.09"/>
</g>
<!-- 6&#45;&gt;5 -->
<g id="edge22" class="edge">
<title>6&#45;&gt;5</title>
<path fill="none" stroke="grey" stroke-width="2" d="M991.3,-435.13C988.32,-434.07 985.36,-433.01 982.5,-432 950.72,-420.75 915.13,-408.4 886.28,-398.46"/>
<polygon fill="grey" stroke="grey" stroke-width="2" points="887.37,-395.14 876.77,-395.19 885.09,-401.75 887.37,-395.14"/>
</g>
<!-- 7 -->
<g id="node8" class="node">
<title>7</title>
<path fill="none" stroke="#566bd8" stroke-width="2" d="M1009.5,-540C1009.5,-540 947.5,-540 947.5,-540 941.5,-540 935.5,-534 935.5,-528 935.5,-528 935.5,-516 935.5,-516 935.5,-510 941.5,-504 947.5,-504 947.5,-504 1009.5,-504 1009.5,-504 1015.5,-504 1021.5,-510 1021.5,-516 1021.5,-516 1021.5,-528 1021.5,-528 1021.5,-534 1015.5,-540 1009.5,-540"/>
<text text-anchor="middle" x="978.5" y="-519.5" font-family="sans" font-size="10.00">build_variants</text>
</g>
<!-- 7&#45;&gt;0 -->
<g id="edge19" class="edge">
<title>7&#45;&gt;0</title>
<path fill="none" stroke="grey" stroke-width="2" d="M1021.79,-520.31C1106.83,-516.42 1287.5,-494.57 1287.5,-379 1287.5,-379 1287.5,-379 1287.5,-161 1287.5,-111.49 1263.49,-96.56 1220.5,-72 1151.81,-32.75 919.56,-22.55 810.27,-19.92"/>
<polygon fill="grey" stroke="grey" stroke-width="2" points="810.16,-16.41 800.09,-19.68 810,-23.41 810.16,-16.41"/>
</g>
<!-- 7&#45;&gt;6 -->
<g id="edge24" class="edge">
<title>7&#45;&gt;6</title>
<path fill="none" stroke="grey" stroke-width="2" d="M991.11,-503.7C997.1,-495.47 1004.38,-485.48 1010.98,-476.42"/>
<polygon fill="grey" stroke="grey" stroke-width="2" points="1013.98,-478.25 1017.04,-468.1 1008.32,-474.13 1013.98,-478.25"/>
</g>
<!-- 10 -->
<g id="node11" class="node">
<title>10</title>
<path fill="none" stroke="#56b1d8" stroke-width="2" d="M854,-468C854,-468 759,-468 759,-468 753,-468 747,-462 747,-456 747,-456 747,-444 747,-444 747,-438 753,-432 759,-432 759,-432 854,-432 854,-432 860,-432 866,-438 866,-444 866,-444 866,-456 866,-456 866,-462 860,-468 854,-468"/>
<text text-anchor="middle" x="806.5" y="-447.5" font-family="sans" font-size="10.00">calculate_expression</text>
</g>
<!-- 7&#45;&gt;10 -->
<g id="edge27" class="edge">
<title>7&#45;&gt;10</title>
<path fill="none" stroke="grey" stroke-width="2" d="M936.42,-503.88C912.7,-494.22 882.88,-482.09 857.8,-471.88"/>
<polygon fill="grey" stroke="grey" stroke-width="2" points="859.02,-468.6 848.44,-468.07 856.38,-475.08 859.02,-468.6"/>
</g>
<!-- 11 -->
<g id="node12" class="node">
<title>11</title>
<path fill="none" stroke="#d88556" stroke-width="2" d="M1133,-396C1133,-396 1014,-396 1014,-396 1008,-396 1002,-390 1002,-384 1002,-384 1002,-372 1002,-372 1002,-366 1008,-360 1014,-360 1014,-360 1133,-360 1133,-360 1139,-360 1145,-366 1145,-372 1145,-372 1145,-384 1145,-384 1145,-390 1139,-396 1133,-396"/>
<text text-anchor="middle" x="1073.5" y="-375.5" font-family="sans" font-size="10.00">aggregate_variant_counts</text>
</g>
<!-- 7&#45;&gt;11 -->
<g id="edge29" class="edge">
<title>7&#45;&gt;11</title>
<path fill="none" stroke="grey" stroke-width="2" d="M1021.52,-509.1C1041.97,-501.04 1064.52,-488.1 1076.5,-468 1087.54,-449.49 1085.66,-424.74 1081.67,-406.04"/>
<polygon fill="grey" stroke="grey" stroke-width="2" points="1085.01,-404.97 1079.22,-396.09 1078.21,-406.64 1085.01,-404.97"/>
</g>
<!-- 12 -->
<g id="node13" class="node">
<title>12</title>
<path fill="none" stroke="#5682d8" stroke-width="2" d="M961,-468C961,-468 896,-468 896,-468 890,-468 884,-462 884,-456 884,-456 884,-444 884,-444 884,-438 890,-432 896,-432 896,-432 961,-432 961,-432 967,-432 973,-438 973,-444 973,-444 973,-456 973,-456 973,-462 967,-468 961,-468"/>
<text text-anchor="middle" x="928.5" y="-447.5" font-family="sans" font-size="10.00">count_variants</text>
</g>
<!-- 7&#45;&gt;12 -->
<g id="edge30" class="edge">
<title>7&#45;&gt;12</title>
<path fill="none" stroke="grey" stroke-width="2" d="M966.14,-503.7C960.27,-495.47 953.13,-485.48 946.66,-476.42"/>
<polygon fill="grey" stroke="grey" stroke-width="2" points="949.38,-474.21 940.72,-468.1 943.68,-478.28 949.38,-474.21"/>
</g>
<!-- 8 -->
<g id="node9" class="node">
<title>8</title>
<path fill="none" stroke="#56d8b1" stroke-width="2" d="M613,-612C613,-612 562,-612 562,-612 556,-612 550,-606 550,-600 550,-600 550,-588 550,-588 550,-582 556,-576 562,-576 562,-576 613,-576 613,-576 619,-576 625,-582 625,-588 625,-588 625,-600 625,-600 625,-606 619,-612 613,-612"/>
<text text-anchor="middle" x="587.5" y="-591.5" font-family="sans" font-size="10.00">process_ccs</text>
</g>
<!-- 8&#45;&gt;0 -->
<g id="edge15" class="edge">
<title>8&#45;&gt;0</title>
<path fill="none" stroke="grey" stroke-width="2" d="M549.76,-591.08C472.92,-584.93 305.5,-559.12 305.5,-451 305.5,-451 305.5,-451 305.5,-161 305.5,-116.68 314.35,-97.64 350.5,-72 404.64,-33.6 597.15,-23.02 694.8,-20.1"/>
<polygon fill="grey" stroke="grey" stroke-width="2" points="694.9,-23.6 704.8,-19.82 694.71,-16.6 694.9,-23.6"/>
</g>
<!-- 8&#45;&gt;7 -->
<g id="edge25" class="edge">
<title>8&#45;&gt;7</title>
<path fill="none" stroke="grey" stroke-width="2" d="M625.35,-586.22C695.37,-573.69 845.3,-546.85 925.43,-532.5"/>
<polygon fill="grey" stroke="grey" stroke-width="2" points="926.09,-535.94 935.31,-530.73 924.85,-529.05 926.09,-535.94"/>
</g>
<!-- 9 -->
<g id="node10" class="node">
<title>9</title>
<path fill="none" stroke="#d85656" stroke-width="2" d="M602.5,-684C602.5,-684 572.5,-684 572.5,-684 566.5,-684 560.5,-678 560.5,-672 560.5,-672 560.5,-660 560.5,-660 560.5,-654 566.5,-648 572.5,-648 572.5,-648 602.5,-648 602.5,-648 608.5,-648 614.5,-654 614.5,-660 614.5,-660 614.5,-672 614.5,-672 614.5,-678 608.5,-684 602.5,-684"/>
<text text-anchor="middle" x="587.5" y="-663.5" font-family="sans" font-size="10.00">get_ccs</text>
</g>
<!-- 9&#45;&gt;8 -->
<g id="edge26" class="edge">
<title>9&#45;&gt;8</title>
<path fill="none" stroke="grey" stroke-width="2" d="M587.5,-647.7C587.5,-639.98 587.5,-630.71 587.5,-622.11"/>
<polygon fill="grey" stroke="grey" stroke-width="2" points="591,-622.1 587.5,-612.1 584,-622.1 591,-622.1"/>
</g>
<!-- 10&#45;&gt;0 -->
<g id="edge17" class="edge">
<title>10&#45;&gt;0</title>
<path fill="none" stroke="grey" stroke-width="2" d="M746.92,-443.36C621.87,-429.86 343.5,-390.45 343.5,-307 343.5,-307 343.5,-307 343.5,-161 343.5,-116.47 353.24,-97.85 389.5,-72 437.37,-37.87 605.01,-25.4 694.76,-21.1"/>
<polygon fill="grey" stroke="grey" stroke-width="2" points="694.95,-24.6 704.78,-20.64 694.63,-17.6 694.95,-24.6"/>
</g>
<!-- 10&#45;&gt;5 -->
<g id="edge23" class="edge">
<title>10&#45;&gt;5</title>
<path fill="none" stroke="grey" stroke-width="2" d="M812.19,-431.7C814.75,-423.9 817.83,-414.51 820.68,-405.83"/>
<polygon fill="grey" stroke="grey" stroke-width="2" points="824.08,-406.7 823.88,-396.1 817.43,-404.51 824.08,-406.7"/>
</g>
<!-- 11&#45;&gt;0 -->
<g id="edge2" class="edge">
<title>11&#45;&gt;0</title>
<path fill="none" stroke="grey" stroke-width="2" d="M1076.46,-359.7C1079.78,-341.59 1085.72,-312.45 1093.5,-288 1098.75,-271.48 1104.86,-268.95 1108.5,-252 1125.79,-171.37 1132.45,-117.23 1063.5,-72 1022.8,-45.29 888.66,-30.12 810.47,-23.34"/>
<polygon fill="grey" stroke="grey" stroke-width="2" points="810.56,-19.84 800.3,-22.48 809.96,-26.81 810.56,-19.84"/>
</g>
<!-- 13 -->
<g id="node14" class="node">
<title>13</title>
<path fill="none" stroke="#70d856" stroke-width="2" d="M1209,-324C1209,-324 1114,-324 1114,-324 1108,-324 1102,-318 1102,-312 1102,-312 1102,-300 1102,-300 1102,-294 1108,-288 1114,-288 1114,-288 1209,-288 1209,-288 1215,-288 1221,-294 1221,-300 1221,-300 1221,-312 1221,-312 1221,-318 1215,-324 1209,-324"/>
<text text-anchor="middle" x="1161.5" y="-303.5" font-family="sans" font-size="10.00">counts_to_cells_ratio</text>
</g>
<!-- 11&#45;&gt;13 -->
<g id="edge31" class="edge">
<title>11&#45;&gt;13</title>
<path fill="none" stroke="grey" stroke-width="2" d="M1095.25,-359.7C1106.34,-350.88 1119.97,-340.03 1131.99,-330.47"/>
<polygon fill="grey" stroke="grey" stroke-width="2" points="1134.35,-333.07 1140,-324.1 1129.99,-327.59 1134.35,-333.07"/>
</g>
<!-- 11&#45;&gt;14 -->
<g id="edge33" class="edge">
<title>11&#45;&gt;14</title>
<path fill="none" stroke="grey" stroke-width="2" d="M1049.04,-359.88C1036.2,-350.89 1020.3,-339.76 1006.41,-330.03"/>
<polygon fill="grey" stroke="grey" stroke-width="2" points="1008.26,-327.06 998.06,-324.19 1004.24,-332.79 1008.26,-327.06"/>
</g>
<!-- 12&#45;&gt;11 -->
<g id="edge28" class="edge">
<title>12&#45;&gt;11</title>
<path fill="none" stroke="grey" stroke-width="2" d="M963.97,-431.88C983.62,-422.39 1008.22,-410.51 1029.13,-400.42"/>
<polygon fill="grey" stroke="grey" stroke-width="2" points="1030.66,-403.57 1038.14,-396.07 1027.62,-397.26 1030.66,-403.57"/>
</g>
<!-- 13&#45;&gt;0 -->
<g id="edge10" class="edge">
<title>13&#45;&gt;0</title>
<path fill="none" stroke="grey" stroke-width="2" d="M1167.97,-287.7C1182.69,-245.01 1213.35,-133.67 1158.5,-72 1135.73,-46.39 916.91,-29.29 810.3,-22.41"/>
<polygon fill="grey" stroke="grey" stroke-width="2" points="810.24,-18.9 800.04,-21.76 809.8,-25.89 810.24,-18.9"/>
</g>
<!-- 14&#45;&gt;0 -->
<g id="edge14" class="edge">
<title>14&#45;&gt;0</title>
<path fill="none" stroke="grey" stroke-width="2" d="M1024.21,-294.62C1047.7,-287 1073.47,-273.99 1087.5,-252 1122.53,-197.08 1101.38,-130.12 1031.5,-72 998.58,-44.62 881.88,-29.99 810.25,-23.42"/>
<polygon fill="grey" stroke="grey" stroke-width="2" points="810.3,-19.91 800.02,-22.51 809.67,-26.88 810.3,-19.91"/>
</g>
<!-- 15 -->
<g id="node16" class="node">
<title>15</title>
<path fill="none" stroke="#d8cb56" stroke-width="2" d="M856.5,-252C856.5,-252 742.5,-252 742.5,-252 736.5,-252 730.5,-246 730.5,-240 730.5,-240 730.5,-228 730.5,-228 730.5,-222 736.5,-216 742.5,-216 742.5,-216 856.5,-216 856.5,-216 862.5,-216 868.5,-222 868.5,-228 868.5,-228 868.5,-240 868.5,-240 868.5,-246 862.5,-252 856.5,-252"/>
<text text-anchor="middle" x="799.5" y="-231.5" font-family="sans" font-size="10.00">call_strong_escape_sites</text>
</g>
<!-- 14&#45;&gt;15 -->
<g id="edge34" class="edge">
<title>14&#45;&gt;15</title>
<path fill="none" stroke="grey" stroke-width="2" d="M930.93,-287.88C906.94,-278.22 876.77,-266.09 851.4,-255.88"/>
<polygon fill="grey" stroke="grey" stroke-width="2" points="852.51,-252.55 841.93,-252.07 849.9,-259.05 852.51,-252.55"/>
</g>
<!-- 14&#45;&gt;16 -->
<g id="edge37" class="edge">
<title>14&#45;&gt;16</title>
<path fill="none" stroke="grey" stroke-width="2" d="M965.3,-287.87C953.56,-263.35 931.85,-218.03 918.07,-189.26"/>
<polygon fill="grey" stroke="grey" stroke-width="2" points="921.21,-187.7 913.73,-180.19 914.89,-190.72 921.21,-187.7"/>
</g>
<!-- 17 -->
<g id="node18" class="node">
<title>17</title>
<path fill="none" stroke="#56d882" stroke-width="2" d="M1066,-252C1066,-252 1013,-252 1013,-252 1007,-252 1001,-246 1001,-240 1001,-240 1001,-228 1001,-228 1001,-222 1007,-216 1013,-216 1013,-216 1066,-216 1066,-216 1072,-216 1078,-222 1078,-228 1078,-228 1078,-240 1078,-240 1078,-246 1072,-252 1066,-252"/>
<text text-anchor="middle" x="1039.5" y="-231.5" font-family="sans" font-size="10.00">output_pdbs</text>
</g>
<!-- 14&#45;&gt;17 -->
<g id="edge38" class="edge">
<title>14&#45;&gt;17</title>
<path fill="none" stroke="grey" stroke-width="2" d="M989.81,-287.7C997.81,-279.22 1007.57,-268.86 1016.32,-259.58"/>
<polygon fill="grey" stroke="grey" stroke-width="2" points="1019.06,-261.78 1023.37,-252.1 1013.97,-256.98 1019.06,-261.78"/>
</g>
<!-- 18 -->
<g id="node19" class="node">
<title>18</title>
<path fill="none" stroke="#d89c56" stroke-width="2" d="M985,-108C985,-108 910,-108 910,-108 904,-108 898,-102 898,-96 898,-96 898,-84 898,-84 898,-78 904,-72 910,-72 910,-72 985,-72 985,-72 991,-72 997,-78 997,-84 997,-84 997,-96 997,-96 997,-102 991,-108 985,-108"/>
<text text-anchor="middle" x="947.5" y="-87.5" font-family="sans" font-size="10.00">make_supp_data</text>
</g>
<!-- 14&#45;&gt;18 -->
<g id="edge40" class="edge">
<title>14&#45;&gt;18</title>
<path fill="none" stroke="grey" stroke-width="2" d="M973.02,-287.97C971.99,-258.48 968.93,-196.04 960.5,-144 959.12,-135.45 957.06,-126.25 954.99,-117.95"/>
<polygon fill="grey" stroke="grey" stroke-width="2" points="958.32,-116.84 952.42,-108.04 951.55,-118.6 958.32,-116.84"/>
</g>
<!-- 14&#45;&gt;19 -->
<g id="edge41" class="edge">
<title>14&#45;&gt;19</title>
<path fill="none" stroke="grey" stroke-width="2" d="M922.88,-301.02C855.16,-294.68 740.07,-280.05 709.5,-252 672.19,-217.76 667.26,-154.61 667.83,-118.42"/>
<polygon fill="grey" stroke="grey" stroke-width="2" points="671.34,-118.21 668.16,-108.11 664.35,-117.99 671.34,-118.21"/>
</g>
<!-- 21 -->
<g id="node22" class="node">
<title>21</title>
<path fill="none" stroke="#ced856" stroke-width="2" d="M791.5,-180C791.5,-180 709.5,-180 709.5,-180 703.5,-180 697.5,-174 697.5,-168 697.5,-168 697.5,-156 697.5,-156 697.5,-150 703.5,-144 709.5,-144 709.5,-144 791.5,-144 791.5,-144 797.5,-144 803.5,-150 803.5,-156 803.5,-156 803.5,-168 803.5,-168 803.5,-174 797.5,-180 791.5,-180"/>
<text text-anchor="middle" x="750.5" y="-159.5" font-family="sans" font-size="10.00">natural_mutations</text>
</g>
<!-- 14&#45;&gt;21 -->
<g id="edge44" class="edge">
<title>14&#45;&gt;21</title>
<path fill="none" stroke="grey" stroke-width="2" d="M922.88,-301.7C856.73,-296.22 746.36,-282.63 721.5,-252 706.67,-233.73 717.9,-207.65 730.45,-188.44"/>
<polygon fill="grey" stroke="grey" stroke-width="2" points="733.38,-190.36 736.22,-180.15 727.63,-186.36 733.38,-190.36"/>
</g>
<!-- 15&#45;&gt;0 -->
<g id="edge3" class="edge">
<title>15&#45;&gt;0</title>
<path fill="none" stroke="grey" stroke-width="2" d="M805.74,-215.79C811.42,-197.75 818.11,-168.67 812.5,-144 804.21,-107.58 783.93,-69.38 769.23,-44.95"/>
<polygon fill="grey" stroke="grey" stroke-width="2" points="772.13,-42.97 763.91,-36.29 766.16,-46.64 772.13,-42.97"/>
</g>
<!-- 15&#45;&gt;16 -->
<g id="edge35" class="edge">
<title>15&#45;&gt;16</title>
<path fill="none" stroke="grey" stroke-width="2" d="M825.43,-215.88C839.16,-206.81 856.21,-195.55 871.04,-185.76"/>
<polygon fill="grey" stroke="grey" stroke-width="2" points="873.05,-188.62 879.47,-180.19 869.2,-182.78 873.05,-188.62"/>
</g>
<!-- 15&#45;&gt;21 -->
<g id="edge43" class="edge">
<title>15&#45;&gt;21</title>
<path fill="none" stroke="grey" stroke-width="2" d="M787.39,-215.7C781.63,-207.47 774.64,-197.48 768.29,-188.42"/>
<polygon fill="grey" stroke="grey" stroke-width="2" points="771.08,-186.29 762.47,-180.1 765.34,-190.3 771.08,-186.29"/>
</g>
<!-- 16&#45;&gt;0 -->
<g id="edge7" class="edge">
<title>16&#45;&gt;0</title>
<path fill="none" stroke="grey" stroke-width="2" d="M897.06,-143.88C886.9,-124.59 868.32,-93.16 845.5,-72 832.29,-59.75 815.74,-49.17 800.28,-40.76"/>
<polygon fill="grey" stroke="grey" stroke-width="2" points="801.82,-37.61 791.34,-36.06 798.56,-43.81 801.82,-37.61"/>
</g>
<!-- 16&#45;&gt;18 -->
<g id="edge39" class="edge">
<title>16&#45;&gt;18</title>
<path fill="none" stroke="grey" stroke-width="2" d="M915.88,-143.7C920.76,-135.56 926.69,-125.69 932.08,-116.7"/>
<polygon fill="grey" stroke="grey" stroke-width="2" points="935.09,-118.48 937.24,-108.1 929.09,-114.88 935.09,-118.48"/>
</g>
<!-- 17&#45;&gt;0 -->
<g id="edge13" class="edge">
<title>17&#45;&gt;0</title>
<path fill="none" stroke="grey" stroke-width="2" d="M1041.53,-215.89C1044.38,-183.08 1045.47,-111.11 1006.5,-72 979.52,-44.93 876.73,-30.46 810.47,-23.78"/>
<polygon fill="grey" stroke="grey" stroke-width="2" points="810.46,-20.26 800.16,-22.77 809.78,-27.23 810.46,-20.26"/>
</g>
<!-- 18&#45;&gt;0 -->
<g id="edge4" class="edge">
<title>18&#45;&gt;0</title>
<path fill="none" stroke="grey" stroke-width="2" d="M899.8,-71.88C872.55,-62.09 838.2,-49.77 809.53,-39.47"/>
<polygon fill="grey" stroke="grey" stroke-width="2" points="810.64,-36.15 800.05,-36.07 808.28,-42.74 810.64,-36.15"/>
</g>
<!-- 19&#45;&gt;0 -->
<g id="edge5" class="edge">
<title>19&#45;&gt;0</title>
<path fill="none" stroke="grey" stroke-width="2" d="M690.02,-71.7C700.37,-62.97 713.09,-52.24 724.34,-42.75"/>
<polygon fill="grey" stroke="grey" stroke-width="2" points="726.83,-45.23 732.22,-36.1 722.32,-39.88 726.83,-45.23"/>
</g>
<!-- 20 -->
<g id="node21" class="node">
<title>20</title>
<path fill="none" stroke="#59d856" stroke-width="2" d="M519.5,-252C519.5,-252 421.5,-252 421.5,-252 415.5,-252 409.5,-246 409.5,-240 409.5,-240 409.5,-228 409.5,-228 409.5,-222 415.5,-216 421.5,-216 421.5,-216 519.5,-216 519.5,-216 525.5,-216 531.5,-222 531.5,-228 531.5,-228 531.5,-240 531.5,-240 531.5,-246 525.5,-252 519.5,-252"/>
<text text-anchor="middle" x="470.5" y="-231.5" font-family="sans" font-size="10.00">gisaid_rbd_mutations</text>
</g>
<!-- 20&#45;&gt;0 -->
<g id="edge11" class="edge">
<title>20&#45;&gt;0</title>
<path fill="none" stroke="grey" stroke-width="2" d="M459.03,-215.67C453.13,-205.69 446.54,-192.65 443.5,-180 432.27,-133.2 418.57,-107.1 451.5,-72 483.81,-37.56 616.72,-25.39 694.71,-21.17"/>
<polygon fill="grey" stroke="grey" stroke-width="2" points="695.06,-24.66 704.87,-20.65 694.7,-17.67 695.06,-24.66"/>
</g>
<!-- 20&#45;&gt;21 -->
<g id="edge45" class="edge">
<title>20&#45;&gt;21</title>
<path fill="none" stroke="grey" stroke-width="2" d="M531.6,-217.72C577.62,-206.22 640.54,-190.49 687.11,-178.85"/>
<polygon fill="grey" stroke="grey" stroke-width="2" points="688.23,-182.18 697.08,-176.35 686.53,-175.38 688.23,-182.18"/>
</g>
<!-- 21&#45;&gt;0 -->
<g id="edge6" class="edge">
<title>21&#45;&gt;0</title>
<path fill="none" stroke="grey" stroke-width="2" d="M750.74,-143.87C751.08,-119.67 751.71,-75.21 752.11,-46.39"/>
<polygon fill="grey" stroke="grey" stroke-width="2" points="755.62,-46.24 752.26,-36.19 748.62,-46.14 755.62,-46.24"/>
</g>
</g>
</svg>
