<?xml version="1.0" encoding="UTF-8" standalone="no"?>
<!DOCTYPE svg PUBLIC "-//W3C//DTD SVG 1.1//EN"
 "http://www.w3.org/Graphics/SVG/1.1/DTD/svg11.dtd">
<!-- Generated by graphviz version 2.49.1 (20211004.0028)
 -->
<!-- Title: snakemake_dag Pages: 1 -->
<svg width="1040pt" height="620pt"
 viewBox="0.00 0.00 1039.50 620.00" xmlns="http://www.w3.org/2000/svg" xmlns:xlink="http://www.w3.org/1999/xlink">
<g id="graph0" class="graph" transform="scale(1 1) rotate(0) translate(4 616)">
<title>snakemake_dag</title>
<polygon fill="white" stroke="transparent" points="-4,4 -4,-616 1035.5,-616 1035.5,4 -4,4"/>
<!-- 0 -->
<g id="node1" class="node">
<title>0</title>
<path fill="none" stroke="#d85656" stroke-width="2" d="M646,-36C646,-36 575,-36 575,-36 569,-36 563,-30 563,-24 563,-24 563,-12 563,-12 563,-6 569,0 575,0 575,0 646,0 646,0 652,0 658,-6 658,-12 658,-12 658,-24 658,-24 658,-30 652,-36 646,-36"/>
<text text-anchor="middle" x="610.5" y="-15.5" font-family="sans" font-size="10.00">make_summary</text>
</g>
<!-- 1 -->
<g id="node2" class="node">
<title>1</title>
<path fill="none" stroke="#569ad8" stroke-width="2" d="M83,-108C83,-108 12,-108 12,-108 6,-108 0,-102 0,-96 0,-96 0,-84 0,-84 0,-78 6,-72 12,-72 12,-72 83,-72 83,-72 89,-72 95,-78 95,-84 95,-84 95,-96 95,-96 95,-102 89,-108 83,-108"/>
<text text-anchor="middle" x="47.5" y="-87.5" font-family="sans" font-size="10.00">make_rulegraph</text>
</g>
<!-- 1&#45;&gt;0 -->
<g id="edge11" class="edge">
<title>1&#45;&gt;0</title>
<path fill="none" stroke="grey" stroke-width="2" d="M95.23,-74.06C98.35,-73.3 101.46,-72.61 104.5,-72 265.01,-39.95 458.27,-26.53 552.77,-21.56"/>
<polygon fill="grey" stroke="grey" stroke-width="2" points="553.16,-25.04 562.97,-21.04 552.81,-18.05 553.16,-25.04"/>
</g>
<!-- 2 -->
<g id="node3" class="node">
<title>2</title>
<path fill="none" stroke="#56d88a" stroke-width="2" d="M265.5,-108C265.5,-108 125.5,-108 125.5,-108 119.5,-108 113.5,-102 113.5,-96 113.5,-96 113.5,-84 113.5,-84 113.5,-78 119.5,-72 125.5,-72 125.5,-72 265.5,-72 265.5,-72 271.5,-72 277.5,-78 277.5,-84 277.5,-84 277.5,-96 277.5,-96 277.5,-102 271.5,-108 265.5,-108"/>
<text text-anchor="middle" x="195.5" y="-87.5" font-family="sans" font-size="10.00">get_early2020_mut_bind_expr</text>
</g>
<!-- 2&#45;&gt;0 -->
<g id="edge7" class="edge">
<title>2&#45;&gt;0</title>
<path fill="none" stroke="grey" stroke-width="2" d="M277.71,-74.38C282.37,-73.57 287,-72.77 291.5,-72 382.89,-56.32 489.14,-38.81 553.03,-28.36"/>
<polygon fill="grey" stroke="grey" stroke-width="2" points="553.61,-31.81 562.91,-26.74 552.48,-24.9 553.61,-31.81"/>
</g>
<!-- 3 -->
<g id="node4" class="node">
<title>3</title>
<path fill="none" stroke="#56d8d0" stroke-width="2" d="M589,-180C589,-180 458,-180 458,-180 452,-180 446,-174 446,-168 446,-168 446,-156 446,-156 446,-150 452,-144 458,-144 458,-144 589,-144 589,-144 595,-144 601,-150 601,-156 601,-156 601,-168 601,-168 601,-174 595,-180 589,-180"/>
<text text-anchor="middle" x="523.5" y="-159.5" font-family="sans" font-size="10.00">get_early2020_escape_fracs</text>
</g>
<!-- 3&#45;&gt;0 -->
<g id="edge9" class="edge">
<title>3&#45;&gt;0</title>
<path fill="none" stroke="grey" stroke-width="2" d="M542.41,-143.66C552.29,-133.88 564.05,-121.04 572.5,-108 585.14,-88.49 595.22,-64.07 601.81,-45.74"/>
<polygon fill="grey" stroke="grey" stroke-width="2" points="605.13,-46.86 605.11,-36.26 598.52,-44.56 605.13,-46.86"/>
</g>
<!-- 4 -->
<g id="node5" class="node">
<title>4</title>
<path fill="none" stroke="#afd856" stroke-width="2" d="M551.5,-108C551.5,-108 477.5,-108 477.5,-108 471.5,-108 465.5,-102 465.5,-96 465.5,-96 465.5,-84 465.5,-84 465.5,-78 471.5,-72 477.5,-72 477.5,-72 551.5,-72 551.5,-72 557.5,-72 563.5,-78 563.5,-84 563.5,-84 563.5,-96 563.5,-96 563.5,-102 557.5,-108 551.5,-108"/>
<text text-anchor="middle" x="514.5" y="-87.5" font-family="sans" font-size="10.00">bind_expr_filters</text>
</g>
<!-- 3&#45;&gt;4 -->
<g id="edge14" class="edge">
<title>3&#45;&gt;4</title>
<path fill="none" stroke="grey" stroke-width="2" d="M521.28,-143.7C520.28,-135.98 519.09,-126.71 517.99,-118.11"/>
<polygon fill="grey" stroke="grey" stroke-width="2" points="521.45,-117.58 516.7,-108.1 514.5,-118.47 521.45,-117.58"/>
</g>
<!-- 4&#45;&gt;0 -->
<g id="edge5" class="edge">
<title>4&#45;&gt;0</title>
<path fill="none" stroke="grey" stroke-width="2" d="M538.23,-71.7C550.44,-62.8 565.49,-51.82 578.68,-42.2"/>
<polygon fill="grey" stroke="grey" stroke-width="2" points="581.02,-44.82 587.04,-36.1 576.9,-39.17 581.02,-44.82"/>
</g>
<!-- 5 -->
<g id="node6" class="node">
<title>5</title>
<path fill="none" stroke="#d8bc56" stroke-width="2" d="M415.5,-180C415.5,-180 345.5,-180 345.5,-180 339.5,-180 333.5,-174 333.5,-168 333.5,-168 333.5,-156 333.5,-156 333.5,-150 339.5,-144 345.5,-144 345.5,-144 415.5,-144 415.5,-144 421.5,-144 427.5,-150 427.5,-156 427.5,-156 427.5,-168 427.5,-168 427.5,-174 421.5,-180 415.5,-180"/>
<text text-anchor="middle" x="380.5" y="-159.5" font-family="sans" font-size="10.00">collapse_scores</text>
</g>
<!-- 5&#45;&gt;0 -->
<g id="edge4" class="edge">
<title>5&#45;&gt;0</title>
<path fill="none" stroke="grey" stroke-width="2" d="M391.03,-143.85C404.09,-123.92 428.12,-91.32 456.5,-72 485.37,-52.34 522.24,-39.31 552.66,-31.1"/>
<polygon fill="grey" stroke="grey" stroke-width="2" points="553.91,-34.39 562.71,-28.49 552.16,-27.61 553.91,-34.39"/>
</g>
<!-- 5&#45;&gt;4 -->
<g id="edge13" class="edge">
<title>5&#45;&gt;4</title>
<path fill="none" stroke="grey" stroke-width="2" d="M413.28,-143.88C431.13,-134.55 453.4,-122.92 472.5,-112.94"/>
<polygon fill="grey" stroke="grey" stroke-width="2" points="474.35,-115.92 481.59,-108.19 471.11,-109.72 474.35,-115.92"/>
</g>
<!-- 6 -->
<g id="node7" class="node">
<title>6</title>
<path fill="none" stroke="#d87556" stroke-width="2" d="M610.5,-252C610.5,-252 558.5,-252 558.5,-252 552.5,-252 546.5,-246 546.5,-240 546.5,-240 546.5,-228 546.5,-228 546.5,-222 552.5,-216 558.5,-216 558.5,-216 610.5,-216 610.5,-216 616.5,-216 622.5,-222 622.5,-228 622.5,-228 622.5,-240 622.5,-240 622.5,-246 616.5,-252 610.5,-252"/>
<text text-anchor="middle" x="584.5" y="-231.5" font-family="sans" font-size="10.00">fit_titrations</text>
</g>
<!-- 6&#45;&gt;0 -->
<g id="edge1" class="edge">
<title>6&#45;&gt;0</title>
<path fill="none" stroke="grey" stroke-width="2" d="M595.1,-215.55C600.56,-205.53 606.66,-192.5 609.5,-180 619.96,-133.96 617.05,-78.59 613.86,-46.24"/>
<polygon fill="grey" stroke="grey" stroke-width="2" points="617.33,-45.77 612.79,-36.2 610.37,-46.51 617.33,-45.77"/>
</g>
<!-- 6&#45;&gt;5 -->
<g id="edge16" class="edge">
<title>6&#45;&gt;5</title>
<path fill="none" stroke="grey" stroke-width="2" d="M546.13,-219.83C515.43,-209.3 471.92,-194.37 437.21,-182.46"/>
<polygon fill="grey" stroke="grey" stroke-width="2" points="438.26,-179.12 427.66,-179.18 435.99,-185.74 438.26,-179.12"/>
</g>
<!-- 7 -->
<g id="node8" class="node">
<title>7</title>
<path fill="none" stroke="#56d8a9" stroke-width="2" d="M731.5,-468C731.5,-468 669.5,-468 669.5,-468 663.5,-468 657.5,-462 657.5,-456 657.5,-456 657.5,-444 657.5,-444 657.5,-438 663.5,-432 669.5,-432 669.5,-432 731.5,-432 731.5,-432 737.5,-432 743.5,-438 743.5,-444 743.5,-444 743.5,-456 743.5,-456 743.5,-462 737.5,-468 731.5,-468"/>
<text text-anchor="middle" x="700.5" y="-447.5" font-family="sans" font-size="10.00">build_variants</text>
</g>
<!-- 7&#45;&gt;0 -->
<g id="edge8" class="edge">
<title>7&#45;&gt;0</title>
<path fill="none" stroke="grey" stroke-width="2" d="M738.07,-431.83C780.44,-409.58 843.5,-366.48 843.5,-307 843.5,-307 843.5,-307 843.5,-161 843.5,-79.05 737.1,-43.01 668.1,-28.26"/>
<polygon fill="grey" stroke="grey" stroke-width="2" points="668.71,-24.81 658.21,-26.23 667.31,-31.67 668.71,-24.81"/>
</g>
<!-- 7&#45;&gt;6 -->
<g id="edge17" class="edge">
<title>7&#45;&gt;6</title>
<path fill="none" stroke="grey" stroke-width="2" d="M657.41,-432.76C640.37,-424.28 622.12,-412.21 610.5,-396 581.99,-356.24 580.12,-296.8 581.92,-262.36"/>
<polygon fill="grey" stroke="grey" stroke-width="2" points="585.43,-262.33 582.6,-252.12 578.45,-261.86 585.43,-262.33"/>
</g>
<!-- 10 -->
<g id="node11" class="node">
<title>10</title>
<path fill="none" stroke="#567bd8" stroke-width="2" d="M736,-324C736,-324 617,-324 617,-324 611,-324 605,-318 605,-312 605,-312 605,-300 605,-300 605,-294 611,-288 617,-288 617,-288 736,-288 736,-288 742,-288 748,-294 748,-300 748,-300 748,-312 748,-312 748,-318 742,-324 736,-324"/>
<text text-anchor="middle" x="676.5" y="-303.5" font-family="sans" font-size="10.00">aggregate_variant_counts</text>
</g>
<!-- 7&#45;&gt;10 -->
<g id="edge21" class="edge">
<title>7&#45;&gt;10</title>
<path fill="none" stroke="grey" stroke-width="2" d="M708.52,-431.9C715.92,-413.71 724.63,-384.26 716.5,-360 713.15,-350 707.08,-340.38 700.67,-332.14"/>
<polygon fill="grey" stroke="grey" stroke-width="2" points="703.32,-329.85 694.23,-324.4 697.94,-334.33 703.32,-329.85"/>
</g>
<!-- 11 -->
<g id="node12" class="node">
<title>11</title>
<path fill="none" stroke="#88d856" stroke-width="2" d="M696,-396C696,-396 631,-396 631,-396 625,-396 619,-390 619,-384 619,-384 619,-372 619,-372 619,-366 625,-360 631,-360 631,-360 696,-360 696,-360 702,-360 708,-366 708,-372 708,-372 708,-384 708,-384 708,-390 702,-396 696,-396"/>
<text text-anchor="middle" x="663.5" y="-375.5" font-family="sans" font-size="10.00">count_variants</text>
</g>
<!-- 7&#45;&gt;11 -->
<g id="edge23" class="edge">
<title>7&#45;&gt;11</title>
<path fill="none" stroke="grey" stroke-width="2" d="M691.35,-431.7C687.1,-423.64 681.94,-413.89 677.23,-404.98"/>
<polygon fill="grey" stroke="grey" stroke-width="2" points="680.31,-403.31 672.54,-396.1 674.12,-406.58 680.31,-403.31"/>
</g>
<!-- 12 -->
<g id="node13" class="node">
<title>12</title>
<path fill="none" stroke="#ced856" stroke-width="2" d="M464,-252C464,-252 369,-252 369,-252 363,-252 357,-246 357,-240 357,-240 357,-228 357,-228 357,-222 363,-216 369,-216 369,-216 464,-216 464,-216 470,-216 476,-222 476,-228 476,-228 476,-240 476,-240 476,-246 470,-252 464,-252"/>
<text text-anchor="middle" x="416.5" y="-231.5" font-family="sans" font-size="10.00">calculate_expression</text>
</g>
<!-- 7&#45;&gt;12 -->
<g id="edge24" class="edge">
<title>7&#45;&gt;12</title>
<path fill="none" stroke="grey" stroke-width="2" d="M657.62,-431.91C636.59,-422.65 611.35,-410.2 590.5,-396 530.35,-355.04 470.28,-293.85 438.87,-259.92"/>
<polygon fill="grey" stroke="grey" stroke-width="2" points="441.23,-257.31 431.89,-252.31 436.07,-262.04 441.23,-257.31"/>
</g>
<!-- 8 -->
<g id="node9" class="node">
<title>8</title>
<path fill="none" stroke="#56d86b" stroke-width="2" d="M779,-540C779,-540 728,-540 728,-540 722,-540 716,-534 716,-528 716,-528 716,-516 716,-516 716,-510 722,-504 728,-504 728,-504 779,-504 779,-504 785,-504 791,-510 791,-516 791,-516 791,-528 791,-528 791,-534 785,-540 779,-540"/>
<text text-anchor="middle" x="753.5" y="-519.5" font-family="sans" font-size="10.00">process_ccs</text>
</g>
<!-- 8&#45;&gt;0 -->
<g id="edge6" class="edge">
<title>8&#45;&gt;0</title>
<path fill="none" stroke="grey" stroke-width="2" d="M785.47,-503.81C823.38,-480.82 881.5,-436.25 881.5,-379 881.5,-379 881.5,-379 881.5,-161 881.5,-65.56 747.99,-34.14 668.39,-23.89"/>
<polygon fill="grey" stroke="grey" stroke-width="2" points="668.36,-20.36 658.01,-22.63 667.52,-27.31 668.36,-20.36"/>
</g>
<!-- 8&#45;&gt;7 -->
<g id="edge19" class="edge">
<title>8&#45;&gt;7</title>
<path fill="none" stroke="grey" stroke-width="2" d="M740.4,-503.7C734.11,-495.39 726.45,-485.28 719.54,-476.14"/>
<polygon fill="grey" stroke="grey" stroke-width="2" points="722.28,-473.96 713.45,-468.1 716.7,-478.19 722.28,-473.96"/>
</g>
<!-- 9 -->
<g id="node10" class="node">
<title>9</title>
<path fill="none" stroke="#68d856" stroke-width="2" d="M768.5,-612C768.5,-612 738.5,-612 738.5,-612 732.5,-612 726.5,-606 726.5,-600 726.5,-600 726.5,-588 726.5,-588 726.5,-582 732.5,-576 738.5,-576 738.5,-576 768.5,-576 768.5,-576 774.5,-576 780.5,-582 780.5,-588 780.5,-588 780.5,-600 780.5,-600 780.5,-606 774.5,-612 768.5,-612"/>
<text text-anchor="middle" x="753.5" y="-591.5" font-family="sans" font-size="10.00">get_ccs</text>
</g>
<!-- 9&#45;&gt;8 -->
<g id="edge20" class="edge">
<title>9&#45;&gt;8</title>
<path fill="none" stroke="grey" stroke-width="2" d="M753.5,-575.7C753.5,-567.98 753.5,-558.71 753.5,-550.11"/>
<polygon fill="grey" stroke="grey" stroke-width="2" points="757,-550.1 753.5,-540.1 750,-550.1 757,-550.1"/>
</g>
<!-- 10&#45;&gt;0 -->
<g id="edge12" class="edge">
<title>10&#45;&gt;0</title>
<path fill="none" stroke="grey" stroke-width="2" d="M674.11,-287.81C668.47,-248.91 653.12,-151.3 630.5,-72 628.04,-63.39 624.81,-54.21 621.66,-45.94"/>
<polygon fill="grey" stroke="grey" stroke-width="2" points="624.83,-44.45 617.91,-36.42 618.31,-47.01 624.83,-44.45"/>
</g>
<!-- 10&#45;&gt;6 -->
<g id="edge18" class="edge">
<title>10&#45;&gt;6</title>
<path fill="none" stroke="grey" stroke-width="2" d="M653.76,-287.7C642.06,-278.8 627.64,-267.82 614.99,-258.2"/>
<polygon fill="grey" stroke="grey" stroke-width="2" points="617.06,-255.37 606.98,-252.1 612.82,-260.94 617.06,-255.37"/>
</g>
<!-- 10&#45;&gt;12 -->
<g id="edge25" class="edge">
<title>10&#45;&gt;12</title>
<path fill="none" stroke="grey" stroke-width="2" d="M613.23,-287.97C574.71,-277.59 525.46,-264.33 485.87,-253.68"/>
<polygon fill="grey" stroke="grey" stroke-width="2" points="486.6,-250.25 476.03,-251.03 484.78,-257.01 486.6,-250.25"/>
</g>
<!-- 13 -->
<g id="node14" class="node">
<title>13</title>
<path fill="none" stroke="#56c1d8" stroke-width="2" d="M803,-180C803,-180 708,-180 708,-180 702,-180 696,-174 696,-168 696,-168 696,-156 696,-156 696,-150 702,-144 708,-144 708,-144 803,-144 803,-144 809,-144 815,-150 815,-156 815,-156 815,-168 815,-168 815,-174 809,-180 803,-180"/>
<text text-anchor="middle" x="755.5" y="-159.5" font-family="sans" font-size="10.00">counts_to_cells_ratio</text>
</g>
<!-- 10&#45;&gt;13 -->
<g id="edge26" class="edge">
<title>10&#45;&gt;13</title>
<path fill="none" stroke="grey" stroke-width="2" d="M686.03,-287.87C699.67,-263.35 724.88,-218.03 740.89,-189.26"/>
<polygon fill="grey" stroke="grey" stroke-width="2" points="744.13,-190.63 745.94,-180.19 738.02,-187.23 744.13,-190.63"/>
</g>
<!-- 11&#45;&gt;10 -->
<g id="edge22" class="edge">
<title>11&#45;&gt;10</title>
<path fill="none" stroke="grey" stroke-width="2" d="M666.71,-359.7C668.15,-351.98 669.87,-342.71 671.46,-334.11"/>
<polygon fill="grey" stroke="grey" stroke-width="2" points="674.94,-334.58 673.32,-324.1 668.06,-333.3 674.94,-334.58"/>
</g>
<!-- 12&#45;&gt;0 -->
<g id="edge3" class="edge">
<title>12&#45;&gt;0</title>
<path fill="none" stroke="grey" stroke-width="2" d="M366.41,-215.97C350.1,-207.77 333.82,-196.12 324.5,-180 316.49,-166.15 317.53,-158.4 324.5,-144 365.33,-59.62 481.58,-32.2 552.67,-23.29"/>
<polygon fill="grey" stroke="grey" stroke-width="2" points="553.29,-26.74 562.82,-22.1 552.48,-19.79 553.29,-26.74"/>
</g>
<!-- 12&#45;&gt;5 -->
<g id="edge15" class="edge">
<title>12&#45;&gt;5</title>
<path fill="none" stroke="grey" stroke-width="2" d="M407.6,-215.7C403.5,-207.73 398.55,-198.1 394.01,-189.26"/>
<polygon fill="grey" stroke="grey" stroke-width="2" points="396.98,-187.4 389.3,-180.1 390.76,-190.6 396.98,-187.4"/>
</g>
<!-- 13&#45;&gt;0 -->
<g id="edge10" class="edge">
<title>13&#45;&gt;0</title>
<path fill="none" stroke="grey" stroke-width="2" d="M743.21,-143.91C729.34,-125.2 705.55,-94.82 681.5,-72 670.17,-61.25 656.65,-50.68 644.47,-41.85"/>
<polygon fill="grey" stroke="grey" stroke-width="2" points="646.47,-38.98 636.29,-36.03 642.41,-44.68 646.47,-38.98"/>
</g>
<!-- 14 -->
<g id="node15" class="node">
<title>14</title>
<path fill="none" stroke="#d89c56" stroke-width="2" d="M1019.5,-108C1019.5,-108 921.5,-108 921.5,-108 915.5,-108 909.5,-102 909.5,-96 909.5,-96 909.5,-84 909.5,-84 909.5,-78 915.5,-72 921.5,-72 921.5,-72 1019.5,-72 1019.5,-72 1025.5,-72 1031.5,-78 1031.5,-84 1031.5,-84 1031.5,-96 1031.5,-96 1031.5,-102 1025.5,-108 1019.5,-108"/>
<text text-anchor="middle" x="970.5" y="-87.5" font-family="sans" font-size="10.00">gisaid_rbd_mutations</text>
</g>
<!-- 14&#45;&gt;0 -->
<g id="edge2" class="edge">
<title>14&#45;&gt;0</title>
<path fill="none" stroke="grey" stroke-width="2" d="M909.15,-74.89C904.53,-73.89 899.95,-72.92 895.5,-72 816.92,-55.79 725.68,-39.22 668.02,-29.02"/>
<polygon fill="grey" stroke="grey" stroke-width="2" points="668.47,-25.54 658.01,-27.25 667.25,-32.44 668.47,-25.54"/>
</g>
</g>
</svg>
