<?xml version="1.0" encoding="UTF-8" standalone="no"?>
<!DOCTYPE svg PUBLIC "-//W3C//DTD SVG 1.1//EN"
 "http://www.w3.org/Graphics/SVG/1.1/DTD/svg11.dtd">
<!-- Generated by graphviz version 2.49.1 (20211004.0028)
 -->
<!-- Title: snakemake_dag Pages: 1 -->
<svg width="1274pt" height="692pt"
 viewBox="0.00 0.00 1273.50 692.00" xmlns="http://www.w3.org/2000/svg" xmlns:xlink="http://www.w3.org/1999/xlink">
<g id="graph0" class="graph" transform="scale(1 1) rotate(0) translate(4 688)">
<title>snakemake_dag</title>
<polygon fill="white" stroke="transparent" points="-4,4 -4,-688 1269.5,-688 1269.5,4 -4,4"/>
<!-- 0 -->
<g id="node1" class="node">
<title>0</title>
<path fill="none" stroke="#d8bc56" stroke-width="2" d="M705,-36C705,-36 634,-36 634,-36 628,-36 622,-30 622,-24 622,-24 622,-12 622,-12 622,-6 628,0 634,0 634,0 705,0 705,0 711,0 717,-6 717,-12 717,-12 717,-24 717,-24 717,-30 711,-36 705,-36"/>
<text text-anchor="middle" x="669.5" y="-15.5" font-family="sans" font-size="10.00">make_summary</text>
</g>
<!-- 1 -->
<g id="node2" class="node">
<title>1</title>
<path fill="none" stroke="#56d8c1" stroke-width="2" d="M83,-108C83,-108 12,-108 12,-108 6,-108 0,-102 0,-96 0,-96 0,-84 0,-84 0,-78 6,-72 12,-72 12,-72 83,-72 83,-72 89,-72 95,-78 95,-84 95,-84 95,-96 95,-96 95,-102 89,-108 83,-108"/>
<text text-anchor="middle" x="47.5" y="-87.5" font-family="sans" font-size="10.00">make_rulegraph</text>
</g>
<!-- 1&#45;&gt;0 -->
<g id="edge12" class="edge">
<title>1&#45;&gt;0</title>
<path fill="none" stroke="grey" stroke-width="2" d="M95.22,-74.03C98.35,-73.28 101.46,-72.59 104.5,-72 287.54,-36.48 508.73,-24.51 611.63,-20.69"/>
<polygon fill="grey" stroke="grey" stroke-width="2" points="611.94,-24.18 621.8,-20.32 611.68,-17.18 611.94,-24.18"/>
</g>
<!-- 2 -->
<g id="node3" class="node">
<title>2</title>
<path fill="none" stroke="#88d856" stroke-width="2" d="M265.5,-108C265.5,-108 125.5,-108 125.5,-108 119.5,-108 113.5,-102 113.5,-96 113.5,-96 113.5,-84 113.5,-84 113.5,-78 119.5,-72 125.5,-72 125.5,-72 265.5,-72 265.5,-72 271.5,-72 277.5,-78 277.5,-84 277.5,-84 277.5,-96 277.5,-96 277.5,-102 271.5,-108 265.5,-108"/>
<text text-anchor="middle" x="195.5" y="-87.5" font-family="sans" font-size="10.00">get_early2020_mut_bind_expr</text>
</g>
<!-- 2&#45;&gt;0 -->
<g id="edge10" class="edge">
<title>2&#45;&gt;0</title>
<path fill="none" stroke="grey" stroke-width="2" d="M277.69,-74.25C282.36,-73.47 286.99,-72.72 291.5,-72 404.8,-54.03 537.71,-36.13 611.91,-26.42"/>
<polygon fill="grey" stroke="grey" stroke-width="2" points="612.52,-29.87 621.98,-25.11 611.61,-22.93 612.52,-29.87"/>
</g>
<!-- 3 -->
<g id="node4" class="node">
<title>3</title>
<path fill="none" stroke="#5673d8" stroke-width="2" d="M591,-180C591,-180 460,-180 460,-180 454,-180 448,-174 448,-168 448,-168 448,-156 448,-156 448,-150 454,-144 460,-144 460,-144 591,-144 591,-144 597,-144 603,-150 603,-156 603,-156 603,-168 603,-168 603,-174 597,-180 591,-180"/>
<text text-anchor="middle" x="525.5" y="-159.5" font-family="sans" font-size="10.00">get_early2020_escape_fracs</text>
</g>
<!-- 3&#45;&gt;0 -->
<g id="edge8" class="edge">
<title>3&#45;&gt;0</title>
<path fill="none" stroke="grey" stroke-width="2" d="M542.87,-143.87C568.28,-118.82 615.7,-72.05 644.75,-43.41"/>
<polygon fill="grey" stroke="grey" stroke-width="2" points="647.41,-45.7 652.07,-36.19 642.49,-40.72 647.41,-45.7"/>
</g>
<!-- 4 -->
<g id="node5" class="node">
<title>4</title>
<path fill="none" stroke="#56d88a" stroke-width="2" d="M553.5,-108C553.5,-108 479.5,-108 479.5,-108 473.5,-108 467.5,-102 467.5,-96 467.5,-96 467.5,-84 467.5,-84 467.5,-78 473.5,-72 479.5,-72 479.5,-72 553.5,-72 553.5,-72 559.5,-72 565.5,-78 565.5,-84 565.5,-84 565.5,-96 565.5,-96 565.5,-102 559.5,-108 553.5,-108"/>
<text text-anchor="middle" x="516.5" y="-87.5" font-family="sans" font-size="10.00">bind_expr_filters</text>
</g>
<!-- 3&#45;&gt;4 -->
<g id="edge18" class="edge">
<title>3&#45;&gt;4</title>
<path fill="none" stroke="grey" stroke-width="2" d="M523.28,-143.7C522.28,-135.98 521.09,-126.71 519.99,-118.11"/>
<polygon fill="grey" stroke="grey" stroke-width="2" points="523.45,-117.58 518.7,-108.1 516.5,-118.47 523.45,-117.58"/>
</g>
<!-- 4&#45;&gt;0 -->
<g id="edge3" class="edge">
<title>4&#45;&gt;0</title>
<path fill="none" stroke="grey" stroke-width="2" d="M553.93,-71.88C574.75,-62.35 600.85,-50.41 622.98,-40.28"/>
<polygon fill="grey" stroke="grey" stroke-width="2" points="624.56,-43.41 632.19,-36.07 621.64,-37.05 624.56,-43.41"/>
</g>
<!-- 5 -->
<g id="node6" class="node">
<title>5</title>
<path fill="none" stroke="#d8a456" stroke-width="2" d="M532.5,-396C532.5,-396 462.5,-396 462.5,-396 456.5,-396 450.5,-390 450.5,-384 450.5,-384 450.5,-372 450.5,-372 450.5,-366 456.5,-360 462.5,-360 462.5,-360 532.5,-360 532.5,-360 538.5,-360 544.5,-366 544.5,-372 544.5,-372 544.5,-384 544.5,-384 544.5,-390 538.5,-396 532.5,-396"/>
<text text-anchor="middle" x="497.5" y="-375.5" font-family="sans" font-size="10.00">collapse_scores</text>
</g>
<!-- 5&#45;&gt;0 -->
<g id="edge11" class="edge">
<title>5&#45;&gt;0</title>
<path fill="none" stroke="grey" stroke-width="2" d="M469.72,-359.88C435.4,-336.35 381.5,-290.55 381.5,-235 381.5,-235 381.5,-235 381.5,-161 381.5,-59.32 527.69,-30.45 611.76,-22.25"/>
<polygon fill="grey" stroke="grey" stroke-width="2" points="612.3,-25.72 621.94,-21.33 611.67,-18.74 612.3,-25.72"/>
</g>
<!-- 5&#45;&gt;4 -->
<g id="edge19" class="edge">
<title>5&#45;&gt;4</title>
<path fill="none" stroke="grey" stroke-width="2" d="M485.27,-359.92C458.3,-319.99 399.15,-218.31 438.5,-144 445.1,-131.54 456.08,-121.47 467.75,-113.59"/>
<polygon fill="grey" stroke="grey" stroke-width="2" points="469.7,-116.5 476.32,-108.23 465.98,-110.56 469.7,-116.5"/>
</g>
<!-- 14 -->
<g id="node15" class="node">
<title>14</title>
<path fill="none" stroke="#bed856" stroke-width="2" d="M768,-324C768,-324 691,-324 691,-324 685,-324 679,-318 679,-312 679,-312 679,-300 679,-300 679,-294 685,-288 691,-288 691,-288 768,-288 768,-288 774,-288 780,-294 780,-300 780,-300 780,-312 780,-312 780,-318 774,-324 768,-324"/>
<text text-anchor="middle" x="729.5" y="-303.5" font-family="sans" font-size="10.00">counts_to_scores</text>
</g>
<!-- 5&#45;&gt;14 -->
<g id="edge31" class="edge">
<title>5&#45;&gt;14</title>
<path fill="none" stroke="grey" stroke-width="2" d="M544.73,-362.75C580.64,-351.92 630.3,-336.93 669.1,-325.22"/>
<polygon fill="grey" stroke="grey" stroke-width="2" points="670.16,-328.56 678.72,-322.32 668.13,-321.86 670.16,-328.56"/>
</g>
<!-- 16 -->
<g id="node17" class="node">
<title>16</title>
<path fill="none" stroke="#568ad8" stroke-width="2" d="M739.5,-180C739.5,-180 671.5,-180 671.5,-180 665.5,-180 659.5,-174 659.5,-168 659.5,-168 659.5,-156 659.5,-156 659.5,-150 665.5,-144 671.5,-144 671.5,-144 739.5,-144 739.5,-144 745.5,-144 751.5,-150 751.5,-156 751.5,-156 751.5,-168 751.5,-168 751.5,-174 745.5,-180 739.5,-180"/>
<text text-anchor="middle" x="705.5" y="-159.5" font-family="sans" font-size="10.00">escape_profiles</text>
</g>
<!-- 5&#45;&gt;16 -->
<g id="edge35" class="edge">
<title>5&#45;&gt;16</title>
<path fill="none" stroke="grey" stroke-width="2" d="M493.88,-359.54C488.25,-327.1 481.38,-257.07 516.5,-216 525.37,-205.63 597.13,-187.49 649.61,-175.36"/>
<polygon fill="grey" stroke="grey" stroke-width="2" points="650.53,-178.74 659.49,-173.09 648.97,-171.92 650.53,-178.74"/>
</g>
<!-- 6 -->
<g id="node7" class="node">
<title>6</title>
<path fill="none" stroke="#d6d856" stroke-width="2" d="M853.5,-468C853.5,-468 801.5,-468 801.5,-468 795.5,-468 789.5,-462 789.5,-456 789.5,-456 789.5,-444 789.5,-444 789.5,-438 795.5,-432 801.5,-432 801.5,-432 853.5,-432 853.5,-432 859.5,-432 865.5,-438 865.5,-444 865.5,-444 865.5,-456 865.5,-456 865.5,-462 859.5,-468 853.5,-468"/>
<text text-anchor="middle" x="827.5" y="-447.5" font-family="sans" font-size="10.00">fit_titrations</text>
</g>
<!-- 6&#45;&gt;0 -->
<g id="edge13" class="edge">
<title>6&#45;&gt;0</title>
<path fill="none" stroke="grey" stroke-width="2" d="M843.56,-431.69C865.32,-406.36 901.5,-356.76 901.5,-307 901.5,-307 901.5,-307 901.5,-161 901.5,-115.85 887.76,-100.21 852.5,-72 816.82,-43.45 766.35,-30.28 727.45,-24.21"/>
<polygon fill="grey" stroke="grey" stroke-width="2" points="727.71,-20.71 717.32,-22.74 726.71,-27.64 727.71,-20.71"/>
</g>
<!-- 6&#45;&gt;5 -->
<g id="edge21" class="edge">
<title>6&#45;&gt;5</title>
<path fill="none" stroke="grey" stroke-width="2" d="M789.32,-440.9C731.63,-428.66 621.85,-405.38 554.62,-391.12"/>
<polygon fill="grey" stroke="grey" stroke-width="2" points="555.12,-387.64 544.61,-388.99 553.67,-394.49 555.12,-387.64"/>
</g>
<!-- 7 -->
<g id="node8" class="node">
<title>7</title>
<path fill="none" stroke="#d88d56" stroke-width="2" d="M908.5,-540C908.5,-540 846.5,-540 846.5,-540 840.5,-540 834.5,-534 834.5,-528 834.5,-528 834.5,-516 834.5,-516 834.5,-510 840.5,-504 846.5,-504 846.5,-504 908.5,-504 908.5,-504 914.5,-504 920.5,-510 920.5,-516 920.5,-516 920.5,-528 920.5,-528 920.5,-534 914.5,-540 908.5,-540"/>
<text text-anchor="middle" x="877.5" y="-519.5" font-family="sans" font-size="10.00">build_variants</text>
</g>
<!-- 7&#45;&gt;0 -->
<g id="edge6" class="edge">
<title>7&#45;&gt;0</title>
<path fill="none" stroke="grey" stroke-width="2" d="M920.6,-515.13C989.19,-503.09 1115.5,-468.73 1115.5,-379 1115.5,-379 1115.5,-379 1115.5,-161 1115.5,-89.51 1047.97,-98.34 981.5,-72 897.07,-38.54 791.59,-26.2 727.45,-21.65"/>
<polygon fill="grey" stroke="grey" stroke-width="2" points="727.34,-18.13 717.13,-20.96 726.87,-25.12 727.34,-18.13"/>
</g>
<!-- 7&#45;&gt;6 -->
<g id="edge22" class="edge">
<title>7&#45;&gt;6</title>
<path fill="none" stroke="grey" stroke-width="2" d="M865.14,-503.7C859.27,-495.47 852.13,-485.48 845.66,-476.42"/>
<polygon fill="grey" stroke="grey" stroke-width="2" points="848.38,-474.21 839.72,-468.1 842.68,-478.28 848.38,-474.21"/>
</g>
<!-- 10 -->
<g id="node11" class="node">
<title>10</title>
<path fill="none" stroke="#59d856" stroke-width="2" d="M545,-468C545,-468 450,-468 450,-468 444,-468 438,-462 438,-456 438,-456 438,-444 438,-444 438,-438 444,-432 450,-432 450,-432 545,-432 545,-432 551,-432 557,-438 557,-444 557,-444 557,-456 557,-456 557,-462 551,-468 545,-468"/>
<text text-anchor="middle" x="497.5" y="-447.5" font-family="sans" font-size="10.00">calculate_expression</text>
</g>
<!-- 7&#45;&gt;10 -->
<g id="edge25" class="edge">
<title>7&#45;&gt;10</title>
<path fill="none" stroke="grey" stroke-width="2" d="M834.28,-513.04C769.21,-501.05 645.43,-478.25 567.42,-463.88"/>
<polygon fill="grey" stroke="grey" stroke-width="2" points="567.66,-460.37 557.19,-462 566.39,-467.25 567.66,-460.37"/>
</g>
<!-- 11 -->
<g id="node12" class="node">
<title>11</title>
<path fill="none" stroke="#56d8d8" stroke-width="2" d="M1061,-396C1061,-396 942,-396 942,-396 936,-396 930,-390 930,-384 930,-384 930,-372 930,-372 930,-366 936,-360 942,-360 942,-360 1061,-360 1061,-360 1067,-360 1073,-366 1073,-372 1073,-372 1073,-384 1073,-384 1073,-390 1067,-396 1061,-396"/>
<text text-anchor="middle" x="1001.5" y="-375.5" font-family="sans" font-size="10.00">aggregate_variant_counts</text>
</g>
<!-- 7&#45;&gt;11 -->
<g id="edge26" class="edge">
<title>7&#45;&gt;11</title>
<path fill="none" stroke="grey" stroke-width="2" d="M920.66,-509.05C942.33,-500.9 967.16,-487.89 982.5,-468 996.03,-450.45 1000.44,-425.42 1001.66,-406.37"/>
<polygon fill="grey" stroke="grey" stroke-width="2" points="1005.16,-406.34 1002.05,-396.21 998.17,-406.07 1005.16,-406.34"/>
</g>
<!-- 12 -->
<g id="node13" class="node">
<title>12</title>
<path fill="none" stroke="#d86e56" stroke-width="2" d="M961,-468C961,-468 896,-468 896,-468 890,-468 884,-462 884,-456 884,-456 884,-444 884,-444 884,-438 890,-432 896,-432 896,-432 961,-432 961,-432 967,-432 973,-438 973,-444 973,-444 973,-456 973,-456 973,-462 967,-468 961,-468"/>
<text text-anchor="middle" x="928.5" y="-447.5" font-family="sans" font-size="10.00">count_variants</text>
</g>
<!-- 7&#45;&gt;12 -->
<g id="edge28" class="edge">
<title>7&#45;&gt;12</title>
<path fill="none" stroke="grey" stroke-width="2" d="M890.11,-503.7C896.1,-495.47 903.38,-485.48 909.98,-476.42"/>
<polygon fill="grey" stroke="grey" stroke-width="2" points="912.98,-478.25 916.04,-468.1 907.32,-474.13 912.98,-478.25"/>
</g>
<!-- 8 -->
<g id="node9" class="node">
<title>8</title>
<path fill="none" stroke="#56d8a2" stroke-width="2" d="M592,-612C592,-612 541,-612 541,-612 535,-612 529,-606 529,-600 529,-600 529,-588 529,-588 529,-582 535,-576 541,-576 541,-576 592,-576 592,-576 598,-576 604,-582 604,-588 604,-588 604,-600 604,-600 604,-606 598,-612 592,-612"/>
<text text-anchor="middle" x="566.5" y="-591.5" font-family="sans" font-size="10.00">process_ccs</text>
</g>
<!-- 8&#45;&gt;0 -->
<g id="edge9" class="edge">
<title>8&#45;&gt;0</title>
<path fill="none" stroke="grey" stroke-width="2" d="M528.83,-589.76C456.55,-581.25 305.5,-551.46 305.5,-451 305.5,-451 305.5,-451 305.5,-161 305.5,-115.19 319.82,-98.06 357.5,-72 397.72,-44.18 532.86,-29.42 611.47,-23.01"/>
<polygon fill="grey" stroke="grey" stroke-width="2" points="612.01,-26.48 621.7,-22.2 611.45,-19.5 612.01,-26.48"/>
</g>
<!-- 8&#45;&gt;7 -->
<g id="edge23" class="edge">
<title>8&#45;&gt;7</title>
<path fill="none" stroke="grey" stroke-width="2" d="M604.01,-584.56C658.95,-572.19 761.56,-549.1 824.28,-534.98"/>
<polygon fill="grey" stroke="grey" stroke-width="2" points="825.38,-538.32 834.37,-532.71 823.84,-531.49 825.38,-538.32"/>
</g>
<!-- 9 -->
<g id="node10" class="node">
<title>9</title>
<path fill="none" stroke="#d85656" stroke-width="2" d="M581.5,-684C581.5,-684 551.5,-684 551.5,-684 545.5,-684 539.5,-678 539.5,-672 539.5,-672 539.5,-660 539.5,-660 539.5,-654 545.5,-648 551.5,-648 551.5,-648 581.5,-648 581.5,-648 587.5,-648 593.5,-654 593.5,-660 593.5,-660 593.5,-672 593.5,-672 593.5,-678 587.5,-684 581.5,-684"/>
<text text-anchor="middle" x="566.5" y="-663.5" font-family="sans" font-size="10.00">get_ccs</text>
</g>
<!-- 9&#45;&gt;8 -->
<g id="edge24" class="edge">
<title>9&#45;&gt;8</title>
<path fill="none" stroke="grey" stroke-width="2" d="M566.5,-647.7C566.5,-639.98 566.5,-630.71 566.5,-622.11"/>
<polygon fill="grey" stroke="grey" stroke-width="2" points="570,-622.1 566.5,-612.1 563,-622.1 570,-622.1"/>
</g>
<!-- 10&#45;&gt;0 -->
<g id="edge2" class="edge">
<title>10&#45;&gt;0</title>
<path fill="none" stroke="grey" stroke-width="2" d="M455.42,-431.86C409.82,-410.16 343.5,-368.1 343.5,-307 343.5,-307 343.5,-307 343.5,-161 343.5,-45.42 517.88,-22.95 611.57,-19.21"/>
<polygon fill="grey" stroke="grey" stroke-width="2" points="611.87,-22.71 621.75,-18.87 611.63,-15.71 611.87,-22.71"/>
</g>
<!-- 10&#45;&gt;5 -->
<g id="edge20" class="edge">
<title>10&#45;&gt;5</title>
<path fill="none" stroke="grey" stroke-width="2" d="M497.5,-431.7C497.5,-423.98 497.5,-414.71 497.5,-406.11"/>
<polygon fill="grey" stroke="grey" stroke-width="2" points="501,-406.1 497.5,-396.1 494,-406.1 501,-406.1"/>
</g>
<!-- 11&#45;&gt;0 -->
<g id="edge15" class="edge">
<title>11&#45;&gt;0</title>
<path fill="none" stroke="grey" stroke-width="2" d="M984.52,-359.74C975.82,-349.98 965.77,-337.14 959.5,-324 942.03,-287.42 939.5,-275.54 939.5,-235 939.5,-235 939.5,-235 939.5,-161 939.5,-120.03 945.2,-100.22 915.5,-72 888.86,-46.69 790.98,-31.75 727,-24.49"/>
<polygon fill="grey" stroke="grey" stroke-width="2" points="727.37,-21.01 717.05,-23.39 726.6,-27.97 727.37,-21.01"/>
</g>
<!-- 13 -->
<g id="node14" class="node">
<title>13</title>
<path fill="none" stroke="#56c1d8" stroke-width="2" d="M1075,-324C1075,-324 980,-324 980,-324 974,-324 968,-318 968,-312 968,-312 968,-300 968,-300 968,-294 974,-288 980,-288 980,-288 1075,-288 1075,-288 1081,-288 1087,-294 1087,-300 1087,-300 1087,-312 1087,-312 1087,-318 1081,-324 1075,-324"/>
<text text-anchor="middle" x="1027.5" y="-303.5" font-family="sans" font-size="10.00">counts_to_cells_ratio</text>
</g>
<!-- 11&#45;&gt;13 -->
<g id="edge29" class="edge">
<title>11&#45;&gt;13</title>
<path fill="none" stroke="grey" stroke-width="2" d="M1007.93,-359.7C1010.86,-351.81 1014.39,-342.3 1017.64,-333.55"/>
<polygon fill="grey" stroke="grey" stroke-width="2" points="1020.95,-334.7 1021.15,-324.1 1014.38,-332.26 1020.95,-334.7"/>
</g>
<!-- 11&#45;&gt;14 -->
<g id="edge30" class="edge">
<title>11&#45;&gt;14</title>
<path fill="none" stroke="grey" stroke-width="2" d="M935.31,-359.97C890.96,-348.55 833.02,-333.64 789.92,-322.55"/>
<polygon fill="grey" stroke="grey" stroke-width="2" points="790.69,-319.13 780.13,-320.03 788.95,-325.91 790.69,-319.13"/>
</g>
<!-- 12&#45;&gt;11 -->
<g id="edge27" class="edge">
<title>12&#45;&gt;11</title>
<path fill="none" stroke="grey" stroke-width="2" d="M946.54,-431.7C955.56,-423.05 966.62,-412.45 976.44,-403.03"/>
<polygon fill="grey" stroke="grey" stroke-width="2" points="978.87,-405.55 983.66,-396.1 974.02,-400.5 978.87,-405.55"/>
</g>
<!-- 13&#45;&gt;0 -->
<g id="edge17" class="edge">
<title>13&#45;&gt;0</title>
<path fill="none" stroke="grey" stroke-width="2" d="M1027.62,-287.8C1026.93,-244.37 1018.69,-129.62 953.5,-72 920.66,-42.97 800.28,-28.87 727.2,-22.85"/>
<polygon fill="grey" stroke="grey" stroke-width="2" points="727.47,-19.36 717.22,-22.06 726.91,-26.34 727.47,-19.36"/>
</g>
<!-- 14&#45;&gt;0 -->
<g id="edge14" class="edge">
<title>14&#45;&gt;0</title>
<path fill="none" stroke="grey" stroke-width="2" d="M780.04,-294.92C803.9,-287.36 830.22,-274.31 844.5,-252 869.2,-213.42 900.08,-162.1 826.5,-72 802.51,-42.62 761.58,-29.44 727.52,-23.57"/>
<polygon fill="grey" stroke="grey" stroke-width="2" points="727.62,-20.05 717.2,-21.98 726.55,-26.97 727.62,-20.05"/>
</g>
<!-- 15 -->
<g id="node16" class="node">
<title>15</title>
<path fill="none" stroke="#56a2d8" stroke-width="2" d="M651.5,-252C651.5,-252 537.5,-252 537.5,-252 531.5,-252 525.5,-246 525.5,-240 525.5,-240 525.5,-228 525.5,-228 525.5,-222 531.5,-216 537.5,-216 537.5,-216 651.5,-216 651.5,-216 657.5,-216 663.5,-222 663.5,-228 663.5,-228 663.5,-240 663.5,-240 663.5,-246 657.5,-252 651.5,-252"/>
<text text-anchor="middle" x="594.5" y="-231.5" font-family="sans" font-size="10.00">call_strong_escape_sites</text>
</g>
<!-- 14&#45;&gt;15 -->
<g id="edge32" class="edge">
<title>14&#45;&gt;15</title>
<path fill="none" stroke="grey" stroke-width="2" d="M696.48,-287.88C678.42,-278.51 655.85,-266.81 636.55,-256.8"/>
<polygon fill="grey" stroke="grey" stroke-width="2" points="638.14,-253.69 627.65,-252.19 634.92,-259.9 638.14,-253.69"/>
</g>
<!-- 14&#45;&gt;16 -->
<g id="edge33" class="edge">
<title>14&#45;&gt;16</title>
<path fill="none" stroke="grey" stroke-width="2" d="M724.32,-287.96C721.35,-277.64 717.78,-264.16 715.5,-252 711.66,-231.5 709.1,-208.04 707.53,-190.36"/>
<polygon fill="grey" stroke="grey" stroke-width="2" points="711,-189.85 706.68,-180.17 704.02,-190.43 711,-189.85"/>
</g>
<!-- 17 -->
<g id="node18" class="node">
<title>17</title>
<path fill="none" stroke="#70d856" stroke-width="2" d="M823,-252C823,-252 770,-252 770,-252 764,-252 758,-246 758,-240 758,-240 758,-228 758,-228 758,-222 764,-216 770,-216 770,-216 823,-216 823,-216 829,-216 835,-222 835,-228 835,-228 835,-240 835,-240 835,-246 829,-252 823,-252"/>
<text text-anchor="middle" x="796.5" y="-231.5" font-family="sans" font-size="10.00">output_pdbs</text>
</g>
<!-- 14&#45;&gt;17 -->
<g id="edge36" class="edge">
<title>14&#45;&gt;17</title>
<path fill="none" stroke="grey" stroke-width="2" d="M746.06,-287.7C754.18,-279.22 764.09,-268.86 772.97,-259.58"/>
<polygon fill="grey" stroke="grey" stroke-width="2" points="775.74,-261.75 780.13,-252.1 770.69,-256.91 775.74,-261.75"/>
</g>
<!-- 18 -->
<g id="node19" class="node">
<title>18</title>
<path fill="none" stroke="#a7d856" stroke-width="2" d="M785,-108C785,-108 710,-108 710,-108 704,-108 698,-102 698,-96 698,-96 698,-84 698,-84 698,-78 704,-72 710,-72 710,-72 785,-72 785,-72 791,-72 797,-78 797,-84 797,-84 797,-96 797,-96 797,-102 791,-108 785,-108"/>
<text text-anchor="middle" x="747.5" y="-87.5" font-family="sans" font-size="10.00">make_supp_data</text>
</g>
<!-- 14&#45;&gt;18 -->
<g id="edge37" class="edge">
<title>14&#45;&gt;18</title>
<path fill="none" stroke="grey" stroke-width="2" d="M732.58,-287.8C735.95,-269.78 741.77,-240.69 748.5,-216 752.93,-199.73 757.8,-196.65 760.5,-180 763.06,-164.21 762.42,-159.88 760.5,-144 759.48,-135.53 757.57,-126.47 755.52,-118.28"/>
<polygon fill="grey" stroke="grey" stroke-width="2" points="758.86,-117.23 752.91,-108.47 752.1,-119.03 758.86,-117.23"/>
</g>
<!-- 15&#45;&gt;0 -->
<g id="edge5" class="edge">
<title>15&#45;&gt;0</title>
<path fill="none" stroke="grey" stroke-width="2" d="M600.51,-215.85C613.54,-178.68 644.46,-90.44 660.1,-45.82"/>
<polygon fill="grey" stroke="grey" stroke-width="2" points="663.46,-46.83 663.46,-36.23 656.85,-44.51 663.46,-46.83"/>
</g>
<!-- 15&#45;&gt;16 -->
<g id="edge34" class="edge">
<title>15&#45;&gt;16</title>
<path fill="none" stroke="grey" stroke-width="2" d="M621.65,-215.88C636.03,-206.81 653.88,-195.55 669.41,-185.76"/>
<polygon fill="grey" stroke="grey" stroke-width="2" points="671.65,-188.48 678.24,-180.19 667.92,-182.56 671.65,-188.48"/>
</g>
<!-- 16&#45;&gt;0 -->
<g id="edge7" class="edge">
<title>16&#45;&gt;0</title>
<path fill="none" stroke="grey" stroke-width="2" d="M699.55,-143.94C696.07,-133.62 691.73,-120.14 688.5,-108 683.04,-87.52 678.09,-64.06 674.61,-46.37"/>
<polygon fill="grey" stroke="grey" stroke-width="2" points="677.97,-45.34 672.64,-36.18 671.1,-46.66 677.97,-45.34"/>
</g>
<!-- 16&#45;&gt;18 -->
<g id="edge38" class="edge">
<title>16&#45;&gt;18</title>
<path fill="none" stroke="grey" stroke-width="2" d="M715.88,-143.7C720.76,-135.56 726.69,-125.69 732.08,-116.7"/>
<polygon fill="grey" stroke="grey" stroke-width="2" points="735.09,-118.48 737.24,-108.1 729.09,-114.88 735.09,-118.48"/>
</g>
<!-- 17&#45;&gt;0 -->
<g id="edge1" class="edge">
<title>17&#45;&gt;0</title>
<path fill="none" stroke="grey" stroke-width="2" d="M803.78,-215.67C815.81,-184.04 835.67,-116.14 805.5,-72 787.91,-46.27 755.83,-33.03 727.24,-26.22"/>
<polygon fill="grey" stroke="grey" stroke-width="2" points="727.82,-22.76 717.3,-24.06 726.34,-29.6 727.82,-22.76"/>
</g>
<!-- 18&#45;&gt;0 -->
<g id="edge16" class="edge">
<title>18&#45;&gt;0</title>
<path fill="none" stroke="grey" stroke-width="2" d="M728.22,-71.7C718.58,-63.05 706.77,-52.45 696.27,-43.03"/>
<polygon fill="grey" stroke="grey" stroke-width="2" points="698.34,-40.18 688.56,-36.1 693.66,-45.39 698.34,-40.18"/>
</g>
<!-- 19 -->
<g id="node20" class="node">
<title>19</title>
<path fill="none" stroke="#56d873" stroke-width="2" d="M1253.5,-108C1253.5,-108 1155.5,-108 1155.5,-108 1149.5,-108 1143.5,-102 1143.5,-96 1143.5,-96 1143.5,-84 1143.5,-84 1143.5,-78 1149.5,-72 1155.5,-72 1155.5,-72 1253.5,-72 1253.5,-72 1259.5,-72 1265.5,-78 1265.5,-84 1265.5,-84 1265.5,-96 1265.5,-96 1265.5,-102 1259.5,-108 1253.5,-108"/>
<text text-anchor="middle" x="1204.5" y="-87.5" font-family="sans" font-size="10.00">gisaid_rbd_mutations</text>
</g>
<!-- 19&#45;&gt;0 -->
<g id="edge4" class="edge">
<title>19&#45;&gt;0</title>
<path fill="none" stroke="grey" stroke-width="2" d="M1143.21,-74.54C1138.58,-73.62 1133.97,-72.76 1129.5,-72 985.62,-47.48 814.45,-31.08 727.07,-23.62"/>
<polygon fill="grey" stroke="grey" stroke-width="2" points="727.35,-20.13 717.09,-22.77 726.76,-27.1 727.35,-20.13"/>
</g>
</g>
</svg>
