<?xml version="1.0" encoding="UTF-8" standalone="no"?>
<!DOCTYPE svg PUBLIC "-//W3C//DTD SVG 1.1//EN"
 "http://www.w3.org/Graphics/SVG/1.1/DTD/svg11.dtd">
<!-- Generated by graphviz version 2.49.1 (20211004.0028)
 -->
<!-- Title: snakemake_dag Pages: 1 -->
<svg width="1174pt" height="620pt"
 viewBox="0.00 0.00 1173.50 620.00" xmlns="http://www.w3.org/2000/svg" xmlns:xlink="http://www.w3.org/1999/xlink">
<g id="graph0" class="graph" transform="scale(1 1) rotate(0) translate(4 616)">
<title>snakemake_dag</title>
<polygon fill="white" stroke="transparent" points="-4,4 -4,-616 1169.5,-616 1169.5,4 -4,4"/>
<!-- 0 -->
<g id="node1" class="node">
<title>0</title>
<path fill="none" stroke="#d85656" stroke-width="2" d="M655,-36C655,-36 584,-36 584,-36 578,-36 572,-30 572,-24 572,-24 572,-12 572,-12 572,-6 578,0 584,0 584,0 655,0 655,0 661,0 667,-6 667,-12 667,-12 667,-24 667,-24 667,-30 661,-36 655,-36"/>
<text text-anchor="middle" x="619.5" y="-15.5" font-family="sans" font-size="10.00">make_summary</text>
</g>
<!-- 1 -->
<g id="node2" class="node">
<title>1</title>
<path fill="none" stroke="#59d856" stroke-width="2" d="M83,-108C83,-108 12,-108 12,-108 6,-108 0,-102 0,-96 0,-96 0,-84 0,-84 0,-78 6,-72 12,-72 12,-72 83,-72 83,-72 89,-72 95,-78 95,-84 95,-84 95,-96 95,-96 95,-102 89,-108 83,-108"/>
<text text-anchor="middle" x="47.5" y="-87.5" font-family="sans" font-size="10.00">make_rulegraph</text>
</g>
<!-- 1&#45;&gt;0 -->
<g id="edge8" class="edge">
<title>1&#45;&gt;0</title>
<path fill="none" stroke="grey" stroke-width="2" d="M95.23,-74.06C98.35,-73.3 101.46,-72.6 104.5,-72 268.45,-39.41 465.98,-26.2 561.78,-21.41"/>
<polygon fill="grey" stroke="grey" stroke-width="2" points="562.02,-24.91 571.84,-20.92 561.68,-17.91 562.02,-24.91"/>
</g>
<!-- 2 -->
<g id="node3" class="node">
<title>2</title>
<path fill="none" stroke="#d8cb56" stroke-width="2" d="M265.5,-108C265.5,-108 125.5,-108 125.5,-108 119.5,-108 113.5,-102 113.5,-96 113.5,-96 113.5,-84 113.5,-84 113.5,-78 119.5,-72 125.5,-72 125.5,-72 265.5,-72 265.5,-72 271.5,-72 277.5,-78 277.5,-84 277.5,-84 277.5,-96 277.5,-96 277.5,-102 271.5,-108 265.5,-108"/>
<text text-anchor="middle" x="195.5" y="-87.5" font-family="sans" font-size="10.00">get_early2020_mut_bind_expr</text>
</g>
<!-- 2&#45;&gt;0 -->
<g id="edge1" class="edge">
<title>2&#45;&gt;0</title>
<path fill="none" stroke="grey" stroke-width="2" d="M277.71,-74.36C282.37,-73.55 286.99,-72.76 291.5,-72 386.11,-55.98 496.26,-38.4 561.81,-28.05"/>
<polygon fill="grey" stroke="grey" stroke-width="2" points="562.6,-31.47 571.93,-26.46 561.51,-24.56 562.6,-31.47"/>
</g>
<!-- 3 -->
<g id="node4" class="node">
<title>3</title>
<path fill="none" stroke="#afd856" stroke-width="2" d="M823,-180C823,-180 692,-180 692,-180 686,-180 680,-174 680,-168 680,-168 680,-156 680,-156 680,-150 686,-144 692,-144 692,-144 823,-144 823,-144 829,-144 835,-150 835,-156 835,-156 835,-168 835,-168 835,-174 829,-180 823,-180"/>
<text text-anchor="middle" x="757.5" y="-159.5" font-family="sans" font-size="10.00">get_early2020_escape_fracs</text>
</g>
<!-- 3&#45;&gt;0 -->
<g id="edge6" class="edge">
<title>3&#45;&gt;0</title>
<path fill="none" stroke="grey" stroke-width="2" d="M737.72,-143.8C726.3,-133.65 711.8,-120.4 699.5,-108 678.82,-87.15 656.59,-62.19 640.82,-44.02"/>
<polygon fill="grey" stroke="grey" stroke-width="2" points="643.24,-41.47 634.06,-36.18 637.94,-46.04 643.24,-41.47"/>
</g>
<!-- 4 -->
<g id="node5" class="node">
<title>4</title>
<path fill="none" stroke="#5673d8" stroke-width="2" d="M794.5,-108C794.5,-108 720.5,-108 720.5,-108 714.5,-108 708.5,-102 708.5,-96 708.5,-96 708.5,-84 708.5,-84 708.5,-78 714.5,-72 720.5,-72 720.5,-72 794.5,-72 794.5,-72 800.5,-72 806.5,-78 806.5,-84 806.5,-84 806.5,-96 806.5,-96 806.5,-102 800.5,-108 794.5,-108"/>
<text text-anchor="middle" x="757.5" y="-87.5" font-family="sans" font-size="10.00">bind_expr_filters</text>
</g>
<!-- 3&#45;&gt;4 -->
<g id="edge17" class="edge">
<title>3&#45;&gt;4</title>
<path fill="none" stroke="grey" stroke-width="2" d="M757.5,-143.7C757.5,-135.98 757.5,-126.71 757.5,-118.11"/>
<polygon fill="grey" stroke="grey" stroke-width="2" points="761,-118.1 757.5,-108.1 754,-118.1 761,-118.1"/>
</g>
<!-- 4&#45;&gt;0 -->
<g id="edge15" class="edge">
<title>4&#45;&gt;0</title>
<path fill="none" stroke="grey" stroke-width="2" d="M723.74,-71.88C705.28,-62.51 682.22,-50.81 662.48,-40.8"/>
<polygon fill="grey" stroke="grey" stroke-width="2" points="663.89,-37.59 653.39,-36.19 660.72,-43.83 663.89,-37.59"/>
</g>
<!-- 5 -->
<g id="node6" class="node">
<title>5</title>
<path fill="none" stroke="#5692d8" stroke-width="2" d="M775.5,-324C775.5,-324 705.5,-324 705.5,-324 699.5,-324 693.5,-318 693.5,-312 693.5,-312 693.5,-300 693.5,-300 693.5,-294 699.5,-288 705.5,-288 705.5,-288 775.5,-288 775.5,-288 781.5,-288 787.5,-294 787.5,-300 787.5,-300 787.5,-312 787.5,-312 787.5,-318 781.5,-324 775.5,-324"/>
<text text-anchor="middle" x="740.5" y="-303.5" font-family="sans" font-size="10.00">collapse_scores</text>
</g>
<!-- 5&#45;&gt;0 -->
<g id="edge14" class="edge">
<title>5&#45;&gt;0</title>
<path fill="none" stroke="grey" stroke-width="2" d="M778.22,-287.92C794.66,-279.04 813.17,-266.9 826.5,-252 860.05,-214.5 874.37,-192.37 860.5,-144 850.1,-107.73 845.81,-94.48 815.5,-72 775.22,-42.13 719.18,-29.09 677.33,-23.4"/>
<polygon fill="grey" stroke="grey" stroke-width="2" points="677.64,-19.91 667.29,-22.14 676.77,-26.86 677.64,-19.91"/>
</g>
<!-- 5&#45;&gt;4 -->
<g id="edge16" class="edge">
<title>5&#45;&gt;4</title>
<path fill="none" stroke="grey" stroke-width="2" d="M761.85,-287.82C787.2,-265.92 828.08,-225.4 844.5,-180 849.94,-164.95 852.34,-157.95 844.5,-144 837.25,-131.1 825.44,-120.96 812.83,-113.17"/>
<polygon fill="grey" stroke="grey" stroke-width="2" points="814.44,-110.06 804.02,-108.15 810.97,-116.14 814.44,-110.06"/>
</g>
<!-- 14 -->
<g id="node15" class="node">
<title>14</title>
<path fill="none" stroke="#56c9d8" stroke-width="2" d="M611,-252C611,-252 534,-252 534,-252 528,-252 522,-246 522,-240 522,-240 522,-228 522,-228 522,-222 528,-216 534,-216 534,-216 611,-216 611,-216 617,-216 623,-222 623,-228 623,-228 623,-240 623,-240 623,-246 617,-252 611,-252"/>
<text text-anchor="middle" x="572.5" y="-231.5" font-family="sans" font-size="10.00">counts_to_scores</text>
</g>
<!-- 5&#45;&gt;14 -->
<g id="edge28" class="edge">
<title>5&#45;&gt;14</title>
<path fill="none" stroke="grey" stroke-width="2" d="M699.4,-287.88C676.33,-278.26 647.36,-266.19 622.93,-256.01"/>
<polygon fill="grey" stroke="grey" stroke-width="2" points="624.04,-252.68 613.46,-252.07 621.35,-259.15 624.04,-252.68"/>
</g>
<!-- 16 -->
<g id="node17" class="node">
<title>16</title>
<path fill="none" stroke="#70d856" stroke-width="2" d="M579.5,-108C579.5,-108 511.5,-108 511.5,-108 505.5,-108 499.5,-102 499.5,-96 499.5,-96 499.5,-84 499.5,-84 499.5,-78 505.5,-72 511.5,-72 511.5,-72 579.5,-72 579.5,-72 585.5,-72 591.5,-78 591.5,-84 591.5,-84 591.5,-96 591.5,-96 591.5,-102 585.5,-108 579.5,-108"/>
<text text-anchor="middle" x="545.5" y="-87.5" font-family="sans" font-size="10.00">escape_profiles</text>
</g>
<!-- 5&#45;&gt;16 -->
<g id="edge32" class="edge">
<title>5&#45;&gt;16</title>
<path fill="none" stroke="grey" stroke-width="2" d="M724.87,-287.85C690.5,-250.13 608.22,-159.83 568.17,-115.88"/>
<polygon fill="grey" stroke="grey" stroke-width="2" points="570.52,-113.27 561.2,-108.23 565.35,-117.98 570.52,-113.27"/>
</g>
<!-- 6 -->
<g id="node7" class="node">
<title>6</title>
<path fill="none" stroke="#d88d56" stroke-width="2" d="M848.5,-396C848.5,-396 796.5,-396 796.5,-396 790.5,-396 784.5,-390 784.5,-384 784.5,-384 784.5,-372 784.5,-372 784.5,-366 790.5,-360 796.5,-360 796.5,-360 848.5,-360 848.5,-360 854.5,-360 860.5,-366 860.5,-372 860.5,-372 860.5,-384 860.5,-384 860.5,-390 854.5,-396 848.5,-396"/>
<text text-anchor="middle" x="822.5" y="-375.5" font-family="sans" font-size="10.00">fit_titrations</text>
</g>
<!-- 6&#45;&gt;0 -->
<g id="edge13" class="edge">
<title>6&#45;&gt;0</title>
<path fill="none" stroke="grey" stroke-width="2" d="M850.52,-359.94C885.14,-336.47 939.5,-290.74 939.5,-235 939.5,-235 939.5,-235 939.5,-161 939.5,-47.49 769.21,-24.02 677.08,-19.63"/>
<polygon fill="grey" stroke="grey" stroke-width="2" points="677.2,-16.14 667.06,-19.22 676.91,-23.13 677.2,-16.14"/>
</g>
<!-- 6&#45;&gt;5 -->
<g id="edge18" class="edge">
<title>6&#45;&gt;5</title>
<path fill="none" stroke="grey" stroke-width="2" d="M802.23,-359.7C792,-350.97 779.44,-340.24 768.32,-330.75"/>
<polygon fill="grey" stroke="grey" stroke-width="2" points="770.41,-327.94 760.54,-324.1 765.87,-333.26 770.41,-327.94"/>
</g>
<!-- 7 -->
<g id="node8" class="node">
<title>7</title>
<path fill="none" stroke="#c6d856" stroke-width="2" d="M795.5,-468C795.5,-468 733.5,-468 733.5,-468 727.5,-468 721.5,-462 721.5,-456 721.5,-456 721.5,-444 721.5,-444 721.5,-438 727.5,-432 733.5,-432 733.5,-432 795.5,-432 795.5,-432 801.5,-432 807.5,-438 807.5,-444 807.5,-444 807.5,-456 807.5,-456 807.5,-462 801.5,-468 795.5,-468"/>
<text text-anchor="middle" x="764.5" y="-447.5" font-family="sans" font-size="10.00">build_variants</text>
</g>
<!-- 7&#45;&gt;0 -->
<g id="edge5" class="edge">
<title>7&#45;&gt;0</title>
<path fill="none" stroke="grey" stroke-width="2" d="M807.6,-440.54C869.84,-425.53 977.5,-387.89 977.5,-307 977.5,-307 977.5,-307 977.5,-161 977.5,-114.27 960.3,-98.06 921.5,-72 882.51,-45.81 753.8,-30.55 677.57,-23.59"/>
<polygon fill="grey" stroke="grey" stroke-width="2" points="677.44,-20.06 667.17,-22.66 676.82,-27.03 677.44,-20.06"/>
</g>
<!-- 7&#45;&gt;6 -->
<g id="edge20" class="edge">
<title>7&#45;&gt;6</title>
<path fill="none" stroke="grey" stroke-width="2" d="M778.84,-431.7C785.79,-423.3 794.27,-413.07 801.9,-403.86"/>
<polygon fill="grey" stroke="grey" stroke-width="2" points="804.64,-406.04 808.33,-396.1 799.25,-401.57 804.64,-406.04"/>
</g>
<!-- 10 -->
<g id="node11" class="node">
<title>10</title>
<path fill="none" stroke="#56d892" stroke-width="2" d="M754,-396C754,-396 659,-396 659,-396 653,-396 647,-390 647,-384 647,-384 647,-372 647,-372 647,-366 653,-360 659,-360 659,-360 754,-360 754,-360 760,-360 766,-366 766,-372 766,-372 766,-384 766,-384 766,-390 760,-396 754,-396"/>
<text text-anchor="middle" x="706.5" y="-375.5" font-family="sans" font-size="10.00">calculate_expression</text>
</g>
<!-- 7&#45;&gt;10 -->
<g id="edge23" class="edge">
<title>7&#45;&gt;10</title>
<path fill="none" stroke="grey" stroke-width="2" d="M750.16,-431.7C743.21,-423.3 734.73,-413.07 727.1,-403.86"/>
<polygon fill="grey" stroke="grey" stroke-width="2" points="729.75,-401.57 720.67,-396.1 724.36,-406.04 729.75,-401.57"/>
</g>
<!-- 11 -->
<g id="node12" class="node">
<title>11</title>
<path fill="none" stroke="#d8ac56" stroke-width="2" d="M447,-324C447,-324 328,-324 328,-324 322,-324 316,-318 316,-312 316,-312 316,-300 316,-300 316,-294 322,-288 328,-288 328,-288 447,-288 447,-288 453,-288 459,-294 459,-300 459,-300 459,-312 459,-312 459,-318 453,-324 447,-324"/>
<text text-anchor="middle" x="387.5" y="-303.5" font-family="sans" font-size="10.00">aggregate_variant_counts</text>
</g>
<!-- 7&#45;&gt;11 -->
<g id="edge25" class="edge">
<title>7&#45;&gt;11</title>
<path fill="none" stroke="grey" stroke-width="2" d="M721.33,-444.49C671.58,-438.19 588.1,-424.2 521.5,-396 482.05,-379.3 441.76,-350.66 415.81,-330.38"/>
<polygon fill="grey" stroke="grey" stroke-width="2" points="417.92,-327.58 407.91,-324.12 413.57,-333.07 417.92,-327.58"/>
</g>
<!-- 12 -->
<g id="node13" class="node">
<title>12</title>
<path fill="none" stroke="#56d8a9" stroke-width="2" d="M608,-396C608,-396 543,-396 543,-396 537,-396 531,-390 531,-384 531,-384 531,-372 531,-372 531,-366 537,-360 543,-360 543,-360 608,-360 608,-360 614,-360 620,-366 620,-372 620,-372 620,-384 620,-384 620,-390 614,-396 608,-396"/>
<text text-anchor="middle" x="575.5" y="-375.5" font-family="sans" font-size="10.00">count_variants</text>
</g>
<!-- 7&#45;&gt;12 -->
<g id="edge26" class="edge">
<title>7&#45;&gt;12</title>
<path fill="none" stroke="grey" stroke-width="2" d="M721.14,-432.94C694.02,-422.9 658.85,-409.87 629.87,-399.14"/>
<polygon fill="grey" stroke="grey" stroke-width="2" points="630.89,-395.78 620.3,-395.59 628.46,-402.35 630.89,-395.78"/>
</g>
<!-- 8 -->
<g id="node9" class="node">
<title>8</title>
<path fill="none" stroke="#8fd856" stroke-width="2" d="M914,-540C914,-540 863,-540 863,-540 857,-540 851,-534 851,-528 851,-528 851,-516 851,-516 851,-510 857,-504 863,-504 863,-504 914,-504 914,-504 920,-504 926,-510 926,-516 926,-516 926,-528 926,-528 926,-534 920,-540 914,-540"/>
<text text-anchor="middle" x="888.5" y="-519.5" font-family="sans" font-size="10.00">process_ccs</text>
</g>
<!-- 8&#45;&gt;0 -->
<g id="edge7" class="edge">
<title>8&#45;&gt;0</title>
<path fill="none" stroke="grey" stroke-width="2" d="M919.89,-503.94C957.5,-480.95 1015.5,-436.22 1015.5,-379 1015.5,-379 1015.5,-379 1015.5,-161 1015.5,-113.3 995.74,-97.62 955.5,-72 910.37,-43.26 760.8,-28.65 677.24,-22.57"/>
<polygon fill="grey" stroke="grey" stroke-width="2" points="677.37,-19.07 667.15,-21.85 676.87,-26.05 677.37,-19.07"/>
</g>
<!-- 8&#45;&gt;7 -->
<g id="edge21" class="edge">
<title>8&#45;&gt;7</title>
<path fill="none" stroke="grey" stroke-width="2" d="M858.17,-503.88C841.8,-494.64 821.42,-483.13 803.85,-473.21"/>
<polygon fill="grey" stroke="grey" stroke-width="2" points="805.38,-470.06 794.95,-468.19 801.94,-476.15 805.38,-470.06"/>
</g>
<!-- 9 -->
<g id="node10" class="node">
<title>9</title>
<path fill="none" stroke="#56d8c9" stroke-width="2" d="M903.5,-612C903.5,-612 873.5,-612 873.5,-612 867.5,-612 861.5,-606 861.5,-600 861.5,-600 861.5,-588 861.5,-588 861.5,-582 867.5,-576 873.5,-576 873.5,-576 903.5,-576 903.5,-576 909.5,-576 915.5,-582 915.5,-588 915.5,-588 915.5,-600 915.5,-600 915.5,-606 909.5,-612 903.5,-612"/>
<text text-anchor="middle" x="888.5" y="-591.5" font-family="sans" font-size="10.00">get_ccs</text>
</g>
<!-- 9&#45;&gt;8 -->
<g id="edge22" class="edge">
<title>9&#45;&gt;8</title>
<path fill="none" stroke="grey" stroke-width="2" d="M888.5,-575.7C888.5,-567.98 888.5,-558.71 888.5,-550.11"/>
<polygon fill="grey" stroke="grey" stroke-width="2" points="892,-550.1 888.5,-540.1 885,-550.1 892,-550.1"/>
</g>
<!-- 10&#45;&gt;0 -->
<g id="edge11" class="edge">
<title>10&#45;&gt;0</title>
<path fill="none" stroke="grey" stroke-width="2" d="M679.27,-359.97C641.52,-336.23 571.29,-291.66 512.5,-252 489.5,-236.48 484.8,-231.06 461.5,-216 435.06,-198.91 416.11,-207.34 400.5,-180 358.37,-106.22 483.83,-56.58 561.98,-33.62"/>
<polygon fill="grey" stroke="grey" stroke-width="2" points="563.09,-36.95 571.73,-30.82 561.16,-30.22 563.09,-36.95"/>
</g>
<!-- 10&#45;&gt;5 -->
<g id="edge19" class="edge">
<title>10&#45;&gt;5</title>
<path fill="none" stroke="grey" stroke-width="2" d="M714.9,-359.7C718.77,-351.73 723.45,-342.1 727.74,-333.26"/>
<polygon fill="grey" stroke="grey" stroke-width="2" points="730.97,-334.63 732.19,-324.1 724.67,-331.57 730.97,-334.63"/>
</g>
<!-- 11&#45;&gt;0 -->
<g id="edge2" class="edge">
<title>11&#45;&gt;0</title>
<path fill="none" stroke="grey" stroke-width="2" d="M357.2,-287.8C344.62,-278.9 331.38,-266.77 324.5,-252 302.15,-203.98 294.82,-127.89 349.5,-72 378.39,-42.46 491.53,-28.64 561.86,-22.79"/>
<polygon fill="grey" stroke="grey" stroke-width="2" points="562.22,-26.27 571.91,-21.98 561.66,-19.29 562.22,-26.27"/>
</g>
<!-- 13 -->
<g id="node14" class="node">
<title>13</title>
<path fill="none" stroke="#d87556" stroke-width="2" d="M441,-252C441,-252 346,-252 346,-252 340,-252 334,-246 334,-240 334,-240 334,-228 334,-228 334,-222 340,-216 346,-216 346,-216 441,-216 441,-216 447,-216 453,-222 453,-228 453,-228 453,-240 453,-240 453,-246 447,-252 441,-252"/>
<text text-anchor="middle" x="393.5" y="-231.5" font-family="sans" font-size="10.00">counts_to_cells_ratio</text>
</g>
<!-- 11&#45;&gt;13 -->
<g id="edge27" class="edge">
<title>11&#45;&gt;13</title>
<path fill="none" stroke="grey" stroke-width="2" d="M388.98,-287.7C389.64,-279.98 390.44,-270.71 391.18,-262.11"/>
<polygon fill="grey" stroke="grey" stroke-width="2" points="394.67,-262.37 392.03,-252.1 387.69,-261.77 394.67,-262.37"/>
</g>
<!-- 11&#45;&gt;14 -->
<g id="edge29" class="edge">
<title>11&#45;&gt;14</title>
<path fill="none" stroke="grey" stroke-width="2" d="M432.76,-287.88C458.5,-278.14 490.91,-265.87 518.04,-255.61"/>
<polygon fill="grey" stroke="grey" stroke-width="2" points="519.28,-258.88 527.39,-252.07 516.8,-252.33 519.28,-258.88"/>
</g>
<!-- 12&#45;&gt;11 -->
<g id="edge24" class="edge">
<title>12&#45;&gt;11</title>
<path fill="none" stroke="grey" stroke-width="2" d="M530.95,-360.41C504.62,-350.61 471.07,-338.12 443.03,-327.68"/>
<polygon fill="grey" stroke="grey" stroke-width="2" points="443.96,-324.29 433.37,-324.08 441.52,-330.85 443.96,-324.29"/>
</g>
<!-- 13&#45;&gt;0 -->
<g id="edge3" class="edge">
<title>13&#45;&gt;0</title>
<path fill="none" stroke="grey" stroke-width="2" d="M383.01,-215.76C365,-183.67 333.24,-114.21 367.5,-72 391.47,-42.47 494.89,-28.78 561.57,-22.92"/>
<polygon fill="grey" stroke="grey" stroke-width="2" points="562.27,-26.37 571.94,-22.05 561.68,-19.4 562.27,-26.37"/>
</g>
<!-- 14&#45;&gt;0 -->
<g id="edge12" class="edge">
<title>14&#45;&gt;0</title>
<path fill="none" stroke="grey" stroke-width="2" d="M576.45,-215.62C581.92,-191.49 592.09,-146.45 600.5,-108 605.03,-87.29 610.03,-63.85 613.76,-46.22"/>
<polygon fill="grey" stroke="grey" stroke-width="2" points="617.26,-46.58 615.91,-36.07 610.42,-45.13 617.26,-46.58"/>
</g>
<!-- 15 -->
<g id="node16" class="node">
<title>15</title>
<path fill="none" stroke="#56a9d8" stroke-width="2" d="M535.5,-180C535.5,-180 421.5,-180 421.5,-180 415.5,-180 409.5,-174 409.5,-168 409.5,-168 409.5,-156 409.5,-156 409.5,-150 415.5,-144 421.5,-144 421.5,-144 535.5,-144 535.5,-144 541.5,-144 547.5,-150 547.5,-156 547.5,-156 547.5,-168 547.5,-168 547.5,-174 541.5,-180 535.5,-180"/>
<text text-anchor="middle" x="478.5" y="-159.5" font-family="sans" font-size="10.00">call_strong_escape_sites</text>
</g>
<!-- 14&#45;&gt;15 -->
<g id="edge30" class="edge">
<title>14&#45;&gt;15</title>
<path fill="none" stroke="grey" stroke-width="2" d="M549.26,-215.7C537.31,-206.8 522.58,-195.82 509.65,-186.2"/>
<polygon fill="grey" stroke="grey" stroke-width="2" points="511.58,-183.27 501.47,-180.1 507.4,-188.88 511.58,-183.27"/>
</g>
<!-- 14&#45;&gt;16 -->
<g id="edge33" class="edge">
<title>14&#45;&gt;16</title>
<path fill="none" stroke="grey" stroke-width="2" d="M569.57,-215.91C566.46,-197.98 561.33,-168.97 556.5,-144 554.87,-135.57 553,-126.4 551.27,-118.1"/>
<polygon fill="grey" stroke="grey" stroke-width="2" points="554.66,-117.23 549.18,-108.16 547.81,-118.67 554.66,-117.23"/>
</g>
<!-- 15&#45;&gt;0 -->
<g id="edge4" class="edge">
<title>15&#45;&gt;0</title>
<path fill="none" stroke="grey" stroke-width="2" d="M476.07,-143.68C474.33,-124.2 474.59,-92.61 490.5,-72 507.82,-49.57 536.27,-36.57 562.05,-29.07"/>
<polygon fill="grey" stroke="grey" stroke-width="2" points="563.02,-32.43 571.77,-26.45 561.2,-25.67 563.02,-32.43"/>
</g>
<!-- 15&#45;&gt;16 -->
<g id="edge31" class="edge">
<title>15&#45;&gt;16</title>
<path fill="none" stroke="grey" stroke-width="2" d="M495.06,-143.7C503.18,-135.22 513.09,-124.86 521.97,-115.58"/>
<polygon fill="grey" stroke="grey" stroke-width="2" points="524.74,-117.75 529.13,-108.1 519.69,-112.91 524.74,-117.75"/>
</g>
<!-- 16&#45;&gt;0 -->
<g id="edge9" class="edge">
<title>16&#45;&gt;0</title>
<path fill="none" stroke="grey" stroke-width="2" d="M563.79,-71.7C572.93,-63.05 584.14,-52.45 594.1,-43.03"/>
<polygon fill="grey" stroke="grey" stroke-width="2" points="596.56,-45.52 601.42,-36.1 591.75,-40.43 596.56,-45.52"/>
</g>
<!-- 17 -->
<g id="node18" class="node">
<title>17</title>
<path fill="none" stroke="#56d873" stroke-width="2" d="M1153.5,-108C1153.5,-108 1055.5,-108 1055.5,-108 1049.5,-108 1043.5,-102 1043.5,-96 1043.5,-96 1043.5,-84 1043.5,-84 1043.5,-78 1049.5,-72 1055.5,-72 1055.5,-72 1153.5,-72 1153.5,-72 1159.5,-72 1165.5,-78 1165.5,-84 1165.5,-84 1165.5,-96 1165.5,-96 1165.5,-102 1159.5,-108 1153.5,-108"/>
<text text-anchor="middle" x="1104.5" y="-87.5" font-family="sans" font-size="10.00">gisaid_rbd_mutations</text>
</g>
<!-- 17&#45;&gt;0 -->
<g id="edge10" class="edge">
<title>17&#45;&gt;0</title>
<path fill="none" stroke="grey" stroke-width="2" d="M1043.2,-74.61C1038.57,-73.68 1033.97,-72.79 1029.5,-72 904.72,-49.84 757.02,-33.04 677.38,-24.74"/>
<polygon fill="grey" stroke="grey" stroke-width="2" points="677.38,-21.22 667.07,-23.68 676.66,-28.19 677.38,-21.22"/>
</g>
</g>
</svg>
