<?xml version="1.0" encoding="UTF-8" standalone="no"?>
<!DOCTYPE svg PUBLIC "-//W3C//DTD SVG 1.1//EN"
 "http://www.w3.org/Graphics/SVG/1.1/DTD/svg11.dtd">
<!-- Generated by graphviz version 2.49.1 (20211004.0028)
 -->
<!-- Title: snakemake_dag Pages: 1 -->
<svg width="697pt" height="404pt"
 viewBox="0.00 0.00 697.00 404.00" xmlns="http://www.w3.org/2000/svg" xmlns:xlink="http://www.w3.org/1999/xlink">
<g id="graph0" class="graph" transform="scale(1 1) rotate(0) translate(4 400)">
<title>snakemake_dag</title>
<polygon fill="white" stroke="transparent" points="-4,4 -4,-400 693,-400 693,4 -4,4"/>
<!-- 0 -->
<g id="node1" class="node">
<title>0</title>
<path fill="none" stroke="#56d8b9" stroke-width="2" d="M462,-36C462,-36 391,-36 391,-36 385,-36 379,-30 379,-24 379,-24 379,-12 379,-12 379,-6 385,0 391,0 391,0 462,0 462,0 468,0 474,-6 474,-12 474,-12 474,-24 474,-24 474,-30 468,-36 462,-36"/>
<text text-anchor="middle" x="426.5" y="-15.5" font-family="sans" font-size="10.00">make_summary</text>
</g>
<!-- 1 -->
<g id="node2" class="node">
<title>1</title>
<path fill="none" stroke="#68d856" stroke-width="2" d="M83,-108C83,-108 12,-108 12,-108 6,-108 0,-102 0,-96 0,-96 0,-84 0,-84 0,-78 6,-72 12,-72 12,-72 83,-72 83,-72 89,-72 95,-78 95,-84 95,-84 95,-96 95,-96 95,-102 89,-108 83,-108"/>
<text text-anchor="middle" x="47.5" y="-87.5" font-family="sans" font-size="10.00">make_rulegraph</text>
</g>
<!-- 1&#45;&gt;0 -->
<g id="edge5" class="edge">
<title>1&#45;&gt;0</title>
<path fill="none" stroke="grey" stroke-width="2" d="M95.28,-74.27C98.39,-73.46 101.48,-72.7 104.5,-72 196.08,-50.9 304.17,-34.89 368.92,-26.23"/>
<polygon fill="grey" stroke="grey" stroke-width="2" points="369.48,-29.69 378.94,-24.91 368.56,-22.75 369.48,-29.69"/>
</g>
<!-- 2 -->
<g id="node3" class="node">
<title>2</title>
<path fill="none" stroke="#d85656" stroke-width="2" d="M265.5,-108C265.5,-108 125.5,-108 125.5,-108 119.5,-108 113.5,-102 113.5,-96 113.5,-96 113.5,-84 113.5,-84 113.5,-78 119.5,-72 125.5,-72 125.5,-72 265.5,-72 265.5,-72 271.5,-72 277.5,-78 277.5,-84 277.5,-84 277.5,-96 277.5,-96 277.5,-102 271.5,-108 265.5,-108"/>
<text text-anchor="middle" x="195.5" y="-87.5" font-family="sans" font-size="10.00">get_early2020_mut_bind_expr</text>
</g>
<!-- 2&#45;&gt;0 -->
<g id="edge1" class="edge">
<title>2&#45;&gt;0</title>
<path fill="none" stroke="grey" stroke-width="2" d="M251.71,-71.97C287.24,-61.2 333.02,-47.33 368.82,-36.48"/>
<polygon fill="grey" stroke="grey" stroke-width="2" points="370.08,-39.75 378.64,-33.5 368.05,-33.05 370.08,-39.75"/>
</g>
<!-- 3 -->
<g id="node4" class="node">
<title>3</title>
<path fill="none" stroke="#56d892" stroke-width="2" d="M439,-108C439,-108 308,-108 308,-108 302,-108 296,-102 296,-96 296,-96 296,-84 296,-84 296,-78 302,-72 308,-72 308,-72 439,-72 439,-72 445,-72 451,-78 451,-84 451,-84 451,-96 451,-96 451,-102 445,-108 439,-108"/>
<text text-anchor="middle" x="373.5" y="-87.5" font-family="sans" font-size="10.00">get_early2020_escape_fracs</text>
</g>
<!-- 3&#45;&gt;0 -->
<g id="edge4" class="edge">
<title>3&#45;&gt;0</title>
<path fill="none" stroke="grey" stroke-width="2" d="M386.6,-71.7C392.89,-63.39 400.55,-53.28 407.46,-44.14"/>
<polygon fill="grey" stroke="grey" stroke-width="2" points="410.3,-46.19 413.55,-36.1 404.72,-41.96 410.3,-46.19"/>
</g>
<!-- 4 -->
<g id="node5" class="node">
<title>4</title>
<path fill="none" stroke="#d8cb56" stroke-width="2" d="M540,-324C540,-324 489,-324 489,-324 483,-324 477,-318 477,-312 477,-312 477,-300 477,-300 477,-294 483,-288 489,-288 489,-288 540,-288 540,-288 546,-288 552,-294 552,-300 552,-300 552,-312 552,-312 552,-318 546,-324 540,-324"/>
<text text-anchor="middle" x="514.5" y="-303.5" font-family="sans" font-size="10.00">process_ccs</text>
</g>
<!-- 4&#45;&gt;0 -->
<g id="edge3" class="edge">
<title>4&#45;&gt;0</title>
<path fill="none" stroke="grey" stroke-width="2" d="M509.81,-287.85C507.02,-277.49 503.45,-264.01 500.5,-252 480.91,-172.32 490.73,-147.87 459.5,-72 455.68,-62.73 450.31,-53.23 445.01,-44.89"/>
<polygon fill="grey" stroke="grey" stroke-width="2" points="447.8,-42.76 439.37,-36.35 441.96,-46.62 447.8,-42.76"/>
</g>
<!-- 6 -->
<g id="node7" class="node">
<title>6</title>
<path fill="none" stroke="#56a9d8" stroke-width="2" d="M583.5,-252C583.5,-252 521.5,-252 521.5,-252 515.5,-252 509.5,-246 509.5,-240 509.5,-240 509.5,-228 509.5,-228 509.5,-222 515.5,-216 521.5,-216 521.5,-216 583.5,-216 583.5,-216 589.5,-216 595.5,-222 595.5,-228 595.5,-228 595.5,-240 595.5,-240 595.5,-246 589.5,-252 583.5,-252"/>
<text text-anchor="middle" x="552.5" y="-231.5" font-family="sans" font-size="10.00">build_variants</text>
</g>
<!-- 4&#45;&gt;6 -->
<g id="edge8" class="edge">
<title>4&#45;&gt;6</title>
<path fill="none" stroke="grey" stroke-width="2" d="M523.89,-287.7C528.26,-279.64 533.56,-269.89 538.4,-260.98"/>
<polygon fill="grey" stroke="grey" stroke-width="2" points="541.52,-262.56 543.21,-252.1 535.37,-259.22 541.52,-262.56"/>
</g>
<!-- 5 -->
<g id="node6" class="node">
<title>5</title>
<path fill="none" stroke="#567bd8" stroke-width="2" d="M529.5,-396C529.5,-396 499.5,-396 499.5,-396 493.5,-396 487.5,-390 487.5,-384 487.5,-384 487.5,-372 487.5,-372 487.5,-366 493.5,-360 499.5,-360 499.5,-360 529.5,-360 529.5,-360 535.5,-360 541.5,-366 541.5,-372 541.5,-372 541.5,-384 541.5,-384 541.5,-390 535.5,-396 529.5,-396"/>
<text text-anchor="middle" x="514.5" y="-375.5" font-family="sans" font-size="10.00">get_ccs</text>
</g>
<!-- 5&#45;&gt;4 -->
<g id="edge7" class="edge">
<title>5&#45;&gt;4</title>
<path fill="none" stroke="grey" stroke-width="2" d="M514.5,-359.7C514.5,-351.98 514.5,-342.71 514.5,-334.11"/>
<polygon fill="grey" stroke="grey" stroke-width="2" points="518,-334.1 514.5,-324.1 511,-334.1 518,-334.1"/>
</g>
<!-- 6&#45;&gt;0 -->
<g id="edge6" class="edge">
<title>6&#45;&gt;0</title>
<path fill="none" stroke="grey" stroke-width="2" d="M549.37,-215.55C543.1,-184.31 526.66,-117.82 493.5,-72 485.26,-60.61 473.93,-50.38 462.93,-42.02"/>
<polygon fill="grey" stroke="grey" stroke-width="2" points="464.79,-39.05 454.64,-36.01 460.67,-44.71 464.79,-39.05"/>
</g>
<!-- 7 -->
<g id="node8" class="node">
<title>7</title>
<path fill="none" stroke="#d8a456" stroke-width="2" d="M677,-108C677,-108 558,-108 558,-108 552,-108 546,-102 546,-96 546,-96 546,-84 546,-84 546,-78 552,-72 558,-72 558,-72 677,-72 677,-72 683,-72 689,-78 689,-84 689,-84 689,-96 689,-96 689,-102 683,-108 677,-108"/>
<text text-anchor="middle" x="617.5" y="-87.5" font-family="sans" font-size="10.00">aggregate_variant_counts</text>
</g>
<!-- 6&#45;&gt;7 -->
<g id="edge10" class="edge">
<title>6&#45;&gt;7</title>
<path fill="none" stroke="grey" stroke-width="2" d="M554.47,-215.83C557.11,-197.32 562.87,-167.37 574.5,-144 579.46,-134.03 586.58,-124.24 593.59,-115.84"/>
<polygon fill="grey" stroke="grey" stroke-width="2" points="596.28,-118.09 600.22,-108.25 591,-113.48 596.28,-118.09"/>
</g>
<!-- 8 -->
<g id="node9" class="node">
<title>8</title>
<path fill="none" stroke="#b6d856" stroke-width="2" d="M661,-180C661,-180 596,-180 596,-180 590,-180 584,-174 584,-168 584,-168 584,-156 584,-156 584,-150 590,-144 596,-144 596,-144 661,-144 661,-144 667,-144 673,-150 673,-156 673,-156 673,-168 673,-168 673,-174 667,-180 661,-180"/>
<text text-anchor="middle" x="628.5" y="-159.5" font-family="sans" font-size="10.00">count_variants</text>
</g>
<!-- 6&#45;&gt;8 -->
<g id="edge11" class="edge">
<title>6&#45;&gt;8</title>
<path fill="none" stroke="grey" stroke-width="2" d="M571.29,-215.7C580.67,-207.05 592.18,-196.45 602.41,-187.03"/>
<polygon fill="grey" stroke="grey" stroke-width="2" points="604.95,-189.45 609.93,-180.1 600.2,-184.3 604.95,-189.45"/>
</g>
<!-- 7&#45;&gt;0 -->
<g id="edge2" class="edge">
<title>7&#45;&gt;0</title>
<path fill="none" stroke="grey" stroke-width="2" d="M570.78,-71.88C544.2,-62.14 510.74,-49.87 482.73,-39.61"/>
<polygon fill="grey" stroke="grey" stroke-width="2" points="483.67,-36.22 473.07,-36.07 481.26,-42.8 483.67,-36.22"/>
</g>
<!-- 8&#45;&gt;7 -->
<g id="edge9" class="edge">
<title>8&#45;&gt;7</title>
<path fill="none" stroke="grey" stroke-width="2" d="M625.78,-143.7C624.57,-135.98 623.11,-126.71 621.76,-118.11"/>
<polygon fill="grey" stroke="grey" stroke-width="2" points="625.2,-117.44 620.19,-108.1 618.28,-118.53 625.2,-117.44"/>
</g>
</g>
</svg>
