<?xml version="1.0" encoding="UTF-8" standalone="no"?>
<!DOCTYPE svg PUBLIC "-//W3C//DTD SVG 1.1//EN"
 "http://www.w3.org/Graphics/SVG/1.1/DTD/svg11.dtd">
<!-- Generated by graphviz version 2.49.1 (20211004.0028)
 -->
<!-- Title: snakemake_dag Pages: 1 -->
<svg width="902pt" height="476pt"
 viewBox="0.00 0.00 901.50 476.00" xmlns="http://www.w3.org/2000/svg" xmlns:xlink="http://www.w3.org/1999/xlink">
<g id="graph0" class="graph" transform="scale(1 1) rotate(0) translate(4 472)">
<title>snakemake_dag</title>
<polygon fill="white" stroke="transparent" points="-4,4 -4,-472 897.5,-472 897.5,4 -4,4"/>
<!-- 0 -->
<g id="node1" class="node">
<title>0</title>
<path fill="none" stroke="#9fd856" stroke-width="2" d="M562,-36C562,-36 491,-36 491,-36 485,-36 479,-30 479,-24 479,-24 479,-12 479,-12 479,-6 485,0 491,0 491,0 562,0 562,0 568,0 574,-6 574,-12 574,-12 574,-24 574,-24 574,-30 568,-36 562,-36"/>
<text text-anchor="middle" x="526.5" y="-15.5" font-family="sans" font-size="10.00">make_summary</text>
</g>
<!-- 1 -->
<g id="node2" class="node">
<title>1</title>
<path fill="none" stroke="#d85656" stroke-width="2" d="M83,-108C83,-108 12,-108 12,-108 6,-108 0,-102 0,-96 0,-96 0,-84 0,-84 0,-78 6,-72 12,-72 12,-72 83,-72 83,-72 89,-72 95,-78 95,-84 95,-84 95,-96 95,-96 95,-102 89,-108 83,-108"/>
<text text-anchor="middle" x="47.5" y="-87.5" font-family="sans" font-size="10.00">make_rulegraph</text>
</g>
<!-- 1&#45;&gt;0 -->
<g id="edge1" class="edge">
<title>1&#45;&gt;0</title>
<path fill="none" stroke="grey" stroke-width="2" d="M95.25,-74.14C98.36,-73.36 101.47,-72.64 104.5,-72 233.21,-44.92 387.12,-29.86 468.85,-23.21"/>
<polygon fill="grey" stroke="grey" stroke-width="2" points="469.24,-26.69 478.93,-22.4 468.68,-19.71 469.24,-26.69"/>
</g>
<!-- 2 -->
<g id="node3" class="node">
<title>2</title>
<path fill="none" stroke="#c6d856" stroke-width="2" d="M265.5,-108C265.5,-108 125.5,-108 125.5,-108 119.5,-108 113.5,-102 113.5,-96 113.5,-96 113.5,-84 113.5,-84 113.5,-78 119.5,-72 125.5,-72 125.5,-72 265.5,-72 265.5,-72 271.5,-72 277.5,-78 277.5,-84 277.5,-84 277.5,-96 277.5,-96 277.5,-102 271.5,-108 265.5,-108"/>
<text text-anchor="middle" x="195.5" y="-87.5" font-family="sans" font-size="10.00">get_early2020_mut_bind_expr</text>
</g>
<!-- 2&#45;&gt;0 -->
<g id="edge3" class="edge">
<title>2&#45;&gt;0</title>
<path fill="none" stroke="grey" stroke-width="2" d="M276.05,-71.97C335.73,-59.34 415.64,-42.44 468.99,-31.16"/>
<polygon fill="grey" stroke="grey" stroke-width="2" points="469.9,-34.55 478.96,-29.05 468.45,-27.7 469.9,-34.55"/>
</g>
<!-- 3 -->
<g id="node4" class="node">
<title>3</title>
<path fill="none" stroke="#567bd8" stroke-width="2" d="M477,-180C477,-180 346,-180 346,-180 340,-180 334,-174 334,-168 334,-168 334,-156 334,-156 334,-150 340,-144 346,-144 346,-144 477,-144 477,-144 483,-144 489,-150 489,-156 489,-156 489,-168 489,-168 489,-174 483,-180 477,-180"/>
<text text-anchor="middle" x="411.5" y="-159.5" font-family="sans" font-size="10.00">get_early2020_escape_fracs</text>
</g>
<!-- 3&#45;&gt;0 -->
<g id="edge10" class="edge">
<title>3&#45;&gt;0</title>
<path fill="none" stroke="grey" stroke-width="2" d="M411.09,-143.89C411.48,-124.61 414.78,-93.19 430.5,-72 440.46,-58.58 454.87,-48.13 469.52,-40.19"/>
<polygon fill="grey" stroke="grey" stroke-width="2" points="471.3,-43.22 478.63,-35.57 468.13,-36.97 471.3,-43.22"/>
</g>
<!-- 4 -->
<g id="node5" class="node">
<title>4</title>
<path fill="none" stroke="#56d87b" stroke-width="2" d="M525.5,-108C525.5,-108 451.5,-108 451.5,-108 445.5,-108 439.5,-102 439.5,-96 439.5,-96 439.5,-84 439.5,-84 439.5,-78 445.5,-72 451.5,-72 451.5,-72 525.5,-72 525.5,-72 531.5,-72 537.5,-78 537.5,-84 537.5,-84 537.5,-96 537.5,-96 537.5,-102 531.5,-108 525.5,-108"/>
<text text-anchor="middle" x="488.5" y="-87.5" font-family="sans" font-size="10.00">bind_expr_filters</text>
</g>
<!-- 3&#45;&gt;4 -->
<g id="edge12" class="edge">
<title>3&#45;&gt;4</title>
<path fill="none" stroke="grey" stroke-width="2" d="M430.53,-143.7C440.04,-135.05 451.71,-124.45 462.07,-115.03"/>
<polygon fill="grey" stroke="grey" stroke-width="2" points="464.64,-117.42 469.69,-108.1 459.93,-112.24 464.64,-117.42"/>
</g>
<!-- 4&#45;&gt;0 -->
<g id="edge5" class="edge">
<title>4&#45;&gt;0</title>
<path fill="none" stroke="grey" stroke-width="2" d="M497.89,-71.7C502.26,-63.64 507.56,-53.89 512.4,-44.98"/>
<polygon fill="grey" stroke="grey" stroke-width="2" points="515.52,-46.56 517.21,-36.1 509.37,-43.22 515.52,-46.56"/>
</g>
<!-- 5 -->
<g id="node6" class="node">
<title>5</title>
<path fill="none" stroke="#78d856" stroke-width="2" d="M589.5,-180C589.5,-180 519.5,-180 519.5,-180 513.5,-180 507.5,-174 507.5,-168 507.5,-168 507.5,-156 507.5,-156 507.5,-150 513.5,-144 519.5,-144 519.5,-144 589.5,-144 589.5,-144 595.5,-144 601.5,-150 601.5,-156 601.5,-156 601.5,-168 601.5,-168 601.5,-174 595.5,-180 589.5,-180"/>
<text text-anchor="middle" x="554.5" y="-159.5" font-family="sans" font-size="10.00">collapse_scores</text>
</g>
<!-- 5&#45;&gt;0 -->
<g id="edge4" class="edge">
<title>5&#45;&gt;0</title>
<path fill="none" stroke="grey" stroke-width="2" d="M554.33,-143.72C553.83,-125.63 552.11,-96.5 546.5,-72 544.5,-63.28 541.4,-54.06 538.22,-45.8"/>
<polygon fill="grey" stroke="grey" stroke-width="2" points="541.38,-44.26 534.39,-36.3 534.89,-46.88 541.38,-44.26"/>
</g>
<!-- 5&#45;&gt;4 -->
<g id="edge11" class="edge">
<title>5&#45;&gt;4</title>
<path fill="none" stroke="grey" stroke-width="2" d="M538.19,-143.7C530.19,-135.22 520.43,-124.86 511.68,-115.58"/>
<polygon fill="grey" stroke="grey" stroke-width="2" points="514.03,-112.98 504.63,-108.1 508.94,-117.78 514.03,-112.98"/>
</g>
<!-- 6 -->
<g id="node7" class="node">
<title>6</title>
<path fill="none" stroke="#56d8a2" stroke-width="2" d="M588.5,-252C588.5,-252 536.5,-252 536.5,-252 530.5,-252 524.5,-246 524.5,-240 524.5,-240 524.5,-228 524.5,-228 524.5,-222 530.5,-216 536.5,-216 536.5,-216 588.5,-216 588.5,-216 594.5,-216 600.5,-222 600.5,-228 600.5,-228 600.5,-240 600.5,-240 600.5,-246 594.5,-252 588.5,-252"/>
<text text-anchor="middle" x="562.5" y="-231.5" font-family="sans" font-size="10.00">fit_titrations</text>
</g>
<!-- 6&#45;&gt;0 -->
<g id="edge6" class="edge">
<title>6&#45;&gt;0</title>
<path fill="none" stroke="grey" stroke-width="2" d="M524.37,-230.17C463.61,-224.78 349.13,-210.71 324.5,-180 274.19,-117.26 393.49,-63.41 469.46,-36.79"/>
<polygon fill="grey" stroke="grey" stroke-width="2" points="470.64,-40.09 478.95,-33.52 468.36,-33.47 470.64,-40.09"/>
</g>
<!-- 6&#45;&gt;5 -->
<g id="edge14" class="edge">
<title>6&#45;&gt;5</title>
<path fill="none" stroke="grey" stroke-width="2" d="M560.52,-215.7C559.64,-207.98 558.58,-198.71 557.6,-190.11"/>
<polygon fill="grey" stroke="grey" stroke-width="2" points="561.07,-189.64 556.45,-180.1 554.11,-190.44 561.07,-189.64"/>
</g>
<!-- 7 -->
<g id="node8" class="node">
<title>7</title>
<path fill="none" stroke="#d8a456" stroke-width="2" d="M798.5,-468C798.5,-468 736.5,-468 736.5,-468 730.5,-468 724.5,-462 724.5,-456 724.5,-456 724.5,-444 724.5,-444 724.5,-438 730.5,-432 736.5,-432 736.5,-432 798.5,-432 798.5,-432 804.5,-432 810.5,-438 810.5,-444 810.5,-444 810.5,-456 810.5,-456 810.5,-462 804.5,-468 798.5,-468"/>
<text text-anchor="middle" x="767.5" y="-447.5" font-family="sans" font-size="10.00">build_variants</text>
</g>
<!-- 7&#45;&gt;0 -->
<g id="edge9" class="edge">
<title>7&#45;&gt;0</title>
<path fill="none" stroke="grey" stroke-width="2" d="M798.65,-431.88C835.96,-408.82 893.5,-364.02 893.5,-307 893.5,-307 893.5,-307 893.5,-161 893.5,-105.37 854.6,-98.15 805.5,-72 735.51,-34.72 643.33,-23.36 584.48,-20.07"/>
<polygon fill="grey" stroke="grey" stroke-width="2" points="584.41,-16.57 574.25,-19.56 584.06,-23.56 584.41,-16.57"/>
</g>
<!-- 7&#45;&gt;6 -->
<g id="edge16" class="edge">
<title>7&#45;&gt;6</title>
<path fill="none" stroke="grey" stroke-width="2" d="M724.39,-439.14C697.82,-431.22 664.54,-417.74 641.5,-396 602.1,-358.82 579.76,-297.8 569.5,-262.53"/>
<polygon fill="grey" stroke="grey" stroke-width="2" points="572.75,-261.16 566.69,-252.46 566,-263.04 572.75,-261.16"/>
</g>
<!-- 8 -->
<g id="node9" class="node">
<title>8</title>
<path fill="none" stroke="#56d8c9" stroke-width="2" d="M760,-324C760,-324 641,-324 641,-324 635,-324 629,-318 629,-312 629,-312 629,-300 629,-300 629,-294 635,-288 641,-288 641,-288 760,-288 760,-288 766,-288 772,-294 772,-300 772,-300 772,-312 772,-312 772,-318 766,-324 760,-324"/>
<text text-anchor="middle" x="700.5" y="-303.5" font-family="sans" font-size="10.00">aggregate_variant_counts</text>
</g>
<!-- 7&#45;&gt;8 -->
<g id="edge18" class="edge">
<title>7&#45;&gt;8</title>
<path fill="none" stroke="grey" stroke-width="2" d="M766.48,-431.71C764.78,-413.1 760.31,-383.06 748.5,-360 743.22,-349.68 735.4,-339.83 727.6,-331.49"/>
<polygon fill="grey" stroke="grey" stroke-width="2" points="730.02,-328.96 720.51,-324.28 725.03,-333.87 730.02,-328.96"/>
</g>
<!-- 9 -->
<g id="node10" class="node">
<title>9</title>
<path fill="none" stroke="#d87d56" stroke-width="2" d="M727,-396C727,-396 662,-396 662,-396 656,-396 650,-390 650,-384 650,-384 650,-372 650,-372 650,-366 656,-360 662,-360 662,-360 727,-360 727,-360 733,-360 739,-366 739,-372 739,-372 739,-384 739,-384 739,-390 733,-396 727,-396"/>
<text text-anchor="middle" x="694.5" y="-375.5" font-family="sans" font-size="10.00">count_variants</text>
</g>
<!-- 7&#45;&gt;9 -->
<g id="edge19" class="edge">
<title>7&#45;&gt;9</title>
<path fill="none" stroke="grey" stroke-width="2" d="M749.46,-431.7C740.44,-423.05 729.38,-412.45 719.56,-403.03"/>
<polygon fill="grey" stroke="grey" stroke-width="2" points="721.98,-400.5 712.34,-396.1 717.13,-405.55 721.98,-400.5"/>
</g>
<!-- 10 -->
<g id="node11" class="node">
<title>10</title>
<path fill="none" stroke="#56a2d8" stroke-width="2" d="M853,-252C853,-252 758,-252 758,-252 752,-252 746,-246 746,-240 746,-240 746,-228 746,-228 746,-222 752,-216 758,-216 758,-216 853,-216 853,-216 859,-216 865,-222 865,-228 865,-228 865,-240 865,-240 865,-246 859,-252 853,-252"/>
<text text-anchor="middle" x="805.5" y="-231.5" font-family="sans" font-size="10.00">calculate_expression</text>
</g>
<!-- 7&#45;&gt;10 -->
<g id="edge21" class="edge">
<title>7&#45;&gt;10</title>
<path fill="none" stroke="grey" stroke-width="2" d="M770.55,-431.85C777.13,-394.75 792.75,-306.81 800.69,-262.1"/>
<polygon fill="grey" stroke="grey" stroke-width="2" points="804.14,-262.69 802.44,-252.23 797.25,-261.47 804.14,-262.69"/>
</g>
<!-- 8&#45;&gt;0 -->
<g id="edge7" class="edge">
<title>8&#45;&gt;0</title>
<path fill="none" stroke="grey" stroke-width="2" d="M708.02,-287.77C720.5,-258.83 744.52,-201.49 748.5,-180 751.42,-164.27 756.57,-157.81 748.5,-144 713.3,-83.79 637.24,-50.33 584,-33.51"/>
<polygon fill="grey" stroke="grey" stroke-width="2" points="584.93,-30.13 574.34,-30.56 582.89,-36.82 584.93,-30.13"/>
</g>
<!-- 8&#45;&gt;6 -->
<g id="edge15" class="edge">
<title>8&#45;&gt;6</title>
<path fill="none" stroke="grey" stroke-width="2" d="M666.74,-287.88C648.28,-278.51 625.22,-266.81 605.48,-256.8"/>
<polygon fill="grey" stroke="grey" stroke-width="2" points="606.89,-253.59 596.39,-252.19 603.72,-259.83 606.89,-253.59"/>
</g>
<!-- 8&#45;&gt;10 -->
<g id="edge20" class="edge">
<title>8&#45;&gt;10</title>
<path fill="none" stroke="grey" stroke-width="2" d="M726.19,-287.88C739.79,-278.81 756.67,-267.55 771.36,-257.76"/>
<polygon fill="grey" stroke="grey" stroke-width="2" points="773.34,-260.65 779.72,-252.19 769.45,-254.82 773.34,-260.65"/>
</g>
<!-- 11 -->
<g id="node12" class="node">
<title>11</title>
<path fill="none" stroke="#56c9d8" stroke-width="2" d="M727,-180C727,-180 632,-180 632,-180 626,-180 620,-174 620,-168 620,-168 620,-156 620,-156 620,-150 626,-144 632,-144 632,-144 727,-144 727,-144 733,-144 739,-150 739,-156 739,-156 739,-168 739,-168 739,-174 733,-180 727,-180"/>
<text text-anchor="middle" x="679.5" y="-159.5" font-family="sans" font-size="10.00">counts_to_cells_ratio</text>
</g>
<!-- 8&#45;&gt;11 -->
<g id="edge22" class="edge">
<title>8&#45;&gt;11</title>
<path fill="none" stroke="grey" stroke-width="2" d="M697.97,-287.87C694.39,-263.67 687.81,-219.21 683.55,-190.39"/>
<polygon fill="grey" stroke="grey" stroke-width="2" points="686.97,-189.57 682.04,-180.19 680.04,-190.59 686.97,-189.57"/>
</g>
<!-- 9&#45;&gt;8 -->
<g id="edge17" class="edge">
<title>9&#45;&gt;8</title>
<path fill="none" stroke="grey" stroke-width="2" d="M695.98,-359.7C696.64,-351.98 697.44,-342.71 698.18,-334.11"/>
<polygon fill="grey" stroke="grey" stroke-width="2" points="701.67,-334.37 699.03,-324.1 694.69,-333.77 701.67,-334.37"/>
</g>
<!-- 10&#45;&gt;0 -->
<g id="edge2" class="edge">
<title>10&#45;&gt;0</title>
<path fill="none" stroke="grey" stroke-width="2" d="M808.66,-215.75C813.58,-183.02 818.95,-111.65 781.5,-72 755.03,-43.98 650.71,-29.77 583.98,-23.41"/>
<polygon fill="grey" stroke="grey" stroke-width="2" points="584.29,-19.92 574.01,-22.49 583.65,-26.89 584.29,-19.92"/>
</g>
<!-- 10&#45;&gt;5 -->
<g id="edge13" class="edge">
<title>10&#45;&gt;5</title>
<path fill="none" stroke="grey" stroke-width="2" d="M745.97,-217.12C707.53,-206.77 656.49,-192.85 611.5,-180 611.4,-179.97 611.3,-179.94 611.2,-179.91"/>
<polygon fill="grey" stroke="grey" stroke-width="2" points="612.33,-176.6 601.75,-177.18 610.39,-183.32 612.33,-176.6"/>
</g>
<!-- 11&#45;&gt;0 -->
<g id="edge8" class="edge">
<title>11&#45;&gt;0</title>
<path fill="none" stroke="grey" stroke-width="2" d="M661.04,-143.87C633.93,-118.71 583.23,-71.65 552.4,-43.04"/>
<polygon fill="grey" stroke="grey" stroke-width="2" points="554.73,-40.43 545.02,-36.19 549.97,-45.56 554.73,-40.43"/>
</g>
</g>
</svg>
